<svg width="1920" height="600" viewBox="0 0 1920 600" fill="none" xmlns="http://www.w3.org/2000/svg">
<g clip-path="url(#clip0_425_86099)">
<path fill-rule="evenodd" clip-rule="evenodd" d="M1864.78 13.5692C1865.56 15.8274 1867.54 16.8865 1868.62 18.8449C1869 23.701 1866.46 25.6394 1864.3 27.9575C1866.4 30.9151 1868.14 36.2109 1866.7 40.4274C1865.28 44.6041 1859.34 44.1045 1856.14 46.1828C1854.8 45.6232 1853.64 45.6232 1852.3 46.1828C1849.88 43.8047 1847.68 41.2068 1845.58 38.509C1846.28 29.0766 1854.38 21.1431 1863.34 26.9983C1864.78 24.92 1866.1 22.7218 1867.18 20.2838C1866.42 17.6859 1864.66 16.0872 1862.38 15.008C1861.68 15.8673 1862.28 16.4669 1861.9 18.3653C1860.02 18.5652 1859.38 20.004 1857.58 20.2838C1857.86 17.6059 1856.48 16.5868 1856.62 14.0488C1858.16 14.2686 1858.74 15.9273 1858.54 13.0896C1859.88 13.0097 1859.92 14.2686 1859.98 15.4877C1861.24 15.6275 1860.36 13.6292 1861.9 14.0488C1858.24 8.83305 1848.82 13.789 1848.94 20.7634C1850.42 19.3645 1851.16 17.2262 1852.3 15.4877C1853.54 18.6651 1848.1 21.283 1848.94 24.1207C1851.36 23.1814 1851.42 19.8841 1853.74 18.8449C1854.7 21.6027 1852.82 25.7993 1849.9 24.6003C1850.06 26.2989 1851.22 25.7793 1850.38 27.4779C1848.78 26.8385 1848.7 24.6802 1847.02 24.1207C1842.19 26.199 1836.03 24.3605 1833.09 21.7226C1833.49 18.4453 1831.47 17.586 1831.17 15.008C1832.97 8.33346 1840.21 2.49819 1848.46 5.41582C1851.86 -6.69436 1873.93 3.91704 1864.78 13.5692ZM1843.66 10.6915C1843.68 8.75312 1843.52 6.99454 1842.21 6.37504C1841.37 7.59406 1842.45 10.0521 1843.66 10.6915C1843.24 11.0712 1843.38 12.0105 1842.69 12.1304C1841.71 11.9905 1842.23 10.3518 1841.25 10.2119C1840.67 10.2519 1840.95 9.5125 1841.25 10.2119C1839.93 11.2711 1843.6 13.9089 1841.25 14.5284C1839.73 13.0097 1839.63 10.072 1838.37 8.29349C1835.97 8.55328 1833.49 13.5093 1835.01 14.5284C1835.27 13.829 1834.45 12.0504 1835.49 12.1304C1836.69 13.6292 1836.81 18.3054 1836.45 19.8042C1839.09 19.7242 1835.73 13.6491 1838.37 13.5692C1838.67 15.1879 1837.75 18.0256 1838.85 18.8449C1840.29 18.1455 1842.49 14.3885 1843.66 16.4469C1842.65 18.805 1838.93 18.4453 1838.37 21.243C1837.25 20.5436 1837.29 20.044 1836.45 21.243C1835.79 20.4636 1836.05 18.765 1835.01 18.3653C1835.03 19.5044 1834.19 19.7842 1834.53 21.243C1837.55 22.8417 1842.53 24.5603 1847.02 23.1614C1846.42 20.8833 1848.2 17.9057 1848.46 15.008C1849.96 13.1296 1854.8 12.0904 1854.7 10.2119C1854.58 10.8114 1853.74 10.6915 1853.74 10.2119C1854.08 7.99373 1854.98 6.33508 1856.62 5.41582C1856.94 7.33427 1855.36 7.33427 1855.66 9.25271C1854.96 9.55247 1855.7 9.83224 1855.66 9.25271C1855.82 9.25271 1855.98 9.25271 1856.14 9.25271C1856.44 8.11363 1856.78 7.01453 1858.06 6.85465C1858.6 8.87302 1855.94 10.132 1857.1 11.1712C1859.24 8.59325 1861.8 11.6508 1863.82 12.1304C1869.74 2.95781 1851.88 -3.01734 1849.42 6.37504C1850.48 6.75474 1850.04 8.63321 1851.34 8.7731C1852.48 6.87464 1852.42 3.77715 1854.7 3.01777C1854.22 7.05449 1851.1 8.67318 1851.34 12.1304C1849.58 9.93216 1847.5 3.89705 1843.66 6.85465C1844.64 6.99454 1844.6 8.1536 1845.58 8.29349C1845.42 7.33427 1845.68 6.7947 1846.54 6.85465C1846.1 9.21274 1847.94 11.0313 1846.06 12.1304C1844.92 11.7307 1844.28 12.3502 1843.66 10.6915ZM1840.29 7.81388C1840.45 10.7315 1841.23 5.99535 1840.29 7.81388V7.81388ZM1832.61 15.4877C1832.41 15.2878 1832.93 15.8074 1832.61 15.4877V15.4877ZM1833.09 16.4469C1832.89 16.247 1833.41 16.7666 1833.09 16.4469V16.4469ZM1834.53 17.4061C1835.09 15.5276 1835.09 19.3046 1834.53 17.4061V17.4061ZM1860.46 17.4061C1861.02 15.5276 1861.02 19.3046 1860.46 17.4061V17.4061ZM1858.54 17.8857C1858.34 17.6859 1858.86 18.2055 1858.54 17.8857V17.8857ZM1851.34 34.6721C1851.46 36.071 1850.26 36.1509 1850.38 37.5498C1849.68 37.8495 1850.42 38.1293 1850.38 37.5498C1851 37.3899 1851.14 36.7104 1851.82 36.5905C1852.12 38.6489 1850.26 38.549 1850.38 40.4274C1852.42 40.5473 1851.22 37.4299 1853.26 37.5498C1853.84 40.2476 1849.3 41.7064 1851.82 43.3051C1856.46 46.5825 1860.62 41.2668 1863.34 39.4682C1863.14 40.2676 1861.08 41.6265 1862.38 42.3459C1866.56 39.708 1865.96 25.8393 1859.98 27.9575C1860.86 28.5171 1860.36 30.4555 1860.94 31.3148C1859.24 31.6945 1858.72 33.2533 1856.62 33.2333C1856.12 31.4947 1854.94 30.4355 1854.7 28.4372C1856 28.0974 1855.66 29.3964 1856.62 29.3964C1856.86 27.8976 1855.48 27.438 1857.1 26.9983C1857.92 27.2981 1857.9 28.4372 1858.54 28.9168C1858.08 30.9151 1859.98 29.0167 1858.54 28.9168C1858.54 28.1174 1858.54 27.3181 1858.54 26.5187C1853.06 25.0999 1847.24 32.7337 1847.5 38.509C1849.4 37.8495 1849.38 35.2716 1851.34 34.6721ZM1857.1 30.3556C1856.64 32.354 1858.54 30.4555 1857.1 30.3556C1856.52 30.4156 1856.82 29.6762 1857.1 30.3556ZM1849.42 38.9886C1849.04 39.0885 1848.48 39.0086 1848.46 39.4682C1848.84 39.3683 1849.42 39.4682 1849.42 38.9886ZM1860.94 42.8255C1860.74 42.6257 1861.26 43.1452 1860.94 42.8255V42.8255Z" fill="#FDFEFF" fill-opacity="0.13"/>
<path fill-rule="evenodd" clip-rule="evenodd" d="M1854.7 15.4875C1856.76 16.147 1857.16 18.4651 1857.1 21.2429C1854.88 19.9839 1855.02 17.1262 1854.7 15.4875Z" fill="#FDFEFF" fill-opacity="0.13"/>
<path fill-rule="evenodd" clip-rule="evenodd" d="M1843.18 18.845C1842.67 20.4237 1841.83 21.6627 1839.81 21.7226C1839.77 19.6044 1841.87 19.6243 1843.18 18.845Z" fill="#FDFEFF" fill-opacity="0.13"/>
<path fill-rule="evenodd" clip-rule="evenodd" d="M1862.86 19.8042C1861.98 21.0032 1861.98 23.0815 1859.98 23.1615C1860.36 21.4629 1861.1 20.1239 1862.86 19.8042Z" fill="#FDFEFF" fill-opacity="0.13"/>
<path fill-rule="evenodd" clip-rule="evenodd" d="M1810.52 52.8974C1807.9 50.3994 1804.16 49.0205 1804.76 43.3052C1802.76 41.6265 1799.46 41.2469 1797.56 39.4683C1793.32 26.239 1814.11 15.208 1817.73 31.3149C1830.83 35.4516 1825.43 54.676 1810.52 52.8974ZM1805.24 28.9168C1805.4 28.9168 1805.56 28.9168 1805.72 28.9168C1806.1 28.4972 1806.24 27.8377 1806.2 26.9984C1807.04 26.5588 1807.08 25.3198 1807.64 24.6003C1805.76 24.0008 1806.22 25.7394 1806.2 26.9984C1806.04 26.9984 1805.88 26.9984 1805.72 26.9984C1805.36 27.438 1805.22 28.0975 1805.24 28.9168C1805.08 28.9168 1804.92 28.9168 1804.76 28.9168C1803.96 27.3381 1805.02 26.7986 1805.72 25.5596C1801.54 26.6587 1800.06 30.4556 1799 34.6722C1800.3 33.2933 1801.28 31.7545 1802.84 33.713C1803.06 32.8137 1802.18 30.8153 1803.8 31.3149C1803.4 33.3133 1804.74 33.5731 1804.76 35.1518C1803.54 35.6714 1803.08 33.0935 1802.36 34.6722C1803.52 34.952 1803.42 36.4907 1803.8 37.5499C1801.96 37.31 1802.26 39.2085 1799.96 38.5091C1799.4 37.4699 1799.86 35.4116 1798.52 35.1518C1797.24 38.7888 1801.6 40.1877 1804.28 41.3867C1804.48 35.9711 1809.88 32.0943 1815.81 30.8353C1815.13 26.7186 1812.53 24.5204 1808.12 24.1207C1808.72 26.6587 1805.82 28.1974 1807.16 29.8761C1807.58 28.2174 1808.32 26.8785 1809.08 25.5596C1810.1 26.7786 1810.88 29.3965 1809.08 31.3149C1807.7 29.8961 1808.24 32.5139 1806.68 32.2741C1807.32 29.2766 1805.62 31.6147 1804.76 30.3557C1805.02 29.976 1805.26 29.5763 1805.24 28.9168ZM1806.68 39.4683C1805.24 40.0478 1807.2 42.0262 1806.68 39.4683C1808.8 38.0095 1806.42 41.2469 1807.64 41.3867C1808.48 40.4675 1808.2 38.4291 1810.04 38.5091C1810.1 39.3684 1809.46 39.5282 1809.56 40.4275C1808.12 40.5274 1810.02 42.4259 1809.56 40.4275C1810.12 40.3476 1810.42 40.5274 1810.52 40.9071C1810.08 43.8248 1808.28 45.3835 1807.64 48.1013C1809.88 46.9822 1809.64 43.3851 1811.48 41.8664C1811.86 45.7632 1809.16 46.5825 1809.08 50.0197C1811.9 52.5977 1816.03 50.1396 1819.65 49.5401C1832.71 40.5474 1812.61 23.9809 1806.68 38.9887C1806.68 39.1486 1806.68 39.3084 1806.68 39.4683ZM1806.68 43.3052C1806.74 42.7456 1807.54 42.2261 1806.68 41.8664C1806.62 42.4459 1805.84 42.9655 1806.68 43.3052ZM1807.64 44.744C1807.78 44.1845 1809.58 42.9255 1808.12 42.346C1808.14 43.0654 1806.34 44.3244 1807.64 44.744ZM1806.68 45.7032C1807.24 43.8248 1807.24 47.6017 1806.68 45.7032V45.7032Z" fill="#FDFEFF" fill-opacity="0.13"/>
<path fill-rule="evenodd" clip-rule="evenodd" d="M1886.39 44.7438C1874.27 30.5154 1904.27 18.7649 1903.19 38.9885C1900.67 44.2642 1891.85 46.6023 1886.39 44.7438ZM1896.47 28.9167C1890.23 28.9766 1882.61 33.473 1886.39 38.9885C1888.07 37.6296 1888.81 35.3315 1891.19 34.672C1890.43 37.4298 1888.31 38.8286 1886.39 40.4273C1888.91 47.5216 1893.35 42.5256 1896.47 39.9477C1897.03 41.5064 1893.09 42.4657 1895.51 42.8254C1897.97 41.6064 1900.97 40.9269 1901.75 38.0293C1901.19 33.8127 1898.91 31.2947 1896.47 28.9167Z" fill="#FDFEFF" fill-opacity="0.13"/>
<path fill-rule="evenodd" clip-rule="evenodd" d="M1811.48 27.9575C1812.88 28.3572 1811.2 29.4963 1811.48 30.3556C1810.36 30.2357 1811.22 28.2573 1811.48 27.9575Z" fill="#FDFEFF" fill-opacity="0.13"/>
<path fill-rule="evenodd" clip-rule="evenodd" d="M1804.76 28.917C1804.76 29.3966 1803.92 29.5165 1803.8 28.917C1804.12 28.917 1804.44 28.917 1804.76 28.917Z" fill="#FDFEFF" fill-opacity="0.13"/>
<path fill-rule="evenodd" clip-rule="evenodd" d="M1852.78 29.3965C1855.2 29.8561 1855.02 32.9136 1856.14 34.6722C1852.86 36.3908 1852.34 32.3741 1851.34 30.3557C1852.32 30.5356 1852.84 30.2758 1852.78 29.3965Z" fill="#FDFEFF" fill-opacity="0.13"/>
<path fill-rule="evenodd" clip-rule="evenodd" d="M1897.43 33.7129C1897.43 34.0326 1897.43 34.3524 1897.43 34.6721C1898.05 34.5522 1897.93 33.7329 1897.43 33.7129C1897.43 33.0734 1897.43 32.4339 1897.43 31.7944C1899.31 31.8344 1898.67 34.3923 1899.35 35.6313C1898.49 35.9111 1897.35 34.2325 1896.95 35.6313C1895.63 35.1117 1895.01 32.1541 1895.99 30.8352C1897.27 31.0151 1896.43 33.2932 1897.43 33.7129Z" fill="#FDFEFF" fill-opacity="0.13"/>
<path fill-rule="evenodd" clip-rule="evenodd" d="M1889.27 31.7945C1889.83 31.7146 1890.13 31.8945 1890.23 32.2742C1889.91 34.5123 1888.63 35.7913 1886.39 36.111C1886.89 34.2126 1888.45 33.3733 1889.27 31.7945Z" fill="#FDFEFF" fill-opacity="0.13"/>
<path fill-rule="evenodd" clip-rule="evenodd" d="M1892.15 32.274C1893.61 32.254 1894.01 33.2931 1895.03 33.7128C1894.65 35.3715 1895.75 35.5513 1895.51 37.0701C1892.61 35.8511 1890.99 38.9885 1889.75 40.907C1891.23 41.8862 1891.33 37.3698 1894.07 38.0293C1893.49 40.1676 1891.45 40.847 1890.71 42.8254C1889.97 42.126 1888.83 41.8262 1887.83 41.3866C1888.99 39.1884 1890.21 37.0501 1892.63 36.1109C1891.89 35.4314 1892.21 33.6728 1892.15 32.274Z" fill="#FDFEFF" fill-opacity="0.13"/>
<path fill-rule="evenodd" clip-rule="evenodd" d="M1849.42 34.1925C1848.96 32.2141 1850.86 34.1126 1849.42 34.1925V34.1925Z" fill="#FDFEFF" fill-opacity="0.13"/>
<path fill-rule="evenodd" clip-rule="evenodd" d="M1813.89 38.509C1812.16 38.6489 1812.59 36.6105 1811 36.5906C1812.3 35.3316 1813.53 33.9927 1815.81 33.7129C1815.85 35.3516 1814.39 35.4914 1813.41 36.1109C1813.81 37.5098 1814.61 35.4914 1815.81 36.1109C1815.47 37.2101 1813.99 37.1701 1813.89 38.509Z" fill="#FDFEFF" fill-opacity="0.13"/>
<path fill-rule="evenodd" clip-rule="evenodd" d="M1849.42 34.1924C1848.74 34.4921 1849.48 34.7719 1849.42 34.1924V34.1924Z" fill="#FDFEFF" fill-opacity="0.13"/>
<path fill-rule="evenodd" clip-rule="evenodd" d="M1851.34 34.6721C1851.3 34.0926 1852.04 34.3923 1851.34 34.6721V34.6721Z" fill="#FDFEFF" fill-opacity="0.13"/>
<path fill-rule="evenodd" clip-rule="evenodd" d="M1859.98 35.6312C1859.3 35.931 1860.04 36.2107 1859.98 35.6312C1860.94 35.6312 1860.6 34.3323 1861.9 34.672C1861.8 37.5896 1861.16 39.1484 1859.98 41.8662C1858.7 41.8662 1858.94 40.3474 1857.58 40.4273C1857.56 39.7679 1857.8 39.3682 1858.06 38.9885C1857.64 37.5696 1857.34 40.1076 1856.14 39.4681C1857.6 37.8894 1857.64 34.8918 1859.98 34.1924C1859.98 34.672 1859.98 35.1516 1859.98 35.6312ZM1859.02 37.07C1858.82 36.8702 1859.34 37.3898 1859.02 37.07V37.07ZM1858.06 38.0293C1857.86 37.8294 1858.38 38.349 1858.06 38.0293V38.0293ZM1859.02 38.9885C1859.58 37.11 1859.58 40.887 1859.02 38.9885V38.9885Z" fill="#FDFEFF" fill-opacity="0.13"/>
<path fill-rule="evenodd" clip-rule="evenodd" d="M1851.82 36.5905C1851.78 36.011 1852.52 36.3108 1851.82 36.5905V36.5905Z" fill="#FDFEFF" fill-opacity="0.13"/>
<path fill-rule="evenodd" clip-rule="evenodd" d="M1816.29 40.907C1815.61 41.2067 1816.35 41.4865 1816.29 40.907C1817.45 41.1068 1817.33 40.0277 1818.69 40.4274C1817.97 41.1468 1817.83 42.4457 1816.77 42.8254C1814.85 42.3458 1813.37 41.4266 1813.89 38.5089C1815.35 38.469 1816.39 36.7504 1817.73 38.0293C1817.75 39.4881 1816.73 39.9078 1816.29 40.907Z" fill="#FDFEFF" fill-opacity="0.13"/>
<path fill-rule="evenodd" clip-rule="evenodd" d="M1851.82 43.305C1851.82 42.146 1853.18 39.9278 1853.74 40.907C1853.78 42.4457 1852.98 44.4041 1851.82 43.305Z" fill="#FDFEFF" fill-opacity="0.13"/>
<path fill-rule="evenodd" clip-rule="evenodd" d="M1812.93 46.1828C1812.24 46.4826 1812.99 46.7624 1812.93 46.1828C1813.91 46.043 1813.89 44.9039 1814.37 44.2644C1815.07 44.5042 1815.57 44.9838 1816.29 45.2236C1816.39 46.1229 1815.75 46.2828 1815.81 47.1421C1817.07 47.282 1816.19 45.2836 1817.73 45.7032C1818.25 47.5018 1816.53 47.0621 1816.77 48.5809C1814.09 49.0605 1813.65 48.8607 1812.44 50.4993C1811.6 50.0597 1811.04 49.3403 1810.04 49.0605C1810.88 47.0222 1811.68 44.9438 1812.93 43.3052C1814.39 43.9047 1812.4 44.9638 1812.93 46.1828ZM1811.96 48.1013C1811.76 47.9014 1812.28 48.421 1811.96 48.1013V48.1013ZM1813.41 48.1013C1813.21 47.9014 1813.73 48.421 1813.41 48.1013V48.1013ZM1815.33 48.1013C1815.13 47.9014 1815.65 48.421 1815.33 48.1013V48.1013Z" fill="#FDFEFF" fill-opacity="0.13"/>
<path fill-rule="evenodd" clip-rule="evenodd" d="M1907.52 74.0001C1905.2 71.3623 1900.97 70.6229 1899.35 67.2856C1896.63 57.4935 1906.12 51.7581 1916.16 54.8157C1917.66 56.5143 1919.14 58.2329 1920 60.571C1920.04 69.244 1914.2 72.0417 1907.52 74.0001ZM1914.72 55.7749C1907.88 54.7557 1902.79 56.4943 1900.79 61.5302C1902.59 60.6709 1902.35 63.9283 1903.67 64.8875C1904.03 63.2089 1902.21 61.2704 1903.67 60.0914C1904.9 61.1106 1904.84 63.4087 1905.12 65.3671C1906.84 67.0058 1910.66 66.5462 1910.88 69.6836C1906.62 70.1033 1906 66.8859 1903.67 65.3671C1902.89 69.4838 1909.34 69.3839 1907.04 72.0817C1915.36 71.9818 1921.96 61.5102 1914.72 55.7749ZM1903.67 68.2448C1902.47 67.3655 1902.49 65.2872 1901.27 64.4079C1900.71 66.766 1902.37 69.3839 1903.67 68.2448Z" fill="#FDFEFF" fill-opacity="0.13"/>
<path fill-rule="evenodd" clip-rule="evenodd" d="M1907.52 57.6934C1909.54 57.9132 1908.82 60.8708 1909.44 62.4895C1907.9 61.81 1907.46 60.0115 1907.52 57.6934Z" fill="#FDFEFF" fill-opacity="0.13"/>
<path fill-rule="evenodd" clip-rule="evenodd" d="M1912.32 62.4896C1911.44 63.209 1911.2 64.5679 1910.4 65.3673C1909.98 63.5088 1911.26 59.2123 1913.28 58.1731C1913.54 60.1915 1912.44 60.8509 1912.32 62.4896Z" fill="#FDFEFF" fill-opacity="0.13"/>
<path fill-rule="evenodd" clip-rule="evenodd" d="M1905.12 59.1323C1907.48 59.492 1906.02 63.6687 1908 64.4081C1905.68 65.9268 1905.18 61.5104 1905.12 59.1323Z" fill="#FDFEFF" fill-opacity="0.13"/>
<path fill-rule="evenodd" clip-rule="evenodd" d="M1914.72 62.0099C1914.32 61.9299 1914.26 62.1897 1914.24 62.4895C1914.08 62.4895 1913.92 62.4895 1913.76 62.4895C1913.86 63.029 1914.24 62.7493 1914.24 62.4895C1914.66 62.5894 1914.7 62.3096 1914.72 62.0099C1915.34 61.9899 1915.38 61.3904 1916.16 61.5303C1915.58 63.2089 1915.28 65.1273 1913.28 65.3671C1913.22 64.7876 1913.14 64.2281 1912.32 64.4079C1912.32 63.7684 1912.32 63.129 1912.32 62.4895C1914.16 62.0898 1913.08 58.7725 1915.68 59.1322C1915.82 60.5511 1914.6 60.611 1914.72 62.0099Z" fill="#FDFEFF" fill-opacity="0.13"/>
</g>
<path d="M913.106 189.965C911.837 190.533 910.534 191.022 909.205 191.43C907.458 192.183 905.659 192.809 903.822 193.302C901.997 193.635 900.154 193.862 898.302 193.984C898.106 194.012 897.907 193.976 897.734 193.882C897.561 193.787 897.423 193.639 897.341 193.459C897.239 193.274 897.2 193.06 897.231 192.851C897.261 192.641 897.359 192.448 897.509 192.299L899.305 190.233C898.689 190.29 898.112 190.557 897.669 190.989C894.25 194.034 890.343 196.46 886.974 199.572C884.925 201.542 882.657 203.287 880.688 205.328C878.508 207.261 876.61 209.489 875.046 211.947C874.877 212.202 874.625 212.39 874.332 212.48C873.148 213.055 872.106 213.885 871.283 214.913C871.125 215.117 870.924 215.283 870.695 215.401C870.465 215.519 870.213 215.585 869.955 215.594C869.115 215.68 868.28 215.811 867.454 215.988C867.217 216.05 866.967 216.041 866.735 215.96C866.504 215.879 866.302 215.73 866.157 215.533C865.822 215.085 865.931 214.641 866.205 214.177C866.752 213.431 867.373 212.741 868.059 212.12C870.308 209.778 872.401 207.29 874.324 204.673C875.475 203.229 876.718 201.86 878.044 200.575C879.548 198.882 880.705 196.931 882.251 195.259C884.346 192.97 887.024 191.254 889.26 189.223C889.558 189.063 889.797 188.812 889.941 188.507C888.942 188.684 887.984 189.048 887.119 189.579C885.58 190.6 884.16 191.791 882.886 193.129C881.768 194.404 880.356 195.355 879.139 196.497C878.927 196.615 878.731 196.761 878.557 196.931C878.214 197.557 877.674 198.051 877.02 198.338C875.742 199.071 874.398 199.685 873.006 200.171C872.744 200.24 872.502 200.369 872.299 200.548C872.095 200.727 871.936 200.95 871.835 201.201C870.615 203.355 868.945 205.22 866.938 206.669C864.4 208.85 861.949 211.146 859.307 213.223C856.146 215.914 852.817 218.4 849.339 220.667C846.553 222.308 844.028 224.298 841.234 225.893C840.152 226.5 839.035 227.04 837.888 227.512C836.001 228.507 834.174 229.613 832.416 230.822C830.329 232.259 828.025 233.351 825.592 234.056C824.024 234.347 822.525 235.286 820.88 234.677C818.787 233.989 818.503 233.192 819.776 231.362C820.336 230.531 821.113 229.87 822.023 229.451C822.151 229.38 822.268 229.293 822.372 229.19C824.342 227.507 826.539 226.11 828.899 225.04C831.731 223.391 834.463 221.609 837.27 219.926C839.055 218.852 840.952 217.927 842.849 217.002C844.107 216.399 845.22 215.567 846.432 214.869C848.118 213.869 849.94 213.155 851.663 212.204C855.403 210.109 859.074 207.886 862.612 205.45C863.627 204.843 864.545 204.087 865.337 203.208L863.303 203.951C860.349 205.019 857.328 205.826 854.262 206.641C853.98 206.674 853.712 206.781 853.484 206.951C853.257 207.121 853.078 207.348 852.966 207.609C852.855 207.783 852.683 207.911 852.484 207.968C850.866 208.504 849.512 209.567 847.951 210.215L840.249 213.381C839.308 213.852 838.396 214.378 837.517 214.955C833.909 217.055 830.479 219.047 827.091 221.267C825.461 222.29 823.916 223.444 822.473 224.716C820.694 226.532 818.582 227.986 816.252 229C815.531 229.318 814.861 229.74 814.263 230.252C813.806 230.559 813.266 230.719 812.715 230.71C812.463 230.74 812.209 230.674 812.003 230.527C811.797 230.379 811.654 230.16 811.601 229.911C811.319 229.246 811.216 228.518 811.302 227.801C811.388 227.083 811.66 226.4 812.091 225.82C814.207 223.026 816.923 220.741 820.038 219.134L824.16 216.961C823.37 216.898 822.575 217.022 821.841 217.322C818.335 218.31 814.722 218.913 811.298 220.254C809.29 221.029 807.235 221.917 805.206 222.734C804.117 223.194 802.955 223.457 801.775 223.511C801.505 223.539 801.232 223.493 800.985 223.379C800.739 223.265 800.527 223.087 800.374 222.863C800.22 222.639 800.129 222.378 800.111 222.107C800.092 221.836 800.147 221.565 800.27 221.323C800.904 220.03 802.015 219.033 803.369 218.542C809.227 215.683 815.425 213.584 821.814 212.296C822.219 212.193 822.618 212.068 823.01 211.921C821.401 211.881 819.783 211.898 818.204 211.862C812.985 211.737 807.818 210.794 802.892 209.067C801.383 208.464 799.944 207.7 798.6 206.786C798.186 206.505 797.85 206.123 797.624 205.675C797.399 205.228 797.291 204.73 797.312 204.23C797.321 203.815 797.468 203.416 797.729 203.095C797.99 202.773 798.351 202.547 798.755 202.454C799.586 202.331 800.434 202.465 801.188 202.836C802.994 203.506 804.762 204.277 806.483 205.143C807.718 205.571 808.977 205.927 810.254 206.208C813.501 207.331 816.837 208.18 820.226 208.748C821.73 208.995 823.31 209.032 824.807 209.13C828.663 209.2 832.52 209.016 836.352 208.58C837.864 208.5 839.361 208.25 840.816 207.834C840.929 207.791 841.049 207.771 841.17 207.775C841.291 207.779 841.41 207.807 841.519 207.858C841.629 207.908 841.728 207.98 841.81 208.069C841.892 208.157 841.955 208.262 841.997 208.375C842.183 208.624 842.269 208.741 842.61 208.642C844.854 207.974 847.165 207.568 849.443 207.083C850.052 206.964 850.048 206.993 850.266 206.106L846.826 206.942C846.258 207.081 845.51 207.743 845.501 206.379C845.489 205.948 845.041 206.179 844.771 206.2C843.104 206.254 841.478 206.641 839.848 206.538C835.963 206.361 832.065 206.27 828.193 205.799C824.321 205.327 819.948 204.634 815.84 204.158C814.537 203.91 813.262 203.537 812.031 203.043C810.352 202.756 808.722 202.231 807.191 201.483C805.342 200.535 803.58 199.427 801.924 198.172C801.408 197.801 801.042 197.259 800.89 196.643C800.737 196.026 800.81 195.376 801.093 194.808C801.345 194.329 801.719 193.926 802.177 193.639C802.635 193.351 803.16 193.19 803.701 193.171C806.124 192.985 808.556 193.388 810.789 194.345C814.175 195.414 817.489 196.664 820.946 197.55C826.562 199.133 832.269 200.375 838.035 201.269C841.824 201.803 845.604 202.395 849.418 202.858C851.661 203.124 853.967 202.954 856.172 203.377C858.119 203.532 860.072 203.171 861.835 202.331C864.843 201.403 867.794 200.261 870.777 199.197C871.164 199.126 871.532 198.976 871.858 198.755C872.183 198.535 872.459 198.248 872.667 197.915C872.747 197.767 872.858 197.638 872.993 197.537C873.128 197.437 873.283 197.366 873.448 197.332C875.035 196.925 876.503 196.147 877.732 195.063L880.357 193.103C880.556 192.954 880.888 192.706 880.748 192.449C880.607 192.191 880.197 192.369 879.943 192.48C876.394 193.839 872.749 194.935 869.039 195.76C866.643 196.244 864.222 196.601 861.788 196.828C861.015 196.904 860.248 197.035 859.494 197.222C856.733 197.679 853.94 197.913 851.141 197.923C847.762 198.24 844.36 198.233 840.982 197.903C838.192 197.633 835.331 197.544 832.528 197.257C832.458 196.921 832.637 196.813 832.815 196.81C834.449 196.883 836.091 197.106 837.745 197.035C839.221 197.213 840.707 197.305 842.194 197.309C842.679 197.231 843.346 197.638 843.96 197.698C846.125 197.773 848.292 197.66 850.438 197.362C852.437 197.266 854.439 197.245 856.426 197.029C857.783 196.847 859.123 196.556 860.434 196.158C861.077 196.043 861.734 196.024 862.383 196.1C863.942 195.984 865.49 195.737 867.008 195.362C868.364 195.099 869.705 194.745 871.09 194.487C873.182 194.15 875.212 193.506 877.115 192.574C878.045 192.087 879.285 192.015 880.194 191.569C881.103 191.123 882.709 190.57 883.855 189.818C884.453 189.371 885.323 189.704 885.889 189.075C885.777 188.926 885.64 188.95 885.516 188.991C882.694 189.871 879.781 190.423 876.833 190.637C872.885 190.999 869.171 192.091 865.376 192.622C861.243 193.371 857.072 193.894 852.882 194.19C850.038 194.297 847.197 194.374 844.36 194.526C846.522 194.128 848.711 194.046 850.905 193.83C853.348 193.746 855.779 193.454 858.172 192.957C860.633 192.324 863.131 191.85 865.652 191.536C869.729 190.897 873.762 189.956 877.905 189.578C880.783 189.226 883.626 188.627 886.401 187.787C887.3 187.496 888.178 187.143 889.028 186.73C888.979 186.456 888.867 186.514 888.755 186.572C886.412 187.381 883.954 187.811 881.475 187.843C877.61 188.143 873.761 188.43 870.044 189.239C867.543 189.673 865.015 189.935 862.478 190.025C860.181 190.194 857.9 190.547 855.659 191.082C853.079 191.612 850.474 191.797 847.853 192.099C843.877 192.377 839.928 192.964 836.043 193.855C833.77 194.498 831.464 195.019 829.136 195.417C828.862 195.467 828.431 195.478 828.471 195.914C828.512 196.349 828.844 196.412 829.183 196.521C829.523 196.629 829.78 196.592 830.074 196.916C829.291 197.062 828.486 197.027 827.719 196.812C827.598 196.782 827.491 196.711 827.416 196.611C827.341 196.511 827.304 196.389 827.31 196.264C827.321 195.989 827.399 195.721 827.537 195.483C827.674 195.245 827.868 195.044 828.1 194.897C828.802 194.411 829.663 194.213 830.507 194.342C831.154 194.468 831.826 194.36 832.402 194.039C834.165 193.142 836.116 192.678 838.094 192.686C840.587 192.558 842.893 192.181 845.374 191.829C847.439 191.58 849.472 191.356 851.574 191.157C854.262 190.805 856.938 190.334 859.621 190.011C862.305 189.689 864.263 189.572 866.577 189.345C868.891 189.117 871.086 188.694 873.342 188.354C875.08 188.117 876.822 188.058 878.547 187.805C880.273 187.551 881.708 187.359 883.297 187.233C885.765 186.847 888.208 186.31 890.611 185.626C891.1 185.519 891.512 185.134 892.067 185.185C892.623 185.236 892.523 185.207 892.643 185.402C892.763 185.597 892.572 185.792 892.43 185.949C892.032 186.532 891.478 186.991 890.831 187.273C890.682 187.384 890.354 187.396 890.49 187.682C890.626 187.969 890.93 187.82 891.096 187.696C892.362 186.807 893.704 186.029 895.106 185.374C897.804 184.031 900.255 182.253 903.036 181.056C904.808 180.275 906.621 179.62 908.402 178.885C908.651 178.699 909.057 178.758 909.265 178.447C908.266 178.425 907.266 178.463 906.271 178.562C902.919 179.098 899.515 179.079 896.159 179.541L890.062 180.421C889.713 180.474 889.402 180.577 889.105 180.179C888.807 179.78 888.364 179.568 888.416 180.435C888.427 180.762 888.133 180.646 888 180.745C884.968 181.12 881.986 181.666 878.941 181.921C876.81 182.116 874.682 182.386 872.558 182.627C870.435 182.867 868.298 183.091 866.159 183.137C864.397 183.254 862.629 183.206 860.876 182.994C859.38 182.931 857.925 182.485 856.649 181.7C855.983 181.189 855.806 180.571 856.623 180.141C858.131 179.202 859.787 178.525 861.521 178.139C862.398 177.925 863.263 177.659 864.11 177.344C865.4 177.027 866.748 176.926 868.055 176.701C870.058 176.369 872.087 176.07 874.095 175.709C874.883 175.586 875.761 175.965 876.674 175.697C880.188 175.142 883.75 174.953 887.303 175.133C890.749 174.966 894.212 174.89 897.662 174.797C898.408 174.793 899.154 174.842 899.893 174.942C896.338 175.346 892.764 175.376 889.202 175.423C886.241 175.425 883.283 175.621 880.347 176.007C878.728 176.235 877.096 176.365 875.462 176.396C872.919 176.457 870.433 177.564 867.792 177.7C864.753 178.135 861.786 178.975 858.97 180.199C858.423 180.459 857.898 180.765 857.401 181.113C858.765 181.739 860.237 182.098 861.736 182.17C864.001 182.284 866.271 182.256 868.533 182.088C872.195 181.759 875.836 181.472 879.549 181.002C883.261 180.532 886.451 180.194 889.844 179.575C892.644 179.062 895.448 178.624 898.264 178.306C899.919 178.131 901.59 178.254 903.237 178.033C905.879 177.69 908.521 177.451 911.151 177.091C909.854 176.755 908.502 176.69 907.179 176.901C904.81 177.195 902.298 177.053 899.825 177.45C894.628 178.253 889.325 177.841 884.099 178.639C881.332 178.869 878.552 178.878 875.784 178.665C874.246 178.649 872.707 178.737 871.339 178.776C872.215 178.357 873.187 178.176 874.156 178.251C875.134 178.053 876.141 178.048 877.12 178.236C877.332 178.311 877.634 178.37 877.768 178.063C877.901 177.756 878.1 177.815 878.303 177.948C880.137 178.555 882.11 178.604 883.971 178.087C884.784 177.998 885.605 177.954 886.476 177.976C886.166 177.561 885.875 177.726 885.643 177.589C891.847 177.302 898.061 176.543 904.339 176.563L902.556 176.601C903.464 176.431 904.392 176.4 905.309 176.511C905.845 176.635 906.407 176.54 906.873 176.249C907.388 175.864 908.03 176.239 908.565 176.331C910.976 176.554 913.405 176.478 915.797 176.105C916.776 175.995 917.779 176.021 918.766 175.957C919.082 175.928 919.442 175.996 919.754 175.581C915.769 175.686 911.898 174.903 907.999 175.227L918.366 175.143C919.647 175.092 920.896 175.065 922.148 174.906C922.327 174.902 922.998 175.177 922.763 174.447C922.552 174.165 923.245 174.087 923.522 174.113C925.517 174.253 927.511 174.187 929.493 174.414C931.282 174.642 933.085 174.74 934.887 174.707C935.27 174.708 935.648 174.621 935.991 174.452C935.878 174.322 935.741 174.216 935.586 174.14C935.432 174.064 935.264 174.02 935.092 174.011C929.903 172.549 924.59 171.571 919.22 171.09C916.086 170.843 912.94 170.269 909.793 170.006C902.907 169.379 896.48 167.011 889.933 165.071C887.921 164.516 886.137 163.34 884.835 161.71C883.855 160.398 884.035 159.565 885.542 158.88C887.598 158.05 889.843 157.806 892.029 158.175C901.278 159.263 909.983 162.36 918.706 165.342C922.141 166.476 925.485 167.731 928.879 168.948C928.959 168.983 929.029 169.038 929.081 169.108C929.133 169.178 929.166 169.26 929.176 169.347C928.434 169.15 927.667 169.025 926.934 168.77C922.09 167.032 917.338 165.07 912.386 163.671C908.001 162.443 903.721 160.801 899.265 159.964C895.789 159.329 892.264 158.992 888.73 158.956C887.823 158.899 886.915 159.062 886.084 159.432C885.886 159.509 885.709 159.629 885.565 159.784C885.422 159.94 885.315 160.126 885.255 160.329C885.194 160.531 885.18 160.745 885.214 160.954C885.249 161.163 885.331 161.361 885.453 161.533C886.263 162.776 887.481 163.696 888.898 164.136C893.074 165.674 897.497 166.433 901.678 168.046C904.361 168.97 907.166 169.491 910.001 169.592C911.839 169.638 913.672 169.78 915.495 170.017C918.23 170.561 920.955 170.674 923.67 171.156C924.449 171.299 925.275 171.122 926.099 171.257C924.987 170.538 923.774 169.987 922.499 169.624C919.545 168.648 916.482 168.116 913.473 167.413C909.621 166.634 905.86 165.464 902.247 163.921C900.913 163.313 899.558 162.746 898.253 162.039C899.715 162.402 901.129 162.935 902.467 163.627C904.878 164.815 907.443 165.66 910.087 166.138C911.687 166.444 913.225 166.874 914.858 167.155C916.413 167.291 917.957 167.529 919.48 167.869C921.038 168.361 922.618 168.604 924.209 169.072C925.177 169.42 926.105 169.872 926.976 170.421C928.61 171.253 930.34 171.881 932.127 172.292C933.933 172.806 935.736 173.245 937.522 173.8C938.279 174.078 939.1 174.13 939.886 173.949C939.045 173.396 938.158 172.915 937.235 172.514L937.372 172.282C938.404 172.727 939.456 173.132 940.5 173.594C942.944 174.554 945.455 175.334 948.013 175.926L957.773 178.599C958.813 178.883 959.879 178.889 960.915 179.098C961.363 179.178 961.956 179.175 961.897 179.789C961.852 180.086 961.718 180.364 961.511 180.583C961.305 180.802 961.036 180.952 960.741 181.014C960.152 181.195 960.02 180.776 959.888 180.357C959.886 180.298 959.866 180.24 959.831 180.193C959.795 180.145 959.746 180.11 959.69 180.091L959.557 180.19C959.594 180.551 959.916 180.983 959.522 181.252C959.127 181.521 958.721 181.358 958.319 181.167C954.213 179.337 949.873 178.085 945.422 177.447C944.007 177.289 942.584 177.212 941.16 177.215C940.731 177.199 940.307 177.302 939.932 177.511C936.163 179.395 932.286 181.411 928.648 183.713C926.909 184.675 925.092 185.487 923.215 186.141C920.152 187.445 917.081 188.704 913.935 189.76L912.965 190.019C913.235 189.48 913.836 189.627 914.247 189.449C916.318 188.549 918.328 187.463 920.427 186.67C923.22 185.65 925.952 184.473 928.612 183.145C929.256 182.776 929.878 182.372 930.477 181.934C926.65 183.291 922.928 184.751 919.209 186.287C915.554 187.811 911.741 188.923 907.84 189.603C917.823 186.753 927.002 181.994 936.531 178.085C934.846 178.36 933.241 178.809 931.602 179.179C929.217 179.692 926.868 180.36 924.507 181.01C920.014 182.27 915.763 184.306 911.328 185.679C908.271 186.798 905.283 188.097 902.379 189.567C900.967 190.039 899.744 190.953 898.89 192.173C898.736 192.417 898.342 192.582 898.557 192.939C898.772 193.296 899.05 193.114 899.311 193.152C902.227 193.202 905.12 192.637 907.803 191.493C909.587 190.833 911.367 190.41 913.106 189.965ZM867.343 203.78C866.123 203.915 865.681 205.021 864.606 205.487C862.124 206.668 859.939 208.352 857.503 209.628C855.962 210.442 854.563 211.513 853.018 212.356C850.702 213.621 848.208 214.578 845.994 216.05C843.826 217.479 841.558 218.749 839.206 219.851C836.421 221.181 833.888 223.125 831.301 224.617C829.362 225.729 827.39 226.762 825.522 228.002C824.444 228.966 823.318 229.876 822.149 230.728C821.365 231.091 820.747 231.737 820.42 232.537C820.053 233.432 820.111 233.647 821.014 233.852C821.281 233.904 821.553 233.918 821.823 233.895C825.027 233.585 828.137 232.635 830.968 231.102C833.737 229.784 836.076 227.753 838.952 226.614C840.335 226.089 841.636 225.369 842.817 224.478C843.375 223.928 843.983 223.431 844.632 222.993C847.573 221.455 850.368 219.653 852.982 217.61C856.305 215.128 859.541 212.531 862.578 209.667L863.804 208.467C864.313 208.131 864.759 207.71 865.125 207.222C863.349 208.175 861.725 209.387 860.307 210.82C857.815 212.875 855.199 214.777 852.475 216.514C849.314 218.779 845.931 220.716 842.378 222.296C839.207 223.629 836.267 225.514 833.013 226.702C832.418 227.018 831.79 227.27 831.142 227.453C834.533 225.619 837.672 223.895 840.819 222.218C843.965 220.541 847.092 218.594 850.214 216.779C853.34 215.039 856.265 212.959 858.935 210.577C861.595 208.073 864.82 206.363 867.343 203.78ZM916.718 177.719C915.03 178.023 913.367 178.256 911.72 178.684C908.756 179.573 905.872 180.706 903.096 182.072C899.945 183.467 896.993 185.336 893.871 187.046C889.89 189.341 886.304 192.263 883.254 195.7C882.732 196.175 882.255 196.695 881.828 197.257C880.677 198.989 879.417 200.647 878.057 202.221C877.454 202.904 876.673 203.383 876.125 204.104C875.31 205.126 874.631 206.228 873.862 207.243C872.536 208.932 871.11 210.488 869.709 212.078L867.752 214.238C867.586 214.362 867.403 214.499 867.556 214.773C867.709 215.047 867.879 214.894 868.045 214.873C868.804 214.746 869.712 214.818 870.227 214.33C871.32 213.333 872.586 212.568 873.654 211.538C875.166 210.098 875.909 208.25 877.47 206.98C878.021 206.555 878.535 206.084 879.008 205.573C882.005 202.425 885.217 199.49 888.622 196.789C890.665 195.055 893.069 193.804 895.051 191.987C895.501 191.626 895.988 191.314 896.504 191.057C898.04 190.168 899.663 189.396 901.125 188.408C902.886 187.122 904.737 185.965 906.664 184.944C907.384 184.622 908.067 184.224 908.703 183.758C910.043 182.774 911.467 181.91 912.958 181.174L914.15 180.517C914.55 180.377 914.898 180.117 915.147 179.773C911.522 181.052 908 182.601 904.608 184.409C901.146 186.121 897.822 188.101 894.669 190.332C891.612 192.615 888.572 194.885 885.577 197.251C894.28 187.698 905.417 182.615 916.718 177.719ZM848.636 204.374C846.936 204.143 845.278 203.621 843.57 203.552C840.581 203.43 837.796 202.301 834.741 202.125C832.296 201.778 829.883 201.235 827.525 200.502C824.428 199.948 821.37 199.199 818.369 198.258C814.613 196.676 810.692 195.517 806.679 194.802C805.37 194.518 804.005 194.635 802.763 195.139C801.68 195.663 801.55 196.459 802.44 197.269C802.688 197.601 802.936 197.934 803.317 198.167C805.505 200.031 808.071 201.398 810.839 202.174C812.099 202.475 813.359 202.88 814.569 203.218C815.69 203.58 816.843 203.836 818.013 203.983C820.214 204.228 822.411 204.606 824.587 205.024C825.379 205.184 826.171 205.343 826.929 205.527C827.688 205.71 828.211 205.371 828.887 205.41C832.457 205.616 836.052 205.752 839.626 205.928C840.024 205.942 840.397 205.922 840.799 205.906C841.201 205.89 841.583 206.019 841.899 205.68C839.281 205.653 836.672 205.385 834.104 204.877C831.116 204.34 827.99 204.14 824.967 203.939C822.195 203.555 819.484 202.814 816.902 201.734C814.515 200.929 812.462 199.254 810.059 198.254C809.823 198.146 809.491 198.083 809.488 197.697C811.945 198.61 814.35 199.655 816.693 200.83C819.639 202.147 822.788 202.954 826.005 203.215L831.155 203.665C835.798 204.13 840.407 205.242 845.135 204.712C846.309 204.691 847.479 204.578 848.636 204.374ZM849.693 208.32C847.895 208.46 846.122 208.82 844.412 209.392C843.716 209.435 843.054 209.703 842.524 210.155C842.239 210.472 841.894 210.729 841.51 210.912C840.152 211.684 838.733 212.346 837.268 212.89C836.231 213.451 835.151 213.928 834.039 214.318C830.206 215.15 826.533 216.599 823.165 218.61C819.807 220.355 816.755 222.634 814.128 225.359C813.482 225.953 812.932 226.643 812.498 227.405C812.322 227.745 812.253 228.13 812.301 228.51C812.349 228.891 812.512 229.247 812.767 229.532C813.189 230.097 813.792 229.414 814.257 229.17C814.996 228.774 815.76 228.41 816.548 228.08C817.872 227.607 819.117 226.938 820.243 226.097C822.149 224.311 824.221 222.711 826.432 221.32C829.462 219.625 832.241 217.524 835.321 215.896C836.2 215.499 836.983 214.914 837.614 214.184C834.002 216.105 830.06 217.238 826.362 218.939C833.835 214.807 841.956 211.821 849.693 208.32ZM809.023 219.702C809.191 219.387 809.45 219.13 809.767 218.965C813.26 217.191 816.912 215.746 820.673 214.649C822.721 214.036 824.809 213.566 826.921 213.243C829.539 212.763 832.082 211.976 834.638 211.309C834.738 211.235 834.933 211.219 834.933 210.908C833.083 211.203 831.238 211.365 829.437 211.83C826.728 212.534 824.027 213.283 821.231 213.663C817.323 214.387 813.49 215.473 809.784 216.909C807.348 217.947 804.982 219.144 802.702 220.49C802.159 220.758 801.738 221.221 801.521 221.786C801.184 222.581 801.44 222.959 802.328 222.865C803.215 222.772 803.394 222.664 803.925 222.578C805.019 222.245 806.064 221.769 807.034 221.162C810.245 219.782 813.576 218.697 816.984 217.922C820.863 217.121 824.639 215.905 828.436 214.855C829.804 214.464 831.107 213.874 832.304 213.104C824.308 214.367 816.492 216.582 809.023 219.702ZM936.724 176.958C933.068 176.682 929.397 176.665 925.739 176.907C924.234 176.854 922.756 177.326 921.561 178.243C921.306 178.411 921.017 178.521 920.714 178.565C918.84 179.127 917.019 179.855 915.273 180.739C912.011 182.296 909.136 184.546 905.82 186.066C904.937 186.429 904.159 187.009 903.561 187.753C904.265 187.477 904.954 187.161 905.623 186.808C907.886 185.713 910.309 185.042 912.645 184.151C916.722 182.567 920.877 181.191 925.094 180.029C926.679 179.621 928.301 179.263 929.956 178.985C932.276 178.544 934.544 177.865 936.724 176.958ZM816.699 209.467C816.624 209.356 816.524 209.265 816.408 209.199C816.292 209.133 816.162 209.095 816.028 209.088C814.094 208.855 812.197 208.376 810.384 207.663C808.743 206.922 806.827 206.956 805.233 205.999C803.608 205.219 801.913 204.596 800.169 204.14C799.95 204.074 799.716 204.069 799.494 204.126C799.272 204.182 799.07 204.298 798.908 204.461C798.509 204.759 798.882 205.153 798.985 205.464C799.115 205.862 799.372 206.207 799.717 206.444C801.851 208.113 804.31 209.317 806.937 209.979C809.961 210.732 813.055 211.171 816.169 211.286C817.744 211.351 819.324 211.284 820.896 211.378C821.09 211.427 821.292 211.433 821.488 211.398C821.685 211.363 821.872 211.286 822.037 211.173C817.871 210.791 813.778 209.845 809.868 208.359C812.177 208.471 814.365 209.218 816.712 209.483L816.699 209.467ZM941.639 176.055C942.257 176.405 942.952 176.597 943.662 176.614C947.146 176.289 950.273 177.809 953.531 178.533C954.744 178.879 955.974 179.161 957.216 179.377C956.432 178.936 955.606 178.573 954.751 178.295C950.955 177.106 947.094 176.136 943.188 175.39C942.892 175.324 942.584 175.355 942.307 175.477C942.031 175.6 941.801 175.808 941.652 176.072L941.639 176.055ZM925.171 175.107C926.067 175.059 926.824 175.554 927.587 175.709C929.008 175.885 930.438 175.983 931.87 176.003C933.769 176.189 935.673 175.62 937.58 175.956C937.854 176.01 938.123 175.886 938.311 175.41C933.962 175.043 929.592 174.97 925.233 175.19L925.171 175.107ZM851.398 206.167C855.64 205.922 863.445 203.793 864.45 202.68C860.203 204.192 855.843 205.363 851.41 206.183L851.398 206.167ZM827.064 210.627L827.096 210.913C828.418 211.297 829.56 210.47 830.813 210.414L830.701 210.265L827.064 210.627Z" fill="white" fill-opacity="0.21"/>
<g clip-path="url(#clip1_425_86099)">
<path fill-rule="evenodd" clip-rule="evenodd" d="M61.9124 522.002C60.2256 523.745 60.1771 526.035 58.8999 527.915C54.6759 530.48 51.7515 529.049 48.658 528.138C46.945 531.405 42.9484 535.411 38.4664 536.024C34.0298 536.637 31.7498 530.991 28.3951 529.022C28.2855 527.544 27.7519 526.486 26.6286 525.52C27.6694 522.226 29.0107 519.033 30.4884 515.885C39.3546 512.214 50.2674 515.977 49.0853 526.824C51.6304 527.188 54.2288 527.388 56.9341 527.259C58.9378 525.379 59.5763 523.043 59.5049 520.471C58.4045 520.225 58.1375 521.046 56.243 521.567C55.1971 519.943 53.5993 520.017 52.5178 518.503C55.0723 517.535 55.3607 515.811 57.7241 514.779C58.2334 516.284 56.9977 517.571 59.4762 516.092C60.1651 517.277 59.043 517.889 57.9664 518.501C58.4193 519.714 59.8247 517.998 60.153 519.595C63.1939 513.873 54.3711 507.546 48.1087 510.842C50.0567 511.552 52.3341 511.25 54.4334 511.496C52.1256 514.079 47.2516 510.313 45.0676 512.376C47.0316 514.154 50.0461 512.702 52.0547 514.343C49.9982 516.479 45.3319 516.681 45.0748 513.47C43.6097 514.392 44.614 515.213 42.6889 515.223C42.5321 513.471 44.4503 512.412 44.1843 510.624C40.0844 507.178 38.916 500.719 39.9529 496.833C43.1057 495.7 42.9548 493.465 45.152 492.014C52.0261 490.606 60.6426 494.543 61.7903 503.392C74.3243 500.96 74.8603 525.929 61.9124 522.002ZM54.8032 501.424C56.5683 500.557 58.0877 499.608 58.0508 498.139C56.5602 497.93 54.8304 500.038 54.8032 501.424C54.2661 501.215 53.4797 501.771 53.0582 501.206C52.7341 500.248 54.4577 499.974 54.1336 499.016C53.8306 498.505 54.6292 498.423 54.1336 499.016C52.5669 498.296 51.8612 502.84 50.2235 500.988C50.9001 498.908 53.5151 497.475 54.5465 495.513C53.2071 493.443 47.5769 493.445 47.353 495.297C48.1061 495.214 49.34 493.654 49.746 494.639C48.9404 496.418 44.7597 498.664 43.2364 499.021C44.5233 501.392 48.4807 495.552 49.7676 497.923C48.4393 498.936 45.4456 499.394 45.2094 500.771C46.5054 501.765 50.9207 502.055 49.5898 504.054C46.9937 504.219 45.6083 500.662 42.8164 501.429C42.9347 500.088 43.4056 499.896 41.9331 499.678C42.3355 498.72 43.9937 498.181 43.8774 497.05C42.8547 497.589 42.2149 496.95 41.0498 497.927C40.991 501.412 41.7251 506.739 45.0532 510.186C46.8408 508.598 50.3569 508.861 53.1013 507.774C55.493 508.284 58.6608 512.224 60.3164 511.275C59.7181 511.439 59.4403 510.618 59.8748 510.399C62.0405 509.696 63.957 509.759 65.5442 510.835C63.9536 512.003 63.2267 510.562 61.6269 511.712C61.0334 511.21 61.1204 512.013 61.6269 511.712C61.7005 511.858 61.7741 512.004 61.8477 512.15C63.0176 511.903 64.1696 511.711 64.9033 512.805C63.3234 514.22 60.9592 512.369 60.5516 513.902C63.8712 514.676 62.2793 518.408 62.7741 520.469C73.8063 521.678 71.0027 502.658 61.363 504.706C61.5067 505.846 59.6027 506.303 60.074 507.553C62.3182 507.725 65.0964 506.255 66.8332 507.988C62.9557 509.394 60.0542 507.288 57.0329 509.086C58.2145 506.477 62.7244 501.822 58.2788 499.671C58.6029 500.629 57.5346 501.122 57.8587 502.08C58.654 501.496 59.2624 501.486 59.6037 502.298C57.2652 502.974 56.4644 505.483 54.6039 504.271C54.4415 503.048 53.586 502.748 54.8032 501.424ZM55.8642 497.045C53.2949 498.524 57.9439 497.071 55.8642 497.045V497.045ZM45.38 493.546C45.469 493.272 45.2376 493.984 45.38 493.546V493.546ZM44.7319 494.422C44.8209 494.148 44.5895 494.86 44.7319 494.422V494.422ZM44.5254 496.174C46.4847 495.826 43.0634 497.552 44.5254 496.174V496.174ZM56.4494 519.815C58.4086 519.468 54.9873 521.193 56.4494 519.815V519.815ZM55.1317 518.283C55.2207 518.009 54.9893 518.721 55.1317 518.283V518.283ZM36.6137 519.385C35.4018 520.134 34.7774 519.076 33.5654 519.824C32.9719 519.323 33.0589 520.126 33.5654 519.824C33.9954 520.317 34.6753 520.134 35.0968 520.7C33.3703 521.914 32.6051 520.172 30.9587 521.139C31.7886 523.055 34.0605 520.536 34.8903 522.451C32.7133 524.213 29.3034 520.739 29.0145 523.767C28.1803 529.497 34.9091 530.862 37.7896 532.522C36.9735 532.704 34.7949 531.446 34.7413 532.961C39.0537 535.568 51.3405 528.684 46.6707 524.198C46.5687 525.256 44.5828 525.686 44.0712 526.607C42.9452 525.23 41.294 525.468 40.3461 523.544C41.6909 522.293 42.1075 520.733 43.8073 519.601C44.7131 520.632 43.38 520.915 43.8217 521.791C45.2897 521.325 45.0712 519.856 46.2147 521.133C46.3204 522.018 45.2794 522.52 45.1394 523.323C43.1175 523.816 45.7113 524.682 45.1394 523.323C45.8635 522.958 46.5875 522.592 47.3116 522.227C46.0759 516.581 36.4835 514.76 31.3716 517.636C32.8431 519.068 35.169 517.872 36.6137 519.385ZM43.1736 522.667C41.1518 523.16 43.7455 524.026 43.1736 522.667C42.8524 522.165 43.6602 522.101 43.1736 522.667ZM31.8204 519.606C31.5551 519.305 31.3699 518.758 30.9444 518.95C31.2097 519.251 31.386 519.825 31.8204 519.606ZM33.6444 531.866C33.7334 531.593 33.502 532.304 33.6444 531.866V531.866Z" fill="#FDFEFF" fill-opacity="0.16"/>
<path fill-rule="evenodd" clip-rule="evenodd" d="M55.5371 513.685C55.8874 515.865 53.9716 517.289 51.4278 518.503C51.5469 515.903 54.1999 514.725 55.5371 513.685Z" fill="#FDFEFF" fill-opacity="0.16"/>
<path fill-rule="evenodd" clip-rule="evenodd" d="M47.1963 504.712C45.5362 504.977 44.0275 504.777 43.0439 502.962C44.9443 501.957 45.8923 503.882 47.1963 504.712Z" fill="#FDFEFF" fill-opacity="0.16"/>
<path fill-rule="evenodd" clip-rule="evenodd" d="M55.3813 523.099C53.8903 522.845 52.0077 523.794 51.0152 522.007C52.7287 521.577 54.282 521.64 55.3813 523.099Z" fill="#FDFEFF" fill-opacity="0.16"/>
<path fill-rule="evenodd" clip-rule="evenodd" d="M1.33541 490.499C2.39289 486.968 1.92142 482.927 7.37464 480.863C7.97515 478.272 6.80099 475.088 7.53802 472.543C17.5711 462.631 37.1229 476.545 24.1979 487.205C26.4772 501.043 6.57878 504.901 1.33541 490.499ZM20.629 474.727C20.7026 474.873 20.7762 475.019 20.8498 475.165C21.4047 475.319 22.0665 475.146 22.8084 474.726C23.5931 475.291 24.7338 474.762 25.6431 474.944C25.3213 472.955 23.958 474.169 22.8084 474.726C22.7348 474.58 22.6612 474.434 22.5876 474.288C22.0237 474.161 21.3619 474.334 20.629 474.727C20.5554 474.581 20.4817 474.435 20.4081 474.289C21.4702 472.838 22.4466 473.558 23.8909 473.631C20.9724 470.32 16.8521 470.705 12.545 471.665C14.392 472.221 16.2367 472.411 15.1804 474.729C16.0962 474.519 17.5016 472.803 17.7943 474.509C15.8 475.057 16.1812 476.398 14.7603 477.138C13.7284 476.262 15.852 474.665 14.0907 474.729C14.3709 475.915 12.931 476.527 12.1464 477.358C11.5172 475.57 9.93549 476.711 9.51099 474.293C10.1947 473.308 12.2708 472.787 11.8897 471.446C8.00628 471.94 8.74487 476.556 8.89162 479.548C13.8893 477.257 19.8853 480.411 23.7491 485.235C27.1653 482.734 27.9604 479.358 26.2983 475.162C24.2754 476.869 21.5475 474.927 20.6433 476.916C22.339 476.542 23.8923 476.605 25.4366 476.695C24.8016 478.183 22.7891 480.09 20.2232 479.325C20.8736 477.418 18.7507 479.106 18.2503 477.574C21.26 476.788 18.36 476.306 19.1048 474.946C19.5683 475.01 20.0408 475.046 20.629 474.727ZM11.7335 480.861C10.5461 479.812 9.65565 482.504 11.7335 480.861C14.0302 482.128 10.0028 481.436 10.4373 482.613C11.6564 482.959 13.3741 481.773 14.1481 483.487C13.3973 483.935 12.9581 483.424 12.1895 483.926C11.4365 482.658 10.5909 485.259 12.1895 483.926C12.5195 484.4 12.4946 484.756 12.1967 485.021C9.35135 485.952 7.11133 485.023 4.35502 485.681C6.39921 487.213 9.54718 485.35 11.7694 486.335C8.41429 488.462 6.43003 486.373 3.27966 487.871C2.24178 491.621 6.36366 494.255 8.57203 497.283C22.726 505.086 28.486 479.185 12.1679 480.642C12.0231 480.715 11.8783 480.788 11.7335 480.861ZM8.2579 482.614C8.79235 482.413 9.63103 482.905 9.56124 481.957C9.00868 482.167 8.1792 481.693 8.2579 482.614ZM7.39618 484.147C7.96744 484.019 9.93592 485.086 9.78924 483.489C9.14676 483.836 7.17828 482.769 7.39618 484.147ZM6.08564 483.71C8.04486 483.362 4.62356 485.088 6.08564 483.71V483.71Z" fill="#FDFEFF" fill-opacity="0.16"/>
<path fill-rule="evenodd" clip-rule="evenodd" d="M43.6097 555.946C50.9228 538.391 75.3678 560.385 56.5516 568.639C50.6134 568.751 44.438 561.775 43.6097 555.946ZM62.5837 557.908C59.6588 552.244 52.0804 547.349 48.8231 553.316C50.8269 554.228 53.2491 553.853 54.9413 555.722C52.0936 556.289 49.8512 554.994 47.5198 553.974C42.2528 559.513 48.8209 561.28 52.5913 562.948C51.437 564.171 48.7556 561.016 49.543 563.388C51.7789 565.074 53.7745 567.5 56.7581 566.888C60.32 564.45 61.552 561.22 62.5837 557.908Z" fill="#FDFEFF" fill-opacity="0.16"/>
<path fill-rule="evenodd" clip-rule="evenodd" d="M24.3682 479.98C24.6502 481.44 22.8455 480.428 22.1959 481.076C21.7893 480 23.9771 479.88 24.3682 479.98Z" fill="#FDFEFF" fill-opacity="0.16"/>
<path fill-rule="evenodd" clip-rule="evenodd" d="M20.4078 474.289C19.9734 474.508 19.4783 473.797 19.9662 473.414C20.1134 473.705 20.2606 473.997 20.4078 474.289Z" fill="#FDFEFF" fill-opacity="0.16"/>
<path fill-rule="evenodd" clip-rule="evenodd" d="M42.0551 518.288C42.7521 520.706 39.8996 521.938 38.8219 523.763C35.7562 521.557 39.1555 519.248 40.5238 517.413C40.8117 518.389 41.2862 518.745 42.0551 518.288Z" fill="#FDFEFF" fill-opacity="0.16"/>
<path fill-rule="evenodd" clip-rule="evenodd" d="M58.6805 560.976C58.3908 561.122 58.1012 561.268 57.8116 561.414C58.2054 561.925 58.8924 561.441 58.6805 560.976C59.2597 560.684 59.839 560.392 60.4183 560.099C61.2469 561.832 58.6354 562.417 57.8259 563.604C57.1769 562.947 58.173 561.14 56.7219 561.415C56.5853 559.973 58.9792 558.057 60.6247 558.348C61.0507 559.597 58.6006 559.872 58.6805 560.976Z" fill="#FDFEFF" fill-opacity="0.16"/>
<path fill-rule="evenodd" clip-rule="evenodd" d="M56.6646 552.657C56.9947 553.131 56.9698 553.487 56.6718 553.751C54.4972 554.482 52.7498 553.899 51.4297 552.002C53.3794 551.591 54.8574 552.63 56.6646 552.657Z" fill="#FDFEFF" fill-opacity="0.16"/>
<path fill-rule="evenodd" clip-rule="evenodd" d="M57.5548 555.503C58.2445 556.825 57.4872 557.665 57.5763 558.787C55.899 559.198 56.2421 560.283 54.756 560.758C54.5261 557.556 50.9388 557.512 48.6306 557.258C48.4244 559.055 52.5615 557.083 53.2246 559.883C51.0209 560.331 49.4669 558.781 47.3344 559.01C47.6276 558.015 47.3747 556.839 47.3129 555.726C49.8377 555.779 52.3359 555.915 54.3 557.693C54.575 556.708 56.3152 556.196 57.5548 555.503Z" fill="#FDFEFF" fill-opacity="0.16"/>
<path fill-rule="evenodd" clip-rule="evenodd" d="M36.1645 517.415C37.7451 516.091 36.8994 518.692 36.1645 517.415V517.415Z" fill="#FDFEFF" fill-opacity="0.16"/>
<path fill-rule="evenodd" clip-rule="evenodd" d="M15.9143 486.99C14.9963 485.485 17.0359 484.937 16.3272 483.486C18.0656 484.097 19.8397 484.598 21.142 486.55C19.676 487.335 18.8777 486.067 17.8657 485.456C16.7826 486.46 18.9789 486.268 18.9698 487.645C17.8177 487.837 17.1731 486.469 15.9143 486.99Z" fill="#FDFEFF" fill-opacity="0.16"/>
<path fill-rule="evenodd" clip-rule="evenodd" d="M36.1646 517.415C35.5802 516.932 35.6672 517.735 36.1646 517.415V517.415Z" fill="#FDFEFF" fill-opacity="0.16"/>
<path fill-rule="evenodd" clip-rule="evenodd" d="M36.6136 519.385C37.1201 519.084 37.189 519.896 36.6136 519.385V519.385Z" fill="#FDFEFF" fill-opacity="0.16"/>
<path fill-rule="evenodd" clip-rule="evenodd" d="M39.7193 527.704C39.1349 527.221 39.2219 528.023 39.7193 527.704C40.1609 528.58 41.1811 527.676 41.4714 529.017C38.7825 530.259 37.0761 530.387 34.0714 530.553C33.4826 529.385 34.9687 528.91 34.2707 527.706C34.8589 527.387 35.3313 527.423 35.7949 527.487C36.8869 526.455 34.4499 527.341 34.4771 525.955C36.5789 526.565 39.3126 525.232 41.0226 527.047C40.5882 527.266 40.1537 527.485 39.7193 527.704ZM37.9743 527.486C38.0633 527.212 37.8319 527.924 37.9743 527.486V527.486ZM36.6638 527.048C36.7528 526.775 36.5213 527.486 36.6638 527.048V527.048ZM36.2365 528.362C38.1957 528.015 34.7744 529.74 36.2365 528.362V528.362Z" fill="#FDFEFF" fill-opacity="0.16"/>
<path fill-rule="evenodd" clip-rule="evenodd" d="M35.0966 520.7C35.6031 520.399 35.672 521.21 35.0966 520.7V520.7Z" fill="#FDFEFF" fill-opacity="0.16"/>
<path fill-rule="evenodd" clip-rule="evenodd" d="M14.846 490.274C14.2617 489.791 14.3487 490.594 14.846 490.274C15.1986 491.424 16.1209 490.821 16.3845 492.244C15.4016 491.916 14.1606 492.382 13.329 491.589C12.8802 489.618 13.0321 487.849 15.9142 486.99C16.622 488.303 18.6573 488.467 18.1152 490.273C16.8029 490.958 15.9535 490.219 14.846 490.274Z" fill="#FDFEFF" fill-opacity="0.16"/>
<path fill-rule="evenodd" clip-rule="evenodd" d="M29.0142 523.767C30.0641 523.238 32.699 523.465 32.0697 524.423C30.6942 525.162 28.5522 525.327 29.0142 523.767Z" fill="#FDFEFF" fill-opacity="0.16"/>
<path fill-rule="evenodd" clip-rule="evenodd" d="M8.52134 489.62C7.93699 489.137 8.02398 489.94 8.52134 489.62C9.09889 490.45 10.1215 489.911 10.9216 490.057C11.0264 490.805 10.8219 491.48 10.9359 492.246C10.1674 492.748 9.72812 492.238 8.97733 492.685C9.43025 493.898 10.8356 492.183 11.1639 493.779C9.77396 495.075 9.38096 493.305 8.11561 494.218C6.44828 491.993 6.42689 491.5 4.39048 491.154C4.4023 490.187 4.79636 489.348 4.58976 488.308C6.8226 488.143 9.07323 487.923 11.128 488.305C11.2566 489.911 9.38635 488.589 8.52134 489.62ZM6.34192 489.621C6.43093 489.347 6.19949 490.059 6.34192 489.621V489.621ZM7.00436 490.934C7.09337 490.661 6.86193 491.372 7.00436 490.934V490.934ZM7.88762 492.686C7.97663 492.412 7.74519 493.123 7.88762 492.686V492.686Z" fill="#FDFEFF" fill-opacity="0.16"/>
<path fill-rule="evenodd" clip-rule="evenodd" d="M26.824 588.576C28.1462 585.255 26.8747 581.068 29.1525 578.065C36.7712 571.111 46.3276 577.137 48.1767 587.691C47.3281 589.835 46.4521 591.97 44.7298 593.823C36.8919 597.822 31.6711 593.774 26.824 588.576ZM46.6454 586.816C44.422 580.112 40.5101 576.273 35.0283 576.749C36.6348 577.999 33.5737 579.268 33.3121 580.91C34.9983 580.471 35.9169 577.926 37.6566 578.719C37.2946 580.297 35.1853 581.292 33.5401 582.443C32.8469 584.76 35.0206 588.034 32.2798 589.668C29.9399 585.975 32.5691 583.939 32.8776 581.129C28.7898 582.299 31.8429 588.127 28.341 587.262C32.259 594.804 44.7807 596.04 46.6454 586.816ZM30.2709 582.444C30.5154 580.948 32.4072 580.016 32.6424 578.502C30.2488 579.069 28.6411 581.779 30.2709 582.444Z" fill="#FDFEFF" fill-opacity="0.16"/>
<path fill-rule="evenodd" clip-rule="evenodd" d="M41.595 581.126C42.3251 583.069 39.3148 583.763 38.1338 585.068C38.0408 583.353 39.4676 582.13 41.595 581.126Z" fill="#FDFEFF" fill-opacity="0.16"/>
<path fill-rule="evenodd" clip-rule="evenodd" d="M39.4588 587.695C38.4023 587.221 37.0609 587.623 35.9688 587.259C37.4591 586.027 41.9399 585.231 43.8104 586.599C42.1017 587.758 40.9983 587.056 39.4588 587.695Z" fill="#FDFEFF" fill-opacity="0.16"/>
<path fill-rule="evenodd" clip-rule="evenodd" d="M39.1875 579.594C39.9474 581.911 35.4924 582.488 35.7335 584.631C33.2904 583.209 37.061 580.735 39.1875 579.594Z" fill="#FDFEFF" fill-opacity="0.16"/>
<path fill-rule="evenodd" clip-rule="evenodd" d="M40.9976 589.665C40.886 589.264 40.6231 589.327 40.3424 589.446C40.2688 589.3 40.1951 589.154 40.1215 589.008C39.6788 589.346 40.107 589.565 40.3424 589.446C40.4451 589.875 40.7169 589.784 40.9976 589.665C41.3009 590.221 41.8624 589.984 42.0945 590.759C40.3071 590.997 38.4313 591.6 37.294 589.885C37.7914 589.566 38.2614 589.237 37.7213 588.571C38.3006 588.279 38.8798 587.987 39.4591 587.695C40.6676 589.191 43.1757 586.69 44.0459 589.226C42.8251 590.002 42.2096 588.916 40.9976 589.665Z" fill="#FDFEFF" fill-opacity="0.16"/>
</g>
<defs>
<clipPath id="clip0_425_86099">
<rect width="123" height="74" fill="white" transform="translate(1797)"/>
</clipPath>
<clipPath id="clip1_425_86099">
<rect width="125.607" height="75.0756" fill="white" transform="translate(43.032 454) rotate(63.2348)"/>
</clipPath>
</defs>
</svg>
