<svg width="998" height="199" viewBox="0 0 998 199" fill="none" xmlns="http://www.w3.org/2000/svg">
<g clip-path="url(#clip0_425_85604)">
<path d="M960.482 30.0533C958.554 30.373 956.791 30.9048 955.139 31.6727C954.069 32.1728 953.074 32.8124 952.03 33.341C951.46 33.623 950.827 33.807 950.231 34.0606C950.009 34.1575 949.777 34.1861 949.536 34.1193C949.39 34.071 949.24 34.0767 949.075 34.1224C948.742 34.2677 948.398 34.3718 948.03 34.4203C947.374 34.5217 947.165 34.8904 947.416 35.5408C947.535 35.8724 947.316 36.1728 947.421 36.5172C947.641 37.2472 947.818 38.0158 947.956 38.7686C948.147 39.809 948.11 40.7968 947.786 41.8374C947.311 43.4261 947.091 45.0687 947.047 46.734C947.015 48.1559 947.01 49.5792 947.236 50.974C947.628 53.3806 948.464 55.5935 949.741 57.6667C951.654 60.817 954.337 63.2211 957.177 65.4843C959.456 67.2979 962.099 68.3713 964.742 69.4446C966.363 70.0986 968.012 70.7269 969.715 71.1004C971.337 71.4426 972.956 71.866 974.652 71.5748C975.815 71.3779 976.99 71.1951 978.06 70.695C978.616 70.4257 979.276 70.2432 979.722 69.7377C979.865 69.5825 980.062 69.4572 980.306 69.4428C980.483 69.4385 980.611 69.3231 980.699 69.1921C981.112 68.5358 981.828 68.3291 982.48 68.0242C982.953 67.8047 983.452 67.5867 983.937 67.3815C984.561 67.1023 985.273 66.9767 985.97 66.8639C986.516 66.7839 986.886 66.4507 987.217 66.0748C987.39 65.8669 987.485 65.6007 987.243 65.3033C986.975 64.9775 986.941 64.569 987.11 64.1846C987.678 62.8991 988.245 61.6136 988.84 60.3295C989.251 59.4425 989.504 58.466 989.85 57.535C990.086 56.91 989.908 56.1415 989.89 55.4356C989.856 53.4543 989.398 51.5458 988.608 49.7557C987.637 47.5358 986.598 45.3258 984.97 43.492C983.701 42.0564 982.305 40.7362 981.036 39.3007C980.293 38.4485 979.207 37.958 978.421 37.1442C977.07 35.7315 975.292 34.988 973.706 33.9155C972.537 33.1902 971.395 32.4392 970.124 31.8577C968.03 30.9079 965.835 30.3596 963.566 30.187C962.5 30.0907 961.429 29.818 960.482 30.0533ZM956.226 63.6586C956.219 63.7938 956.311 63.8664 956.4 63.966C956.901 64.5208 957.543 64.9475 958.029 65.5152C956.991 64.6204 955.805 63.9349 954.868 62.9234C955.36 63.0982 955.839 63.2859 956.199 63.6572C956.199 63.6572 956.226 63.6586 956.241 63.6458C956.302 62.7135 955.355 62.4065 954.907 61.6239C955.219 61.8842 955.428 62.0307 955.636 62.2043C957.171 63.4774 958.866 64.5284 960.561 65.5794C960.811 65.7416 961.104 65.8382 961.016 66.2268C960.998 66.3208 961.088 66.4204 961.182 66.4388C961.488 66.5497 961.515 66.8087 961.568 67.0962C961.103 66.9228 960.66 66.8319 960.292 66.5958C959.292 66.0014 958.294 65.3798 957.412 64.6017C957.02 64.3101 956.718 63.8605 956.226 63.6586ZM964.521 65.569C964.203 65.4169 963.898 65.2789 963.566 65.1396C963.128 64.9676 962.705 64.7557 962.282 64.5439C961.753 64.2723 961.222 63.7971 960.677 63.85C959.914 63.9187 959.576 63.3723 959.062 63.0879C958.838 62.9542 958.644 62.7679 958.436 62.5943C957.76 62.0438 957.025 61.5716 956.447 60.9314C955.871 60.2641 955.223 59.688 954.603 59.0862C953.828 58.3408 953.165 57.5199 952.516 56.6861C952.16 56.2337 951.957 55.6943 951.643 55.2034C951.567 55.091 951.546 54.9814 951.436 55.0028C951.327 55.0242 951.375 55.1352 951.358 55.2021C951.665 55.5706 951.832 56.0132 951.999 56.4558C951.651 56.0987 951.289 55.7544 951.373 55.1893C951.185 55.1524 951.18 54.9759 951.106 54.8365C950.562 53.8048 950.213 52.6749 949.682 51.6574C948.481 49.439 948.704 47.2 949.377 44.9167C949.637 44.0626 949.965 43.2255 950.265 42.387C950.298 42.2803 950.359 42.1479 950.201 42.0583C950.043 41.9687 949.97 42.0598 949.871 42.1495C949.813 42.2278 949.742 42.2919 949.683 42.3702C948.917 43.5776 948.296 44.8333 947.967 46.2397C947.898 46.5343 947.828 46.829 947.759 47.1236C947.597 45.5154 947.705 43.9482 948.216 42.4293C948.473 41.6563 948.741 40.9246 948.634 40.092C948.576 39.628 948.559 39.1797 948.517 38.6758C949.065 39.0841 949.351 39.0583 949.795 38.6069C949.938 38.4517 950.07 38.2552 950.188 38.0715C950.394 37.7569 950.342 37.4424 950.069 37.2247C949.794 37.0341 949.616 37.3232 949.471 37.5054C949.356 37.635 949.264 37.8471 949.068 37.7148C948.727 37.4801 948.321 37.2014 948.383 36.7843C948.483 36.1523 948.546 35.4506 949.282 35.1229C949.586 35.0031 949.892 34.8564 950.209 34.7509C951.092 34.4445 951.987 34.1793 952.785 33.6922C953.792 33.0939 954.808 32.5639 955.815 31.9656C956.01 31.8673 956.299 31.7875 956.575 31.6934C956.586 31.7347 956.598 31.776 956.609 31.8172C956.497 31.8927 956.384 31.9682 956.245 32.0423C955.392 32.5537 954.514 33.0096 953.698 33.5907C953.29 33.8812 953.079 34.304 952.947 34.7581C952.898 34.9318 952.943 35.0969 953.127 35.2149C953.325 35.3202 953.48 35.2062 953.567 35.1023C954.048 34.4359 954.745 34.0655 955.429 33.6809C956.351 33.1595 957.199 32.4717 958.341 32.4227C958.992 32.4025 959.626 32.4762 960.262 32.4958C961.56 32.5635 962.827 32.7109 964.116 32.6833C964.224 32.6889 964.357 32.75 964.392 32.5892C964.425 32.4824 964.291 32.4483 964.225 32.4042C963.512 31.784 962.589 31.7902 961.742 31.6511C960.398 31.4183 959.038 31.2524 957.635 31.3826C959.764 30.5717 961.937 30.4952 964.135 30.7319C966.239 30.9501 969.831 32.0187 970.314 32.6404C970.234 32.6092 970.167 32.5921 970.115 32.5623C968.92 32.0661 967.68 31.9201 966.4 32.0431C966.236 32.0617 966.069 32.1344 966.061 32.2966C966.051 32.4859 966.242 32.4688 966.377 32.4758C966.673 32.5184 966.941 32.5865 966.99 32.9552C967.029 33.2555 967.244 33.2938 967.412 33.1941C967.83 32.9718 968.179 33.0443 968.603 33.2291C971.549 34.4674 974.467 35.7313 976.981 37.747C977.32 38.0087 977.66 38.2434 977.913 38.6091C978.394 39.2579 978.962 39.8298 979.573 40.3362C979.69 40.4372 979.834 40.5396 979.895 40.6648C980.189 41.2767 980.712 41.6565 981.265 41.9836C981.436 42.0874 981.567 42.1756 981.724 42.0076C981.854 41.8652 981.997 41.71 981.86 41.4723C981.698 41.2062 981.522 40.9259 981.274 40.7367C981.026 40.5476 980.916 40.3113 980.863 40.0239C981.097 40.2259 981.304 40.4264 981.482 40.6527C982.852 42.2291 984.465 43.5605 985.622 45.3292C987.078 47.6015 988.133 50.0292 988.883 52.6036C988.818 52.5325 988.741 52.4471 988.719 52.3646C988.129 50.9102 987.455 49.5057 986.586 48.1995C986.208 47.6375 985.715 47.205 985.208 46.7854C985.04 46.6275 984.846 46.6988 984.679 46.7985C984.552 46.8868 984.67 46.9607 984.707 47.0305C985.063 47.51 985.221 48.1148 985.521 48.6185C986.383 50.0599 987.091 51.5882 987.647 53.1764C988.31 55.0549 988.472 56.9208 987.618 58.7743C987.481 59.052 987.509 59.311 987.73 59.4988C987.963 59.7008 988.162 59.5213 988.36 59.3689C988.388 59.3433 988.444 59.3191 988.494 59.403C988.518 59.7162 988.368 60.0066 988.206 60.2557C987.529 61.3051 987.064 62.4468 986.678 63.6198C986.58 63.9401 986.521 64.3031 986.624 64.6745C986.823 65.5526 986.471 66.0766 985.601 66.3972C985.172 66.5511 984.694 66.6211 984.33 66.8462C983.84 67.1595 983.393 67.4074 982.783 67.4162C981.398 67.4525 980.44 68.4194 979.375 69.096C978.226 69.8224 977.03 70.4108 975.699 70.7346C974.834 70.9471 973.973 71.0784 972.961 70.985C973.547 70.9206 973.998 70.8493 974.366 70.5431C974.564 70.3907 974.615 70.19 974.532 69.9552C974.437 69.6791 974.253 69.8457 974.103 69.8515C973.356 69.8803 972.603 70.0173 971.852 69.8696C971.235 69.729 970.602 69.6553 969.998 69.5289C969.81 69.492 969.573 69.3711 969.665 69.159C969.744 68.9327 969.937 69.1461 970.07 69.1802C971.191 69.5369 972.304 69.7712 973.418 69.2056C973.682 69.0703 974.028 68.9391 973.924 68.5947C973.822 68.1963 973.472 68.4085 973.252 68.4784C972.728 68.6409 972.213 68.6411 971.675 68.5588C970.143 68.2891 968.786 67.5269 967.352 66.9369C966.661 66.6568 966.019 66.2301 965.283 66.0426C964.975 65.9588 964.726 65.7966 964.521 65.569ZM967.119 68.05C967.005 68.1526 966.911 68.1341 966.831 68.1028C965.017 67.5201 963.234 66.8577 961.606 65.8238C961.501 65.764 961.424 65.6787 961.316 65.673C960.658 65.5438 960.152 65.0971 959.655 64.7458C958.648 64.0289 957.565 63.4573 956.631 62.6493C955.398 61.5681 954.235 60.45 953.187 59.2022C952.765 58.7057 952.483 58.1351 952.216 57.5246C952.156 57.3723 952.123 57.2215 952.305 57.1089C952.501 56.9836 952.602 57.1244 952.676 57.2639C952.798 57.5414 953.075 57.6779 953.227 57.9027C954.111 59.169 955.281 60.152 956.351 61.2247C957.189 62.0683 958.159 62.7154 959.055 63.4808C960.094 64.3755 961.266 65.0468 962.44 65.691C963.719 66.3949 965.043 67.0063 966.352 67.6576C966.631 67.767 966.868 67.9149 967.119 68.05ZM947.726 49.8878C948.122 50.8981 948.504 51.8943 948.997 52.869C949.759 54.4001 950.366 56.0452 951.886 57.0735C951.939 57.1034 951.976 57.1731 952 57.2286C952.257 57.7708 952.294 58.3828 952.634 58.8751C951.83 57.8977 951.055 56.8946 950.293 55.8787C950.179 55.7236 950.136 55.5045 949.866 55.4904C949.61 55.4634 949.517 55.6756 949.335 55.7881C948.728 54.9429 947.705 51.3509 947.726 49.8878ZM965.641 68.0408C966.204 68.1786 966.786 68.453 967.344 68.4143C967.956 68.3784 968.461 68.5675 968.978 68.7978C969.111 68.859 969.273 68.8674 969.249 69.0695C969.197 69.2973 968.996 69.2461 968.862 69.2121C967.735 68.9906 966.671 68.5826 965.641 68.0408ZM962.391 67.9797C963.417 68.318 964.447 68.6021 965.353 69.1782C964.309 68.9068 963.265 68.6354 962.391 67.9797ZM950.658 58.0263C950.91 58.392 951.163 58.7577 951.415 59.1234C951.036 58.846 950.714 58.5174 950.658 58.0263Z" fill="#CECECE" fill-opacity="0.49"/>
<path d="M964.521 65.5693C965.361 65.8436 966.168 66.2246 967.028 66.3779C968.464 66.6562 969.863 67.1494 971.324 67.1986C971.636 67.2013 971.951 67.1499 972.038 66.7612C972.074 66.6004 972.156 66.5776 972.304 66.5989C973.356 66.708 974.411 66.763 975.455 66.7496C976.581 66.7406 977.738 66.6518 978.702 66.0919C979.22 65.78 979.709 65.7513 980.227 65.6969C980.963 65.6268 981.433 65.1768 981.838 64.6828C982.142 64.3054 982.408 63.8854 982.501 63.3886C982.573 63.0399 982.295 62.6458 981.97 62.6288C981.619 62.6105 981.485 62.834 981.44 63.1842C981.292 64.2204 980.471 64.9097 979.217 65.0342C978.931 65.0599 978.779 65.1198 978.816 65.4471C978.835 65.6108 978.748 65.7147 978.568 65.8002C977.901 66.1179 977.178 66.2023 976.469 66.2738C975.352 66.3782 974.206 66.2507 973.089 66.3551C971.346 66.5082 969.753 65.8557 968.103 65.512C966.238 65.1301 964.633 64.1786 963.073 63.1347C963.007 63.0906 962.9 63.0579 962.909 62.8956C964.034 63.4288 965.146 63.9478 966.407 63.9458C964.828 63.538 963.374 62.8114 962.009 61.9268C960.684 61.0577 959.448 60.0577 958.403 58.7559C958.86 58.834 959.251 59.1256 959.724 58.9061C959.364 58.5078 958.874 58.2789 958.485 57.9332C957.98 57.4865 957.559 56.9629 957.111 56.4379C956.996 56.3099 956.852 56.2075 956.736 56.0794C956.544 55.866 956.397 55.8177 956.247 56.1081C956.216 56.1878 956.158 56.2662 956.035 56.2733C955.846 56.2635 955.896 56.3474 955.986 56.447C956.994 57.6791 958.016 58.8984 959.137 60.028C959.73 60.6284 960.452 61.0863 961.074 61.661C961.191 61.762 961.363 61.8388 961.164 62.0183C961.022 62.1464 961.208 62.2104 961.26 62.2673C961.426 62.4522 961.607 62.6244 961.774 62.8093C962.005 63.0654 962.28 63.256 962.342 63.6389C962.372 63.8438 962.596 63.9775 962.822 64.0571C962.889 64.0741 963.037 64.0954 962.962 64.2406C962.902 64.346 962.808 64.3275 962.73 64.2692C962.402 64.0487 962.087 63.8425 961.774 63.6092C960.989 63.0531 960.203 62.524 959.433 61.928C958.885 61.5198 958.268 61.1215 957.862 60.5851C956.717 59.1154 955.302 57.8892 954.326 56.2927C954.3 56.2642 954.302 56.2372 954.276 56.2087C954.062 55.8857 954.081 55.2495 953.43 55.5273C953.927 56.9362 954.632 58.261 955.799 59.298C956.084 59.5569 956.41 59.8044 956.768 59.9722C957.165 60.1556 957.489 60.4572 957.798 60.7716C958.841 61.8429 960.059 62.6792 961.29 63.5298C961.709 63.8228 962.095 64.2225 962.557 64.4771C962.886 64.6705 963.303 64.7329 963.542 65.0844C963.871 65.2778 964.203 65.4171 964.521 65.5693Z" fill="#CECECE" fill-opacity="0.49"/>
<path d="M972.051 37.3679C971.552 38.1281 971.122 37.5092 970.741 37.2859C969.424 36.5123 968.077 35.8183 966.64 35.2824C966.122 35.0791 965.555 35.0225 965.131 34.58C964.925 34.3524 964.534 34.5761 964.368 34.9063C964.171 35.3164 964.314 35.4458 964.714 35.5751C966.368 36.0953 967.912 36.9215 969.473 37.6808C970.412 38.15 971.333 38.6862 972.269 39.2095C972.598 39.4029 972.744 39.1936 972.905 38.9715C972.883 38.8619 972.734 38.8677 972.657 38.7823C972.593 38.7112 972.446 38.6629 972.494 38.5163C972.527 38.4095 972.648 38.4294 972.73 38.4066C973.06 38.3153 973.322 38.234 973.075 37.7602C972.99 37.5795 973.156 37.2492 973.051 36.9048C973.852 37.4211 974.574 37.879 975.296 38.337C976.504 39.105 977.411 40.1963 978.346 41.2619C978.603 41.5464 978.585 41.898 978.732 42.2039C978.83 42.3989 978.886 42.6323 979.202 42.5539C979.326 42.5196 979.387 42.6449 979.464 42.7302C979.592 42.8725 979.669 42.9579 979.942 42.9179C980.284 42.8679 980.563 43.235 980.808 43.4783C981.351 43.9947 981.85 44.5766 982.365 45.1186C982.442 45.204 982.516 45.3434 982.538 45.453C982.599 45.8358 982.773 46.1432 983.09 46.3224C983.786 46.7519 984.102 47.4734 984.461 48.1293C985.306 49.6377 986.178 51.1474 986.675 52.8139C986.999 53.9154 987.01 55.0142 986.939 56.1358C986.931 56.298 986.896 56.4589 986.889 56.5941C986.88 56.7564 986.855 56.9855 987.084 57.0111C987.299 57.0494 987.481 56.9369 987.548 56.6963C987.679 56.2422 987.635 55.7924 987.658 55.3327C987.705 53.6133 987.189 52.0408 986.358 50.5467C985.824 49.5833 985.317 48.6214 984.782 47.6851C984.608 47.3778 984.365 47.1074 984.149 46.8115C983.87 46.4444 983.589 46.1044 983.547 45.6005C983.534 45.3287 983.381 45.1309 983.014 45.1524C982.497 45.1797 982.361 44.6574 982.092 44.3587C981.605 43.818 981.089 43.303 980.485 42.919C980.052 42.6389 979.993 42.2019 979.808 41.8263C979.028 40.1314 977.763 38.8724 976.302 37.7658C975.702 37.3006 975.044 36.9138 974.383 36.5811C973.788 36.2924 973.167 35.9753 972.447 36.2632C972.391 36.2874 972.262 36.1722 972.171 36.0996C971.269 35.4425 970.245 35.0501 969.174 34.7774C968.947 34.7248 968.703 34.7121 968.474 34.6866C968.242 34.7152 968.06 34.8277 968.009 35.0284C967.958 35.2291 968.128 35.36 968.299 35.4638C968.863 35.8322 969.52 35.9614 970.131 36.2102C970.822 36.4903 971.511 36.7974 972.051 37.3679Z" fill="#CECECE" fill-opacity="0.49"/>
<path d="M963.284 40.1918C964.023 40.3252 964.624 40.7633 965.27 41.1359C966.862 42.0731 968.206 43.3634 969.639 44.4957C970.994 45.5697 972.22 46.786 973.504 47.9241C974.722 49.018 975.867 50.2302 976.814 51.5947C976.952 51.8053 977.014 51.9305 976.685 51.9947C976.507 52.0261 976.391 52.1827 976.421 52.3876C976.438 52.5784 976.482 52.7705 976.68 52.8757C976.878 52.981 976.995 52.8243 977.097 52.6805C977.314 52.4071 977.413 52.6021 977.54 52.7714C977.667 52.9407 977.626 53.2098 977.879 53.2908C978.013 53.3249 978.068 53.5853 978.278 53.4471C978.447 53.3204 978.483 53.1595 978.467 52.9418C978.337 52.0266 977.959 51.207 977.384 50.5127C976.25 49.1112 975.028 47.8138 973.679 46.6316C973.017 46.0413 972.358 45.4238 971.682 44.8463C970.317 43.704 968.98 42.5361 967.559 41.4451C966.567 40.6884 965.473 40.0755 964.362 39.5294C963.859 39.2863 963.296 39.1755 962.711 39.2128C962.425 39.2386 962.337 39.3696 962.27 39.6101C962.187 39.9176 962.463 39.8235 962.581 39.8975C962.79 40.044 963.106 39.9656 963.284 40.1918Z" fill="#CECECE" fill-opacity="0.49"/>
<path d="M963.901 37.4175C963.733 37.5173 963.53 37.5202 963.506 37.7223C963.48 37.9515 963.624 38.0539 963.809 38.1449C964.754 38.506 965.709 38.9083 966.606 39.389C967.055 39.6293 967.661 39.7016 967.749 40.3705C967.746 40.4246 967.835 40.5512 967.906 40.4871C968.452 40.1496 968.763 40.6945 969.119 40.8894C969.778 41.2492 970.262 41.8709 970.849 42.3218C971.761 43.0473 972.586 43.8767 973.411 44.7061C975.255 46.5513 976.817 48.6257 978.348 50.7529C978.538 51.0203 978.641 51.3918 979.028 51.5069C979.162 51.541 979.289 51.7103 979.448 51.5152C979.577 51.3728 979.544 51.222 979.47 51.0825C979.111 50.4265 978.738 49.7563 978.309 49.1374C977.399 47.8426 976.516 46.5492 975.452 45.3684C975.285 45.1834 975.225 45.0312 975.414 44.7834C975.617 44.5228 975.384 44.0362 975.094 44.1431C974.309 44.3868 974.015 43.7749 973.587 43.3866C973.16 42.9982 972.788 42.5856 972.389 42.1716C972.299 42.072 972.222 41.9867 972.229 41.8515C972.214 41.6067 972.022 41.3933 971.832 41.3834C971.277 41.368 970.945 40.971 970.58 40.6809C968.809 39.2598 966.827 38.2616 964.68 37.5666C964.426 37.4856 964.156 37.4715 963.901 37.4175Z" fill="#CECECE" fill-opacity="0.49"/>
<path d="M973.806 65.0636C971.832 64.7031 969.921 64.156 968.043 63.5022C966.697 63.0388 965.585 62.2622 964.635 61.2094C964.199 60.7257 963.75 60.2278 963.214 59.8337C963.059 59.9477 963.294 60.1226 963.156 60.1697C962.991 60.2153 962.792 60.1371 962.689 60.0233C961.994 59.3091 961.026 58.8926 960.402 58.0873C960.351 58.0303 960.263 57.9037 960.082 57.9892C960.592 58.6124 961.177 59.1174 961.802 59.611C962.805 60.409 963.938 61.0646 964.708 62.1758C965.124 62.7805 965.769 63.1531 966.4 63.5386C967.755 64.3549 969.285 64.6516 970.755 65.0808C971.516 65.2968 972.346 65.2451 973.147 65.2191C973.338 65.2019 973.575 65.0652 973.806 65.0636Z" fill="#CECECE" fill-opacity="0.49"/>
<path d="M985.924 62.4688C985.596 61.4484 986.089 60.5657 986.354 59.6305C986.702 58.3877 986.902 57.1237 986.493 55.8415C986.436 55.6352 986.339 55.4132 986.212 55.2439C986.111 55.103 986.018 54.7999 985.755 54.9082C985.506 55.0036 985.381 55.3225 985.451 55.5431C985.866 56.7172 985.712 57.8616 985.382 59.0104C985.233 59.5314 985.059 60.0239 984.87 60.5293C984.621 61.1671 984.67 61.7933 984.813 62.438C984.935 62.9731 985.439 63.1892 985.766 62.8944C985.908 62.7663 985.942 62.6325 985.924 62.4688Z" fill="#CECECE" fill-opacity="0.49"/>
<path d="M977.433 55.9112C977.245 54.8167 976.716 54.0299 976.132 53.2672C975.075 51.9241 973.787 50.8672 972.283 50.0566C972.085 49.9514 971.812 49.7338 971.62 50.0356C971.43 50.3104 971.665 50.4854 971.873 50.6589C972.588 51.2521 973.347 51.7798 973.991 52.4371C975.062 53.5097 976.145 54.5966 976.665 56.088C976.735 56.3086 976.933 56.4138 976.989 56.6472C977.035 56.8123 977.176 56.7112 977.221 56.6187C977.316 56.3524 977.371 56.0706 977.433 55.9112Z" fill="#CECECE" fill-opacity="0.49"/>
<path d="M957.997 33.2995C956.984 33.4907 956.214 33.9793 955.824 34.9758C955.776 35.1224 955.659 35.2791 955.843 35.3971C956.012 35.528 956.23 35.5122 956.401 35.3584C956.628 35.1533 956.87 34.9354 957.097 34.7304C957.425 34.4086 957.822 34.3343 958.258 34.3028C959.224 34.2312 960.158 34.2663 961.127 34.3982C961.383 34.4252 961.674 34.3183 961.955 34.3736C962.049 34.3921 962.21 34.4276 962.244 34.2938C962.277 34.187 962.203 34.0476 962.097 33.9878C961.77 33.7674 961.399 33.5854 961.022 33.5386C960.118 33.4508 959.237 33.1879 958.325 33.2623C958.215 33.2837 958.093 33.2909 957.997 33.2995Z" fill="#CECECE" fill-opacity="0.49"/>
<path d="M965.336 59.9577C962.519 58.577 960.718 56.1511 958.824 53.7068C958.957 54.2831 959.302 54.6943 959.577 55.1425C959.412 55.1882 959.349 55.09 959.299 55.006C959.135 54.767 958.886 54.6049 958.686 54.8113C958.472 55.0036 958.635 55.2697 958.842 55.4703C959.359 55.9582 959.903 56.4476 960.421 56.9355C960.627 57.1361 960.807 57.3353 961.014 57.5359C961.169 57.6796 961.32 57.9044 961.627 57.7306C961.809 57.6181 961.933 57.8415 962.063 57.9567C962.726 58.52 963.36 59.109 964.11 59.5413C964.479 59.7503 964.879 59.8797 965.336 59.9577Z" fill="#CECECE" fill-opacity="0.49"/>
<path d="M951.158 48.2636C951.258 48.6891 951.276 49.1374 951.417 49.5515C951.488 49.7451 951.576 49.8988 951.718 50.0282C951.862 50.1306 951.987 50.327 952.211 50.2031C952.461 50.0805 952.253 49.907 952.247 49.7575C952.222 48.1293 951.899 46.4855 952.294 44.8655C952.312 44.7716 952.331 44.6776 952.225 44.6179C952.147 44.5596 952.039 44.554 951.955 44.6038C951.732 44.7278 951.573 44.9228 951.479 45.162C951.082 46.2937 950.988 47.0752 951.158 48.2636Z" fill="#CECECE" fill-opacity="0.49"/>
<path d="M950.133 45.2411C949.703 45.4221 949.581 45.6869 949.531 46.1452C949.43 47.3195 949.588 48.4666 949.761 49.6009C949.904 50.5033 950.27 51.3087 950.787 52.0543C950.902 52.2093 951.06 52.2989 951.239 52.2405C951.336 52.2049 951.29 52.0398 951.227 51.9416C950.263 49.8441 950.108 47.5853 950.133 45.2411Z" fill="#CECECE" fill-opacity="0.49"/>
<path d="M981.025 45.6047C981.957 46.4667 982.679 47.467 983.37 48.5199C984.188 49.7692 984.567 51.1041 984.409 52.5873C984.381 52.8705 984.449 53.1452 984.366 53.4256C984.32 53.5452 984.353 53.6961 984.499 53.7444C984.659 53.807 984.72 53.6746 984.806 53.5706C985.146 53.0324 985.095 52.4332 985.07 51.8625C985.01 50.6527 984.66 49.5498 983.925 48.5353C983.318 47.6901 982.752 46.8336 981.945 46.1678C981.657 45.963 981.429 45.6529 981.025 45.6047Z" fill="#CECECE" fill-opacity="0.49"/>
<path d="M951.745 39.7117C951.734 39.9281 951.737 40.1316 951.975 40.2525C952.279 40.3904 952.481 40.4145 952.61 40.0145C952.819 39.3881 952.785 38.722 953.114 38.1155C953.354 37.6671 953.668 37.358 954.173 37.2895C954.353 37.231 954.586 37.1754 954.586 36.9178C954.588 36.6061 954.316 36.619 954.115 36.5679C953.58 36.4315 953.135 36.6523 952.791 37.014C952.102 37.7644 951.611 38.6201 951.745 39.7117Z" fill="#CECECE" fill-opacity="0.49"/>
<path d="M983.972 64.8481C983.922 64.2219 983.584 64.4754 983.31 64.5424C982.639 64.6566 982.006 65.3828 982.014 66.0204C982.009 66.3862 982.332 66.6878 982.688 66.625C982.866 66.5936 983.045 66.5352 983.017 66.2762C982.953 65.6898 983.442 65.4035 983.784 65.0688C983.928 64.9136 983.999 65.1071 984.021 65.2167C984.075 65.4772 984.276 65.5283 984.478 65.5524C984.721 65.5651 984.865 65.4099 984.956 65.2248C985.097 64.839 985.278 64.4959 985.589 64.241C985.745 64.1 985.717 63.868 985.63 63.7143C985.544 63.5336 985.335 63.6447 985.21 63.706C984.807 63.8884 984.405 64.0708 984.246 64.5235C984.213 64.6302 984.101 64.7057 983.972 64.8481Z" fill="#CECECE" fill-opacity="0.49"/>
<path d="M956.233 40.4884C957.29 39.4318 958.438 38.4748 959.672 37.6714C960.808 36.9307 962.087 36.5771 963.473 36.7715C963.877 36.8197 964.27 36.8266 964.654 36.7382C964.751 36.7025 964.849 36.6399 964.841 36.5445C964.847 36.4093 964.725 36.4165 964.644 36.4122C963.191 36.2009 961.742 36.166 960.368 36.7858C959.689 37.0622 959.136 37.535 958.571 37.9936C957.679 38.7199 956.801 39.4605 956.233 40.4884Z" fill="#CECECE" fill-opacity="0.49"/>
<path d="M967.2 61.1669C967.331 61.5127 967.579 61.7019 967.868 61.8797C968.958 62.5738 970.11 63.1084 971.418 63.2444C971.648 63.2699 971.865 63.2541 972.06 63.1558C972.185 63.0946 972.313 62.9792 972.28 62.8284C972.26 62.6917 972.098 62.6833 971.963 62.6762C971.26 62.6395 970.639 62.3224 969.954 62.1918C969.068 62.0101 968.333 61.5379 967.51 61.1967C967.445 61.1526 967.354 61.08 967.2 61.1669Z" fill="#CECECE" fill-opacity="0.49"/>
<path d="M954.816 44.8612C955.467 44.0681 955.881 43.1271 956.506 42.3055C956.695 42.0578 956.82 41.7389 957.191 41.6362C957.356 41.5906 957.36 41.2518 957.533 41.0439C958.137 40.3704 958.816 39.8093 959.674 39.4744C959.909 39.3917 960.128 39.3489 960.356 39.4015C960.477 39.4214 960.613 39.4014 960.633 39.2804C960.681 39.1338 960.549 39.0726 960.456 39.0271C960.297 38.9646 960.161 38.9575 959.984 38.9889C959.069 39.1174 958.418 39.6529 957.777 40.2567C956.836 41.1567 956.13 42.2317 955.503 43.3649C955.234 43.839 955.059 44.3586 954.816 44.8612Z" fill="#CECECE" fill-opacity="0.49"/>
<path d="M956.062 49.1293C956.341 50.554 957.084 51.6638 958.204 52.5628C958.27 52.6069 958.348 52.6652 958.402 52.668C958.577 52.6907 958.811 52.8927 958.915 52.7219C959.048 52.4983 958.738 52.4686 958.634 52.3818C957.725 51.6023 956.985 50.696 956.625 49.5248C956.426 48.9043 956.404 48.2795 956.692 47.6844C956.753 47.552 956.799 47.4324 956.668 47.3442C956.512 47.2276 956.448 47.4141 956.39 47.4924C956.039 47.9893 955.997 48.543 956.062 49.1293Z" fill="#CECECE" fill-opacity="0.49"/>
<path d="M984.119 57.7242C984.036 57.4893 984.225 56.984 983.623 57.0882C983.294 57.1524 983.08 57.3717 983.117 57.699C983.155 58.0264 983.058 58.3196 983.029 58.6299C983.004 58.8591 982.953 59.0598 982.628 59.0429C982.52 59.0372 982.394 59.1255 982.295 59.1882C982.099 59.3136 982.212 59.4957 982.231 59.6594C982.264 59.8102 982.399 59.8173 982.535 59.7973C983.697 59.6273 984.262 58.9111 984.119 57.7242Z" fill="#CECECE" fill-opacity="0.49"/>
<path d="M965.808 56.5657C965.75 56.3864 965.7 56.3024 965.567 56.2413C964.935 55.8829 964.489 55.3309 964.098 54.7546C963.617 54.0788 963.01 53.4912 962.572 52.7769C962.284 52.3145 961.941 51.8763 961.667 51.401C961.343 50.8418 961.17 50.2498 961.425 49.5038C961.075 49.7161 961.036 49.958 961.023 50.2014C960.987 50.9046 961.281 51.5165 961.686 52.0799C962.636 53.3903 963.586 54.7008 964.649 55.9087C964.931 56.2217 965.313 56.4449 965.808 56.5657Z" fill="#CECECE" fill-opacity="0.49"/>
<path d="M977.84 46.6454C978.12 46.4702 978.244 46.6936 978.41 46.9056C979.245 48.0609 980.011 49.2533 980.792 50.4329C980.88 50.5595 980.966 50.7402 981.16 50.6419C981.328 50.5422 981.187 50.3857 981.139 50.2747C980.712 49.3441 980.047 48.5502 979.467 47.7064C979.049 47.1288 978.475 46.6921 978.113 46.0902C977.961 45.8654 977.771 45.8825 977.535 45.9922C977.299 46.102 977.225 46.2201 977.266 46.4663C977.328 46.8492 977.608 46.674 977.84 46.6454Z" fill="#CECECE" fill-opacity="0.49"/>
<path d="M974.12 68.9848C974.216 69.2338 974.435 69.191 974.569 69.2251C976.159 69.6741 977.676 69.4414 979.114 68.6351C979.351 68.4984 979.6 68.4029 979.838 68.2661C980.006 68.1664 980.148 68.0382 980.237 67.8802C980.327 67.7222 980.375 67.5756 980.232 67.4461C980.077 67.3024 979.973 67.4733 979.875 67.5359C978.746 68.399 977.483 68.9704 976.039 69.112C975.399 69.1735 974.781 69.0599 974.12 68.9848Z" fill="#CECECE" fill-opacity="0.49"/>
<path d="M955.65 46.5862C956.131 45.9199 956.382 45.2551 956.87 44.7382C957.732 43.7799 958.555 42.8059 959.7 42.1606C960.021 41.974 960.357 41.7746 960.752 41.985C960.845 42.0305 960.915 41.9935 960.959 41.928C961.018 41.8226 960.968 41.7387 960.904 41.6676C960.736 41.5097 960.533 41.5126 960.328 41.5426C959.67 41.671 959.137 42.0228 958.641 42.4444C957.493 43.4284 956.487 44.5419 955.793 45.9158C955.644 46.1792 955.631 46.165 955.65 46.5862Z" fill="#CECECE" fill-opacity="0.49"/>
<path d="M954.059 50.6521C954.232 51.2442 954.566 51.8717 955.055 52.3853C955.132 52.4706 955.224 52.5161 955.331 52.5488C955.438 52.5815 955.556 52.6555 955.617 52.5231C955.677 52.4177 955.543 52.3836 955.479 52.3125C954.518 51.2184 954.16 49.9931 954.572 48.5639C954.606 48.4301 954.683 48.2578 954.509 48.2081C954.35 48.1455 954.313 48.3334 954.293 48.4544C954.122 49.1505 953.992 49.8352 954.059 50.6521Z" fill="#CECECE" fill-opacity="0.49"/>
<path d="M974.12 67.6694C974.868 67.8982 975.515 67.9591 976.151 67.9787C976.788 67.9984 977.395 67.786 978.01 67.696C978.461 67.6246 978.902 67.4849 979.269 67.2058C979.368 67.1161 979.468 67.0264 979.379 66.8997C979.303 66.7873 979.178 66.8486 979.08 66.9113C977.635 67.5951 976.097 67.7183 974.541 67.6507C974.435 67.618 974.325 67.6394 974.12 67.6694Z" fill="#CECECE" fill-opacity="0.49"/>
<path d="M956.717 35.7955C956.225 35.8783 955.6 36.9574 955.766 37.4271C955.813 37.5651 955.917 37.6519 956.094 37.6475C956.299 37.6175 956.438 37.5434 956.488 37.3698C956.605 36.9285 956.827 36.574 957.193 36.2948C957.32 36.2065 957.284 36.1098 957.236 35.9988C957.126 35.7625 956.894 35.7911 956.717 35.7955Z" fill="#CECECE" fill-opacity="0.49"/>
<path d="M960.894 44.5142C960.496 45.1307 959.962 45.5095 959.504 45.9737C959.29 46.193 959.048 46.4109 958.965 46.7184C958.933 46.7981 958.929 46.8792 958.995 46.9233C959.047 46.9532 959.129 46.9574 959.173 46.8919C959.591 46.1274 960.411 45.7498 960.855 45.0138C960.927 44.9226 960.974 44.8031 960.894 44.5142Z" fill="#CECECE" fill-opacity="0.49"/>
<path d="M959.847 35.8368C960.11 35.7285 960.466 35.6657 960.391 35.2687C960.33 34.8858 960.022 34.802 959.668 34.8377C959.286 34.8721 959.297 35.198 959.311 35.4428C959.353 35.689 959.518 35.901 959.847 35.8368Z" fill="#CECECE" fill-opacity="0.49"/>
<path d="M959.07 50.4933C959.524 51.4253 960.077 52.2677 960.827 52.9847C960.878 53.0416 960.972 53.06 961.043 52.9959C961.114 52.9319 961.091 52.8493 961.04 52.7924C960.246 52.1409 959.778 51.2217 959.07 50.4933Z" fill="#CECECE" fill-opacity="0.49"/>
<path d="M971.983 54.0677C971.779 54.0707 971.666 54.1732 971.629 54.3611C971.578 54.5618 971.554 54.7639 971.708 54.9346C971.797 55.0613 971.974 55.0299 972.045 54.9658C972.23 54.7992 972.391 54.5771 972.537 54.3678C972.709 54.1869 972.42 54.0091 971.983 54.0677Z" fill="#CECECE" fill-opacity="0.49"/>
<path d="M982.622 53.6057C982.28 53.6557 982.202 53.855 982.241 54.1553C982.282 54.4285 982.505 54.5622 982.711 54.5052C982.904 54.461 983.196 54.3 983.129 54.0253C983.086 53.8062 982.952 53.5144 982.622 53.6057Z" fill="#CECECE" fill-opacity="0.49"/>
<path d="M978.091 56.8401C978.12 57.0721 978.363 57.0848 978.474 57.0363C978.723 56.9408 979.001 56.7927 978.991 56.4667C978.989 56.2362 978.779 56.1167 978.545 56.1723C978.202 56.2494 978.067 56.4999 978.091 56.8401Z" fill="#CECECE" fill-opacity="0.49"/>
<path d="M971.254 59.575C971.409 59.9763 972.238 60.2093 972.576 59.9558C972.633 59.9045 972.706 59.8134 972.681 59.7579C972.646 59.6611 972.554 59.5886 972.419 59.5815C972.216 59.5845 972.014 59.5604 971.81 59.5633C971.621 59.5534 971.444 59.5578 971.254 59.575Z" fill="#CECECE" fill-opacity="0.49"/>
<path d="M969.71 46.8312C970.014 46.7115 970.381 46.69 970.358 46.3498C970.347 46.0239 969.992 46.0867 969.786 46.1437C969.525 46.1979 969.433 46.41 969.446 46.6819C969.476 46.8868 969.613 46.8668 969.71 46.8312Z" fill="#CECECE" fill-opacity="0.49"/>
<path d="M963.297 40.2061C963.216 40.2019 963.148 40.2119 963.053 40.2205C962.698 40.2562 962.684 40.5267 962.712 40.7857C962.741 41.0177 962.943 41.0418 963.109 40.9691C963.331 40.8722 963.569 40.7355 963.396 40.4011C963.359 40.3313 963.322 40.2616 963.297 40.2061C963.297 40.2061 963.285 40.1919 963.297 40.2061Z" fill="#CECECE" fill-opacity="0.49"/>
<path d="M958.268 56.0912C958.65 56.5721 959.002 57.1057 959.512 57.4712C959.541 57.4456 959.583 57.4071 959.612 57.3815C959.201 56.9262 958.776 56.4838 958.366 56.0285C958.325 56.0399 958.296 56.0655 958.268 56.0912Z" fill="#CECECE" fill-opacity="0.49"/>
<path d="M970.394 50.4193C970.401 50.5417 970.495 50.5601 970.565 50.5231C970.76 50.4248 970.956 50.2994 970.941 50.0546C970.934 49.9322 970.8 49.8981 970.676 49.9323C970.442 50.015 970.443 50.2456 970.394 50.4193Z" fill="#CECECE" fill-opacity="0.49"/>
</g>
<path d="M120.088 77.988C119.083 79.1837 118.007 80.3166 116.863 81.3801C115.467 82.9973 113.956 84.5113 112.342 85.9102C110.66 87.1416 108.909 88.2752 107.097 89.3053C106.913 89.4297 106.695 89.4912 106.473 89.4806C106.252 89.47 106.04 89.3879 105.869 89.2465C105.675 89.1089 105.531 88.912 105.459 88.6855C105.387 88.459 105.391 88.2152 105.47 87.991L106.272 85.0233C105.678 85.3826 105.225 85.9353 104.99 86.5886C103.027 91.342 100.268 95.7093 98.3883 100.505C97.2837 103.5 95.8475 106.376 94.857 109.403C93.6023 112.425 92.7756 115.607 92.401 118.858C92.3547 119.198 92.192 119.512 91.9406 119.747C91.0251 120.908 90.3798 122.258 90.0518 123.699C89.992 123.983 89.8707 124.25 89.6965 124.481C89.5222 124.713 89.2994 124.903 89.0435 125.039C88.236 125.537 87.4565 126.079 86.7085 126.663C86.4999 126.842 86.2423 126.955 85.9689 126.987C85.6955 127.018 85.4189 126.967 85.1751 126.839C84.6168 126.55 84.5093 126.049 84.5595 125.445C84.7462 124.423 85.036 123.422 85.4244 122.458C86.5496 118.988 87.4451 115.448 88.1049 111.861C88.5609 109.837 89.1456 107.845 89.8555 105.896C90.5462 103.448 90.7591 100.909 91.5019 98.4615C92.4968 95.1215 94.3624 92.075 95.6254 88.9262C95.8486 88.619 95.9669 88.2482 95.9632 87.8685C95.0399 88.5376 94.2508 89.3747 93.6371 90.3358C92.5818 92.1221 91.7305 94.0213 91.0993 95.9977C90.5943 97.8342 89.6336 99.4873 88.9632 101.238C88.8071 101.462 88.6812 101.705 88.5884 101.962C88.5482 102.763 88.2445 103.527 87.7245 104.137C86.7921 105.505 85.7351 106.784 84.567 107.957C84.336 108.155 84.1545 108.404 84.0366 108.685C83.9187 108.965 83.8679 109.269 83.8881 109.573C83.7115 112.347 82.938 115.051 81.6203 117.499C80.1239 120.946 78.7723 124.469 77.1206 127.862C75.2456 132.131 73.0999 136.276 70.6965 140.271C68.6854 143.295 67.1085 146.543 65.0668 149.525C64.2714 150.668 63.4073 151.762 62.4794 152.801C61.0604 154.732 59.7557 156.745 58.572 158.829C57.1673 161.304 55.3741 163.536 53.2609 165.442C51.8191 166.505 50.7643 168.188 48.8036 168.379C46.3515 168.709 45.6735 168.044 46.0626 165.57C46.2214 164.456 46.6829 163.407 47.3968 162.537C47.4915 162.403 47.5672 162.257 47.6217 162.103C48.7875 159.436 50.3232 156.947 52.1836 154.709C54.2368 151.654 56.1245 148.514 58.1364 145.439C59.4138 143.478 60.8774 141.613 62.3409 139.748C63.3164 138.522 64.0338 137.136 64.9165 135.836C66.1298 133.999 67.621 132.385 68.8963 130.58C71.6495 126.629 74.2686 122.583 76.6504 118.387C77.3781 117.276 77.9358 116.062 78.3051 114.786L76.614 116.533C74.1517 119.061 71.4949 121.357 68.7959 123.683C68.5274 123.855 68.3088 124.095 68.1622 124.378C68.0156 124.661 67.9461 124.978 67.9607 125.297C67.9337 125.528 67.8233 125.741 67.6502 125.896C66.2775 127.231 65.4302 128.969 64.1708 130.389L57.9381 137.364C57.2185 138.301 56.5543 139.279 55.9491 140.294C53.3321 144.184 50.8429 147.878 48.507 151.783C47.3613 153.616 46.3659 155.539 45.5305 157.532C44.6233 160.238 43.2016 162.744 41.3437 164.911C40.7709 165.585 40.3006 166.34 39.9477 167.151C39.6362 167.685 39.1686 168.111 38.6079 168.372C38.3681 168.526 38.0794 168.584 37.7988 168.536C37.5181 168.488 37.2656 168.336 37.091 168.111C36.4797 167.577 36.0187 166.892 35.7537 166.125C35.4887 165.357 35.4289 164.534 35.5802 163.736C36.349 159.875 37.9734 156.236 40.3339 153.085L43.4346 148.868C42.6048 149.192 41.8626 149.706 41.268 150.369C38.2094 153.086 34.8535 155.466 32.0507 158.5C30.4011 160.268 28.7599 162.172 27.1095 163.993C26.235 164.992 25.19 165.827 24.0232 166.46C23.7637 166.62 23.4658 166.708 23.1608 166.714C22.8558 166.719 22.5548 166.643 22.2896 166.492C22.0244 166.341 21.8047 166.122 21.6534 165.857C21.5021 165.592 21.425 165.291 21.43 164.986C21.4364 163.369 22.0707 161.816 23.1991 160.657C27.7169 154.897 32.9521 149.737 38.7775 145.303C39.1362 145.001 39.4781 144.679 39.8014 144.339C38.1558 145.086 36.53 145.897 34.9158 146.635C29.5804 149.067 23.8966 150.646 18.0718 151.315C16.2517 151.446 14.4228 151.379 12.6174 151.114C12.0605 151.033 11.5335 150.811 11.0864 150.47C10.6392 150.128 10.2867 149.678 10.0621 149.162C9.86841 148.739 9.82102 148.263 9.92736 147.81C10.0337 147.357 10.2877 146.953 10.6494 146.66C11.4295 146.129 12.3523 145.848 13.2957 145.853C15.4497 145.646 17.6136 145.558 19.7773 145.59C21.2354 145.417 22.6822 145.159 24.1103 144.817C27.9423 144.36 31.7296 143.584 35.4325 142.497C37.0745 142.009 38.6887 141.271 40.2495 140.637C44.1807 138.817 47.9883 136.741 51.6475 134.422C53.1354 133.6 54.5258 132.613 55.7924 131.48C55.8856 131.381 55.9975 131.302 56.1215 131.247C56.2456 131.192 56.3794 131.162 56.5151 131.159C56.6508 131.156 56.7857 131.18 56.912 131.23C57.0384 131.28 57.1535 131.354 57.2509 131.448C57.5611 131.609 57.7058 131.684 58.0012 131.417C59.9426 129.642 62.0786 128.1 64.1425 126.493C64.7004 126.074 64.7103 126.105 64.4954 125.102L61.4291 127.632C60.9232 128.052 60.492 129.088 59.8136 127.714C59.5906 127.284 59.2509 127.737 58.9884 127.89C57.3305 128.762 55.8765 129.95 54.1795 130.645C50.1664 132.37 46.1832 134.189 42.0389 135.61C37.8947 137.031 33.1356 138.475 28.7502 140.007C27.3126 140.396 25.8407 140.644 24.3552 140.748C22.5173 141.281 20.6128 141.549 18.6993 141.544C16.3661 141.492 14.0419 141.236 11.7532 140.78C11.0506 140.658 10.4145 140.29 9.9586 139.741C9.5027 139.193 9.2567 138.5 9.26468 137.787C9.28483 137.18 9.46492 136.59 9.78676 136.075C10.1086 135.56 10.5607 135.139 11.0974 134.855C13.4551 133.48 16.1103 132.695 18.8365 132.567C22.7814 131.987 26.7441 131.626 30.6713 130.827C37.1228 129.674 43.4987 128.132 49.764 126.209C53.8547 124.891 57.9653 123.636 62.0468 122.235C64.4435 121.404 66.6906 120.102 69.1264 119.449C71.1694 118.651 72.9662 117.329 74.3358 115.616C76.9215 113.204 79.3432 110.603 81.8369 108.065C82.1935 107.805 82.4916 107.472 82.7122 107.09C82.9329 106.707 83.0711 106.283 83.118 105.844C83.1264 105.655 83.1759 105.47 83.2627 105.302C83.3496 105.134 83.4719 104.987 83.6212 104.872C85.0257 103.682 86.1284 102.177 86.8389 100.479L88.5306 97.2117C88.6591 96.9635 88.8732 96.5499 88.6051 96.3586C88.337 96.1674 88.0088 96.5482 87.8076 96.785C84.8865 99.8981 81.7407 102.792 78.3955 105.444C76.2113 107.108 73.9401 108.655 71.5917 110.078C70.8473 110.533 70.137 111.042 69.4665 111.6C66.9 113.415 64.1922 115.021 61.369 116.403C58.1092 118.38 54.6681 120.041 51.0926 121.363C48.1402 122.457 45.2056 123.77 42.2325 124.854C41.9973 124.548 42.125 124.352 42.3034 124.261C43.9904 123.535 45.7587 122.955 47.3958 122.072C48.9753 121.529 50.5213 120.893 52.0259 120.168C52.4782 119.851 53.3519 119.937 54.001 119.696C56.2255 118.71 58.3607 117.534 60.3828 116.181C62.3559 115.105 64.3696 114.102 66.2715 112.91C67.5539 112.061 68.7655 111.109 69.8943 110.065C70.4884 109.634 71.1423 109.292 71.8354 109.05C73.3549 108.169 74.7975 107.161 76.1479 106.038C77.3899 105.107 78.5707 104.093 79.8442 103.152C81.7932 101.787 83.5292 100.141 84.9955 98.2663C85.6963 97.3179 86.914 96.6371 87.614 95.7407C88.314 94.8443 89.6661 93.4988 90.4555 92.1766C90.8409 91.432 91.8837 91.3425 92.1465 90.4296C91.9604 90.3332 91.8342 90.4252 91.7286 90.5278C89.3081 92.7996 86.6348 94.7857 83.7611 96.4472C79.9481 98.7478 76.7303 101.671 73.1555 104.069C69.3457 106.851 65.3877 109.425 61.2989 111.778C58.4762 113.28 55.6435 114.75 52.8514 116.294C54.8404 114.833 57.0125 113.676 59.1241 112.383C61.5516 111.101 63.8652 109.614 66.0398 107.938C68.2162 106.093 70.5083 104.389 72.9021 102.836C76.7096 100.192 80.3231 97.2636 84.3252 94.851C87.0616 93.0849 89.6405 91.0858 92.0331 88.876C92.799 88.1412 93.5131 87.3543 94.1701 86.5207C93.9862 86.2682 93.9013 86.3815 93.8164 86.4949C91.8449 88.4615 89.5715 90.1 87.0825 91.3482C83.323 93.5455 79.5743 95.722 76.2147 98.3623C73.8995 100.026 71.4739 101.53 68.9546 102.865C66.7151 104.161 64.5837 105.636 62.5811 107.275C60.2332 109.075 57.6922 110.54 55.191 112.13C51.3091 114.359 47.6067 116.888 44.1176 119.693C42.1352 121.457 40.0607 123.114 37.9028 124.658C37.6503 124.842 37.2201 125.065 37.4745 125.485C37.729 125.905 38.0949 125.806 38.4915 125.749C38.888 125.692 39.1298 125.529 39.5855 125.712C38.866 126.243 38.0344 126.602 37.1545 126.762C37.0174 126.791 36.8745 126.772 36.7501 126.707C36.6257 126.643 36.5274 126.537 36.4721 126.408C36.349 126.125 36.2964 125.816 36.3189 125.508C36.3414 125.2 36.4383 124.902 36.6012 124.639C37.0722 123.805 37.845 123.182 38.7608 122.899C39.4771 122.708 40.1029 122.271 40.5279 121.663C41.8697 119.893 43.6143 118.467 45.6169 117.506C48.073 116.155 50.219 114.643 52.5532 113.072C54.5186 111.808 56.4626 110.585 58.49 109.353C61.034 107.681 63.5067 105.892 66.0606 104.251C68.6145 102.61 70.5356 101.533 72.7628 100.168C74.99 98.8035 77.0003 97.3005 79.1142 95.851C80.7543 94.7595 82.4856 93.8462 84.105 92.744C85.7244 91.6417 87.0806 90.7441 88.6243 89.8387C90.9296 88.2385 93.135 86.4988 95.2279 84.6294C95.6702 84.2814 95.8973 83.6909 96.4836 83.47C97.07 83.249 96.9551 83.2682 97.1719 83.4067C97.3886 83.5451 97.2908 83.8354 97.2251 84.0636C97.1085 84.8477 96.7732 85.5831 96.2578 86.1853C96.1614 86.3714 95.8361 86.544 96.1142 86.7666C96.3922 86.9892 96.6256 86.6904 96.7327 86.4836C97.5767 84.9638 98.5519 83.5206 99.6472 82.1706C101.716 79.4914 103.32 76.4933 105.544 73.9204C106.952 72.2632 108.464 70.7115 109.903 69.0964C110.063 68.7862 110.503 68.6465 110.561 68.2306C109.54 68.6983 108.548 69.227 107.591 69.814C104.467 71.9993 101.017 73.6488 97.8527 75.7607L92.122 79.6385C91.7959 79.8631 91.532 80.1198 91.0357 79.8629C90.5394 79.6059 89.9874 79.6087 90.4648 80.459C90.6373 80.7843 90.2828 80.8106 90.1972 80.9761C87.3172 82.8419 84.5706 84.8554 81.6193 86.6056C79.5605 87.8475 77.5424 89.163 75.5142 90.447C73.4861 91.731 71.4372 93.0043 69.2972 94.0993C67.5747 95.0816 65.764 95.9002 63.8887 96.5443C62.3455 97.2139 60.6567 97.4772 58.983 97.309C58.0588 97.119 57.5769 96.5811 58.1928 95.746C59.2557 94.0577 60.5974 92.562 62.1608 91.3227C62.9424 90.6753 63.6859 89.9832 64.3875 89.2499C65.5362 88.2973 66.8487 87.5344 68.0587 86.666C69.9207 85.3484 71.8241 84.0522 73.6761 82.7033C74.4123 82.1928 75.4857 82.1453 76.2769 81.4272C79.5561 79.1438 83.0632 77.2066 86.7419 75.647C90.1425 73.7884 93.6045 72.0141 97.0457 70.229C97.798 69.86 98.5749 69.5437 99.371 69.2824C95.9767 71.4327 92.3793 73.2156 88.8026 75.0092C85.8115 76.463 82.9181 78.11 80.1409 79.9397C78.6165 80.9641 77.0314 81.895 75.3942 82.7273C72.8554 84.0354 70.8852 86.3722 68.2822 87.8045C65.4244 89.7337 62.8383 92.0376 60.5932 94.6546C60.167 95.1859 59.7862 95.752 59.4548 96.347C61.1404 96.3115 62.8037 95.9528 64.3542 95.2905C66.6989 94.2951 68.9793 93.1547 71.1824 91.8759C74.7221 89.7485 78.2612 87.6732 81.7825 85.3788C85.3038 83.0845 88.3614 81.1795 91.4869 78.8901C94.0651 76.9992 96.6841 75.1819 99.3742 73.4801C100.961 72.4919 102.71 71.7977 104.266 70.7674C106.768 69.1255 109.32 67.5884 111.801 65.9357C110.326 66.2321 108.928 66.8295 107.694 67.6906C105.445 69.1486 102.836 70.2371 100.532 71.8505C95.6734 75.2094 90.1124 77.3918 85.2221 80.7607C82.5394 82.3493 79.7339 83.7208 76.8325 84.8618C75.2703 85.6003 73.7586 86.4436 72.3947 87.1537C73.075 86.3003 73.968 85.6411 74.9837 85.2421C75.8751 84.5629 76.8903 84.0641 77.9726 83.7737C78.223 83.7459 78.5575 83.6568 78.542 83.2816C78.5264 82.9065 78.7561 82.868 79.0264 82.903C81.1771 82.6178 83.1947 81.6998 84.8229 80.2655C85.6005 79.7765 86.4088 79.3295 87.2997 78.9253C86.7828 78.6577 86.5701 78.9672 86.2684 78.9421C92.3976 75.6115 98.3044 71.7986 104.659 68.7418L102.875 69.6543C103.709 69.0367 104.633 68.5508 105.614 68.2136C106.216 68.0756 106.738 67.7045 107.066 67.1819C107.398 66.5407 108.23 66.6045 108.816 66.4356C111.361 65.4788 113.779 64.2112 116.013 62.6616C116.949 62.0705 117.976 61.6057 118.942 61.0568C119.246 60.8736 119.644 60.7646 119.756 60.1933C115.78 62.2521 111.484 63.3586 107.703 65.5972L118.138 60.431C119.408 59.7509 120.656 59.1122 121.844 58.3372C122.022 58.246 122.836 58.1948 122.24 57.572C121.889 57.39 122.551 56.9722 122.844 56.8617C124.928 56.0264 126.911 54.9813 129.026 54.2401C130.945 53.5934 132.814 52.8084 134.62 51.8914C135.007 51.7049 135.346 51.4316 135.61 51.0929C135.433 51.0167 135.242 50.9771 135.049 50.9762C134.855 50.9752 134.664 51.0131 134.486 51.0876C128.526 52.1537 122.677 53.77 117.015 55.9157C113.726 57.203 110.266 58.1649 106.957 59.4415C99.6901 62.1834 92.035 62.9409 84.4668 64.1891C82.1627 64.6147 79.7831 64.3008 77.6684 63.2921C76.0348 62.4464 75.8084 61.5162 76.9951 60.085C78.6661 58.2392 80.8156 56.8921 83.2051 56.193C93.085 52.7585 103.401 51.6216 113.677 50.3591C117.705 49.8218 121.699 49.4506 125.725 49.0173C125.823 49.0128 125.921 49.0342 126.008 49.0793C126.095 49.1244 126.168 49.1916 126.221 49.2742C125.375 49.4395 124.539 49.6882 123.673 49.7907C117.926 50.4082 112.162 50.7546 106.471 51.7687C101.439 52.6774 96.3084 53.1161 91.3947 54.4535C87.5705 55.5165 83.8438 56.9035 80.255 58.5995C79.3094 58.9859 78.4716 59.5961 77.8137 60.3777C77.6517 60.5516 77.5315 60.7603 77.4624 60.9877C77.3933 61.2151 77.3771 61.4554 77.415 61.69C77.4528 61.9247 77.5439 62.1476 77.681 62.3417C77.8182 62.5358 77.9978 62.696 78.2063 62.81C79.6337 63.6685 81.316 64.0015 82.9629 63.7515C87.9376 63.2586 92.7794 61.8576 97.7947 61.4382C100.959 61.0577 104.049 60.2093 106.964 58.9208C108.843 58.0665 110.766 57.3111 112.724 56.6578C115.755 55.8669 118.564 54.6458 121.544 53.8022C122.401 53.5642 123.149 52.9809 124.048 52.7123C122.571 52.5312 121.076 52.57 119.61 52.8273C116.146 53.2892 112.789 54.2527 109.404 55.0178C105.13 56.1183 100.755 56.7796 96.3474 56.9913C94.7014 57.0308 93.0546 57.1223 91.3893 57.047C93.0445 56.6974 94.7349 56.5427 96.426 56.5862C99.4445 56.6047 102.451 56.2015 105.358 55.3882C107.125 54.913 108.889 54.5939 110.677 54.0773C112.315 53.4529 113.993 52.9371 115.698 52.5331C117.514 52.2668 119.23 51.7388 121.067 51.4311C122.216 51.3084 123.376 51.3107 124.524 51.4378C126.583 51.478 128.64 51.2654 130.647 50.8047C132.724 50.438 134.761 49.9978 136.838 49.6831C137.739 49.5938 138.595 49.2437 139.3 48.6759C138.179 48.5286 137.047 48.4779 135.917 48.5244L135.943 48.2227C137.204 48.1675 138.465 48.0601 139.747 48.0155C142.687 47.7883 145.607 47.3452 148.483 46.6899L159.656 44.6067C160.846 44.3838 161.926 43.8676 163.076 43.5712C163.567 43.4323 164.165 43.1386 164.406 43.7877C164.507 44.1104 164.507 44.4564 164.406 44.779C164.304 45.1017 164.106 45.3855 163.839 45.5922C163.332 46.0642 162.994 45.7053 162.655 45.3465C162.624 45.2875 162.576 45.2395 162.516 45.2089C162.457 45.1783 162.39 45.1665 162.324 45.1752L162.238 45.3406C162.452 45.6873 162.99 45.9657 162.723 46.4306C162.456 46.8956 161.966 46.9304 161.466 46.9339C156.42 47.0977 151.42 47.9603 146.61 49.4968C145.102 50.0307 143.626 50.6499 142.189 51.3514C141.748 51.5459 141.369 51.8577 141.093 52.2527C138.207 56.0037 135.277 59.9415 132.73 64.0514C131.444 65.8757 130.005 67.5873 128.429 69.1679C125.973 71.9875 123.487 74.765 120.825 77.3733L119.971 78.1113C119.981 77.4345 120.66 77.2877 120.988 76.9069C122.64 74.9823 124.138 72.8992 125.872 71.0694C128.194 68.6698 130.378 66.1409 132.415 63.495C132.884 62.8068 133.315 62.0931 133.705 61.3569C130.504 64.6035 127.458 67.9044 124.452 71.2787C121.506 74.6103 118.198 77.6034 114.589 80.2025C123.28 72.4289 130.223 63.1206 137.937 54.5001C136.369 55.603 134.967 56.8437 133.492 58.0209C131.333 59.7094 129.287 61.5348 127.22 63.3494C123.297 66.8255 119.999 70.9665 116.189 74.5275C113.65 77.1574 111.266 79.9342 109.052 82.8436C107.857 84.013 107.069 85.5356 106.804 87.1868C106.768 87.5092 106.451 87.8693 106.843 88.1248C107.235 88.3802 107.427 88.06 107.709 87.9702C110.681 86.5919 113.328 84.6024 115.478 82.1315C116.958 80.5898 118.549 79.2892 120.088 77.988ZM80.6124 114.381C79.4461 115.114 79.5417 116.449 78.684 117.447C76.7545 119.858 75.372 122.63 73.5351 125.114C72.3776 126.692 71.4882 128.46 70.3407 130.069C68.6194 132.482 66.5681 134.672 65.0529 137.244C63.5623 139.751 61.8925 142.147 60.0567 144.414C57.8938 147.123 56.2863 150.329 54.4038 153.105C52.9893 155.178 51.5029 157.189 50.2225 159.358C49.6059 160.861 48.9142 162.332 48.1502 163.766C47.5359 164.517 47.2285 165.473 47.2896 166.441C47.3576 167.526 47.5216 167.715 48.5351 167.48C48.8294 167.401 49.1115 167.282 49.3733 167.127C52.4595 165.242 55.1364 162.758 57.2458 159.821C59.3979 157.132 60.7658 153.933 63.114 151.372C64.2544 150.164 65.217 148.799 65.9728 147.319C66.2679 146.49 66.6383 145.69 67.0793 144.928C69.2971 141.933 71.2385 138.742 72.8795 135.396C75.0209 131.259 77.0175 127.048 78.6832 122.665L79.3338 120.852C79.683 120.263 79.9282 119.618 80.0585 118.945C78.7309 120.779 77.6844 122.801 76.9535 124.943C75.4423 128.243 73.731 131.447 71.8293 134.537C69.7453 138.375 67.276 141.991 64.4596 145.329C61.9087 148.231 59.8618 151.577 57.1562 154.372C56.7093 154.983 56.1986 155.545 55.6328 156.049C58.1611 152.532 60.4882 149.252 62.846 146.015C65.2038 142.777 67.4091 139.277 69.6749 135.913C71.9811 132.622 73.9171 129.086 75.4478 125.37C76.9079 121.537 79.3292 118.227 80.6124 114.381ZM117.736 63.8418C116.179 64.9761 114.612 66.0271 113.157 67.267C110.598 69.618 108.239 72.1769 106.103 74.9177C103.603 77.8721 101.535 81.2074 99.219 84.4664C96.3203 88.7371 94.1296 93.4476 92.7315 98.4162C92.4368 99.1511 92.2099 99.9115 92.0537 100.688C91.7391 103.003 91.2788 105.296 90.6756 107.553C90.4013 108.539 89.8476 109.406 89.646 110.403C89.3237 111.836 89.1783 113.282 88.8982 114.684C88.3858 117.041 87.708 119.313 87.0716 121.606L86.1523 124.749C86.0452 124.956 85.9275 125.183 86.2162 125.385C86.505 125.587 86.6021 125.349 86.7597 125.247C87.4646 124.746 88.4176 124.374 88.6989 123.628C89.3143 122.085 90.2192 120.692 90.7933 119.127C91.6159 116.93 91.4599 114.699 92.4158 112.65C92.7641 111.95 93.053 111.223 93.2797 110.475C94.7654 105.825 96.573 101.284 98.6894 96.885C99.9052 94.1314 101.721 91.6883 102.833 88.8812C103.111 88.2959 103.45 87.742 103.846 87.2288C104.963 85.5779 106.224 84.0019 107.217 82.2868C108.367 80.1244 109.67 78.0471 111.116 76.0711C111.686 75.393 112.182 74.6562 112.595 73.8732C113.468 72.2219 114.483 70.6503 115.63 69.1764L116.512 67.9285C116.848 67.5903 117.072 67.1572 117.154 66.6875C114.118 69.7561 111.318 73.0491 108.777 76.5383C106.117 79.9654 103.729 83.5957 101.635 87.3958C99.6654 91.2012 97.706 94.986 95.8393 98.845C99.9519 84.9246 108.714 74.3293 117.736 63.8418ZM61.999 124.151C60.1679 124.75 58.2372 125.036 56.4767 125.803C53.3959 127.145 50.0288 127.369 46.8545 128.689C44.2137 129.536 41.5091 130.171 38.7668 130.586C35.3664 131.544 31.9087 132.285 28.4146 132.806C23.8429 133.048 19.3123 133.799 14.9065 135.044C13.4441 135.398 12.1226 136.185 11.1149 137.303C10.2771 138.364 10.5357 139.232 11.8321 139.615C12.2456 139.829 12.6592 140.043 13.1584 140.092C16.2831 140.903 19.5469 141.027 22.7243 140.454C24.1451 140.141 25.6165 139.932 27.0052 139.681C28.3163 139.497 29.6072 139.191 30.8611 138.766C33.2057 137.935 35.6109 137.239 38.0154 136.596C38.8934 136.368 39.7715 136.141 40.6281 135.955C41.4847 135.769 41.8472 135.17 42.5491 134.878C46.2577 133.336 49.957 131.711 53.6556 130.138C54.0643 129.956 54.4317 129.753 54.8305 129.54C55.2292 129.327 55.6779 129.27 55.8307 128.773C53.1728 130.029 50.4043 131.036 47.5607 131.782C44.2775 132.704 41.0197 134.034 37.8669 135.312C34.8773 136.284 31.7744 136.863 28.636 137.037C25.8294 137.394 22.9335 136.708 20.015 136.875C19.7233 136.882 19.3574 136.981 19.165 136.593C22.0949 136.31 25.0378 136.188 27.9809 136.226C31.6043 136.114 35.1822 135.385 38.5613 134.072L43.9853 132.002C48.9057 130.196 54.1082 129.061 58.6268 126.208C59.8029 125.611 60.9304 124.924 61.999 124.151ZM65.0014 127.62C63.2536 128.642 61.6378 129.876 60.1901 131.292C59.5083 131.676 58.9699 132.272 58.656 132.989C58.5234 133.448 58.3015 133.877 58.0029 134.25C57.0086 135.697 55.8992 137.061 54.6854 138.329C53.9123 139.403 53.0553 140.415 52.1223 141.355C48.6565 144.074 45.6558 147.339 43.2375 151.022C40.6989 154.431 38.7317 158.231 37.413 162.272C37.051 163.189 36.8335 164.155 36.7685 165.138C36.7569 165.568 36.8764 165.992 37.1113 166.352C37.3462 166.713 37.6853 166.993 38.0835 167.156C38.7865 167.52 39.0608 166.535 39.4112 166.06C39.9635 165.297 40.5572 164.556 41.1923 163.836C42.2978 162.709 43.2286 161.423 43.9539 160.02C45.0047 157.281 46.3148 154.649 47.8664 152.159C50.0986 148.961 51.8767 145.476 54.1916 142.321C54.8852 141.488 55.3894 140.514 55.6692 139.467C52.961 143.179 49.5328 146.256 46.6293 149.788C52.1556 141.949 58.899 134.95 65.0014 127.62ZM29.4809 159.058C29.4958 158.657 29.632 158.27 29.8715 157.949C32.5321 154.443 35.5138 151.193 38.7777 148.241C40.5465 146.618 42.4259 145.12 44.4024 143.757C46.8123 141.989 48.997 139.947 51.253 138.02C51.3172 137.896 51.5062 137.784 51.3545 137.47C49.6295 138.675 47.8439 139.743 46.2522 141.096C43.8593 143.135 41.497 145.216 38.8581 146.971C35.2631 149.618 31.9227 152.595 28.8803 155.862C26.9279 158.106 25.1237 160.474 23.4791 162.953C23.0624 163.489 22.8632 164.163 22.9213 164.84C22.9701 165.81 23.4143 166.066 24.2654 165.536C25.1165 165.007 25.2442 164.81 25.7386 164.463C26.6812 163.59 27.5042 162.597 28.1861 161.508C30.7551 158.539 33.5894 155.811 36.6537 153.356C40.1809 150.646 43.4009 147.566 46.7228 144.644C47.914 143.578 48.942 142.343 49.7739 140.978C42.3125 146.173 35.4997 152.243 29.4809 159.058ZM137.579 53.266C133.75 54.7791 130.032 56.5614 126.454 58.5996C124.906 59.2837 123.645 60.4849 122.886 61.9973C122.711 62.2924 122.472 62.5452 122.188 62.7375C120.569 64.2244 119.086 65.8524 117.756 67.6021C115.222 70.7747 113.42 74.4576 110.813 77.6188C110.099 78.4185 109.598 79.3861 109.357 80.4315C109.934 79.8069 110.476 79.1503 110.979 78.4647C112.728 76.2498 114.848 74.3838 116.772 72.3379C120.116 68.7385 123.64 65.3113 127.332 62.0698C128.734 60.8812 130.198 59.7247 131.734 58.6317C133.862 57.0491 135.821 55.251 137.579 53.266ZM32.2214 144.951C32.0912 144.877 31.9456 144.833 31.7958 144.824C31.646 144.815 31.4961 144.84 31.3577 144.898C29.2884 145.611 27.1368 146.056 24.9548 146.225C22.9336 146.28 21.0139 147.253 18.9336 147.068C16.9096 147.075 14.891 147.277 12.9055 147.671C12.6514 147.712 12.4132 147.821 12.2164 147.987C12.0196 148.153 11.8716 148.37 11.7883 148.613C11.5313 149.11 12.1011 149.326 12.3577 149.59C12.684 149.929 13.1127 150.151 13.5777 150.222C16.5521 150.862 19.6275 150.873 22.6066 150.254C26.0319 149.534 29.3733 148.46 32.577 147.05C34.2013 146.344 35.7649 145.501 37.3991 144.826C37.6188 144.78 37.8263 144.688 38.0077 144.556C38.1891 144.424 38.3403 144.254 38.4514 144.059C34.0551 145.716 29.454 146.766 24.7747 147.18C27.1636 146.162 29.7405 145.844 32.242 144.962L32.2214 144.951ZM142.105 49.9442C142.9 49.9952 143.697 49.8489 144.423 49.5182C147.784 47.4821 151.689 47.4846 155.336 46.619C156.731 46.3743 158.112 46.0564 159.474 45.6666C158.465 45.605 157.453 45.6431 156.452 45.7805C152.034 46.4398 147.657 47.3523 143.343 48.5137C143.013 48.5914 142.716 48.7735 142.496 49.033C142.277 49.2926 142.147 49.6157 142.125 49.9548L142.105 49.9442ZM124.997 57.0585C125.879 56.5709 126.887 56.6995 127.734 56.4822C129.257 55.9641 130.75 55.3626 132.206 54.6803C134.216 53.9377 135.862 52.4295 137.954 51.8338C138.257 51.7548 138.469 51.4973 138.425 50.9238C133.85 52.6853 129.398 54.7527 125.1 57.112L124.997 57.0585ZM65.6688 124.608C69.8363 122.281 76.6797 116.305 77.1504 114.686C73.5994 118.296 69.7671 121.617 65.6895 124.619L65.6688 124.608ZM43.2639 141.044L43.4371 141.317C44.9613 141.057 45.71 139.661 46.9484 138.991L46.7623 138.895L43.2639 141.044Z" fill="#CECECE" fill-opacity="0.49"/>
<defs>
<clipPath id="clip0_425_85604">
<rect width="36" height="50" fill="white" transform="matrix(-0.742654 0.669675 0.669675 0.742654 963.735 20)"/>
</clipPath>
</defs>
</svg>
