<svg width="100" height="83" viewBox="0 0 100 83" fill="none" xmlns="http://www.w3.org/2000/svg">
<g opacity="0.16">
<path d="M67.9942 45.3859C70.4571 46.0907 72.9201 46.4482 75.3159 46.4482C79.0156 46.4482 82.1027 45.608 84.4964 44.579C82.1887 52.9754 76.6449 67.4633 65.6015 69.0948C64.5787 69.246 63.7406 69.981 63.4616 70.9703L61.0479 79.5502C60.8444 80.2758 60.9651 81.0525 61.3815 81.6822C61.7979 82.3119 62.4672 82.732 63.2172 82.8342C64.0322 82.9447 64.863 83.001 65.6864 83.001C78.9422 83.001 92.0699 69.2502 97.6095 49.5612C100.861 38.0101 101.815 20.6439 93.8049 9.71308C89.3227 3.59663 82.7835 0.330428 74.3687 0.00411763C74.3341 0.0030724 74.3005 0.0020348 74.2659 0.0020348C63.8833 0.00203389 54.6765 6.95145 51.8758 16.9002C50.2027 22.8477 50.959 29.0851 54.0073 34.4676C57.0231 39.7897 61.9899 43.6689 67.9942 45.3859Z" fill="#C8A464"/>
<path d="M3.0014 34.4666C6.01717 39.7897 10.984 43.6689 16.9883 45.3859C19.4512 46.0907 21.9142 46.4482 24.309 46.4482C28.0086 46.4482 31.0968 45.608 33.4905 44.579C31.1828 52.9754 25.639 67.4633 14.5945 69.0948C13.5718 69.246 12.7347 69.981 12.4546 70.9703L10.041 79.5502C9.83748 80.2758 9.95811 81.0525 10.3745 81.6822C10.7899 82.3119 11.4592 82.732 12.2102 82.8342C13.0242 82.9447 13.855 83.001 14.6795 83.001C27.9352 83.001 41.063 69.2502 46.6036 49.5612C49.8543 38.0101 50.8078 20.6439 42.7969 9.71098C38.3157 3.59558 31.7755 0.328322 23.3617 0.00305715C23.3271 0.00201955 23.2936 0.000974316 23.2579 0.000974313C12.8763 0.000973405 3.66855 6.95039 0.867819 16.8991C-0.803175 22.8467 -0.0458289 29.0851 3.0014 34.4666Z" fill="#C8A464"/>
</g>
</svg>
