<svg width="1800" height="139" viewBox="0 0 1800 139" fill="none" xmlns="http://www.w3.org/2000/svg">
<g clip-path="url(#clip0_425_85405)">
<path d="M36.7368 16.0528C38.6648 16.3725 40.4274 16.9043 42.08 17.6723C43.1495 18.1724 44.1448 18.8119 45.1887 19.3405C45.759 19.6226 46.392 19.8065 46.988 20.0601C47.2099 20.157 47.4418 20.1856 47.6824 20.1188C47.8291 20.0705 47.9785 20.0762 48.1435 20.1219C48.4763 20.2672 48.8206 20.3713 49.1891 20.4198C49.8451 20.5212 50.0538 20.89 49.8023 21.5403C49.6837 21.8719 49.9025 22.1723 49.7981 22.5167C49.5779 23.2468 49.4003 24.0153 49.2626 24.7681C49.0718 25.8085 49.1088 26.7963 49.4333 27.8369C49.9078 29.4256 50.1274 31.0682 50.172 32.7335C50.2041 34.1554 50.2092 35.5787 49.9823 36.9735C49.5904 39.3802 48.7546 41.593 47.4779 43.6662C45.5649 46.8165 42.8816 49.2206 40.042 51.4838C37.7623 53.2974 35.1193 54.3708 32.4763 55.4441C30.8558 56.0981 29.2069 56.7264 27.5042 57.0999C25.8813 57.4421 24.2625 57.8655 22.5665 57.5744C21.4041 57.3774 20.2288 57.1946 19.1592 56.6945C18.6032 56.4252 17.9431 56.2427 17.4969 55.7373C17.3534 55.582 17.1572 55.4567 16.9124 55.4423C16.7359 55.438 16.608 55.3226 16.52 55.1916C16.1068 54.5353 15.3912 54.3286 14.7384 54.0237C14.2662 53.8042 13.767 53.5862 13.282 53.381C12.6576 53.1018 11.9462 52.9762 11.249 52.8634C10.7026 52.7834 10.333 52.4502 10.002 52.0743C9.82865 51.8664 9.73368 51.6002 9.97605 51.3028C10.2441 50.977 10.2774 50.5685 10.1086 50.1842C9.54115 48.8986 8.97372 47.6131 8.37924 46.329C7.96779 45.442 7.71444 44.4655 7.36852 43.5345C7.13316 42.9095 7.31074 42.141 7.32883 41.4351C7.36298 39.4538 7.82113 37.5454 8.61071 35.7552C9.58166 33.5353 10.6209 31.3253 12.2488 29.4915C13.5175 28.0559 14.9141 26.7358 16.1828 25.3002C16.9255 24.448 18.0121 23.9575 18.7974 23.1437C20.1486 21.731 21.9272 20.9875 23.5128 19.915C24.6823 19.1897 25.8233 18.4387 27.095 17.8572C29.1885 16.9074 31.3838 16.3591 33.6526 16.1865C34.7187 16.0903 35.7893 15.8175 36.7368 16.0528ZM40.9924 49.6581C40.9993 49.7933 40.9082 49.8659 40.8183 49.9655C40.318 50.5203 39.6755 50.947 39.1894 51.5147C40.2282 50.6199 41.4133 49.9344 42.3512 48.9229C41.8585 49.0977 41.3801 49.2854 41.0195 49.6567C41.0195 49.6567 40.9924 49.6581 40.9782 49.6453C40.9169 48.713 41.8638 48.406 42.3118 47.6234C41.9997 47.8837 41.7903 48.0302 41.5823 48.2038C40.0477 49.4769 38.3526 50.5279 36.6575 51.579C36.4082 51.7411 36.1149 51.8377 36.2026 52.2263C36.2209 52.3203 36.1311 52.4199 36.0372 52.4383C35.731 52.5492 35.7036 52.8082 35.6506 53.0957C36.1162 52.9223 36.5589 52.8314 36.9264 52.5953C37.9264 52.0009 38.9249 51.3794 39.807 50.6012C40.1988 50.3096 40.5011 49.86 40.9924 49.6581ZM32.6982 51.5685C33.0158 51.4164 33.3206 51.2785 33.6524 51.1391C34.0909 50.9671 34.5139 50.7552 34.9369 50.5434C35.4653 50.2718 35.9968 49.7966 36.5418 49.8496C37.3046 49.9182 37.6427 49.3718 38.1568 49.0874C38.3805 48.9537 38.5743 48.7674 38.7823 48.5938C39.4591 48.0433 40.1942 47.5711 40.7715 46.9309C41.3474 46.2637 41.9958 45.6875 42.6157 45.0858C43.391 44.3403 44.0539 43.5194 44.7027 42.6856C45.0591 42.2332 45.262 41.6938 45.5758 41.2029C45.6514 41.0905 45.6729 40.9809 45.7824 41.0023C45.892 41.0237 45.8434 41.1347 45.8604 41.2016C45.5539 41.5701 45.3868 42.0127 45.2196 42.4553C45.5674 42.0982 45.9294 41.7539 45.8462 41.1888C46.0341 41.1519 46.0387 40.9754 46.1129 40.836C46.6566 39.8043 47.0054 38.6744 47.5363 37.6569C48.7378 35.4386 48.5147 33.1996 47.842 30.9162C47.5814 30.0621 47.2538 29.225 46.9533 28.3865C46.9207 28.2798 46.8597 28.1474 47.0178 28.0578C47.1759 27.9682 47.2484 28.0593 47.3478 28.149C47.4061 28.2274 47.4772 28.2914 47.5354 28.3697C48.3022 29.5771 48.9223 30.8328 49.2519 32.2392C49.3212 32.5338 49.3905 32.8285 49.4598 33.1232C49.6215 31.5149 49.5142 29.9477 49.0026 28.4288C48.7461 27.6558 48.4782 26.9241 48.5847 26.0915C48.6423 25.6275 48.66 25.1792 48.702 24.6754C48.1535 25.0836 47.8675 25.0578 47.4241 24.6064C47.2806 24.4512 47.1485 24.2547 47.0306 24.0711C46.8247 23.7564 46.8764 23.4419 47.15 23.2242C47.4249 23.0336 47.6024 23.3227 47.7473 23.5049C47.8624 23.6345 47.9546 23.8466 48.1512 23.7143C48.4917 23.4797 48.8977 23.2009 48.8356 22.7838C48.7355 22.1518 48.6725 21.4501 47.9371 21.1224C47.6328 21.0027 47.327 20.8559 47.0098 20.7504C46.1264 20.444 45.2316 20.1788 44.4339 19.6917C43.4271 19.0934 42.4103 18.5634 41.4036 17.9651C41.2087 17.8668 40.9199 17.787 40.644 17.6929C40.6325 17.7342 40.6211 17.7755 40.6096 17.8167C40.722 17.8922 40.8343 17.9677 40.9737 18.0418C41.8268 18.5532 42.7043 19.0091 43.5204 19.5902C43.9284 19.8807 44.1398 20.3036 44.2716 20.7577C44.3211 20.9313 44.2753 21.0964 44.0916 21.2145C43.8936 21.3197 43.7386 21.2057 43.652 21.1018C43.1705 20.4355 42.4736 20.0651 41.7896 19.6804C40.8682 19.1591 40.0195 18.4712 38.8782 18.4222C38.2264 18.402 37.593 18.4757 36.9568 18.4953C35.6587 18.563 34.3919 18.7104 33.1025 18.6828C32.9944 18.6884 32.8619 18.7496 32.8266 18.5887C32.794 18.4819 32.9278 18.4478 32.9933 18.4038C33.7072 17.7835 34.6295 17.7897 35.4765 17.6506C36.8203 17.4178 38.1811 17.2519 39.5841 17.3821C37.4548 16.5712 35.2817 16.4948 33.084 16.7314C30.9802 16.9496 27.388 18.0182 26.9046 18.64C26.9844 18.6087 27.0513 18.5916 27.104 18.5618C28.2987 18.0656 29.5386 17.9196 30.8192 18.0426C30.9829 18.0612 31.1493 18.1339 31.1576 18.2961C31.1673 18.4854 30.9766 18.4683 30.8414 18.4753C30.5453 18.5179 30.2777 18.5861 30.2287 18.9547C30.1899 19.255 29.9749 19.2933 29.8071 19.1936C29.389 18.9714 29.0402 19.0438 28.6159 19.2286C25.6695 20.4669 22.7516 21.7308 20.2382 23.7465C19.8991 24.0082 19.5587 24.2429 19.3062 24.6086C18.8243 25.2574 18.257 25.8293 17.6458 26.3357C17.5289 26.4367 17.385 26.5391 17.3237 26.6643C17.0296 27.2762 16.5067 27.656 15.9541 27.9831C15.7832 28.0869 15.6521 28.1751 15.4944 28.0071C15.3651 27.8647 15.2215 27.7095 15.3585 27.4718C15.5211 27.2057 15.6966 26.9254 15.9445 26.7363C16.1924 26.5471 16.3023 26.3109 16.3554 26.0234C16.1217 26.2254 15.915 26.426 15.7368 26.6522C14.3669 28.2286 12.7539 29.56 11.5972 31.3287C10.1409 33.601 9.08566 36.0287 8.33623 38.6031C8.40037 38.532 8.47735 38.4466 8.50024 38.3641C9.09009 36.9097 9.76385 35.5052 10.6324 34.199C11.0104 33.637 11.5034 33.2046 12.0107 32.7849C12.1788 32.627 12.3723 32.6983 12.5401 32.798C12.6666 32.8863 12.5484 32.9602 12.5113 33.03C12.1562 33.5095 11.9974 34.1143 11.6978 34.618C10.8361 36.0594 10.128 37.5877 9.57215 39.1759C8.90911 41.0544 8.74704 42.9203 9.60114 44.7739C9.73737 45.0515 9.70995 45.3105 9.48909 45.4983C9.2554 45.7003 9.05641 45.5208 8.85881 45.3684C8.83038 45.3428 8.77491 45.3186 8.72498 45.4025C8.70034 45.7157 8.85078 46.0061 9.01267 46.2553C9.69002 47.3046 10.1552 48.4463 10.5406 49.6193C10.6384 49.9396 10.6976 50.3026 10.5946 50.674C10.3955 51.5521 10.7477 52.0761 11.6183 52.3967C12.0464 52.5507 12.5245 52.6206 12.8885 52.8457C13.3791 53.1591 13.8256 53.4069 14.4361 53.4158C15.8208 53.452 16.7787 54.4189 17.8437 55.0955C18.9926 55.8219 20.1886 56.4104 21.5202 56.7341C22.3852 56.9466 23.2461 57.0779 24.2581 56.9845C23.6718 56.9202 23.2208 56.8488 22.8526 56.5426C22.655 56.3902 22.6041 56.1895 22.687 55.9547C22.7813 55.6786 22.9661 55.8452 23.1155 55.851C23.8626 55.8798 24.6153 56.0168 25.3669 55.8691C25.9834 55.7285 26.6168 55.6548 27.2204 55.5284C27.4083 55.4915 27.6462 55.3706 27.554 55.1585C27.4746 54.9322 27.2821 55.1456 27.1483 55.1797C26.0278 55.5364 24.9145 55.7707 23.801 55.2051C23.5364 55.0698 23.1908 54.9387 23.2952 54.5943C23.3968 54.1958 23.7466 54.408 23.9671 54.4779C24.4906 54.6404 25.0058 54.6406 25.5439 54.5583C27.0756 54.2886 28.433 53.5264 29.867 52.9364C30.5576 52.6563 31.2001 52.2296 31.9361 52.0421C32.2437 51.9583 32.4929 51.7961 32.6982 51.5685ZM30.1002 54.0495C30.2139 54.1521 30.3079 54.1336 30.3876 54.1023C32.2016 53.5197 33.9843 52.8572 35.6125 51.8233C35.7179 51.7635 35.7949 51.6782 35.9031 51.6725C36.5608 51.5433 37.0666 51.0966 37.5638 50.7453C38.5711 50.0284 39.6535 49.4568 40.5883 48.6488C41.8209 47.5677 42.9838 46.4495 44.0316 45.2017C44.4536 44.7052 44.7362 44.1346 45.0032 43.5241C45.0632 43.3718 45.0961 43.221 44.9141 43.1084C44.7179 42.9831 44.6167 43.124 44.5425 43.2634C44.4211 43.5409 44.1434 43.6774 43.9922 43.9022C43.108 45.1685 41.9382 46.1515 40.8678 47.2242C40.0298 48.0678 39.0597 48.715 38.1634 49.4803C37.1246 50.375 35.9524 51.0463 34.7787 51.6905C33.4997 52.3944 32.1753 53.0058 30.8664 53.6571C30.5873 53.7665 30.3509 53.9144 30.1002 54.0495ZM49.4929 35.8873C49.0972 36.8976 48.7144 37.8938 48.222 38.8685C47.4598 40.3997 46.8526 42.0447 45.3326 43.0731C45.2799 43.1029 45.2428 43.1726 45.2185 43.2281C44.9616 43.7703 44.9251 44.3823 44.5843 44.8746C45.3883 43.8972 46.164 42.8941 46.9254 41.8782C47.0395 41.7231 47.0825 41.504 47.3529 41.4899C47.6091 41.4629 47.7014 41.6751 47.8834 41.7876C48.4908 40.9424 49.5136 37.3505 49.4929 35.8873ZM31.5775 54.0403C31.0151 54.1781 30.4326 54.4525 29.8748 54.4138C29.2629 54.3779 28.7574 54.567 28.2404 54.7973C28.108 54.8585 27.9458 54.8669 27.9697 55.069C28.022 55.2968 28.2227 55.2457 28.3566 55.2116C29.484 54.9901 30.5477 54.5821 31.5775 54.0403ZM34.8281 53.9792C33.8015 54.3175 32.7721 54.6017 31.8662 55.1777C32.9098 54.9063 33.9533 54.635 34.8281 53.9792ZM46.5609 44.0259C46.3084 44.3915 46.056 44.7572 45.8036 45.1229C46.1825 44.8455 46.5046 44.5169 46.5609 44.0259Z" fill="#CECECE" fill-opacity="0.49"/>
<path d="M32.6981 51.5683C31.858 51.8426 31.0505 52.2236 30.1907 52.377C28.7543 52.6552 27.3561 53.1485 25.8944 53.1976C25.5827 53.2003 25.2682 53.1489 25.1806 52.7603C25.1452 52.5994 25.0627 52.5766 24.9147 52.5979C23.8628 52.707 22.8081 52.762 21.7635 52.7487C20.6378 52.7396 19.4809 52.6508 18.5168 52.091C17.9992 51.779 17.5096 51.7503 16.9917 51.696C16.256 51.6259 15.7856 51.1759 15.3807 50.6818C15.0766 50.3045 14.8111 49.8844 14.7179 49.3877C14.6458 49.0389 14.9239 48.6448 15.2484 48.6279C15.6 48.6095 15.7334 48.8331 15.7785 49.1832C15.9264 50.2195 16.748 50.9087 18.0017 51.0332C18.2877 51.0589 18.4399 51.1188 18.4024 51.4461C18.3837 51.6098 18.4703 51.7138 18.651 51.7992C19.318 52.117 20.0408 52.2013 20.7495 52.2728C21.8665 52.3772 23.0124 52.2497 24.1294 52.3541C25.8726 52.5073 27.4661 51.8547 29.116 51.5111C30.981 51.1291 32.5862 50.1776 34.1461 49.1337C34.2117 49.0896 34.3184 49.0569 34.3101 48.8946C33.1851 49.4278 32.0728 49.9468 30.8119 49.9448C32.3908 49.5371 33.8449 48.8104 35.2095 47.9258C36.5344 47.0568 37.7711 46.0568 38.8162 44.7549C38.3592 44.833 37.9674 45.1246 37.4952 44.9052C37.8544 44.5068 38.3444 44.2779 38.7334 43.9322C39.2392 43.4855 39.6598 42.9619 40.1075 42.4369C40.2229 42.3089 40.3668 42.2065 40.4823 42.0784C40.6747 41.865 40.8214 41.8167 40.9718 42.1072C41.003 42.1869 41.0612 42.2652 41.1836 42.2724C41.3729 42.2625 41.323 42.3464 41.2332 42.446C40.2252 43.6781 39.2031 44.8974 38.0814 46.027C37.4885 46.6274 36.7663 47.0853 36.145 47.6601C36.0281 47.7611 35.8558 47.8378 36.0548 48.0173C36.1969 48.1454 36.0104 48.2094 35.9591 48.2663C35.7923 48.4513 35.6113 48.6234 35.4445 48.8084C35.2136 49.0644 34.9387 49.255 34.8769 49.6379C34.8467 49.8428 34.6231 49.9765 34.3967 50.0561C34.3298 50.0732 34.1817 50.0944 34.257 50.2396C34.3166 50.345 34.4105 50.3265 34.4889 50.2682C34.8166 50.0478 35.1314 49.8415 35.4448 49.6083C36.2298 49.0521 37.0161 48.523 37.7855 47.927C38.334 47.5188 38.9508 47.1206 39.3572 46.5842C40.5021 45.1144 41.9171 43.8882 42.8928 42.2917C42.9185 42.2632 42.9171 42.2362 42.9428 42.2077C43.1567 41.8847 43.1377 41.2485 43.7891 41.5264C43.2918 42.9352 42.5869 44.26 41.4198 45.297C41.1348 45.5559 40.8085 45.8034 40.4511 45.9712C40.0538 46.1546 39.7303 46.4562 39.421 46.7706C38.3777 47.8419 37.1597 48.6782 35.9288 49.5288C35.51 49.8218 35.1237 50.2216 34.6622 50.4761C34.3332 50.6695 33.9161 50.732 33.6765 51.0834C33.3475 51.2768 33.0157 51.4161 32.6981 51.5683Z" fill="#CECECE" fill-opacity="0.49"/>
<path d="M25.1673 23.3669C25.6672 24.1272 26.0965 23.5082 26.4782 23.285C27.7943 22.5113 29.1417 21.8174 30.5784 21.2815C31.0968 21.0782 31.6633 21.0215 32.088 20.5791C32.2933 20.3514 32.6843 20.5751 32.8504 20.9054C33.0476 21.3154 32.9051 21.4448 32.505 21.5742C30.8505 22.0943 29.3066 22.9205 27.7457 23.6798C26.8072 24.1491 25.8856 24.6852 24.9498 25.2086C24.6208 25.402 24.4745 25.1927 24.314 24.9706C24.3355 24.861 24.4849 24.8667 24.5619 24.7814C24.626 24.7102 24.7727 24.6619 24.7245 24.5153C24.6919 24.4085 24.5709 24.4284 24.4884 24.4056C24.1584 24.3143 23.8966 24.2331 24.1435 23.7592C24.2292 23.5785 24.0631 23.2482 24.1675 22.9038C23.3669 23.4201 22.6447 23.8781 21.9225 24.336C20.7146 25.104 19.8079 26.1953 18.8727 27.2609C18.6161 27.5455 18.6341 27.897 18.4871 28.203C18.3886 28.3979 18.3328 28.6313 18.017 28.5529C17.8932 28.5187 17.8318 28.6439 17.7548 28.7293C17.6265 28.8715 17.5496 28.9569 17.2764 28.9169C16.9349 28.8669 16.6554 29.234 16.4103 29.4773C15.8673 29.9937 15.3684 30.5756 14.8538 31.1176C14.7768 31.203 14.7026 31.3424 14.6811 31.452C14.6194 31.8349 14.4453 32.1422 14.1291 32.3214C13.4326 32.7509 13.117 33.4724 12.7574 34.1284C11.9127 35.6367 11.041 37.1464 10.5434 38.8129C10.2201 39.9144 10.2086 41.0132 10.2796 42.1348C10.2879 42.2971 10.3232 42.4579 10.3302 42.5931C10.3385 42.7554 10.3638 42.9846 10.1346 43.0101C9.91963 43.0484 9.73762 42.9359 9.67108 42.6953C9.53937 42.2412 9.58414 41.7915 9.5606 41.3317C9.51325 39.6123 10.0293 38.0398 10.8611 36.5457C11.3948 35.5824 11.9014 34.6204 12.4364 33.6841C12.6105 33.3768 12.8542 33.1065 13.0696 32.8105C13.349 32.4434 13.6299 32.1034 13.6719 31.5996C13.6851 31.3277 13.8376 31.1299 14.2048 31.1515C14.7214 31.1788 14.8573 30.6565 15.1267 30.3577C15.6142 29.8171 16.1302 29.3021 16.7341 28.9181C17.1672 28.6379 17.2262 28.2009 17.4103 27.8253C18.1912 26.1305 19.4554 24.8714 20.9171 23.7648C21.517 23.2996 22.175 22.9128 22.8359 22.5801C23.4312 22.2914 24.0521 21.9743 24.7719 22.2622C24.8273 22.2864 24.957 22.1712 25.0482 22.0986C25.95 21.4415 26.9738 21.0491 28.0445 20.7764C28.2722 20.7238 28.5156 20.7111 28.7448 20.6856C28.9767 20.7142 29.1587 20.8267 29.2097 21.0274C29.2606 21.2282 29.0911 21.359 28.9202 21.4628C28.356 21.8312 27.6984 21.9604 27.0874 22.2092C26.3968 22.4893 25.7075 22.7964 25.1673 23.3669Z" fill="#CECECE" fill-opacity="0.49"/>
<path d="M33.9344 26.1913C33.1956 26.3247 32.5944 26.7628 31.9492 27.1354C30.3567 28.0726 29.0128 29.363 27.5794 30.4952C26.2245 31.5692 24.9988 32.7855 23.7149 33.9236C22.4965 35.0175 21.3519 36.2297 20.405 37.5942C20.2666 37.8048 20.2052 37.93 20.5339 37.9942C20.7118 38.0256 20.8282 38.1822 20.7981 38.3872C20.7807 38.5779 20.7363 38.77 20.5383 38.8752C20.3404 38.9805 20.2239 38.8238 20.1216 38.68C19.9043 38.4067 19.8058 38.6016 19.6789 38.7709C19.552 38.9402 19.5929 39.2093 19.3394 39.2903C19.2056 39.3244 19.1511 39.5848 18.9407 39.4466C18.7715 39.3199 18.7362 39.159 18.7522 38.9413C18.8815 38.0261 19.2599 37.2065 19.8344 36.5122C20.9693 35.1108 22.1908 33.8133 23.5402 32.6311C24.2014 32.0408 24.8613 31.4234 25.5367 30.8458C26.9017 29.7035 28.2383 28.5356 29.6602 27.4446C30.6519 26.6879 31.7457 26.075 32.8566 25.5289C33.3593 25.2858 33.9231 25.175 34.5079 25.2123C34.794 25.2381 34.882 25.3691 34.9486 25.6097C35.0321 25.9171 34.7561 25.8231 34.6379 25.897C34.4285 26.0435 34.1127 25.9651 33.9344 26.1913Z" fill="#CECECE" fill-opacity="0.49"/>
<path d="M33.3178 23.417C33.4856 23.5168 33.6891 23.5197 33.713 23.7218C33.7383 23.951 33.5944 24.0534 33.4093 24.1444C32.4652 24.5055 31.5096 24.9078 30.6124 25.3885C30.1637 25.6288 29.5573 25.7011 29.4696 26.37C29.4723 26.4241 29.3839 26.5507 29.3128 26.4867C28.7668 26.1491 28.4558 26.6941 28.0997 26.8889C27.4403 27.2487 26.9569 27.8704 26.3699 28.3213C25.458 29.0468 24.6328 29.8762 23.8076 30.7056C21.9634 32.5508 20.402 34.6252 18.8705 36.7524C18.6808 37.0199 18.5778 37.3913 18.1905 37.5064C18.0567 37.5405 17.9298 37.7098 17.7707 37.5147C17.6414 37.3723 17.6743 37.2215 17.7485 37.082C18.1081 36.4261 18.4805 35.7558 18.9098 35.1369C19.8196 33.8421 20.7024 32.5487 21.7672 31.3679C21.934 31.1829 21.994 31.0307 21.8051 30.7829C21.6019 30.5224 21.8346 30.0357 22.1248 30.1426C22.91 30.3863 23.2041 29.7745 23.6316 29.3861C24.0591 28.9977 24.4312 28.5851 24.8302 28.1711C24.92 28.0716 24.997 27.9862 24.9901 27.851C25.0047 27.6062 25.1971 27.3928 25.3864 27.3829C25.9415 27.3675 26.2736 26.9706 26.6384 26.6804C28.4094 25.2593 30.3919 24.2611 32.5391 23.5661C32.7925 23.4851 33.063 23.471 33.3178 23.417Z" fill="#CECECE" fill-opacity="0.49"/>
<path d="M23.4127 51.0632C25.3872 50.7026 27.2979 50.1555 29.176 49.5017C30.5215 49.0383 31.6342 48.2617 32.5835 47.2089C33.0197 46.7252 33.4687 46.2273 34.0044 45.8333C34.1594 45.9472 33.9243 46.1222 34.0623 46.1692C34.2273 46.2148 34.4266 46.1366 34.5293 46.0228C35.2248 45.3086 36.1932 44.8921 36.8163 44.0868C36.8676 44.0299 36.956 43.9032 37.1366 43.9887C36.6262 44.6119 36.042 45.1169 35.4165 45.6105C34.4134 46.4085 33.2811 47.0641 32.511 48.1753C32.0945 48.7801 31.4493 49.1526 30.8183 49.5381C29.4637 50.3544 27.9333 50.6511 26.464 51.0803C25.7023 51.2963 24.8726 51.2446 24.0714 51.2186C23.8807 51.2014 23.6432 51.0647 23.4127 51.0632Z" fill="#CECECE" fill-opacity="0.49"/>
<path d="M11.2952 48.4683C11.6226 47.4479 11.13 46.5652 10.8652 45.63C10.5169 44.3873 10.3166 43.1232 10.7255 41.841C10.7827 41.6347 10.8798 41.4127 11.0067 41.2434C11.108 41.1025 11.2009 40.7994 11.464 40.9077C11.7129 41.0032 11.8377 41.322 11.7677 41.5426C11.3533 42.7167 11.5068 43.8611 11.8367 45.0099C11.9854 45.5309 12.1598 46.0234 12.3483 46.5288C12.5979 47.1666 12.5486 47.7928 12.4054 48.4375C12.2836 48.9726 11.7795 49.1887 11.4526 48.8939C11.3105 48.7658 11.2765 48.632 11.2952 48.4683Z" fill="#CECECE" fill-opacity="0.49"/>
<path d="M19.7853 41.9107C19.9733 40.8162 20.5024 40.0294 21.087 39.2668C22.1435 37.9236 23.4316 36.8667 24.9356 36.0562C25.1336 35.9509 25.4072 35.7333 25.5989 36.0351C25.7892 36.3099 25.5541 36.4849 25.3461 36.6584C24.6308 37.2516 23.8715 37.7793 23.2273 38.4366C22.1569 39.5092 21.0737 40.5961 20.5536 42.0875C20.4835 42.3081 20.2855 42.4133 20.2297 42.6467C20.1839 42.8118 20.0432 42.7107 19.9978 42.6182C19.9028 42.352 19.8477 42.0701 19.7853 41.9107Z" fill="#CECECE" fill-opacity="0.49"/>
<path d="M39.2214 19.2995C40.2344 19.4907 41.0051 19.9793 41.395 20.9758C41.4432 21.1224 41.5597 21.2791 41.3759 21.3971C41.2064 21.528 40.9886 21.5122 40.8181 21.3584C40.5907 21.1533 40.349 20.9354 40.1216 20.7304C39.7933 20.4086 39.3964 20.3343 38.9609 20.3028C37.9947 20.2312 37.061 20.2663 36.0916 20.3982C35.8354 20.4252 35.5452 20.3183 35.2634 20.3736C35.1694 20.3921 35.0086 20.4276 34.9746 20.2938C34.942 20.187 35.0162 20.0476 35.1216 19.9878C35.4493 19.7674 35.8195 19.5854 36.1968 19.5386C37.1006 19.4508 37.9819 19.1879 38.8941 19.2623C39.0036 19.2837 39.126 19.2909 39.2214 19.2995Z" fill="#CECECE" fill-opacity="0.49"/>
<path d="M31.8823 45.9572C34.6993 44.5765 36.5003 42.1506 38.3952 39.7063C38.262 40.2827 37.917 40.6938 37.6417 41.1421C37.8067 41.1877 37.8695 41.0895 37.9194 41.0055C38.0834 40.7665 38.3327 40.6044 38.5331 40.8108C38.7463 41.0031 38.5837 41.2692 38.377 41.4698C37.8597 41.9577 37.3154 42.4471 36.798 42.935C36.5914 43.1356 36.4118 43.3348 36.2051 43.5354C36.0498 43.6791 35.8986 43.9039 35.5915 43.7301C35.4095 43.6176 35.2853 43.841 35.1556 43.9562C34.4931 44.5195 33.8589 45.1085 33.1083 45.5408C32.7394 45.7498 32.3393 45.8792 31.8823 45.9572Z" fill="#CECECE" fill-opacity="0.49"/>
<path d="M46.0612 34.2626C45.961 34.6881 45.9432 35.1365 45.8018 35.5506C45.7303 35.7441 45.6433 35.8978 45.5008 36.0272C45.3569 36.1297 45.2314 36.326 45.0081 36.2021C44.7578 36.0795 44.9658 35.906 44.9717 35.7566C44.9969 34.1283 45.3194 32.4845 44.9247 30.8646C44.9063 30.7706 44.8879 30.6767 44.9933 30.6169C45.0717 30.5586 45.1799 30.553 45.2638 30.6028C45.487 30.7268 45.6461 30.9218 45.7397 31.161C46.1366 32.2927 46.2308 33.0742 46.0612 34.2626Z" fill="#CECECE" fill-opacity="0.49"/>
<path d="M47.0857 31.2406C47.5153 31.4216 47.6373 31.6864 47.6879 32.1447C47.7886 33.319 47.6304 34.4661 47.458 35.6004C47.3144 36.5028 46.9489 37.3082 46.4313 38.0538C46.3172 38.2089 46.1591 38.2984 45.9798 38.24C45.8831 38.2044 45.9289 38.0393 45.9917 37.9411C46.9553 35.8436 47.1108 33.5849 47.0857 31.2406Z" fill="#CECECE" fill-opacity="0.49"/>
<path d="M16.1937 31.6037C15.2617 32.4658 14.5401 33.466 13.8484 34.5189C13.0311 35.7682 12.6521 37.1031 12.8093 38.5863C12.8374 38.8696 12.7701 39.1442 12.8522 39.4247C12.899 39.5443 12.8661 39.6951 12.7194 39.7434C12.56 39.806 12.4989 39.6736 12.4123 39.5696C12.0729 39.0315 12.1236 38.4323 12.1486 37.8615C12.2087 36.6517 12.5589 35.5488 13.2933 34.5343C13.9008 33.6892 14.467 32.8326 15.2735 32.1669C15.5613 31.9621 15.7894 31.6519 16.1937 31.6037Z" fill="#CECECE" fill-opacity="0.49"/>
<path d="M45.4741 25.7117C45.4852 25.9281 45.482 26.1316 45.2442 26.2525C44.9394 26.3904 44.7373 26.4145 44.6084 26.0145C44.4001 25.3881 44.4338 24.722 44.1044 24.1155C43.8646 23.6671 43.5505 23.358 43.0454 23.2895C42.8661 23.231 42.6328 23.1754 42.6332 22.9178C42.6308 22.6061 42.9026 22.619 43.1033 22.5679C43.6386 22.4315 44.0838 22.6523 44.4277 23.014C45.1168 23.7644 45.608 24.6201 45.4741 25.7117Z" fill="#CECECE" fill-opacity="0.49"/>
<path d="M13.2471 50.8476C13.2964 50.2214 13.6347 50.4749 13.9093 50.5419C14.5795 50.6561 15.2132 51.3823 15.2051 52.02C15.2103 52.3858 14.8868 52.6873 14.5311 52.6245C14.3532 52.5931 14.174 52.5347 14.2014 52.2757C14.2663 51.6893 13.7771 51.403 13.4346 51.0683C13.2911 50.9131 13.2197 51.1067 13.1982 51.2162C13.1437 51.4767 12.943 51.5278 12.7408 51.5519C12.4975 51.5646 12.3539 51.4094 12.2631 51.2243C12.1214 50.8385 11.9411 50.4954 11.6298 50.2405C11.4734 50.0995 11.5022 49.8675 11.5893 49.7139C11.6749 49.5331 11.884 49.6443 12.0091 49.7055C12.4116 49.8879 12.8141 50.0703 12.9729 50.523C13.0055 50.6297 13.1178 50.7052 13.2471 50.8476Z" fill="#CECECE" fill-opacity="0.49"/>
<path d="M40.9857 26.4879C39.9284 25.4313 38.7813 24.4743 37.5471 23.6709C36.411 22.9303 35.1321 22.5767 33.7456 22.771C33.3414 22.8192 32.9486 22.8261 32.5644 22.7377C32.4677 22.7021 32.3696 22.6394 32.3783 22.544C32.3714 22.4088 32.4937 22.416 32.5749 22.4117C34.0282 22.2004 35.4771 22.1655 36.851 22.7853C37.5295 23.0617 38.0824 23.5345 38.6482 23.9931C39.5395 24.7195 40.4179 25.46 40.9857 26.4879Z" fill="#CECECE" fill-opacity="0.49"/>
<path d="M30.0189 47.1664C29.8874 47.5122 29.6395 47.7014 29.3504 47.8792C28.2606 48.5733 27.1085 49.1079 25.8004 49.2439C25.5712 49.2694 25.3535 49.2536 25.1587 49.1553C25.0335 49.0941 24.9056 48.9787 24.9386 48.8279C24.9587 48.6912 25.1209 48.6828 25.2561 48.6757C25.9593 48.6391 26.5802 48.322 27.265 48.1913C28.1504 48.0096 28.8855 47.5374 29.7086 47.1962C29.7741 47.1521 29.8653 47.0795 30.0189 47.1664Z" fill="#CECECE" fill-opacity="0.49"/>
<path d="M42.4028 30.8607C41.7521 30.0676 41.3379 29.1266 40.7129 28.305C40.524 28.0573 40.3992 27.7384 40.0279 27.6357C39.8629 27.5901 39.8591 27.2513 39.6857 27.0435C39.0819 26.3699 38.4024 25.8088 37.5447 25.4739C37.31 25.3913 37.0909 25.3485 36.8631 25.401C36.7421 25.4209 36.6055 25.4009 36.5857 25.2799C36.5375 25.1333 36.67 25.0721 36.7626 25.0266C36.922 24.9641 37.0573 24.957 37.2351 24.9884C38.15 25.117 38.8011 25.6524 39.4421 26.2562C40.3829 27.1562 41.0887 28.2312 41.7161 29.3644C41.9844 29.8385 42.1602 30.3581 42.4028 30.8607Z" fill="#CECECE" fill-opacity="0.49"/>
<path d="M41.157 35.1284C40.8774 36.553 40.1344 37.6628 39.0145 38.5618C38.9489 38.6059 38.8706 38.6642 38.8165 38.6671C38.6414 38.6897 38.4077 38.8917 38.3041 38.7209C38.1706 38.4974 38.4809 38.4676 38.5849 38.3809C39.494 37.6013 40.234 36.695 40.5943 35.5238C40.793 34.9033 40.8152 34.2785 40.5272 33.6834C40.4662 33.551 40.4194 33.4314 40.5504 33.3432C40.7071 33.2266 40.7709 33.4131 40.8292 33.4914C41.18 33.9883 41.2219 34.542 41.157 35.1284Z" fill="#CECECE" fill-opacity="0.49"/>
<path d="M13.0994 43.7237C13.1823 43.4889 12.9937 42.9835 13.5956 43.0877C13.9242 43.1519 14.1388 43.3712 14.1014 43.6985C14.0639 44.0259 14.1602 44.3191 14.1897 44.6294C14.215 44.8586 14.2659 45.0593 14.5904 45.0424C14.6986 45.0367 14.8251 45.125 14.9232 45.1877C15.1195 45.3131 15.0068 45.4952 14.988 45.6589C14.9551 45.8097 14.8199 45.8168 14.6833 45.7968C13.5222 45.6269 12.9568 44.9107 13.0994 43.7237Z" fill="#CECECE" fill-opacity="0.49"/>
<path d="M31.4103 42.5652C31.4689 42.3859 31.5189 42.3019 31.6513 42.2408C32.2837 41.8824 32.73 41.3304 33.1208 40.7541C33.6013 40.0783 34.2084 39.4907 34.6464 38.7764C34.9345 38.314 35.2781 37.8758 35.5521 37.4005C35.8759 36.8413 36.049 36.2493 35.7939 35.5033C36.1437 35.7156 36.1832 35.9576 36.1957 36.201C36.2317 36.9041 35.9376 37.516 35.5326 38.0794C34.5829 39.3899 33.6332 40.7003 32.5697 41.9082C32.2875 42.2212 31.9058 42.4444 31.4103 42.5652Z" fill="#CECECE" fill-opacity="0.49"/>
<path d="M19.3786 32.6444C19.0985 32.4692 18.9744 32.6926 18.809 32.9046C17.9733 34.06 17.2074 35.2523 16.4272 36.4319C16.3388 36.5585 16.2531 36.7393 16.0583 36.641C15.8905 36.5412 16.0316 36.3847 16.0802 36.2737C16.507 35.3431 17.1714 34.5492 17.7518 33.7054C18.1696 33.1278 18.7438 32.6911 19.1062 32.0892C19.2573 31.8644 19.448 31.8816 19.6841 31.9913C19.9202 32.101 19.994 32.2192 19.9524 32.4654C19.8907 32.8482 19.6106 32.673 19.3786 32.6444Z" fill="#CECECE" fill-opacity="0.49"/>
<path d="M23.0983 54.9838C23.0026 55.2329 22.7835 55.1901 22.6496 55.2242C21.0593 55.6732 19.5425 55.4404 18.1048 54.6341C17.8674 54.4974 17.6184 54.4019 17.381 54.2651C17.2132 54.1654 17.071 54.0373 16.9816 53.8792C16.8922 53.7212 16.844 53.5746 16.9865 53.4451C17.1418 53.3014 17.2455 53.4723 17.3436 53.535C18.4724 54.398 19.7353 54.9694 21.1797 55.111C21.82 55.1725 22.4378 55.0589 23.0983 54.9838Z" fill="#CECECE" fill-opacity="0.49"/>
<path d="M41.569 32.5858C41.0875 31.9194 40.8365 31.2546 40.3491 30.7377C39.4866 29.7794 38.664 28.8054 37.5192 28.1601C37.1979 27.9735 36.8623 27.7741 36.4663 27.9845C36.3738 28.03 36.3041 27.993 36.2601 27.9275C36.2004 27.8222 36.2504 27.7382 36.3145 27.6671C36.4827 27.5092 36.6862 27.5121 36.8911 27.5421C37.5484 27.6705 38.0816 28.0223 38.5777 28.4439C39.7262 29.4279 40.7322 30.5415 41.4262 31.9153C41.5752 32.1787 41.5881 32.1645 41.569 32.5858Z" fill="#CECECE" fill-opacity="0.49"/>
<path d="M43.16 36.6516C42.9869 37.2437 42.653 37.8712 42.1641 38.3848C42.0871 38.4701 41.9946 38.5156 41.8878 38.5483C41.781 38.581 41.6628 38.655 41.6018 38.5226C41.5421 38.4172 41.676 38.3831 41.7401 38.312C42.7009 37.2179 43.0585 35.9926 42.6464 34.5634C42.6124 34.4296 42.5358 34.2573 42.7095 34.2076C42.869 34.145 42.9057 34.3329 42.9255 34.4539C43.0967 35.15 43.2266 35.8347 43.16 36.6516Z" fill="#CECECE" fill-opacity="0.49"/>
<path d="M23.0986 53.6689C22.3511 53.8977 21.7035 53.9586 21.0673 53.9782C20.4311 53.9979 19.8237 53.7855 19.209 53.6955C18.758 53.6241 18.317 53.4844 17.9502 53.2053C17.8507 53.1156 17.7512 53.0259 17.8396 52.8992C17.9152 52.7868 18.0404 52.8481 18.1385 52.9108C19.5835 53.5947 21.1217 53.7178 22.6774 53.6502C22.7842 53.6175 22.8937 53.6389 23.0986 53.6689Z" fill="#CECECE" fill-opacity="0.49"/>
<path d="M40.5014 21.795C40.9937 21.8778 41.6184 22.957 41.4526 23.4266C41.4055 23.5646 41.3014 23.6514 41.125 23.647C40.9201 23.617 40.7807 23.543 40.7311 23.3693C40.6137 22.928 40.3921 22.5735 40.0254 22.2943C39.8988 22.206 39.9345 22.1093 39.9831 21.9983C40.093 21.762 40.325 21.7906 40.5014 21.795Z" fill="#CECECE" fill-opacity="0.49"/>
<path d="M36.3247 30.5137C36.7223 31.1302 37.2569 31.509 37.7145 31.9732C37.9291 32.1925 38.1707 32.4104 38.2543 32.7179C38.2855 32.7976 38.2896 32.8788 38.2241 32.9229C38.1714 32.9527 38.0903 32.9569 38.0462 32.8915C37.6275 32.1269 36.8083 31.7493 36.3639 31.0133C36.2914 30.9221 36.2446 30.8026 36.3247 30.5137Z" fill="#CECECE" fill-opacity="0.49"/>
<path d="M37.3717 21.8359C37.1086 21.7276 36.7529 21.6648 36.8275 21.2677C36.8892 20.8848 37.1967 20.801 37.5511 20.8368C37.9324 20.8711 37.922 21.197 37.9074 21.4418C37.8658 21.6881 37.7004 21.9001 37.3717 21.8359Z" fill="#CECECE" fill-opacity="0.49"/>
<path d="M38.1491 36.4928C37.6952 37.4248 37.1418 38.2672 36.3922 38.9842C36.3409 39.0411 36.2469 39.0595 36.1759 38.9955C36.1048 38.9314 36.1277 38.8488 36.179 38.7919C36.9726 38.1404 37.4408 37.2212 38.1491 36.4928Z" fill="#CECECE" fill-opacity="0.49"/>
<path d="M25.2357 40.0672C25.4392 40.0702 25.5529 40.1727 25.5897 40.3606C25.6406 40.5613 25.6645 40.7634 25.5106 40.9342C25.4222 41.0608 25.2443 41.0294 25.1732 40.9653C24.9885 40.7987 24.828 40.5766 24.6817 40.3673C24.5097 40.1864 24.7989 40.0087 25.2357 40.0672Z" fill="#CECECE" fill-opacity="0.49"/>
<path d="M14.5969 39.6057C14.9384 39.6557 15.0164 39.855 14.9775 40.1553C14.9373 40.4285 14.7136 40.5622 14.5074 40.5052C14.3153 40.461 14.0223 40.3 14.0896 40.0253C14.1326 39.8062 14.2668 39.5144 14.5969 39.6057Z" fill="#CECECE" fill-opacity="0.49"/>
<path d="M19.128 42.8396C19.0992 43.0716 18.8558 43.0843 18.7449 43.0358C18.496 42.9404 18.2172 42.7922 18.2277 42.4663C18.2294 42.2357 18.4402 42.1162 18.6735 42.1718C19.0164 42.2489 19.1512 42.4994 19.128 42.8396Z" fill="#CECECE" fill-opacity="0.49"/>
<path d="M25.9652 45.575C25.8095 45.9763 24.9809 46.2093 24.6425 45.9558C24.5857 45.9045 24.5132 45.8134 24.5375 45.7579C24.5732 45.6611 24.6644 45.5886 24.7996 45.5815C25.0031 45.5845 25.2052 45.5604 25.4087 45.5633C25.598 45.5534 25.7745 45.5578 25.9652 45.575Z" fill="#CECECE" fill-opacity="0.49"/>
<path d="M27.5092 32.8307C27.2048 32.711 26.8376 32.6895 26.8609 32.3493C26.8713 32.0234 27.227 32.0862 27.4333 32.1432C27.6937 32.1974 27.7859 32.4095 27.7727 32.6814C27.7425 32.8863 27.6059 32.8663 27.5092 32.8307Z" fill="#CECECE" fill-opacity="0.49"/>
<path d="M33.9213 26.2051C34.0025 26.2009 34.0708 26.2109 34.1661 26.2195C34.5204 26.2553 34.5343 26.5257 34.5069 26.7847C34.4781 27.0167 34.2759 27.0408 34.1095 26.9681C33.8877 26.8712 33.6502 26.7345 33.8229 26.4001C33.86 26.3304 33.8971 26.2606 33.9213 26.2051C33.9213 26.2051 33.9342 26.1909 33.9213 26.2051Z" fill="#CECECE" fill-opacity="0.49"/>
<path d="M38.9511 42.0907C38.569 42.5716 38.2167 43.1052 37.7067 43.4707C37.6783 43.4451 37.6356 43.4066 37.6072 43.381C38.0177 42.9257 38.4425 42.4833 38.853 42.028C38.8943 42.0394 38.9227 42.0651 38.9511 42.0907Z" fill="#CECECE" fill-opacity="0.49"/>
<path d="M26.8251 36.4188C26.8178 36.5412 26.7238 36.5596 26.6541 36.5226C26.4593 36.4243 26.2631 36.2989 26.2777 36.0541C26.2849 35.9317 26.4188 35.8976 26.5425 35.9319C26.7772 36.0145 26.7755 36.2451 26.8251 36.4188Z" fill="#CECECE" fill-opacity="0.49"/>
</g>
<path d="M613.987 51.8727C616.265 51.8386 618.44 51.3278 620.616 50.8511C623.585 50.2381 626.623 49.523 629.109 47.5479C630.594 46.356 632.251 45.3003 633.632 43.9722C633.908 43.6998 634.15 43.4274 634.357 43.0528C633.701 43.1549 633.149 43.3252 632.7 43.7338C631.388 44.9257 629.869 45.7771 628.28 46.4922C626.968 47.0711 625.829 48.0927 624.413 48.5354C622.687 49.0803 621.099 50.0678 619.2 49.8976C619.131 49.8976 619.027 49.8976 618.958 49.9316C617.853 50.4084 616.68 50.4424 615.471 50.3403C614.366 50.2721 613.262 50.783 612.088 50.4765C611.846 50.4084 611.639 50.6467 611.397 50.7489C610.43 51.2257 609.464 51.3959 608.497 50.6467C608.083 50.3062 607.496 50.3062 606.978 50.2381C606.425 50.204 605.907 50.0338 605.459 49.6592C605.321 49.523 605.148 49.3868 604.975 49.3186C603.318 48.8419 601.902 47.8203 600.349 47.1052C599.796 46.8668 599.313 46.4922 598.968 45.9814C598.761 45.6749 598.484 45.4025 598.174 45.1982C596.344 43.9722 594.79 42.4739 593.685 40.6009C593.375 40.0901 593.167 39.5452 592.822 39.0344C592.132 38.0128 591.234 37.1274 590.647 36.0036C589.956 34.6756 589.646 33.2112 589.369 31.7469C588.955 29.6697 588.61 27.5583 588.575 25.447C588.575 23.54 588.334 21.633 588.852 19.6919C589.231 18.2957 589.749 16.9336 590.025 15.5033C589.266 16.8995 588.748 18.4319 588.437 19.9984C588.023 21.8373 587.885 23.7103 587.954 25.6173C587.988 27.0475 588.368 28.4778 588.23 29.9421C587.885 33.3815 589.439 36.4123 590.474 39.5452C590.509 39.6814 590.612 39.8177 590.716 39.9198C592.408 41.7928 593.927 43.836 595.757 45.6408C597.172 47.0711 598.864 48.1268 600.452 49.2846C600.936 49.6251 601.454 49.8295 602.041 49.9657C602.766 50.1359 603.422 50.3403 604.043 50.817C604.665 51.3278 605.562 51.3619 606.425 51.43C607.668 51.5321 608.946 51.43 610.154 51.7705C610.189 51.7705 610.223 51.8046 610.43 51.9067C608.324 51.7365 606.356 52.2473 604.457 51.5662C603.007 51.0554 601.454 50.6467 600.107 49.9657C598.381 49.0803 596.689 47.9565 595.377 46.4241C594.963 45.9473 594.479 45.4025 593.927 44.9938C592.857 44.1765 592.063 43.189 591.407 42.0312C591.303 41.8609 591.199 41.6566 591.027 41.5544C589.473 40.4987 589.231 38.7961 588.714 37.1615C588.265 35.7993 587.747 34.4712 587.471 33.041C587.402 32.5302 587.298 31.9853 587.332 31.4405C587.471 29.3972 587.091 27.3881 587.022 25.3448C586.884 22.246 587.402 19.2492 588.644 16.3887C589.266 14.9244 589.749 13.392 590.751 12.132C592.304 10.1909 593.996 8.3861 596.033 6.88773C596.378 6.61531 596.62 6.27477 596.758 5.86612C597 5.11694 597.552 4.67424 598.277 4.50398C599.624 4.19749 600.763 3.3802 602.006 2.83534C603.732 2.05211 605.459 1.50725 607.358 1.40509C607.634 1.40509 607.91 1.37103 608.186 1.26887C609.878 0.553746 611.673 0.860229 613.4 0.655907C614.401 0.553746 615.333 0.179155 616.369 0.31537C616.714 0.383477 617.059 0.383477 617.405 0.451584C618.061 0.553745 618.682 0.68996 619.407 0.247262C620.27 -0.263543 621.375 0.04294 621.859 0.928336C622.342 1.81373 623.205 1.77968 623.965 1.984C625.38 2.39265 626.796 2.66507 628.039 3.51642C628.798 4.06128 629.73 4.2656 630.559 4.67424C631.906 5.35532 632.941 6.41098 634.046 7.39854C635.427 8.62447 637.015 9.64608 638.12 11.1785C639.605 13.2217 640.641 15.4352 641.228 17.8871C641.676 19.6919 641.884 21.5649 641.987 23.4038C642.263 27.967 641.159 32.2918 639.708 36.5826C639.26 37.9107 638.396 39.0344 637.464 40.0901C636.601 41.0777 635.738 42.0993 635.117 43.2571C634.771 43.8701 634.184 44.3128 633.701 44.7895C631.767 46.5943 629.558 48.0246 627.314 49.4208C625.933 50.2722 624.482 50.8511 622.86 51.0554C622.515 51.0894 622.135 51.2597 621.824 51.464C621.513 51.7024 621.099 51.8386 620.685 51.8386C618.44 51.8727 616.196 52.0429 613.987 51.8727ZM622.066 23.1314C622.722 22.7908 623.481 22.8589 624.172 22.6205C626.312 21.8033 628.626 21.667 630.732 20.7816C630.87 20.7135 631.042 20.7135 631.181 20.7135C632.7 20.6454 634.184 20.6114 635.669 20.9519C636.912 21.2243 637.326 20.8157 637.706 19.9644C638.811 17.5465 637.982 15.4012 636.912 13.2217C636.808 12.9833 635.945 12.6428 636.912 12.4044C637.015 12.3704 636.946 12.2342 636.877 12.132C636.394 11.3147 635.807 10.5655 634.944 9.88446C635.047 10.7699 634.875 11.519 634.909 12.2682C634.944 12.745 634.771 13.2558 634.357 13.6304C634.081 13.9028 633.805 14.2093 633.597 14.5498C632.423 16.593 630.386 17.819 628.695 19.3854C628.211 19.8281 627.728 20.2368 627.141 20.5433C625.725 21.3265 624.206 21.8714 622.756 22.5865C622.549 22.7568 622.204 22.8249 622.066 23.1314C621.272 23.0632 620.65 23.5059 619.994 23.8465C620.788 23.9146 621.375 23.4378 622.066 23.1314ZM609.049 32.6323C609.222 32.6323 609.326 32.5302 609.395 32.394C609.843 31.4745 610.292 30.5551 610.672 29.6356C610.81 29.2951 611.017 29.0226 611.294 28.8183C611.397 28.7162 611.604 28.5799 611.777 28.7502C612.053 28.9886 611.88 29.2951 611.811 29.5675C611.777 29.7718 611.604 29.874 611.432 29.7378C611.017 29.3972 611.017 29.7718 610.879 29.9761C610.154 30.9978 609.878 32.2237 609.291 33.2794C608.255 35.1864 607.15 37.0593 606.287 39.0344C605.735 40.3625 605.148 41.6906 604.595 43.0187C604.078 44.2446 603.836 45.5727 604.181 46.8668C604.423 47.7522 604.941 48.5014 605.942 48.7397C607.53 49.1484 609.187 49.1143 610.776 49.4208C612.467 49.7273 612.536 49.6251 612.536 47.9565C612.536 46.8327 612.744 45.743 612.778 44.6192C612.813 43.6317 612.847 42.6101 613.054 41.6566C613.676 39.0004 613.814 36.3101 614.09 33.6199C614.263 32.3599 614.194 31.0659 614.297 29.8059C614.366 29.2951 614.435 28.9205 613.987 28.5459C613.503 28.1372 613.71 27.2859 614.297 27.0475C614.574 26.9454 614.677 26.7751 614.643 26.5367C614.539 25.9919 614.47 25.4129 614.263 24.9021C614.021 24.2551 613.4 23.9827 613.02 24.2892C612.571 24.6978 612.226 25.1746 611.88 25.6513C611.673 25.9238 611.95 26.094 612.122 26.1962C612.433 26.3665 612.813 26.5027 613.123 26.707C613.296 26.8092 613.572 26.9454 613.4 27.2518C613.262 27.4902 613.054 27.4221 612.882 27.32C612.191 26.9113 611.777 27.1156 611.535 27.8648C611.501 28.001 611.328 28.1372 611.224 28.2735C610.292 29.6356 609.533 31.0659 609.049 32.6323C608.531 33.1091 608.186 33.7561 607.875 34.3691C606.978 35.9696 606.046 37.5361 605.01 39.0685C603.491 41.282 601.626 43.0868 599.348 44.5511C598.899 44.8236 599.002 44.9257 599.209 45.2322C600.176 46.5943 601.73 46.9689 603.111 47.6841C603.56 47.9224 603.594 47.5819 603.491 47.2073C603.042 45.4706 603.318 43.7679 604.112 42.2014C605.528 39.409 607.047 36.6847 608.531 33.8923C608.773 33.5177 609.015 33.1431 609.049 32.6323ZM605.113 8.99906C604.975 8.35204 604.699 7.73908 604.354 7.19422C604.009 6.6153 603.905 6.03639 604.147 5.35532C604.526 4.33371 605.148 3.44831 605.873 2.56291C605.355 2.49481 604.872 2.49481 604.492 2.73318C603.318 3.41426 602.213 4.2656 600.729 4.46992C601.074 5.151 601.557 5.49153 602.041 5.79802C602.904 6.34288 603.594 6.9899 604.112 7.84124C604.388 8.24988 604.665 8.72663 605.113 8.99906C605.079 9.50987 605.804 9.44176 605.838 9.95257C605.907 10.4974 606.322 10.9401 606.667 11.3488C607.254 11.9277 607.599 12.6428 607.979 13.3579C608.497 14.3455 608.773 15.5374 609.947 16.1163C610.085 16.1844 610.154 16.4228 610.292 16.593C610.707 17.1379 610.396 17.853 610.81 18.4319C611.328 19.1811 611.673 20.0665 612.088 20.8838C612.157 21.0881 612.295 21.2925 611.984 21.4627C611.811 21.5649 611.742 21.9054 611.466 21.8373C611.19 21.7692 611.259 21.4968 611.19 21.2925C610.948 20.5433 610.707 19.76 610.396 19.0449C609.636 17.3422 608.566 15.8098 607.703 14.1412C607.012 12.745 606.218 11.4509 605.251 10.225C604.216 8.93096 603.387 7.46665 602.006 6.47909C601.523 6.1045 601.108 5.6618 600.59 5.38937C600.107 5.11694 599.486 5.01478 599.037 5.49153C598.174 6.47909 596.827 7.09206 596.758 8.65853C596.758 9.06717 596.965 9.44176 596.793 9.81635C596.413 10.6677 596.827 11.2466 597.414 11.7915C597.621 11.9958 597.794 12.1661 598.001 12.3704C599.071 13.5623 599.934 14.9585 601.177 15.9801C603.836 18.1255 606.563 20.2368 609.153 22.4843C609.705 22.9611 610.258 23.54 611.086 23.54C611.363 23.54 611.604 23.6422 611.535 23.9827C611.466 24.3573 611.121 24.3232 610.879 24.2211C610.741 24.187 610.603 24.0508 610.465 23.9486C609.084 22.893 607.772 21.8033 606.425 20.6795C604.561 19.113 602.524 17.7168 600.729 16.1163C599.14 14.7201 597.897 13.0174 596.344 11.5871C595.826 11.1104 595.722 10.4634 595.998 9.7823C596.171 9.40771 596.171 9.03312 596.068 8.62447C595.653 8.8969 592.442 13.2558 592.373 13.6644C592.995 13.3579 593.236 12.6088 593.892 12.3704C594.825 11.9958 595.412 12.0639 595.688 12.5066C593.961 12.6428 592.96 13.9709 592.235 15.1628C591.476 16.3887 590.647 17.9552 592.304 19.4536C590.992 19.079 590.647 18.2957 590.785 16.559C590.06 18.3298 589.508 20.1687 589.439 22.1097C589.404 23.574 589.473 25.0724 589.577 26.5708C589.784 29.0226 590.095 31.4405 590.82 33.7902C591.268 35.1864 591.752 36.5485 592.995 37.4339C593.271 37.6382 593.513 37.8425 593.892 37.7744C594.1 37.7404 594.376 37.7063 594.41 37.3998C594.445 37.1274 594.238 37.0253 593.996 36.9572C593.858 36.9231 593.685 36.889 593.582 36.8209C593.444 36.7528 593.34 36.6847 593.098 36.5485C593.961 36.6507 594.859 36.3101 595.377 37.2296C595.446 37.3317 595.55 37.3317 595.653 37.2636C595.964 36.9571 596.482 36.6507 596.447 36.242C596.413 35.7312 596.724 35.5269 597.034 35.2885C599.589 33.4496 602.075 31.5767 604.492 29.5675C605.735 28.5118 607.012 27.4902 608.566 26.741C609.947 26.06 611.328 25.3448 612.191 23.9486C612.398 23.6081 612.744 23.4038 613.123 23.3697C613.434 23.3357 613.641 23.1654 613.779 22.927C614.021 22.4843 614.47 22.246 614.919 22.1097C616.093 21.7351 616.265 20.7476 616.714 19.7941C616.334 19.8281 616.265 20.1346 616.093 20.2368C615.057 20.6795 614.988 22.28 613.538 22.0416C613.503 22.0416 613.469 22.1438 613.434 22.2119C613.158 22.6546 612.951 22.4162 612.744 22.1438C612.398 21.7351 612.467 21.2925 612.675 20.8838C613.227 19.6238 613.572 18.2957 613.848 16.9676C614.263 14.8563 614.539 12.7109 614.988 10.5655C615.16 9.74824 615.471 8.96501 615.437 7.9434C614.919 8.62447 615.299 9.57798 614.366 9.95257C614.47 9.16933 614.643 8.48826 614.677 7.77313C614.746 6.24071 614.297 4.84451 612.916 3.99317C611.535 3.10777 609.982 2.56291 608.29 2.66508C607.53 2.69913 606.805 2.83534 606.322 3.44831C605.251 4.7764 604.285 6.13855 605.113 7.97745C605.251 8.24988 605.39 8.48826 605.493 8.79474C605.631 9.23744 605.39 9.16933 605.113 8.99906ZM615.126 24.5957C615.299 24.187 615.644 24.153 615.955 24.0508C616.714 23.7784 617.543 23.7784 618.337 23.6422C621.203 23.1314 623.757 21.8033 626.312 20.5433C628.833 19.2833 630.87 17.3763 632.631 15.1968C634.322 13.0855 634.253 13.0515 634.288 10.8039C634.288 10.3272 634.15 9.95257 633.874 9.54392C633.252 8.62447 632.493 7.87529 631.664 7.12611C630.421 6.00234 628.798 6.07044 627.555 7.19422C627.452 7.29638 627.314 7.39854 627.21 7.46665C625.38 8.55637 623.965 10.1228 622.445 11.5531C621.03 12.8812 620.063 14.6179 618.924 16.1503C618.44 16.7633 617.957 17.4103 618.406 18.3298C618.682 18.9087 618.302 19.2492 617.681 19.1811C617.508 19.1471 617.439 19.2492 617.439 19.3173C617.128 20.5092 616.611 21.667 616.645 22.927C616.645 23.1995 616.611 23.4038 616.369 23.574C616.162 23.6762 615.92 23.7103 615.747 23.5059C615.23 22.927 614.712 23.1995 614.159 23.4378C614.435 23.8805 614.919 24.0508 615.126 24.5957ZM616.541 25.7875C617.094 26.6048 617.094 27.5924 618.164 27.7967C618.302 27.8308 618.44 28.1032 618.406 28.2735C618.337 28.7502 618.648 29.0226 618.855 29.3632C619.269 29.9761 619.718 30.5891 620.098 31.2361C620.65 32.1896 621.133 33.1772 621.72 34.0966C623.136 36.3101 624.379 38.6258 625.587 40.9755C625.829 41.4863 626.105 42.0312 626.554 42.3717C627.348 42.9165 628.28 43.189 629.178 43.4274C630.214 43.6998 631.215 43.6657 632.044 42.8144C632.147 42.7122 632.285 42.6441 632.458 42.6101C633.908 42.3717 634.253 41.1458 634.668 40.056C634.771 39.8177 634.771 39.5452 634.944 39.3069C635.98 37.8425 635.911 35.8334 634.84 34.3691C634.081 33.3134 632.734 32.9729 631.802 32.1556C631.077 31.5086 630.041 31.3042 629.178 30.8615C625.208 28.8183 621.064 27.0816 616.541 25.7875ZM629.627 29.8059C630.455 29.8059 631.042 29.8399 631.664 29.8059C633.943 29.6697 636.049 29.1929 637.948 27.7967C639.156 26.9113 639.329 24.4935 638.155 23.3697C635.738 21.0541 632.907 20.9179 629.938 21.8373C627.935 22.4843 625.864 22.893 623.792 23.3016C621.997 23.6422 620.547 24.8 618.751 24.9703C618.717 24.9703 618.648 25.0043 618.613 25.0384C618.13 25.3789 618.13 25.6854 618.682 25.9578C619.407 26.2983 620.167 26.5708 620.926 26.8773C622.411 27.4902 623.965 27.8989 625.38 28.6821C626.796 29.3972 628.142 30.1464 629.627 29.8059ZM606.702 35.7312C606.529 35.3907 605.838 35.7312 605.977 35.2545C606.08 34.8118 606.563 34.0966 606.84 34.2329C607.461 34.5393 607.53 34.0966 607.737 33.8242C609.222 31.9172 609.912 29.6016 611.224 27.5924C611.328 27.4221 611.397 27.1837 611.466 26.9794C611.57 26.5367 611.086 25.9238 610.776 26.094C609.326 26.8432 607.841 27.5924 606.494 28.5459C604.009 30.2826 601.592 32.1556 599.209 34.0285C598.588 34.5053 597.897 34.948 597.794 35.8674C597.794 36.0036 597.621 36.1058 597.518 36.208C596.62 37.2296 595.688 38.2171 595.412 39.6474C595.135 41.0777 595.343 41.8609 596.551 42.6782C596.896 42.9165 597.138 43.223 597.38 43.5295C597.725 43.9722 598.208 44.1425 598.795 44.0744C599.934 43.9041 600.832 43.2911 601.661 42.576C602.938 41.4863 603.836 40.0901 604.803 38.7961C605.528 37.7744 606.253 36.8209 606.702 35.7312ZM615.575 26.4346C615.782 27.4562 615.022 28.2053 615.16 29.3291C615.402 31.168 615.92 32.9048 616.438 34.6756C617.197 37.2636 617.853 39.8517 618.648 42.4057C619.235 44.2787 619.614 46.2198 621.272 47.616C622.135 48.3651 623.067 48.1268 623.896 47.8543C624.586 47.616 625.104 46.9689 625.069 46.1176C625.035 45.6408 625.069 45.1981 625.069 44.6533C625.794 45.1641 625.587 45.8111 625.622 46.39C625.656 46.6284 625.553 46.9349 625.829 47.037C626.036 47.1392 626.243 46.9008 626.416 46.7987C626.692 46.6284 626.796 46.4241 626.865 46.0835C627.003 45.4706 626.83 44.8576 626.623 44.3468C625.725 41.9971 624.517 39.7836 623.309 37.5701C622.273 35.7312 621.168 33.9264 620.063 32.0875C618.82 30.0102 617.543 28.001 615.575 26.4346ZM621.789 2.76724C621.859 2.4267 621.72 2.22238 621.41 2.15427C620.685 1.91589 619.925 1.71157 619.165 1.50725C618.751 1.40509 618.44 1.60941 618.199 1.91589C617.819 2.52886 617.405 3.07372 617.128 3.72074C616.058 6.07045 615.886 8.65853 615.195 11.1104C614.781 12.5747 614.608 14.0731 614.401 15.5714C614.194 17.172 613.779 18.7044 613.296 20.2708C613.158 20.7135 612.813 21.3606 613.365 21.633C613.814 21.8373 614.332 21.3946 614.712 21.0541C616.99 18.9768 618.44 16.3887 619.407 13.5282C619.891 12.098 620.063 10.5655 620.443 9.10123C620.961 6.9899 621.548 4.91262 621.789 2.76724ZM613.883 46.4241C614.401 46.9008 614.677 47.3776 615.195 47.5479C615.816 47.7522 616.403 48.0246 617.025 48.2289C617.508 48.3992 618.164 48.6376 618.44 48.2289C618.82 47.6841 619.165 47.037 619.062 46.2879C618.889 44.7895 618.199 43.4274 617.853 41.9971C617.543 40.7371 617.37 39.4431 616.818 38.2512C616.265 36.9571 616.093 35.595 615.747 34.2329C615.437 32.9729 615.126 31.7469 614.815 30.4869C614.643 32.5302 614.47 34.5734 614.194 36.5826C613.814 39.7155 613.538 42.8825 613.262 46.0495C613.227 46.5603 613.089 47.2073 613.331 47.5819C613.779 48.263 613.503 48.7057 613.192 49.2505C613.089 49.3868 612.951 49.523 613.02 49.7273C613.123 49.9657 613.365 49.8976 613.572 49.8635C614.297 49.7954 615.057 49.557 615.747 49.6251C617.577 49.8295 619.235 49.0803 621.03 49.0122C621.168 49.0122 621.306 48.9781 621.341 48.8419C621.375 48.6716 621.237 48.6376 621.133 48.5695C620.685 48.2289 620.236 47.8884 619.752 47.5479C619.442 48.8078 618.648 49.3868 617.577 49.1824C616.541 48.9781 615.575 48.5354 614.643 48.0246C614.125 47.7522 613.987 47.1733 613.883 46.4241ZM619.683 14.2774C619.752 14.3114 619.821 14.3455 619.856 14.3795C619.925 14.2774 619.994 14.1752 620.063 14.0731C621.755 11.2807 624.241 9.13528 626.554 6.88773C627.383 6.07045 628.246 5.42342 629.523 5.52559C629.592 5.52559 629.661 5.45748 629.765 5.42342C629.247 4.94667 628.626 4.87857 628.073 4.60614C626.45 3.75479 624.828 2.8694 622.963 2.56291C622.411 2.46075 622.169 2.66508 622.066 3.17588C621.859 4.12938 621.893 5.11694 621.582 6.03639C620.685 8.72663 620.581 11.5871 619.683 14.2774ZM636.774 39.7836C639.916 36.3101 640.503 31.9513 641.124 27.6605C641.78 23.2676 641.193 19.0109 639.363 14.9585C639.294 15.1287 639.329 15.2649 639.363 15.4012C639.57 16.593 639.985 17.7509 640.019 18.9768C640.088 21.0541 640.019 23.1654 640.088 25.2427C640.123 26.2643 639.57 27.1156 639.432 28.1032C639.018 30.9978 638.224 33.7902 637.292 36.5485C636.946 37.5701 637.154 38.6939 636.774 39.7836ZM628.66 30.0783C628.66 30.1124 628.66 30.1464 628.626 30.2145C628.867 30.3167 629.109 30.4529 629.385 30.5551C631.698 31.4745 633.77 32.7345 635.634 34.3691C636.118 34.8118 636.221 35.4247 636.67 36.0377C637.257 33.5177 638.086 31.168 638.396 28.648C637.464 29.1589 636.636 29.6016 635.738 30.0783C636.014 30.2145 636.152 30.2826 636.325 30.3507C636.532 30.4529 636.774 30.5551 636.67 30.8275C636.532 31.134 636.221 31.134 636.049 30.9978C635.047 30.3507 633.943 30.3507 632.803 30.2826C631.422 30.2145 630.041 30.1464 628.66 30.0783ZM609.636 1.84779C613.02 2.52886 615.333 4.06128 615.471 7.70502C615.575 7.53475 615.609 7.46665 615.644 7.36449C615.989 5.42343 616.438 3.48236 617.474 1.74563C617.646 1.43914 617.577 1.26887 617.232 1.20077C616.541 1.0986 615.92 0.996444 615.23 1.13266C613.918 1.37103 612.64 1.60941 611.328 1.4732C610.81 1.43914 610.258 1.40509 609.636 1.84779ZM626.796 43.0187C627.245 44.0403 627.624 44.8917 627.762 45.7771C627.797 46.0154 628.039 45.9133 628.142 45.8452C628.902 45.4365 629.661 44.9938 630.559 44.483C629.213 44.0744 628.108 43.6998 626.796 43.0187ZM639.156 18.7725C639.087 18.7725 639.018 18.7384 638.914 18.7384C638.466 19.726 638.535 21.02 637.188 21.4627C637.74 21.9395 638.189 22.3141 638.638 22.6887C638.914 22.927 639.156 22.927 639.156 22.4843C639.156 21.2243 639.156 19.9984 639.156 18.7725ZM594.583 40.2604C594.652 39.8517 594.756 39.4771 594.79 39.1366C594.825 38.9663 594.894 38.5917 594.514 38.6939C594.238 38.762 593.754 38.6939 593.858 39.2047C593.961 39.6133 594.134 39.9879 594.583 40.2604ZM608.635 49.8976C609.326 50.4424 609.912 50.5446 610.707 50.2381C609.982 50.1019 609.429 49.8295 608.635 49.8976ZM617.197 24.2892C616.783 24.4254 616.472 24.5276 616.127 24.5957C615.816 24.6638 615.886 24.8681 615.989 25.0384C616.093 25.1746 616.231 25.3789 616.438 25.1065C616.611 24.834 617.059 24.8 617.197 24.2892ZM591.683 12.5406C591.165 13.1536 590.612 13.7666 590.371 14.7541C591.061 14.039 591.407 13.2898 591.683 12.5406Z" fill="#CECECE" fill-opacity="0.49"/>
<path d="M609.566 24.1863C609.014 24.3566 608.565 24.5269 608.082 24.5269C607.529 24.5269 607.011 24.595 606.666 25.0717C606.597 25.1739 606.459 25.242 606.321 25.242C606.079 25.3101 605.803 25.4123 605.596 25.208C605.32 24.9355 605.907 24.9015 605.803 24.595C605.112 24.595 604.422 24.5609 603.731 24.595C602.972 24.629 602.178 24.6972 601.418 24.7993C600.935 24.8334 600.451 24.8334 600.003 25.3101C599.795 25.5144 598.967 25.4804 598.483 25.1398C598.311 25.0377 598.207 24.9696 598 24.9696C596.412 24.8674 594.789 24.8334 593.166 24.6971C592.441 24.629 591.854 25.208 591.129 24.9696C590.888 24.9355 590.508 25.0377 590.473 24.7653C590.473 24.4588 590.819 24.3566 591.164 24.3566C593.408 24.3226 595.652 24.5609 597.897 24.629C599.657 24.6631 601.384 24.4928 603.075 24.2545C604.008 24.0842 604.94 24.1863 605.872 24.1182C606.252 24.1182 606.701 24.2204 606.839 23.6415C606.908 23.3691 607.219 23.3691 607.288 23.5734C607.529 24.1182 607.944 23.9139 608.358 23.8458C608.772 23.7777 609.152 23.7436 609.566 24.1863Z" fill="#CECECE" fill-opacity="0.49"/>
<path d="M609.463 20.2365C609.463 20.543 609.221 20.4749 609.083 20.577C608.91 20.7132 608.738 20.7132 608.634 20.543C608.082 19.7597 607.529 19.0105 606.977 18.2273C606.908 18.0911 606.77 17.8868 606.942 17.7506C607.046 17.6484 607.288 17.6484 607.357 17.7846C607.875 18.67 608.807 19.1808 609.325 20.0322C609.394 20.1003 609.428 20.2024 609.463 20.2365Z" fill="#CECECE" fill-opacity="0.49"/>
<path d="M599.209 18.9423C599.865 18.9763 600.417 19.1806 600.9 19.6233C601.246 19.9298 601.142 20.3044 600.969 20.5428C600.831 20.7471 600.451 20.5428 600.279 20.3385C599.934 19.8617 599.381 19.8277 598.898 19.6574C598.691 19.5552 598.242 19.7595 598.311 19.2828C598.345 18.9763 598.691 18.9423 598.967 18.9082C599.07 18.9082 599.139 18.9423 599.209 18.9423Z" fill="#CECECE" fill-opacity="0.49"/>
<path d="M611.534 12.4717C611.603 12.4717 611.638 12.4717 611.672 12.4717C612.121 12.5738 613.088 14.4808 612.915 14.8895C612.777 15.23 612.467 15.4344 612.156 15.3662C611.811 15.3322 611.88 14.9917 611.949 14.7192C612.087 14.0722 611.845 13.5614 611.5 13.0506C611.327 12.7782 611.293 12.6079 611.534 12.4717Z" fill="#CECECE" fill-opacity="0.49"/>
<path d="M600.521 28.3403C600.348 28.6128 600.244 28.9192 599.934 29.0214C599.381 29.2257 598.794 29.4641 598.242 29.6344C598.104 29.6684 597.897 29.8046 597.793 29.5663C597.689 29.3619 597.931 29.3279 598.035 29.2598C598.656 28.8171 599.278 28.4425 600.003 28.1701C600.21 28.102 600.382 28.0679 600.521 28.3403Z" fill="#CECECE" fill-opacity="0.49"/>
<path d="M610.533 9.3386C610.43 9.57698 610.602 9.95157 610.188 10.0197C609.808 10.0537 609.808 9.67914 609.739 9.44076C609.635 9.10023 609.497 8.72563 609.566 8.35104C609.601 8.21483 609.635 8.04456 609.808 8.01051C609.981 7.97645 610.084 8.07861 610.153 8.21483C610.326 8.55537 610.464 8.92996 610.533 9.3386Z" fill="#CECECE" fill-opacity="0.49"/>
<path d="M612.052 9.27147C611.949 9.5439 612.052 10.0547 611.569 9.9866C611.051 9.95255 611.154 9.40769 611.051 9.0331C610.982 8.72661 611.189 8.45418 611.465 8.48824C611.88 8.52229 612.052 8.82877 612.052 9.27147Z" fill="#CECECE" fill-opacity="0.49"/>
<path d="M603.628 20.2025C603.559 20.4408 603.283 20.4408 603.11 20.4749C602.903 20.543 602.73 20.3727 602.73 20.1344C602.73 19.8619 602.937 19.7598 603.179 19.7598C603.455 19.7598 603.49 20.0322 603.628 20.2025Z" fill="#CECECE" fill-opacity="0.49"/>
<path d="M600.9 21.667C601.384 21.8032 601.729 21.6329 601.936 21.9394C601.971 22.0416 601.833 22.1437 601.694 22.2118C601.28 22.3481 601.177 22.0756 600.9 21.667Z" fill="#CECECE" fill-opacity="0.49"/>
<path d="M623.688 19.9635C623.653 20.1678 623.515 20.2019 623.377 20.304C622.445 20.8829 621.616 21.5981 620.787 22.3472C620.684 22.4494 620.511 22.7218 620.304 22.4835C620.2 22.3132 620.131 22.0748 620.373 21.8705C621.271 21.0873 622.307 20.5424 623.273 19.8613C623.411 19.7932 623.584 19.7592 623.688 19.9635Z" fill="#CECECE" fill-opacity="0.49"/>
<path d="M626.553 16.3542C626.588 16.7628 625.414 18.159 625.034 18.2271C624.827 18.2612 624.689 18.159 624.62 17.9888C624.551 17.8185 624.551 17.6823 624.723 17.6142C625.276 17.3077 625.552 16.7628 625.897 16.2861C626.035 16.1158 626.208 16.0477 626.415 16.0818C626.553 16.0818 626.519 16.218 626.553 16.3542Z" fill="#CECECE" fill-opacity="0.49"/>
<path d="M620.442 20.3386C620.96 19.5554 621.685 19.1127 621.858 18.2954C621.927 18.057 622.134 18.057 622.341 18.1251C622.583 18.2273 622.514 18.3976 622.445 18.5678C622.065 19.3511 621.478 19.9981 620.442 20.3386Z" fill="#CECECE" fill-opacity="0.49"/>
<path d="M621.892 14.2769C621.927 14.6515 621.064 15.3667 620.684 15.2645C620.649 15.2645 620.58 15.2305 620.546 15.1964C620.442 15.1283 620.546 14.9921 620.58 14.924C620.787 14.5153 620.925 14.0045 621.409 13.8343C621.616 13.7661 621.685 14.0045 621.789 14.1407C621.858 14.1748 621.892 14.2429 621.892 14.2769Z" fill="#CECECE" fill-opacity="0.49"/>
<path d="M626.035 37.434C626.035 37.6383 626.139 37.9448 625.828 37.9788C625.552 38.0129 625.552 37.7745 625.483 37.5702C625.207 36.9572 624.758 36.4464 624.378 35.9016C624.309 35.7994 624.136 35.6632 624.274 35.527C624.344 35.4589 624.516 35.4248 624.62 35.4248C625.138 35.561 626.035 36.8551 626.035 37.434Z" fill="#CECECE" fill-opacity="0.49"/>
<path d="M627.762 35.6624C627.762 35.8327 627.727 35.9689 627.554 36.037C627.382 36.1051 627.244 36.071 627.14 35.9348C626.76 35.424 626.346 34.9132 625.966 34.3684C625.897 34.2662 625.828 34.0619 625.966 33.9597C626.035 33.8916 626.139 33.8916 626.242 33.8916C626.519 33.9257 627.762 35.39 627.762 35.6624Z" fill="#CECECE" fill-opacity="0.49"/>
<path d="M622.686 30.1455C622.962 30.2817 623.239 30.4179 623.48 30.5882C623.687 30.7244 623.895 30.8947 623.86 31.1671C623.86 31.3033 623.791 31.4395 623.653 31.4395C623.411 31.4395 623.273 31.2352 623.135 31.065C622.962 30.8266 622.755 30.6563 622.583 30.452C622.41 30.2817 622.583 30.2136 622.686 30.1455Z" fill="#CECECE" fill-opacity="0.49"/>
<path d="M631.87 37.6376C631.214 37.3651 630.869 37.0927 630.731 36.5479C631.421 36.5479 631.525 37.0587 631.87 37.6376Z" fill="#CECECE" fill-opacity="0.49"/>
<path d="M612.708 40.0212C612.674 40.4639 612.674 40.8725 612.259 41.179C611.845 41.5195 611.672 41.2812 611.672 40.9747C611.707 40.4298 611.811 39.885 611.949 39.3742C612.052 38.9996 612.363 39.2039 612.536 39.3742C612.777 39.5444 612.674 39.8168 612.708 40.0212Z" fill="#CECECE" fill-opacity="0.49"/>
<path d="M612.259 34.3692C612.259 34.6076 612.225 34.8119 612.087 35.0162C611.949 35.2205 611.776 35.3908 611.534 35.3227C611.293 35.2546 611.362 34.9481 611.396 34.8119C611.465 34.5054 611.5 34.1989 611.5 33.8584C611.5 33.6541 611.396 33.4157 611.672 33.3476C611.949 33.2795 612.052 33.5519 612.156 33.7562C612.259 33.8924 612.225 34.1308 612.259 34.3692Z" fill="#CECECE" fill-opacity="0.49"/>
<path d="M624.861 26.1616C624.24 26.0254 623.653 26.0254 623.17 25.6508C623.066 25.5486 622.893 25.4805 622.997 25.2762C623.066 25.14 623.204 25.174 623.342 25.174C623.998 25.3103 624.654 25.4124 625.345 25.174C625.586 25.0719 625.794 25.2762 625.621 25.5827C625.448 25.9232 625.172 26.1275 624.861 26.1616Z" fill="#CECECE" fill-opacity="0.49"/>
<path d="M629.143 25.3435C628.901 25.3095 628.659 25.3095 628.452 25.1392C628.314 25.003 628.176 24.8668 628.245 24.6965C628.314 24.5263 628.487 24.5603 628.625 24.5603C628.832 24.5603 629.005 24.6284 629.212 24.5263C629.661 24.2879 629.937 24.5263 629.971 24.9008C630.04 25.3095 629.661 25.3095 629.35 25.3435C629.315 25.3435 629.246 25.3435 629.143 25.3435Z" fill="#CECECE" fill-opacity="0.49"/>
<path d="M607.805 30.0092C607.633 29.9751 607.564 29.873 607.529 29.7027C607.495 29.4984 607.564 29.3281 607.736 29.26C608.116 29.0897 608.427 28.8854 608.634 28.5108C608.738 28.3405 608.979 28.2724 609.048 28.613C609.152 29.0897 608.289 30.0773 607.805 30.0092Z" fill="#CECECE" fill-opacity="0.49"/>
<path d="M605.423 33.9596C605.147 34.3682 604.836 34.7769 604.422 35.1174C604.318 35.1855 604.18 35.0834 604.077 35.0153C603.973 34.9131 603.904 34.8109 604.008 34.7088C604.318 34.3342 604.525 33.8915 604.974 33.6531C605.251 33.5169 605.423 33.6191 605.423 33.9596Z" fill="#CECECE" fill-opacity="0.49"/>
<path d="M600.624 36.2412C600.659 36.3774 600.728 36.4455 600.693 36.4796C600.659 36.8882 600.659 37.2969 600.244 37.5352C600.175 37.6034 600.037 37.5693 600.037 37.4671C599.968 36.9563 600.175 36.5817 600.624 36.2412Z" fill="#CECECE" fill-opacity="0.49"/>
<path d="M622.099 40.9757C622.065 41.2481 622.03 41.6227 621.685 41.6227C621.236 41.6568 621.374 41.2822 621.34 40.9757C621.305 40.533 621.202 40.0903 620.856 39.7838C620.753 39.7157 620.649 39.5795 620.753 39.4773C620.787 39.4092 620.96 39.4092 621.029 39.4433C621.34 39.5454 622.099 40.567 622.099 40.9757Z" fill="#CECECE" fill-opacity="0.49"/>
<path d="M617.024 8.65888C616.541 8.72698 616.437 8.4205 616.437 8.14807C616.437 7.67132 616.92 7.80754 617.162 7.70537C617.369 7.63727 617.715 7.70537 617.68 8.04591C617.645 8.48861 617.266 8.59077 617.024 8.65888Z" fill="#CECECE" fill-opacity="0.49"/>
<path d="M616.61 41.9629C617.128 42.0651 617.231 42.4737 617.404 42.8823C617.507 43.1207 617.611 43.4613 617.162 43.4953C616.886 43.4953 616.472 43.5294 616.472 43.0526C616.472 42.7121 616.403 42.3375 616.61 41.9629Z" fill="#CECECE" fill-opacity="0.49"/>
<path d="M1750.56 59.2107C1748.32 58.3162 1746.16 58.2214 1743.7 57.8815C1740.28 57.217 1739.5 57.548 1737.77 60.5079C1737.07 61.6386 1736.64 62.7478 1736.35 63.9796C1735.55 68.208 1735.91 71.9399 1739.66 74.593C1740.98 75.6959 1742.29 76.7988 1744.19 76.9151C1746.76 77.1109 1749.26 76.5071 1751.61 75.7807C1752.26 75.5937 1752.63 75.1617 1752.99 74.7296C1755.31 72.2598 1755.68 69.1406 1755.25 66.0858C1754.97 63.1536 1753.91 60.5524 1750.56 59.2107ZM1738.25 69.7367C1738.88 69.2831 1739.22 70.0614 1739.52 70.3065C1741.07 71.1213 1742.18 72.7789 1744.34 72.8736C1745.28 72.9318 1745.89 73.6885 1744.9 74.5741C1744.05 74.1054 1743.2 73.6367 1742.37 73.4345C1740.07 73.2172 1738.72 71.8477 1738.25 69.7367ZM1741.41 70.4227C1741.41 70.4227 1741.51 70.0121 1741.77 69.9907C1742.96 69.7607 1743.18 70.683 1744.21 71.5408C1742.58 71.4031 1741.88 71.0569 1741.41 70.4227ZM1748.57 74.9506C1748.53 75.8943 1747.29 75.5911 1746.37 75.7996C1745.44 76.008 1744.57 75.2727 1743.52 75.6252C1743.69 74.5374 1744.69 75.1287 1744.78 74.7181C1745.34 74.9417 1745.82 74.3657 1746.36 74.3227C1747.31 74.3808 1748.47 73.8844 1748.57 74.9506ZM1739.58 68.1525C1739.24 68.8511 1737.98 68.2813 1737.83 68.1588C1737.37 67.5245 1736.76 66.7678 1737.48 65.9037C1737.96 65.3276 1738.16 65.9833 1738.72 66.2069C1738.92 66.8626 1740.16 67.1658 1739.58 68.1525ZM1753.05 62.7708C1753.27 63.693 1753.38 64.7593 1752.5 65.5009C1752.7 66.1565 1752.18 67.6763 1753.82 66.6038L1754.09 66.5823C1755.02 67.8507 1754.08 69.2694 1754.06 70.4797C1754.16 71.546 1753.19 71.2213 1752.29 70.2195C1752.92 71.2428 1754.04 71.69 1753.46 72.6767C1752.89 73.6633 1752.01 74.4049 1750.92 74.2242C1750.1 74.0221 1749.1 73.4308 1748.63 72.7966C1748.17 72.1624 1748.8 71.7089 1749.45 71.5219C1750.11 71.335 1750.18 70.6578 1750.42 70.3698C1751.5 69.0736 1750.94 68.85 1749.68 68.2802C1748.85 68.078 1747.95 67.0762 1749.03 65.78C1747.99 66.1325 1746.35 67.205 1747.45 64.6986C1747.55 64.288 1747.5 63.7549 1746.96 63.7978C1746.28 63.7182 1746.6 64.2299 1746.63 64.4964C1746.24 66.1388 1745.06 66.3687 1743.98 64.9777C1743.22 64.0984 1742.61 63.3417 1741.49 62.8945C1742.33 64.5734 1743.89 65.3883 1744.6 67.2113C1744.94 67.9896 1746.23 68.8259 1747.11 69.5612C1748.87 71.0317 1748.99 70.8877 1746.83 72.2698C1746.13 71.9236 1746.76 71.4701 1746.85 71.0595C1746.67 69.1935 1743.76 69.6963 1744.09 67.5208C1741.66 67.4475 1742.11 65.128 1741.04 63.7371C1740.87 63.348 1741.18 62.3828 1740.52 62.5698C1739.99 62.6127 1739.92 63.2899 1740 64.0896C1740.07 64.8892 1740.42 65.6675 1740.64 66.5897C1738.99 66.1854 1738.95 64.442 1737.81 63.7282C1737.66 63.6057 1737.49 63.2166 1737.76 63.1951C1738.75 62.3095 1738.3 60.465 1739.29 59.5794C1739.66 59.1474 1740.16 58.8378 1740.6 59.2055C1741.19 59.6957 1740.41 60.0267 1740.17 60.3147C1740.49 60.8263 1740.76 60.8049 1741.26 60.4954C1742.91 59.4228 1744.92 59.395 1746.94 59.3673C1747.74 59.3029 1748.03 59.5479 1747.7 60.2466C1747.6 60.6572 1747.63 60.9237 1747.92 61.1688C1748.33 61.2699 1748.6 61.2484 1748.84 60.9604C1749.03 60.1392 1749.51 59.5631 1750.37 60.0318C1751.39 60.8897 1752.9 61.1714 1753.05 62.7708ZM1749.07 69.0003C1749.22 69.1228 1749.37 69.2454 1749.39 69.5119C1748.74 69.6989 1748.3 69.3313 1748.39 68.9207C1748.34 68.3876 1748.81 69.0218 1749.07 69.0003Z" fill="#CECECE" fill-opacity="0.49"/>
<path d="M1751.23 63.4542C1750.53 63.108 1750.19 63.8066 1749.83 64.2387C1750.39 64.4623 1751.04 64.2753 1751.48 64.643C1751.84 64.2109 1751.65 63.5552 1751.23 63.4542Z" fill="#CECECE" fill-opacity="0.49"/>
<path d="M1749.71 64.3827C1749.83 64.2387 1749.83 64.2387 1749.71 64.3827V64.3827Z" fill="#CECECE" fill-opacity="0.49"/>
<path d="M1743.93 60.2805C1743.81 60.4245 1743.84 60.6911 1743.87 60.9576C1744.33 61.5918 1744.96 61.1383 1745.47 60.8288C1745.03 60.4612 1744.71 59.9495 1743.93 60.2805Z" fill="#CECECE" fill-opacity="0.49"/>
<path d="M1751.63 64.7654C1750.73 65.2404 1751.2 65.8746 1751.64 66.2423C1752.07 66.6099 1752.29 66.0553 1752.39 65.6447C1752.33 65.1116 1752.04 64.8665 1751.63 64.7654Z" fill="#CECECE" fill-opacity="0.49"/>
<path d="M1742.37 62.1528C1742.49 62.0088 1742.49 62.0088 1742.37 62.1528L1742.34 61.8862L1742.07 61.9077C1742.22 62.0302 1742.22 62.0302 1742.37 62.1528C1741.83 62.1957 1741.59 62.4838 1741.5 62.8943C1742.03 62.8514 1742.12 62.4408 1742.37 62.1528Z" fill="#CECECE" fill-opacity="0.49"/>
<path d="M1739.66 60.6241C1739.78 60.4801 1739.78 60.4801 1739.91 60.336C1739.91 60.336 1739.78 60.4801 1739.66 60.6241C1739.78 60.4801 1739.78 60.4801 1739.66 60.6241Z" fill="#CECECE" fill-opacity="0.49"/>
<path d="M1740.05 60.4586C1740.17 60.3145 1740.17 60.3145 1740.05 60.4586V60.4586Z" fill="#CECECE" fill-opacity="0.49"/>
<path d="M1765.7 120.712C1763.46 119.818 1761.3 119.723 1758.85 119.383C1755.42 118.718 1754.65 119.049 1752.91 122.009C1752.21 123.14 1751.78 124.249 1751.5 125.481C1750.69 129.709 1751.05 133.441 1754.8 136.094C1756.12 137.197 1757.44 138.3 1759.33 138.416C1761.9 138.612 1764.4 138.008 1766.75 137.282C1767.41 137.095 1767.77 136.663 1768.13 136.231C1770.45 133.761 1770.82 130.642 1770.39 127.587C1770.11 124.655 1769.06 122.054 1765.7 120.712ZM1753.4 131.238C1754.02 130.784 1754.37 131.563 1754.66 131.808C1756.22 132.623 1757.32 134.28 1759.48 134.375C1760.43 134.433 1761.04 135.19 1760.05 136.075C1759.19 135.607 1758.34 135.138 1757.52 134.936C1755.21 134.719 1753.87 133.349 1753.4 131.238ZM1756.55 131.924C1756.55 131.924 1756.65 131.513 1756.92 131.492C1758.1 131.262 1758.33 132.184 1759.35 133.042C1757.72 132.904 1757.02 132.558 1756.55 131.924ZM1763.71 136.452C1763.67 137.396 1762.43 137.092 1761.51 137.301C1760.59 137.509 1759.71 136.774 1758.67 137.127C1758.83 136.039 1759.83 136.63 1759.93 136.219C1760.49 136.443 1760.97 135.867 1761.5 135.824C1762.45 135.882 1763.61 135.386 1763.71 136.452ZM1754.72 129.654C1754.39 130.352 1753.12 129.783 1752.97 129.66C1752.51 129.026 1751.9 128.269 1752.62 127.405C1753.11 126.829 1753.3 127.485 1753.86 127.708C1754.06 128.364 1755.3 128.667 1754.72 129.654ZM1768.19 124.272C1768.42 125.194 1768.52 126.261 1767.65 127.002C1767.85 127.658 1767.32 129.178 1768.96 128.105L1769.23 128.084C1770.16 129.352 1769.22 130.771 1769.2 131.981C1769.3 133.047 1768.33 132.723 1767.43 131.721C1768.07 132.744 1769.18 133.191 1768.61 134.178C1768.03 135.165 1767.16 135.906 1766.07 135.726C1765.24 135.523 1764.24 134.932 1763.78 134.298C1763.31 133.664 1763.94 133.21 1764.6 133.023C1765.25 132.836 1765.32 132.159 1765.56 131.871C1766.65 130.575 1766.09 130.351 1764.82 129.782C1764 129.579 1763.09 128.578 1764.18 127.281C1763.14 127.634 1761.49 128.706 1762.6 126.2C1762.69 125.789 1762.64 125.256 1762.11 125.299C1761.42 125.22 1761.74 125.731 1761.77 125.998C1761.39 127.64 1760.2 127.87 1759.12 126.479C1758.37 125.6 1757.76 124.843 1756.64 124.396C1757.47 126.075 1759.03 126.89 1759.74 128.713C1760.09 129.491 1761.38 130.327 1762.25 131.063C1764.01 132.533 1764.13 132.389 1761.98 133.771C1761.27 133.425 1761.9 132.971 1762 132.561C1761.82 130.695 1758.91 131.198 1759.23 129.022C1756.81 128.949 1757.26 126.629 1756.18 125.238C1756.01 124.849 1756.32 123.884 1755.67 124.071C1755.13 124.114 1755.06 124.791 1755.14 125.591C1755.22 126.391 1755.56 127.169 1755.78 128.091C1754.13 127.687 1754.1 125.943 1752.95 125.23C1752.81 125.107 1752.63 124.718 1752.9 124.696C1753.89 123.811 1753.45 121.966 1754.44 121.081C1754.8 120.649 1755.31 120.339 1755.75 120.707C1756.33 121.197 1755.56 121.528 1755.31 121.816C1755.63 122.328 1755.9 122.306 1756.41 121.997C1758.05 120.924 1760.07 120.896 1762.08 120.869C1762.88 120.804 1763.18 121.049 1762.84 121.748C1762.74 122.158 1762.77 122.425 1763.06 122.67C1763.48 122.771 1763.74 122.75 1763.98 122.462C1764.17 121.641 1764.66 121.064 1765.51 121.533C1766.53 122.391 1768.04 122.673 1768.19 124.272ZM1764.22 130.502C1764.36 130.624 1764.51 130.747 1764.54 131.013C1763.88 131.2 1763.44 130.833 1763.54 130.422C1763.49 129.889 1763.95 130.523 1764.22 130.502Z" fill="#CECECE" fill-opacity="0.49"/>
<path d="M1766.38 124.955C1765.67 124.609 1765.33 125.308 1764.97 125.74C1765.53 125.964 1766.19 125.777 1766.63 126.144C1766.99 125.712 1766.79 125.057 1766.38 124.955Z" fill="#CECECE" fill-opacity="0.49"/>
<path d="M1764.85 125.884C1764.97 125.74 1764.97 125.74 1764.85 125.884V125.884Z" fill="#CECECE" fill-opacity="0.49"/>
<path d="M1759.08 121.782C1758.96 121.926 1758.98 122.192 1759.01 122.459C1759.47 123.093 1760.1 122.64 1760.61 122.33C1760.17 121.962 1759.85 121.451 1759.08 121.782Z" fill="#CECECE" fill-opacity="0.49"/>
<path d="M1766.77 126.267C1765.88 126.742 1766.34 127.376 1766.78 127.744C1767.22 128.111 1767.43 127.557 1767.53 127.146C1767.48 126.613 1767.19 126.368 1766.77 126.267Z" fill="#CECECE" fill-opacity="0.49"/>
<path d="M1757.51 123.654C1757.63 123.51 1757.63 123.51 1757.51 123.654L1757.48 123.388L1757.22 123.409C1757.36 123.532 1757.36 123.532 1757.51 123.654C1756.98 123.697 1756.73 123.985 1756.64 124.396C1757.17 124.353 1757.27 123.942 1757.51 123.654Z" fill="#CECECE" fill-opacity="0.49"/>
<path d="M1754.81 122.125C1754.93 121.981 1754.93 121.981 1755.05 121.837C1755.05 121.837 1754.93 121.981 1754.81 122.125C1754.93 121.981 1754.93 121.981 1754.81 122.125Z" fill="#CECECE" fill-opacity="0.49"/>
<path d="M1755.2 121.96C1755.32 121.816 1755.32 121.816 1755.2 121.96V121.96Z" fill="#CECECE" fill-opacity="0.49"/>
<path d="M1796.68 36.948C1795.31 36.4095 1793.99 36.3622 1792.48 36.1658C1790.39 35.7747 1789.91 35.9821 1788.83 37.8107C1788.4 38.5094 1788.13 39.1935 1787.95 39.9522C1787.43 42.5558 1787.63 44.8483 1789.92 46.4602C1790.72 47.1316 1791.52 47.8029 1792.68 47.8647C1794.26 47.972 1795.79 47.5881 1797.24 47.1295C1797.64 47.0112 1797.86 46.7438 1798.09 46.4763C1799.52 44.9461 1799.77 43.0266 1799.52 41.1508C1799.36 39.3495 1798.73 37.7557 1796.68 36.948ZM1789.08 43.4819C1789.47 43.1998 1789.68 43.6765 1789.85 43.8257C1790.81 44.3187 1791.47 45.3321 1792.8 45.3794C1793.38 45.4103 1793.75 45.8724 1793.13 46.4219C1792.61 46.1381 1792.09 45.8543 1791.59 45.7342C1790.18 45.6124 1789.36 44.7773 1789.08 43.4819ZM1791.01 43.8875C1791.01 43.8875 1791.08 43.6346 1791.24 43.6201C1791.97 43.4727 1792.1 44.0385 1792.72 44.5606C1791.73 44.4843 1791.3 44.275 1791.01 43.8875ZM1795.38 46.6347C1795.35 47.2151 1794.59 47.035 1794.02 47.1678C1793.46 47.3007 1792.92 46.8531 1792.28 47.0751C1792.39 46.4056 1793 46.764 1793.06 46.5111C1793.4 46.6457 1793.7 46.2891 1794.03 46.2599C1794.61 46.2908 1795.32 45.9797 1795.38 46.6347ZM1789.9 42.5012C1789.69 42.9324 1788.92 42.5885 1788.83 42.5139C1788.55 42.1264 1788.18 41.6643 1788.63 41.1294C1788.93 40.7727 1789.04 41.1748 1789.39 41.3094C1789.5 41.7115 1790.26 41.8916 1789.9 42.5012ZM1798.19 39.124C1798.32 39.6898 1798.38 40.3448 1797.84 40.8051C1797.96 41.2072 1797.63 42.1443 1798.64 41.4765L1798.81 41.4619C1799.37 42.237 1798.78 43.114 1798.77 43.8581C1798.82 44.5131 1798.23 44.3184 1797.68 43.7071C1798.07 44.333 1798.75 44.6023 1798.39 45.2118C1798.03 45.8213 1797.49 46.2816 1796.83 46.1761C1796.32 46.0561 1795.71 45.6977 1795.43 45.3101C1795.15 44.9226 1795.54 44.6406 1795.94 44.5223C1796.34 44.404 1796.39 43.9874 1796.54 43.8091C1797.21 43.0067 1796.87 42.8721 1796.09 42.5282C1795.59 42.4081 1795.04 41.7968 1795.71 40.9944C1795.07 41.2164 1794.06 41.8842 1794.75 40.3377C1794.81 40.0848 1794.78 39.7573 1794.45 39.7864C1794.03 39.7409 1794.23 40.0539 1794.24 40.2176C1794 41.2292 1793.27 41.3766 1792.62 40.527C1792.16 39.9903 1791.79 39.5281 1791.1 39.2589C1791.61 40.2868 1792.56 40.7799 1792.99 41.897C1793.19 42.3737 1793.98 42.8813 1794.51 43.3288C1795.58 44.2239 1795.66 44.1348 1794.33 44.9954C1793.9 44.7862 1794.29 44.5042 1794.35 44.2513C1794.25 43.105 1792.46 43.429 1792.67 42.0899C1791.18 42.0572 1791.47 40.6289 1790.82 39.7793C1790.72 39.5409 1790.91 38.9459 1790.51 39.0642C1790.18 39.0934 1790.14 39.51 1790.18 40.0012C1790.22 40.4925 1790.43 40.9692 1790.56 41.535C1789.55 41.2949 1789.54 40.2232 1788.84 39.7902C1788.75 39.7157 1788.65 39.4773 1788.81 39.4627C1789.42 38.9133 1789.16 37.7816 1789.77 37.2321C1790 36.9646 1790.31 36.7718 1790.58 36.9955C1790.93 37.2939 1790.46 37.5013 1790.31 37.6796C1790.5 37.9926 1790.66 37.978 1790.98 37.7852C1791.99 37.1174 1793.22 37.09 1794.46 37.0627C1794.95 37.019 1795.13 37.1682 1794.92 37.5994C1794.86 37.8523 1794.87 38.0161 1795.05 38.1653C1795.3 38.2253 1795.47 38.2107 1795.62 38.0324C1795.74 37.5266 1796.04 37.17 1796.56 37.4538C1797.18 37.976 1798.1 38.1415 1798.19 39.124ZM1795.72 42.974C1795.81 43.0486 1795.9 43.1232 1795.91 43.2869C1795.51 43.4052 1795.24 43.1814 1795.3 42.9285C1795.27 42.601 1795.56 42.9885 1795.72 42.974Z" fill="#CECECE" fill-opacity="0.49"/>
<path d="M1797.07 39.5532C1796.64 39.344 1796.43 39.7752 1796.21 40.0427C1796.55 40.1773 1796.95 40.059 1797.22 40.2828C1797.44 40.0153 1797.33 39.6132 1797.07 39.5532Z" fill="#CECECE" fill-opacity="0.49"/>
<path d="M1796.13 40.1318C1796.21 40.0426 1796.21 40.0426 1796.13 40.1318V40.1318Z" fill="#CECECE" fill-opacity="0.49"/>
<path d="M1792.61 37.6393C1792.54 37.7284 1792.55 37.8922 1792.57 38.0559C1792.85 38.4435 1793.24 38.1614 1793.55 37.9686C1793.28 37.7448 1793.09 37.4319 1792.61 37.6393Z" fill="#CECECE" fill-opacity="0.49"/>
<path d="M1797.31 40.3573C1796.76 40.6539 1797.04 41.0414 1797.3 41.2652C1797.57 41.489 1797.71 41.1469 1797.77 40.894C1797.74 40.5665 1797.56 40.4174 1797.31 40.3573Z" fill="#CECECE" fill-opacity="0.49"/>
<path d="M1791.64 38.7983C1791.72 38.7092 1791.72 38.7092 1791.64 38.7983L1791.63 38.6346L1791.47 38.6492C1791.55 38.7237 1791.55 38.7237 1791.64 38.7983C1791.32 38.8275 1791.17 39.0058 1791.11 39.2587C1791.43 39.2295 1791.49 38.9766 1791.64 38.7983Z" fill="#CECECE" fill-opacity="0.49"/>
<path d="M1790 37.8723C1790.07 37.7831 1790.07 37.7831 1790.14 37.694C1790.14 37.694 1790.07 37.7831 1790 37.8723C1790.07 37.7831 1790.07 37.7831 1790 37.8723Z" fill="#CECECE" fill-opacity="0.49"/>
<path d="M1790.23 37.7685C1790.31 37.6794 1790.31 37.6794 1790.23 37.7685V37.7685Z" fill="#CECECE" fill-opacity="0.49"/>
<defs>
<clipPath id="clip0_425_85405">
<rect width="36" height="50" fill="white" transform="translate(33.4838 6) rotate(42.042)"/>
</clipPath>
</defs>
</svg>
