<svg width="10" height="10" viewBox="0 0 10 10" fill="none" xmlns="http://www.w3.org/2000/svg">
<path d="M6.6543 4.06641C6.19857 4.52214 5.64258 4.75 4.98633 4.75C4.34831 4.75 3.80143 4.52214 3.3457 4.06641C2.88997 3.61068 2.66211 3.0638 2.66211 2.42578C2.66211 1.76953 2.88997 1.21354 3.3457 0.757812C3.80143 0.302083 4.34831 0.0742188 4.98633 0.0742188C5.64258 0.0742188 6.19857 0.302083 6.6543 0.757812C7.11003 1.21354 7.33789 1.76953 7.33789 2.42578C7.33789 3.0638 7.11003 3.61068 6.6543 4.06641ZM3.09961 6.17188C3.79232 6.00781 4.42122 5.92578 4.98633 5.92578C5.56966 5.92578 6.20768 6.00781 6.90039 6.17188C7.5931 6.33594 8.22201 6.60938 8.78711 6.99219C9.37044 7.35677 9.66211 7.77604 9.66211 8.25V9.42578H0.337891V8.25C0.337891 7.77604 0.620443 7.35677 1.18555 6.99219C1.76888 6.60938 2.4069 6.33594 3.09961 6.17188Z" fill="#DE9C36"/>
</svg>
