<svg width="106" height="106" viewBox="0 0 106 106" fill="none" xmlns="http://www.w3.org/2000/svg">
<circle cx="53" cy="53" r="52.5" stroke="url(#paint0_linear_25_324)"/>
<circle opacity="0.7" cx="68" cy="103" r="3" fill="url(#paint1_linear_25_324)"/>
<circle opacity="0.7" cx="6" cy="77" r="2" fill="url(#paint2_linear_25_324)"/>
<circle opacity="0.7" cx="22" cy="11" r="4" fill="url(#paint3_linear_25_324)"/>
<g clip-path="url(#clip0_25_324)">
<path d="M73.4862 57.1938C73.3069 57.373 73.2039 57.6217 73.2039 57.877C73.2039 58.4054 73.6319 58.8438 74.1707 58.8438C74.701 58.8438 75.1362 58.4139 75.1362 57.877C75.1362 57.0221 74.0957 56.5827 73.4862 57.1938Z" fill="#DE9C36" fill-opacity="0.75"/>
<path d="M62.9385 65.1568C62.5976 64.7454 61.9882 64.6886 61.5771 65.0289C61.1915 65.3483 60.7302 65.5557 60.2394 65.6293L60.2169 65.6327C58.7204 65.8579 57.3219 64.823 57.0973 63.3276C56.7783 61.2027 58.9194 59.5705 60.8801 60.3857C61.3729 60.5904 61.9391 60.3567 62.1439 59.8636C62.3487 59.3705 62.1149 58.8046 61.6218 58.5998C58.3076 57.2235 54.6394 59.9792 55.1853 63.6144C55.5685 66.1665 57.9559 67.9274 60.5074 67.5444L60.5301 67.5409C61.3653 67.4155 62.1538 67.0617 62.8105 66.518C63.2217 66.1774 63.279 65.5681 62.9385 65.1568Z" fill="#DE9C36" fill-opacity="0.75"/>
<path d="M68.262 32.9987C67.6635 32.8812 67.1057 33.3384 67.1057 33.9462C67.1057 34.337 67.3363 34.6847 67.7025 34.8397C68.1849 35.0383 68.7499 34.8266 68.9658 34.3162C69.1967 33.7378 68.856 33.122 68.262 32.9987Z" fill="#DE9C36" fill-opacity="0.75"/>
<path d="M59.8787 37.1271C59.5379 36.7158 58.9284 36.6589 58.5173 36.9993C57.6808 37.6925 56.3748 37.2237 56.2099 36.1244C56.0446 35.024 57.1557 34.194 58.1587 34.6102C58.6516 34.8151 59.2175 34.5811 59.4224 34.088C59.6271 33.595 59.3932 33.0292 58.9002 32.8244C56.5297 31.8404 53.9072 33.8109 54.2978 36.4113C54.6882 39.0101 57.7685 40.1301 59.7508 38.4883C60.162 38.1476 60.2193 37.5382 59.8787 37.1271Z" fill="#DE9C36" fill-opacity="0.75"/>
<path d="M83.309 79.5393L53.7081 79.5338C53.7163 78.2113 53.5346 75.8535 52.4064 73.394C54.4713 73.7138 56.5764 73.8328 58.7343 73.7544C64.8309 73.5331 77.3951 69.7569 82.0067 66.8658C83.2306 66.1308 83.3935 64.736 82.4187 63.9775H82.4186L81.5303 63.2863C82.0377 62.7386 82.526 62.1722 82.9532 61.6442C84.1395 60.1781 84.1407 58.0772 83.0027 56.611C81.6137 54.8212 76.5133 50.2272 69.8282 47.8546C68.9231 47.5333 68.0074 47.2549 67.0833 47.016C66.4234 46.1973 65.7094 45.427 64.9463 44.7113C67.6083 43.954 71.5682 42.6318 73.9598 41.2247C74.635 40.8269 75.1876 40.3472 75.136 39.5203C75.0891 38.7674 74.5544 38.4681 74.0706 38.0882C74.9979 37.0676 75.6484 36.3728 75.741 35.1427C75.8686 33.4507 74.8921 32.5649 73.6821 31.4318C70.5969 28.5404 66.818 26.4492 62.7386 25.3817C60.1219 22.1628 56.395 19.8938 52.1606 19.1179C50.4644 18.8061 49.0657 20.4658 49.66 22.0947C50.0336 23.118 50.2989 24.1821 50.4555 25.2679C47.1239 26.0896 45.7622 26.9085 38.1715 30.7594L36.9129 31.398C36.5436 31.5853 36.107 31.5495 35.7732 31.3044L29.8655 26.9689C28.7554 26.1546 27.2893 27.3832 27.903 28.6179C29.9857 32.8078 30.0998 37.6338 27.9582 42.0272C27.3419 43.2917 28.837 44.5432 29.9722 43.7098C36.4644 39.0028 36.2036 39.0066 36.4091 39.1292L42.9385 43.0381C42.5814 43.6468 42.1163 44.1903 41.5692 44.6336C40.6951 45.3418 40.9242 46.738 41.9774 47.1328C44.5525 48.0983 47.504 47.6394 49.6867 45.8227C50.2892 45.9582 50.9036 46.0714 51.53 46.1612C51.5666 46.384 51.5997 46.6075 51.6292 46.8316C47.2446 47.8753 44.8838 49.2353 38.7792 52.3321C37.9716 51.681 36.6789 52.221 36.6916 53.3912C36.4314 53.5231 34.2243 54.643 33.8641 54.8256C33.2875 55.1179 32.6057 55.0622 32.0848 54.6796L24.4183 49.0535C23.2206 48.1745 21.6371 49.4999 22.2994 50.8331C25.0464 56.3598 25.186 62.7163 22.372 68.489C21.7023 69.8622 23.3259 71.2175 24.5566 70.3144C33.1201 64.0525 32.6298 64.336 32.8463 64.2909C32.3549 65.4673 32.1779 66.6912 32.2975 68.0317C32.345 68.5636 32.8152 68.9556 33.3463 68.9089C33.8782 68.8615 34.2708 68.3919 34.2234 67.86C34.0858 66.3177 34.4375 64.9412 35.5571 63.4558C37.1537 61.3366 38.1156 58.7228 38.4688 55.9954C40.4075 61.9672 35.7932 66.1266 38.2572 69.749C40.8515 73.5627 41.0644 77.7709 41.0222 79.5302H37.7211C37.4812 78.1005 36.7128 76.8242 35.5492 75.9382C35.629 74.4892 35.4025 73.22 35.1855 72.247C35.0693 71.7258 34.553 71.3975 34.0314 71.5138C33.5104 71.63 33.1821 72.1467 33.2982 72.6679C33.4417 73.311 33.5897 74.1003 33.6237 74.9769C30.3021 74.0372 26.9736 76.2241 26.4104 79.5307C21.4443 79.5297 22.9142 79.5201 22.6319 79.5302C21.1809 79.5625 20.0001 80.7688 20 82.2193C19.9997 83.7034 21.2069 84.9111 22.691 84.9115L70.2968 84.9204C70.2968 84.9204 70.2968 84.9204 70.2969 84.9204C70.8308 84.9204 71.2636 84.4876 71.2637 83.9537C71.2638 83.4198 70.831 82.9869 70.297 82.9868L22.6914 82.9779C22.2734 82.9778 21.9333 82.6376 21.9335 82.2195C21.9335 81.8144 22.2613 81.4772 22.6659 81.4636C30.2447 81.4648 82.8672 81.4727 83.3087 81.4727C83.7266 81.4728 84.0667 81.813 84.0667 82.231C84.0667 82.6362 83.7389 82.9734 83.3341 82.9869L74.8086 82.9852C74.8086 82.9852 74.8086 82.9852 74.8085 82.9852C74.2746 82.9852 73.8418 83.418 73.8417 83.9519C73.8416 84.4858 74.2743 84.9187 74.8084 84.9188L83.3467 84.9205C83.3539 84.9205 83.361 84.9204 83.3683 84.9203C84.8191 84.8882 85.9997 83.682 86 82.2314C86.0003 80.7474 84.7931 79.5397 83.309 79.5393ZM33.8498 62.5142C33.0723 62.2101 32.1851 62.3182 31.4959 62.8241L24.8224 67.7212C26.8654 62.5593 26.8666 56.9123 24.8226 51.7491L30.9408 56.2388C32.0531 57.0549 33.5085 57.1742 34.7388 56.5501C36.3577 55.7419 36.0831 55.846 36.5601 55.6469C36.1757 58.7083 35.212 60.6109 33.8498 62.5142ZM28.3852 79.5304C29.0438 77.0268 31.9786 75.886 34.1591 77.3242C34.9284 77.8338 35.5025 78.6152 35.7432 79.5304C34.8875 79.5304 30.0792 79.5304 28.3852 79.5304ZM69.9384 49.9651C76.2544 52.3945 81.3211 57.2106 81.7616 58.2913C82.0461 58.9893 81.9464 59.8146 81.4504 60.4277C80.6571 61.4081 80.1631 61.9044 79.9952 62.106C79.6354 62.538 79.5035 63.0718 79.5854 63.5868C79.7245 64.4605 80.2733 64.7538 80.9228 65.2628C78.3715 66.8427 73.7879 68.4207 70.8735 69.3044C67.0036 63.5386 66.6456 56.0794 69.9384 49.9651ZM64.9152 28.13C67.7489 29.2473 70.3335 30.9017 72.5284 32.9994C73.4087 33.84 73.64 34.0798 73.7594 34.4683C74.2542 36.0774 71.8799 36.6353 72.0098 38.2559C72.0821 39.157 72.7908 39.5146 72.8838 39.6144C70.9499 40.7303 67.7826 41.8344 65.6264 42.4935C64.2078 40.3266 63.4118 37.8251 63.317 35.2166C63.2278 32.7567 63.7709 30.3276 64.9152 28.13ZM51.8123 21.0194C54.7601 21.5596 57.3828 22.9024 59.4714 24.7534C57.1406 24.464 54.6937 24.4955 52.3542 24.8781C52.1764 23.6996 51.8824 22.5442 51.4761 21.4314C51.3945 21.2071 51.5847 20.9777 51.8123 21.0194ZM43.4287 45.5528C43.8692 45.1052 44.2559 44.6046 44.578 44.0646C45.5394 44.5114 46.3076 44.7988 47.2285 45.1219C46.5116 45.4641 44.6759 45.8318 43.4287 45.5528ZM50.5461 42.3972C50.6129 42.58 50.6758 42.7642 50.7373 42.9489C50.8687 43.344 50.9897 43.7519 51.0926 44.1352C48.8475 43.7392 46.6525 42.9807 44.6981 41.8386C37.2447 37.4932 37.3414 37.1686 36.3119 37.1686C35.8702 37.1686 35.4298 37.3069 35.057 37.5806L30.5114 40.9164C31.7602 37.3205 31.7614 33.4403 30.5117 29.842L34.6293 32.8637C35.5543 33.5425 36.7644 33.6419 37.7876 33.1226C38.1366 32.9991 44.8284 29.0723 54.926 30.1149C55.4566 30.1713 55.9321 29.7837 55.9869 29.2526C56.0418 28.7215 55.6557 28.2464 55.1245 28.1916C52.6685 27.938 50.1045 27.9391 47.6229 28.227C52.707 26.1281 58.132 26.0038 63.0695 27.4896C62.7558 28.1185 62.4265 28.8999 62.1736 29.6719C61.3642 29.4122 60.5356 29.1797 59.6989 28.9775C59.18 28.8516 58.6574 29.1713 58.5321 29.6903C58.4067 30.2092 58.7259 30.7316 59.2449 30.857C60.0712 31.0565 60.8887 31.2877 61.6853 31.5464C60.9026 35.4922 61.606 39.591 63.6963 43.0522C63.5164 43.1011 63.3362 43.1499 63.1555 43.1974C59.2202 40.2591 54.5183 38.8492 52.9492 38.873C51.2012 38.8991 49.9164 40.6718 50.5461 42.3972ZM63.8725 46.3556C60.5574 45.8493 57.0382 45.8347 53.5298 46.4428C52.9252 42.0525 51.8718 41.6485 52.5307 41.001C52.6841 40.8502 52.8916 40.7764 53.1208 40.8182C57.3142 41.5864 61.0432 43.6129 63.8725 46.3556ZM68.0891 49.322C67.553 50.3544 67.0704 51.5072 66.7008 52.6914C59.7477 50.4021 52.3985 49.9151 45.6838 51.0171C52.9845 47.4533 60.8576 47.0574 68.0891 49.322ZM39.6047 68.1733L41.9383 69.5705C41.6998 70.011 41.4207 70.4309 41.1026 70.8205C40.2745 69.1116 39.8269 68.7669 39.6047 68.1733ZM41.9178 72.7975C42.5625 72.1553 43.1186 71.4235 43.5635 70.6331C44.1137 70.8935 44.6779 71.1413 45.2512 71.3744C45.3199 71.975 45.467 72.6196 45.6164 73.2063C44.4897 73.4662 43.2695 73.4856 42.0508 73.1993C42.0084 73.066 41.9642 72.9321 41.9178 72.7975ZM45.5437 79.5322L42.961 79.5317C42.9857 78.5689 42.94 77.0451 42.5823 75.2572C43.7586 75.4106 44.9239 75.3519 46.0703 75.0852C46.3296 76.4337 46.3539 77.8284 45.5437 79.5322ZM45.3461 69.2437C43.728 68.4668 43.0863 67.9735 39.6075 65.9213C40.2489 62.8638 41.9596 59.2532 39.9368 54.3984C48.5581 51.6126 57.7726 51.7622 66.2132 54.5683C65.119 59.7484 66.0288 65.2468 68.9366 69.8678C62.633 71.621 57.562 72.553 51.1872 71.2099C50.411 69.2557 54.0001 65.1192 50.7715 59.5412C50.1522 58.4708 48.5063 58.9267 48.5221 60.1627C48.5405 61.6122 48.3105 64.3905 46.5636 66.709C45.9929 67.4662 45.5535 68.3223 45.3461 69.2437ZM47.6389 79.5304C49.0602 75.6416 47.2367 73.2963 47.1363 70.6625C47.1136 67.8446 49.15 67.8693 50.1353 63.3332C50.7404 67.179 47.9559 69.8363 49.7538 72.6042C49.7812 72.6795 51.7851 75.2758 51.7709 79.5306H47.6389V79.5304Z" fill="#DE9C36" fill-opacity="0.75"/>
</g>
<defs>
<linearGradient id="paint0_linear_25_324" x1="45.6615" y1="3.78571" x2="45.6615" y2="132.5" gradientUnits="userSpaceOnUse">
<stop offset="0.161458" stop-color="#FFD692"/>
<stop offset="0.859375" stop-color="#F0B45B"/>
</linearGradient>
<linearGradient id="paint1_linear_25_324" x1="67.5846" y1="100.214" x2="67.5846" y2="107.5" gradientUnits="userSpaceOnUse">
<stop offset="0.161458" stop-color="#FFD692"/>
<stop offset="0.859375" stop-color="#F0B45B"/>
</linearGradient>
<linearGradient id="paint2_linear_25_324" x1="5.72308" y1="75.1429" x2="5.72308" y2="80" gradientUnits="userSpaceOnUse">
<stop offset="0.161458" stop-color="#FFD692"/>
<stop offset="0.859375" stop-color="#F0B45B"/>
</linearGradient>
<linearGradient id="paint3_linear_25_324" x1="21.4462" y1="7.28571" x2="21.4462" y2="17" gradientUnits="userSpaceOnUse">
<stop offset="0.161458" stop-color="#FFD692"/>
<stop offset="0.859375" stop-color="#F0B45B"/>
</linearGradient>
<clipPath id="clip0_25_324">
<rect width="66" height="66" fill="white" transform="translate(20 19)"/>
</clipPath>
</defs>
</svg>
