<svg width="106" height="106" viewBox="0 0 106 106" fill="none" xmlns="http://www.w3.org/2000/svg">
<circle cx="53" cy="53" r="52.5" stroke="url(#paint0_linear_25_190)"/>
<circle opacity="0.7" cx="68" cy="103" r="3" fill="url(#paint1_linear_25_190)"/>
<circle opacity="0.7" cx="6" cy="77" r="2" fill="url(#paint2_linear_25_190)"/>
<circle opacity="0.7" cx="22" cy="11" r="4" fill="url(#paint3_linear_25_190)"/>
<g clip-path="url(#clip0_25_190)">
<path d="M66.6761 62.8051C66.4518 62.5808 66.1179 62.4777 65.8035 62.5407C65.271 62.6522 64.9456 63.1516 65.0441 63.6775C65.1274 64.075 65.4248 64.3577 65.8036 64.4369C66.1719 64.512 66.5784 64.3571 66.796 64.0257C67.0618 63.6228 66.9892 63.1183 66.6761 62.8051Z" fill="#DE9C36" fill-opacity="0.75"/>
<path d="M56.1762 69.8353C55.8355 69.4238 55.2259 69.367 54.8151 69.7074C53.4442 70.8434 51.3189 70.0666 51.0507 68.2784C50.7809 66.4825 52.5982 65.1289 54.2291 65.8065C54.7222 66.0116 55.2878 65.7776 55.4928 65.2847C55.6977 64.7916 55.4639 64.2258 54.971 64.021C51.9578 62.7696 48.6446 65.2773 49.1385 68.5655C49.6345 71.8683 53.5486 73.2669 56.0482 71.1967C56.4594 70.8559 56.5168 70.2467 56.1762 69.8353Z" fill="#DE9C36" fill-opacity="0.75"/>
<path d="M85.0334 29.0726H84.9587V27.8777C84.9587 26.2888 83.6662 24.9962 82.0774 24.9962C80.4886 24.9962 79.196 26.2888 79.196 27.8777V29.0726H79.1711C78.637 29.0726 78.2044 29.5054 78.2044 30.0394C78.2044 30.5735 78.6372 31.0061 79.1711 31.0061H79.196V32.2012C79.196 33.4509 79.9961 34.5171 81.1107 34.9153V44.2589C78.5075 45.1881 78.6201 48.8815 81.2119 49.693C81.2742 51.6814 81.804 53.6848 82.7901 55.6552C83.7243 57.5203 82.3664 59.7013 80.3728 59.8014C78.8798 59.8771 77.592 58.8197 77.3833 57.3434C77.2363 56.3025 75.8991 55.9622 75.274 56.8087L74.4982 57.8589C74.181 58.2884 74.2721 58.8935 74.7016 59.2108C75.086 59.4949 75.6117 59.4516 75.9451 59.1308C76.7836 60.7793 78.5268 61.8316 80.4697 61.7323C83.904 61.56 86.0641 57.8761 84.5192 54.7897C83.6572 53.068 83.1953 51.3305 83.1437 49.6194C85.5967 48.6301 85.5063 45.1435 83.0442 44.262V34.9153C84.1589 34.517 84.9589 33.451 84.9589 32.2012V31.0061H85.0335C85.5675 31.0061 86.0002 30.5733 86.0002 30.0394C86.0002 29.5055 85.5673 29.0726 85.0334 29.0726ZM82.6817 47.669C82.0548 48.206 81.0776 47.7207 81.1413 46.8877C81.1791 46.398 81.5896 46.0246 82.0729 46.0246C82.3381 46.0246 82.5982 46.1352 82.7833 46.351C82.9456 46.5406 83.0709 47.3355 82.6817 47.669ZM83.0253 32.2013C83.0253 32.7241 82.6 33.1493 82.0774 33.1493C81.5547 33.1493 81.1294 32.724 81.1294 32.2013V31.0062H83.0254V32.2013H83.0253ZM83.0253 29.0726H81.1293V27.8777C81.1293 27.3548 81.5546 26.9297 82.0773 26.9297C82.6001 26.9297 83.0251 27.3551 83.0251 27.8777V29.0726H83.0253Z" fill="#DE9C36" fill-opacity="0.75"/>
<path d="M72.651 68.2452C73.8056 66.988 74.6988 66.0542 74.6399 64.4303C74.5872 62.9801 73.8825 62.2497 72.9189 61.2936C69.388 57.7879 64.8994 55.1337 59.809 53.8108C56.8822 50.1937 52.6597 47.5547 47.7588 46.6569C45.9236 46.3202 44.4102 48.1154 45.0535 49.8781C45.4985 51.0969 45.8103 52.3665 45.988 53.6614C42.002 54.6257 40.4144 55.6155 30.3985 60.6967C29.9286 60.9348 29.3733 60.8893 28.9487 60.5777L22.1882 55.6165C21.0315 54.7684 19.5144 56.0508 20.1499 57.3288C22.5568 62.1711 22.6793 67.7391 20.2134 72.7971C19.5715 74.1139 21.1277 75.416 22.3103 74.5489C29.574 69.3224 29.444 69.0691 29.8305 69.2998L31.5881 70.352C32.0457 70.6263 32.6397 70.4776 32.914 70.0192C33.1883 69.5611 33.0393 68.9676 32.5812 68.6933L30.8235 67.6409C30.031 67.1666 29.0385 67.2137 28.2941 67.7595L22.7238 71.8473C24.3487 67.4944 24.3504 62.7636 22.7239 58.4078L27.8049 62.1366C28.8206 62.882 30.1495 62.9911 31.2734 62.4209L32.6826 61.706C38.8371 59.1013 45.1231 58.2881 51.4182 59.0156C51.9478 59.0768 52.4282 58.6967 52.4894 58.1663C52.5508 57.6359 52.1705 57.1563 51.6401 57.095C48.3517 56.7149 44.9429 56.7358 41.6344 57.2076C47.8787 54.3705 54.5062 54.1791 60.4668 56.0133C60.0012 56.9255 59.6109 57.8981 59.3318 58.7722C58.308 58.4395 57.2579 58.1454 56.1986 57.8946C55.6797 57.7715 55.1583 58.0929 55.0352 58.6127C54.9124 59.1323 55.2338 59.6529 55.7533 59.7759C56.7998 60.0238 57.8354 60.3173 58.844 60.6487C58.3895 62.8623 58.3446 65.1048 58.715 67.354C58.8018 67.8808 59.2989 68.2373 59.8259 68.1509C60.3527 68.0642 60.7094 67.5667 60.6228 67.04C60.0259 63.4153 60.6461 59.7995 62.3147 56.6555C66.1955 58.1654 69.5575 60.5029 72.2399 63.3656C72.4259 63.5641 72.5573 63.797 72.6334 64.0444C72.8029 64.5952 72.6955 65.2067 72.3235 65.6664C71.0803 67.2025 70.5565 67.4023 70.637 68.4085C70.7183 69.4217 71.5645 69.8009 71.7461 69.9904C69.4953 71.3394 65.6439 72.6694 63.1344 73.4327C62.6525 72.7051 62.2258 71.9334 61.8622 71.1311C61.6416 70.6449 61.0692 70.4294 60.5825 70.6498C60.0963 70.8702 59.8808 71.4432 60.1012 71.9294C60.4241 72.6417 60.7918 73.3322 61.1995 73.9943C55.2751 75.6291 50.7874 76.3588 44.8978 74.9148C40.5661 73.8523 38.7561 72.3065 36.4534 71.0111C35.9952 70.7369 35.4017 70.8856 35.1274 71.344C34.8531 71.8021 35.0021 72.3957 35.4603 72.6699L37.4178 73.8418C36.9923 74.6013 36.4264 75.2796 35.7516 75.8265C34.8364 76.5681 35.0738 78.0329 36.1798 78.4473C39.139 79.5567 42.4835 78.9856 44.9177 76.9265C47.2359 77.4562 49.7333 77.6998 52.3853 77.6039C57.4077 77.4216 67.6228 74.449 72.163 71.9762C73.0278 71.5077 73.8737 71.05 73.9359 70.0585C74.0035 68.9851 73.0007 68.5961 72.651 68.2452ZM47.8884 53.2734C47.367 49.6435 46.5387 49.2196 46.9582 48.7234C47.0719 48.5888 47.2302 48.526 47.4107 48.5586C50.9516 49.2075 54.1077 50.8669 56.5752 53.1666C53.6956 52.7634 50.7473 52.7906 47.8884 53.2734ZM37.5157 76.8464C38.116 76.2701 38.6342 75.6086 39.0508 74.8867C40.2102 75.432 41.2839 75.8403 42.5023 76.249C40.9331 77.0965 39.138 77.2733 37.5157 76.8464Z" fill="#DE9C36" fill-opacity="0.75"/>
</g>
<defs>
<linearGradient id="paint0_linear_25_190" x1="45.6615" y1="3.78571" x2="45.6615" y2="132.5" gradientUnits="userSpaceOnUse">
<stop offset="0.161458" stop-color="#FFD692"/>
<stop offset="0.859375" stop-color="#F0B45B"/>
</linearGradient>
<linearGradient id="paint1_linear_25_190" x1="67.5846" y1="100.214" x2="67.5846" y2="107.5" gradientUnits="userSpaceOnUse">
<stop offset="0.161458" stop-color="#FFD692"/>
<stop offset="0.859375" stop-color="#F0B45B"/>
</linearGradient>
<linearGradient id="paint2_linear_25_190" x1="5.72308" y1="75.1429" x2="5.72308" y2="80" gradientUnits="userSpaceOnUse">
<stop offset="0.161458" stop-color="#FFD692"/>
<stop offset="0.859375" stop-color="#F0B45B"/>
</linearGradient>
<linearGradient id="paint3_linear_25_190" x1="21.4462" y1="7.28571" x2="21.4462" y2="17" gradientUnits="userSpaceOnUse">
<stop offset="0.161458" stop-color="#FFD692"/>
<stop offset="0.859375" stop-color="#F0B45B"/>
</linearGradient>
<clipPath id="clip0_25_190">
<rect width="66" height="66" fill="white" transform="translate(20 19)"/>
</clipPath>
</defs>
</svg>
