<svg width="106" height="106" viewBox="0 0 106 106" fill="none" xmlns="http://www.w3.org/2000/svg">
<circle cx="53" cy="53" r="52.5" stroke="#DE9C36" stroke-opacity="0.45"/>
<circle opacity="0.7" cx="68" cy="103" r="3" fill="#DE9C36"/>
<circle opacity="0.7" cx="6" cy="77" r="2" fill="#DE9C36"/>
<circle opacity="0.7" cx="22" cy="11" r="4" fill="#DE9C36"/>
<g clip-path="url(#clip0_25_107)">
<path d="M70.7053 33.7385C70.1559 33.8553 69.8433 34.379 69.9473 34.8754C69.9812 35.0567 70.0731 35.2322 70.2116 35.3704C70.5795 35.749 71.2155 35.7433 71.578 35.3704C72.2551 34.6933 71.6347 33.5564 70.7053 33.7385Z" fill="#DE9C36" fill-opacity="0.75"/>
<path d="M60.9923 41.0903C60.6516 40.679 60.042 40.6219 59.6311 40.9623C59.3033 41.2338 58.9111 41.4101 58.4988 41.4721L58.4741 41.4757C57.2036 41.6672 56.014 40.788 55.8231 39.5166C55.6322 38.2455 56.511 37.0562 57.783 36.8652L57.8051 36.8618C58.2196 36.7995 58.6459 36.8532 59.0385 37.0162C59.5313 37.2209 60.0975 36.9874 60.3023 36.4943C60.507 36.0011 60.2733 35.4355 59.7802 35.2306C58.6006 34.7408 57.6426 34.9513 57.495 34.9532C55.1696 35.3024 53.5618 37.4782 53.911 39.8038C54.4023 43.0756 58.2999 44.5756 60.8643 42.4516C61.2755 42.111 61.3329 41.5015 60.9923 41.0903Z" fill="#DE9C36" fill-opacity="0.75"/>
<path d="M35.2933 69.4842C34.6998 69.3666 34.1383 69.82 34.1383 70.4317C34.1383 70.9678 34.5718 71.3985 35.1051 71.3985C35.6352 71.3985 36.0719 70.9676 36.0719 70.4317C36.0719 69.9756 35.7557 69.58 35.2933 69.4842Z" fill="#DE9C36" fill-opacity="0.75"/>
<path d="M45.5314 71.9884C45.0439 72.2061 44.825 72.7778 45.0427 73.2653C45.2603 73.7527 45.832 73.9715 46.3197 73.754C47.9679 73.018 49.8235 74.3563 49.6001 76.1687C49.3758 77.988 47.245 78.8233 45.8315 77.7144C45.4115 77.3849 44.8037 77.4579 44.4741 77.8783C44.1445 78.2984 44.2179 78.9062 44.6378 79.2356C47.2279 81.2682 51.1098 79.7261 51.519 76.4055C51.9289 73.0811 48.5253 70.6516 45.5314 71.9884Z" fill="#DE9C36" fill-opacity="0.75"/>
<path d="M77.5964 39.4826C77.9967 39.0469 78.3978 38.5836 78.7867 38.1031C79.7207 36.9488 79.8955 35.2933 79.1172 33.9282C78.4501 32.7585 72.7808 26.795 63.8725 24.7437C59.8387 20.325 53.8994 18.2957 48.0888 19.221C47.2939 19.3477 46.6485 19.8741 46.3628 20.6292C46.0752 21.3892 46.2113 22.2167 46.7271 22.8426C47.378 23.6328 47.95 24.4867 48.4362 25.3901C41.2217 27.7 34.939 33.2495 30.8385 39.62C30.7964 39.6853 30.7547 39.7514 30.7128 39.8171C30.6555 39.9071 30.5984 39.9971 30.5416 40.0882C30.4735 40.197 30.4058 40.3071 30.3384 40.4176C30.3208 40.4465 30.3028 40.4747 30.2853 40.5038C30.2829 40.5078 30.2811 40.5119 30.2787 40.5159C30.004 40.9683 29.7335 41.4322 29.4692 41.9112C29.3649 42.1002 29.219 42.259 29.047 42.3705L20.8 47.7142C20.123 48.153 19.8381 48.9625 20.0913 49.7285C20.3443 50.4944 21.0551 50.976 21.8605 50.9241L28.9425 50.476C29.7569 50.4252 30.5512 50.7318 31.1191 51.3188L36.1999 56.5703C36.5239 56.9051 36.9533 57.0801 37.3908 57.08C38.4172 57.08 39.2491 56.1411 39.0221 55.0693C37.1823 46.0094 36.9295 46.0509 37.2586 45.776C38.257 44.9423 39.8669 44.2238 42.0671 45.176C41.6408 45.9233 41.0786 46.5908 40.4115 47.1313C39.4939 47.8749 39.7313 49.3441 40.8411 49.7599C41.9 50.1568 43.0465 50.3574 44.2584 50.3136C46.244 50.2415 48.1346 49.5038 49.6434 48.2271C52.6805 48.9218 56.1429 49.1262 59.1621 48.7327C59.6915 48.6637 60.065 48.1786 59.996 47.6491C59.927 47.1196 59.4403 46.7459 58.9124 46.8153C54.0973 47.4423 48.2438 46.4855 43.8429 43.9131C39.9297 41.626 37.0681 43.4161 36.0195 44.2917C35.3607 44.8418 35.0631 45.7107 35.2429 46.5593L36.9355 54.55L32.5086 49.9743C31.546 48.9794 30.2014 48.4579 28.8202 48.5463L22.4487 48.9495L30.0981 43.9928C30.5366 43.7087 30.9045 43.3117 31.162 42.8449C31.39 42.4315 31.6228 42.0299 31.8591 41.6376C35.8563 38.165 40.088 35.5295 44.4392 33.8053C44.9356 33.6086 45.1785 33.0469 44.9819 32.5504C44.7852 32.054 44.2232 31.811 43.727 32.0077C41.0886 33.0532 38.4957 34.4148 35.972 36.0787C39.5122 32.153 43.7824 29.2559 47.1875 27.8923C52.8034 25.6355 59.2409 25.2681 65.3347 27.1451C64.813 28.1674 64.3759 29.273 64.0642 30.3331C61.7837 29.7086 55.8847 28.5599 48.1689 30.5556C47.6518 30.6894 47.3413 31.2168 47.475 31.7337C47.6086 32.2505 48.1355 32.5611 48.653 32.4276C55.9689 30.5355 61.6182 31.6772 63.6165 32.2212C62.8189 36.5897 63.5915 41.27 66.0733 45.2825C65.1356 45.541 64.1895 45.7825 63.253 46.0001C62.7328 46.1209 62.4091 46.6404 62.5299 47.1605C62.6508 47.6805 63.1702 48.0044 63.6903 47.8836C67.6377 46.9668 74.5042 44.9088 77.9177 42.7687C78.4944 42.4221 78.8595 41.8771 78.8952 41.3087C78.963 40.2312 77.9561 39.8429 77.5964 39.4826ZM43.7297 46.1673C44.7115 46.6292 45.7982 47.0712 47.2299 47.5504C45.6745 48.3949 43.8553 48.6047 42.1697 48.1572C42.7805 47.5728 43.307 46.9008 43.7297 46.1673ZM50.3378 24.8525C49.7515 23.6973 49.0409 22.6107 48.2195 21.6134C48.123 21.4962 48.1477 21.3753 48.1711 21.3137C48.1983 21.2419 48.2588 21.1519 48.3929 21.1305C52.7305 20.4398 57.0682 21.6145 60.3948 24.1633C57.0834 23.8172 53.6487 24.0372 50.3378 24.8525ZM76.2561 40.8898L76.709 41.2423C74.4559 42.5934 70.5358 43.9528 68.0095 44.7213C64.6396 39.6488 64.3394 33.1428 67.1831 27.7877C71.014 29.2769 74.4308 31.603 77.1989 34.5569C77.8016 35.2 77.8379 36.2017 77.2835 36.8868C76.8943 37.3677 76.4802 37.8445 76.0526 38.304C75.3487 39.0601 75.4425 40.2566 76.2561 40.8898Z" fill="#DE9C36" fill-opacity="0.75"/>
<path d="M84.1394 58.0809L77.0574 58.5291C76.2439 58.5809 75.4488 58.2736 74.8808 57.6864L69.7999 52.4348C68.6422 51.2382 66.6316 52.3027 66.9777 53.9359C68.831 63.0654 69.0789 62.9481 68.7351 63.2342C66.6283 64.9885 64.4004 64.0142 64.4133 64.0142C62.661 63.4262 61.0305 61.7565 55.8972 60.6776C56.2798 59.7618 56.7455 58.8854 57.29 58.0627C58.242 56.6248 57.2743 54.6945 55.5583 54.6026C49.7654 54.2931 44.1484 56.8478 40.5831 61.5458C35.7656 62.7885 31.1676 64.374 26.8926 66.7978C23.7475 68.5793 24.0058 73.0998 27.1409 74.6791L27.2781 74.7504C26.075 75.4919 26.0787 76.9885 27.1905 77.7259C30.3881 79.8468 34.3357 81.5211 37.8489 82.9216C45.6079 86.0323 54.327 85.5223 61.0623 82.2351C64.0232 83.976 67.5187 83.8382 70.2128 81.9028C71.156 81.226 71.0735 79.7227 70.0578 79.13C69.3475 78.7156 68.6866 78.1644 68.1135 77.5131C68.9587 76.7836 69.8259 75.9688 70.6958 75.0591C71.0647 74.6732 71.051 74.0613 70.6652 73.6922C70.2793 73.3234 69.6673 73.3371 69.2983 73.7228C63.9449 79.3213 57.5848 82.7605 49.6572 83.0485C46.5721 83.1604 43.5567 82.7624 40.6593 81.8672C42.9348 77.4173 43.2557 72.3631 41.8103 67.8228C51.8172 63.6697 62.9252 65.6865 63.8655 65.8689C66.8921 66.8527 69.0833 65.46 69.972 64.7206C70.6362 64.1681 70.9384 63.3022 70.7601 62.461L69.0643 54.4555L73.4912 59.0312C74.4539 60.0262 75.7983 60.5462 77.1796 60.4592L83.5508 60.056L75.9016 65.0126C74.6421 65.8287 74.8569 66.7037 72.1378 70.3582C71.8191 70.7865 71.9081 71.3923 72.3365 71.7109C72.7648 72.0297 73.3704 71.9408 73.6892 71.5123C74.733 70.1094 75.6935 68.6147 76.5442 67.07C76.8042 66.5979 76.4882 66.9962 85.2 61.2914C86.7044 60.3159 85.938 57.9712 84.1394 58.0809ZM66.6159 78.7375C67.2393 79.4551 67.9519 80.0782 68.7201 80.5761C67.0618 81.6069 65.0525 81.8097 63.1545 81.1002C64.1759 80.4928 65.3544 79.7142 66.6159 78.7375ZM55.4549 56.5331C55.6818 56.5454 55.803 56.806 55.6778 56.9952C54.9853 58.0414 54.405 59.1634 53.9474 60.3401C49.9348 59.7965 47.0885 60.1216 43.8534 60.7839C44.9995 59.7016 50.766 56.282 55.4549 56.5331ZM38.8158 81.2246C35.4986 79.9404 31.5147 78.2175 28.5229 76.2867C28.6874 76.1672 29.7807 75.945 29.818 74.8127C29.8367 74.2402 29.5205 73.7351 29.0514 73.4919C28.0243 72.9583 27.7447 72.8577 27.3729 72.4938C26.3536 71.4958 26.2829 69.7785 27.4173 68.7842C27.9811 68.2892 31.463 66.4362 36.1111 64.8839C36.1846 64.8594 36.2579 64.8349 36.3317 64.8107C36.4073 64.7857 36.4831 64.7608 36.5592 64.7359C37.0314 64.582 37.5092 64.4321 37.9898 64.2862C41.3785 69.3961 41.6433 75.9077 38.8158 81.2246ZM41.1275 66.0118C40.7823 65.2254 40.3832 64.461 39.9283 63.7253C46.2461 61.9867 51.7445 61.0908 58.3111 63.3419C52.5882 63.0989 46.4647 63.8154 41.1275 66.0118Z" fill="#DE9C36" fill-opacity="0.75"/>
</g>
<defs>
<clipPath id="clip0_25_107">
<rect width="66" height="66" fill="white" transform="translate(20 19)"/>
</clipPath>
</defs>
</svg>
