<svg width="106" height="106" viewBox="0 0 106 106" fill="none" xmlns="http://www.w3.org/2000/svg">
<circle cx="53" cy="53" r="52.5" stroke="#DE9C36" stroke-opacity="0.45"/>
<circle opacity="0.7" cx="68" cy="103" r="3" fill="#DE9C36"/>
<circle opacity="0.7" cx="6" cy="77" r="2" fill="#DE9C36"/>
<circle opacity="0.7" cx="22" cy="11" r="4" fill="#DE9C36"/>
<g clip-path="url(#clip0_25_153)">
<path d="M53.672 59.0858C55.5824 56.277 53.6809 52.3971 50.247 52.2355C50.7251 51.5326 51.0049 50.6843 51.0049 49.7719C51.0049 45.6325 45.7778 43.7984 43.1865 47.0291C42.3393 45.9746 41.0733 45.3806 39.7831 45.3806C39.2519 45.3806 38.8195 45.8097 38.8164 46.3417C38.8132 46.8757 39.2435 47.3111 39.7775 47.3142C41.1249 47.3222 42.221 48.4247 42.221 49.7719C42.221 51.1274 41.1182 52.2302 39.7627 52.2302C38.2879 52.2302 37.1268 50.9286 37.3273 49.4425C37.3983 48.9133 37.0269 48.4267 36.4978 48.3555C35.9678 48.284 35.4817 48.6559 35.4107 49.185C35.2652 50.2699 35.524 51.3463 36.1287 52.2355C32.6946 52.3971 30.7934 56.2771 32.7038 59.0858C30.3787 59.1953 28.5206 61.1208 28.5206 63.4724C28.5206 67.6133 33.7466 69.4442 36.3377 66.217C38.1023 68.4147 41.4255 68.412 43.1879 66.217C43.9934 67.2203 45.2291 67.8644 46.613 67.8644C47.9968 67.8644 49.2325 67.2204 50.038 66.217C50.8435 67.2203 52.0792 67.8644 53.4631 67.8644C55.8851 67.8643 57.8553 65.8941 57.8553 63.4723C57.8553 61.1208 55.9971 59.1952 53.672 59.0858ZM46.613 47.3136C47.9685 47.3136 49.0712 48.4164 49.0712 49.7718C49.0712 51.1273 47.9684 52.2301 46.613 52.2301C45.2575 52.2301 44.1547 51.1273 44.1547 49.7718C44.1547 48.4164 45.2574 47.3136 46.613 47.3136ZM32.9126 65.9308C31.557 65.9308 30.4544 64.828 30.4544 63.4725C30.4544 62.117 31.5572 61.0143 32.9126 61.0143C34.2682 61.0143 35.3709 62.1171 35.3709 63.4725C35.3709 64.828 34.2681 65.9308 32.9126 65.9308ZM36.3377 59.0804C34.9821 59.0804 33.8794 57.9776 33.8794 56.6222C33.8794 55.2666 34.9822 54.1639 36.3377 54.1639C37.6931 54.1639 38.7958 55.2667 38.7958 56.6222C38.7958 57.9778 37.6931 59.0804 36.3377 59.0804ZM39.7626 65.9308C38.4071 65.9308 37.3045 64.828 37.3045 63.4725C37.3045 62.117 38.4073 61.0143 39.7626 61.0143C41.1182 61.0143 42.2208 62.1171 42.2208 63.4725C42.2211 64.828 41.1183 65.9308 39.7626 65.9308ZM43.1879 59.0804C41.8323 59.0804 40.7296 57.9776 40.7296 56.6222C40.7296 55.2666 41.8324 54.1639 43.1879 54.1639C44.5435 54.1639 45.6462 55.2667 45.6462 56.6222C45.6462 57.9778 44.5434 59.0804 43.1879 59.0804ZM46.613 65.9308C45.2574 65.9308 44.1547 64.828 44.1547 63.4725C44.1547 62.117 45.2575 61.0143 46.613 61.0143C47.9684 61.0143 49.0712 62.1171 49.0712 63.4725C49.0712 64.828 47.9684 65.9308 46.613 65.9308ZM50.0381 59.0804C48.6825 59.0804 47.5799 57.9776 47.5799 56.6222C47.5799 55.2666 48.6827 54.1639 50.0381 54.1639C51.3936 54.1639 52.4964 55.2667 52.4964 56.6222C52.4964 57.9778 51.3937 59.0804 50.0381 59.0804ZM53.4632 65.9308C52.1077 65.9308 51.0049 64.828 51.0049 63.4725C51.0049 62.117 52.1077 61.0143 53.4632 61.0143C54.8188 61.0143 55.9214 62.1171 55.9214 63.4725C55.9214 64.8281 54.8186 65.9308 53.4632 65.9308Z" fill="#DE9C36" fill-opacity="0.75"/>
<path d="M69.4746 63.1344C69.1803 63.0478 69.3929 62.6115 69.3231 57.8427C73.3948 56.2187 75.2896 51.5034 73.4933 47.5241C73.2735 47.0375 72.7007 46.8212 72.2142 47.0408C71.7276 47.2606 71.5112 47.8332 71.7308 48.3198C73.0929 51.336 71.6187 54.9302 68.4792 56.0959C67.8274 56.3377 67.3896 56.9724 67.3896 57.6754V62.8743C67.3896 63.8528 68.0225 64.7224 68.9285 64.9892C74.5045 66.6314 77.1592 72.9543 74.5165 78.0523C74.2708 78.5264 74.4557 79.1099 74.9298 79.3556C75.4017 79.6003 75.9862 79.4185 76.233 78.9423C79.4334 72.7685 76.2204 65.1214 69.4746 63.1344Z" fill="#DE9C36" fill-opacity="0.75"/>
<path d="M65.277 62.8233C65.277 62.8179 65.277 62.8145 65.277 62.8129C65.2768 62.8148 65.2768 62.8184 65.277 62.8233Z" fill="#DE9C36" fill-opacity="0.75"/>
<path d="M65.2771 62.8885C65.2771 62.8886 65.2771 62.8886 65.2771 62.8885C65.2771 62.8776 65.2769 62.8421 65.2767 62.8232C65.2769 62.8347 65.277 62.855 65.2771 62.8885Z" fill="#DE9C36" fill-opacity="0.75"/>
<path d="M73.2276 81.3766C72.905 80.9514 72.2983 80.8683 71.8731 81.1913C67.2104 84.7316 60.5865 83.0533 58.045 77.9402C57.7937 77.4346 57.1632 77.2506 56.6793 77.5429C56.2975 77.7737 55.8053 77.7413 55.4551 77.4615C55.0354 77.1265 54.9591 76.4036 55.2951 75.9444L57.2986 73.2076C57.9105 72.3718 59.2352 72.808 59.2352 73.8403C59.2352 75.7829 60.006 77.5951 61.4061 78.9431C65.8113 83.1842 73.1643 80.1773 73.3944 74.1176C73.5179 70.8695 71.4322 67.9612 68.3223 67.0455C66.6394 66.5498 65.2937 65.0002 65.277 62.8888C65.2773 62.9386 65.2746 62.4694 65.2465 57.4918C65.2465 56.8424 64.8576 56.259 64.2558 56.0056C62.1106 55.1023 60.7243 53.019 60.7243 50.698V50.6792C60.7243 47.8368 62.7956 45.4704 65.5079 45.0062V47.1998C63.9869 47.6259 62.8679 49.0238 62.8679 50.679V50.6978C62.8679 52.6904 64.4889 54.3114 66.4815 54.3114C68.4742 54.3114 70.0952 52.6904 70.0952 50.6978V50.679C70.0952 49.0188 68.9694 47.6176 67.4415 47.1959V45.0028C67.9989 45.0968 68.5381 45.2726 69.0526 45.5308C69.5302 45.7706 70.111 45.5776 70.3503 45.1004C70.5898 44.6232 70.3971 44.0422 69.9199 43.8027C69.1326 43.4076 68.3021 43.1566 67.4414 43.0494V19.9668C67.4414 19.4329 67.0086 19 66.4746 19C65.9405 19 65.5078 19.4329 65.5078 19.9668V43.0523C61.7254 43.5326 58.7906 46.7684 58.7906 50.6791V50.6979C58.7906 53.7286 60.5584 56.4557 63.3129 57.7035C63.3352 61.4911 63.3415 62.5707 63.343 62.8318C63.3429 62.8122 63.3429 62.8164 63.3434 62.9037C63.3669 65.8769 65.286 68.1667 67.7761 68.9002C70.0363 69.5657 71.5521 71.681 71.4624 74.044C71.2953 78.4384 65.9534 80.6372 62.7472 77.55C61.7294 76.5699 61.1688 75.2525 61.1688 73.8402C61.1688 70.941 57.4515 69.7262 55.7383 72.0651L53.7347 74.8022C52.1251 77.0011 53.9767 80.1284 56.7328 79.567C60.1544 85.2703 67.7507 86.7486 73.0421 82.7312C73.4674 82.4083 73.5504 81.8018 73.2276 81.3766ZM67.3937 49.2703C68.7951 50.1805 68.1535 52.3781 66.4817 52.3781C65.5553 52.3781 64.8016 51.6244 64.8016 50.698V50.6792C64.8016 50.0937 65.103 49.5778 65.5584 49.2771C65.8541 50.1611 67.1062 50.1517 67.3937 49.2703ZM63.3434 62.8817C63.3434 62.8904 63.3436 62.8962 63.3436 62.9001C63.3434 62.8957 63.3434 62.8891 63.3434 62.8817ZM63.3436 62.9044C63.3436 62.9058 63.3436 62.9056 63.3436 62.9044V62.9044Z" fill="#DE9C36" fill-opacity="0.75"/>
</g>
<defs>
<clipPath id="clip0_25_153">
<rect width="66" height="66" fill="white" transform="translate(20 19)"/>
</clipPath>
</defs>
</svg>
