<svg width="141" height="27" viewBox="0 0 141 27" fill="none" xmlns="http://www.w3.org/2000/svg">
<g clip-path="url(#clip0_7_262)">
<path d="M74.105 4.31399C74.105 2.38327 75.6408 0.935219 77.7412 0.935219C79.8098 0.935219 81.3773 2.38327 81.3773 4.31399C81.3773 6.24472 79.8416 7.69277 77.7412 7.69277C75.6408 7.72291 74.105 6.27488 74.105 4.31399ZM80.6253 4.31399C80.6253 2.71511 79.4027 1.56874 77.7412 1.56874C76.0797 1.56874 74.8259 2.74527 74.8259 4.31399C74.8259 5.88271 76.0797 7.05927 77.7412 7.05927C79.4027 7.08941 80.6253 5.91287 80.6253 4.31399Z" fill="white"/>
<path d="M87.9294 7.66253L86.3618 5.52064C86.1738 5.55081 86.017 5.55082 85.7972 5.55082H83.9477V7.66253H83.2268V0.995506H85.829C87.5845 0.995506 88.6502 1.8402 88.6502 3.28825C88.6502 4.34411 88.0856 5.06813 87.0827 5.36981L88.7754 7.66253H87.9294ZM87.8976 3.28825C87.8976 2.23238 87.1767 1.62903 85.7972 1.62903H83.9477V4.97763H85.7972C87.1456 4.94747 87.8976 4.31394 87.8976 3.28825Z" fill="white"/>
<path d="M95.4208 4.31399H96.1106V6.84804C95.4526 7.42126 94.543 7.69277 93.5713 7.69277C91.4715 7.69277 89.9352 6.24472 89.9352 4.31399C89.9352 2.38327 91.4715 0.935219 93.6031 0.935219C94.6377 0.935219 95.5466 1.26706 96.1734 1.90058L95.7346 2.3531C95.1388 1.81008 94.449 1.56874 93.6659 1.56874C91.9415 1.56874 90.6878 2.74527 90.6878 4.31399C90.6878 5.88271 91.9415 7.05927 93.6342 7.05927C94.2928 7.05927 94.9197 6.90839 95.4526 6.5464V4.31399H95.4208Z" fill="white"/>
<path d="M102.694 5.88266H98.8378L98.023 7.66253H97.2703L100.436 0.995506H101.157L104.324 7.66253H103.54L102.694 5.88266ZM102.443 5.30947L100.781 1.7497L99.1198 5.30947H102.443Z" fill="white"/>
<path d="M111.44 0.995506V7.66253H110.844L106.393 2.26255V7.66253H105.64V0.995506H106.236L110.687 6.39554V0.995506H111.44Z" fill="white"/>
<path d="M113.885 0.995506H114.606V7.66253H113.885V0.995506Z" fill="white"/>
<path d="M116.455 4.31399C116.455 2.3531 117.991 0.935219 120.091 0.935219C121.094 0.935219 122.004 1.26706 122.631 1.90058L122.16 2.3531C121.596 1.81008 120.906 1.56874 120.122 1.56874C118.462 1.56874 117.207 2.74527 117.207 4.31399C117.207 5.88271 118.462 7.05927 120.122 7.05927C120.906 7.05927 121.596 6.8179 122.16 6.27488L122.631 6.72742C122.004 7.36092 121.094 7.69277 120.091 7.69277C117.991 7.72291 116.455 6.27488 116.455 4.31399Z" fill="white"/>
<path d="M75.4528 11.162V13.7866H79.0267V14.39H75.4528V17.1955H74.7319V10.5285H79.4656V11.1318H75.4528V11.162Z" fill="white"/>
<path d="M80.4684 13.877C80.4684 11.9463 82.0042 10.4982 84.1046 10.4982C86.1739 10.4982 87.7407 11.9463 87.7407 13.877C87.7407 15.838 86.205 17.2558 84.1046 17.2558C82.0042 17.2558 80.4684 15.8078 80.4684 13.877ZM86.9887 13.877C86.9887 12.2782 85.7661 11.1318 84.1046 11.1318C82.4431 11.1318 81.1893 12.3083 81.1893 13.877C81.1893 15.4759 82.4431 16.6223 84.1046 16.6223C85.7661 16.6223 86.9887 15.4458 86.9887 13.877Z" fill="white"/>
<path d="M88.9634 13.877C88.9634 11.9463 90.4998 10.4982 92.5995 10.4982C94.6688 10.4982 96.2363 11.9463 96.2363 13.877C96.2363 15.838 94.6999 17.2558 92.5995 17.2558C90.4998 17.2558 88.9634 15.8078 88.9634 13.877ZM95.4837 13.877C95.4837 12.2782 94.261 11.1318 92.5995 11.1318C90.9386 11.1318 89.6843 12.3083 89.6843 13.877C89.6843 15.4759 90.9386 16.6223 92.5995 16.6223C94.2299 16.6223 95.4837 15.4458 95.4837 13.877Z" fill="white"/>
<path d="M98.0541 10.5285H100.875C103.101 10.5285 104.574 11.886 104.574 13.847C104.574 15.8079 103.07 17.1654 100.875 17.1654H98.0541V10.5285ZM100.813 16.5922C102.662 16.5922 103.822 15.476 103.822 13.8771C103.822 12.2782 102.631 11.162 100.813 11.162H98.775V16.5922H100.813Z" fill="white"/>
<path d="M105.734 16.381L106.016 15.838C106.518 16.2904 107.396 16.6525 108.305 16.6525C109.59 16.6525 110.154 16.1396 110.154 15.4759C110.154 13.6658 105.891 14.7821 105.891 12.3083C105.891 11.343 106.675 10.4982 108.43 10.4982C109.214 10.4982 110.029 10.7095 110.562 11.1016L110.311 11.6748C109.715 11.3128 109.026 11.1318 108.43 11.1318C107.177 11.1318 106.612 11.6748 106.612 12.3385C106.612 14.1486 110.876 13.0625 110.876 15.4759C110.876 16.4413 110.06 17.286 108.305 17.286C107.271 17.2558 106.267 16.8938 105.734 16.381Z" fill="white"/>
<path d="M74.7319 20.0917H75.4528V26.7587H74.7319V20.0917Z" fill="white"/>
<path d="M83.6657 20.0917V26.7587H83.0699L78.6189 21.3587V26.7587H77.898V20.0917H78.4938L82.9448 25.4917V20.0917H83.6657Z" fill="white"/>
<path d="M91.7846 20.0917L88.7125 26.7587H87.9916L84.9512 20.0917H85.735L88.3676 25.8839L91.0327 20.0917H91.7846Z" fill="white"/>
<path d="M97.8661 26.1252V26.7285H92.9762V20.0917H97.7092V20.695H93.7282V23.0481H97.3021V23.6515H93.7282V26.1252H97.8661Z" fill="white"/>
<path d="M99.1198 25.914L99.4024 25.3709C99.9036 25.8235 100.781 26.1855 101.69 26.1855C102.976 26.1855 103.54 25.6726 103.54 25.0089C103.54 23.1989 99.2767 24.3151 99.2767 21.8413C99.2767 20.876 100.06 20.0313 101.816 20.0313C102.6 20.0313 103.415 20.2424 103.947 20.6346L103.697 21.2078C103.101 20.8458 102.412 20.6648 101.816 20.6648C100.562 20.6648 99.9976 21.2078 99.9976 21.8715C99.9976 23.6815 104.261 22.5955 104.261 25.0089C104.261 25.9743 103.446 26.819 101.69 26.819C100.656 26.7888 99.6527 26.4268 99.1198 25.914Z" fill="white"/>
<path d="M107.302 20.695H104.856V20.0917H110.437V20.695H107.991V26.7285H107.271V20.695H107.302Z" fill="white"/>
<path d="M119.026 20.0917V26.7587H118.336V21.4191L115.609 25.8839H115.264L112.536 21.4492V26.7587H111.847V20.0917H112.442L115.452 25.0391L118.43 20.0917H119.026Z" fill="white"/>
<path d="M126.361 26.1252V26.7285H121.471V20.0917H126.204V20.695H122.192V23.0481H125.765V23.6515H122.192V26.1252H126.361Z" fill="white"/>
<path d="M134.041 20.0917V26.7587H133.445L128.994 21.3587V26.7587H128.273V20.0917H128.868L133.32 25.4917V20.0917H134.041Z" fill="white"/>
<path d="M137.834 20.695H135.42V20.0917H141V20.695H138.555V26.7285H137.834V20.695Z" fill="white"/>
<path d="M41.1276 7.39109V11.8257H52.3186V18.4023H41.1276V26.6682H32.0682V0.814527H53.9173V7.39109H41.1276ZM57.3655 0.814527H66.425V26.6682H57.3655V0.814527ZM29.0903 13.5453C29.0589 4.52514 25.4226 0 14.5451 0C3.66763 0 0.0313473 4.52514 0 13.5453C0.0313473 22.0525 3.29146 26.5173 12.821 26.9699C12.9151 18.3419 16.1439 9.4726 23.4164 9.32178C23.7299 13.1832 20.2503 17.5274 15.5482 17.0749C14.4511 19.9106 14.5138 23.3799 15.2661 26.9699C25.5794 26.7587 29.0589 22.2637 29.0903 13.5453ZM13.3853 16.8938C8.80856 16.9542 5.57981 12.9721 6.05002 8.62794C10.8775 8.89945 13.7615 11.9162 13.3853 16.8938Z" fill="white"/>
</g>
<defs>
<clipPath id="clip0_7_262">
<rect width="141" height="27" fill="white"/>
</clipPath>
</defs>
</svg>
