<svg width="1841" height="198" viewBox="0 0 1841 198" fill="none" xmlns="http://www.w3.org/2000/svg">
<g clip-path="url(#clip0_425_86042)">
<path d="M36.7369 146.053C38.6648 146.373 40.4274 146.905 42.08 147.673C43.1495 148.173 44.1448 148.812 45.1887 149.341C45.759 149.623 46.392 149.807 46.988 150.061C47.2099 150.157 47.4418 150.186 47.6824 150.119C47.8291 150.071 47.9785 150.077 48.1435 150.122C48.4764 150.268 48.8206 150.372 49.1891 150.42C49.8451 150.522 50.0538 150.89 49.8024 151.541C49.6838 151.872 49.9025 152.173 49.7981 152.517C49.5779 153.247 49.4003 154.016 49.2626 154.769C49.0718 155.809 49.1089 156.797 49.4333 157.837C49.9078 159.426 50.1274 161.069 50.172 162.734C50.2041 164.156 50.2092 165.579 49.9823 166.974C49.5904 169.381 48.7546 171.594 47.4779 173.667C45.5649 176.817 42.8816 179.221 40.042 181.484C37.7623 183.298 35.1193 184.371 32.4764 185.445C30.8558 186.099 29.2069 186.727 27.5042 187.1C25.8813 187.443 24.2625 187.866 22.5665 187.575C21.4041 187.378 20.2288 187.195 19.1593 186.695C18.6032 186.426 17.9431 186.243 17.4969 185.738C17.3534 185.583 17.1572 185.457 16.9124 185.443C16.736 185.438 16.608 185.323 16.52 185.192C16.1068 184.536 15.3912 184.329 14.7384 184.024C14.2662 183.805 13.767 183.587 13.282 183.382C12.6576 183.102 11.9462 182.977 11.249 182.864C10.7026 182.784 10.3331 182.451 10.002 182.075C9.82867 181.867 9.7337 181.601 9.97606 181.303C10.2441 180.978 10.2774 180.569 10.1086 180.185C9.54117 178.899 8.97373 177.614 8.37926 176.329C7.96781 175.443 7.71445 174.466 7.36853 173.535C7.13318 172.91 7.31076 172.142 7.32884 171.436C7.36299 169.454 7.82114 167.546 8.61073 165.756C9.58167 163.536 10.6209 161.326 12.2488 159.492C13.5175 158.056 14.9141 156.736 16.1828 155.301C16.9255 154.449 18.0121 153.958 18.7974 153.144C20.1486 151.732 21.9273 150.988 23.5128 149.916C24.6823 149.19 25.8233 148.439 27.095 147.858C29.1885 146.908 31.3838 146.36 33.6526 146.187C34.7187 146.091 35.7894 145.818 36.7369 146.053ZM40.9924 179.659C40.9994 179.794 40.9082 179.866 40.8184 179.966C40.318 180.521 39.6756 180.948 39.1894 181.515C40.2282 180.62 41.4133 179.935 42.3512 178.923C41.8585 179.098 41.3801 179.286 41.0195 179.657C41.0195 179.657 40.9924 179.659 40.9782 179.646C40.9169 178.713 41.8638 178.407 42.3118 177.624C41.9997 177.884 41.7903 178.031 41.5823 178.204C40.0477 179.477 38.3526 180.528 36.6575 181.579C36.4082 181.742 36.1149 181.838 36.2026 182.227C36.221 182.321 36.1311 182.42 36.0372 182.439C35.7311 182.55 35.7036 182.809 35.6506 183.096C36.1162 182.923 36.5589 182.832 36.9265 182.596C37.9264 182.001 38.9249 181.38 39.807 180.602C40.1988 180.31 40.5011 179.86 40.9924 179.659ZM32.6982 181.569C33.0158 181.417 33.3206 181.279 33.6524 181.14C34.091 180.968 34.514 180.756 34.9369 180.544C35.4653 180.272 35.9969 179.797 36.5419 179.85C37.3046 179.919 37.6427 179.372 38.1568 179.088C38.3805 178.954 38.5743 178.768 38.7823 178.594C39.4591 178.044 40.1942 177.572 40.7715 176.931C41.3474 176.264 41.9958 175.688 42.6157 175.086C43.391 174.341 44.054 173.52 44.7027 172.686C45.0591 172.234 45.262 171.694 45.5758 171.203C45.6514 171.091 45.6729 170.981 45.7825 171.003C45.892 171.024 45.8435 171.135 45.8604 171.202C45.5539 171.571 45.3868 172.013 45.2196 172.456C45.5674 172.099 45.9294 171.754 45.8462 171.189C46.0341 171.152 46.0387 170.976 46.1129 170.836C46.6566 169.805 47.0055 168.675 47.5363 167.657C48.7378 165.439 48.5148 163.2 47.842 160.917C47.5814 160.063 47.2538 159.226 46.9533 158.387C46.9207 158.28 46.8597 158.148 47.0178 158.058C47.1759 157.969 47.2484 158.06 47.3479 158.15C47.4061 158.228 47.4772 158.292 47.5354 158.37C48.3022 159.578 48.9223 160.833 49.2519 162.24C49.3212 162.534 49.3905 162.829 49.4599 163.124C49.6216 161.515 49.5142 159.948 49.0026 158.429C48.7461 157.656 48.4782 156.925 48.5847 156.092C48.6423 155.628 48.66 155.18 48.702 154.676C48.1535 155.084 47.8675 155.058 47.4241 154.607C47.2806 154.452 47.1485 154.255 47.0306 154.072C46.8247 153.757 46.8764 153.442 47.15 153.225C47.4249 153.034 47.6024 153.323 47.7473 153.505C47.8624 153.635 47.9546 153.847 48.1512 153.715C48.4917 153.48 48.8977 153.201 48.8357 152.784C48.7355 152.152 48.6725 151.451 47.9372 151.123C47.6328 151.003 47.327 150.856 47.0098 150.751C46.1264 150.444 45.2316 150.179 44.4339 149.692C43.4272 149.094 42.4103 148.564 41.4036 147.966C41.2087 147.867 40.92 147.787 40.644 147.693C40.6325 147.735 40.6211 147.776 40.6097 147.817C40.722 147.893 40.8343 147.968 40.9737 148.042C41.8268 148.554 42.7043 149.01 43.5204 149.591C43.9284 149.881 44.1399 150.304 44.2716 150.758C44.3211 150.932 44.2753 151.097 44.0916 151.215C43.8936 151.32 43.7387 151.206 43.652 151.102C43.1705 150.436 42.4737 150.066 41.7897 149.681C40.8682 149.16 40.0195 148.472 38.8782 148.423C38.2264 148.402 37.593 148.476 36.9568 148.496C35.6588 148.564 34.3919 148.711 33.1025 148.683C32.9944 148.689 32.8619 148.75 32.8266 148.589C32.794 148.482 32.9278 148.448 32.9934 148.404C33.7073 147.784 34.6295 147.79 35.4765 147.651C36.8203 147.418 38.1811 147.252 39.5842 147.383C37.4548 146.572 35.2817 146.495 33.084 146.732C30.9802 146.95 27.388 148.019 26.9046 148.64C26.9844 148.609 27.0513 148.592 27.104 148.562C28.2988 148.066 29.5386 147.92 30.8193 148.043C30.9829 148.062 31.1493 148.134 31.1576 148.297C31.1673 148.486 30.9766 148.469 30.8414 148.476C30.5453 148.518 30.2777 148.587 30.2288 148.955C30.1899 149.255 29.9749 149.294 29.8071 149.194C29.389 148.972 29.0403 149.044 28.6159 149.229C25.6696 150.467 22.7516 151.731 20.2383 153.747C19.8992 154.009 19.5587 154.243 19.3063 154.609C18.8243 155.258 18.257 155.83 17.6458 156.336C17.5289 156.437 17.385 156.54 17.3237 156.665C17.0296 157.277 16.5068 157.656 15.9541 157.984C15.7832 158.087 15.6521 158.176 15.4944 158.008C15.3651 157.865 15.2216 157.71 15.3585 157.472C15.5211 157.206 15.6966 156.926 15.9445 156.737C16.1924 156.548 16.3023 156.311 16.3554 156.024C16.1217 156.226 15.9151 156.426 15.7368 156.653C14.3669 158.229 12.7539 159.561 11.5972 161.329C10.1409 163.602 9.08568 166.029 8.33624 168.604C8.40039 168.532 8.47736 168.447 8.50025 168.365C9.09011 166.91 9.76386 165.506 10.6325 164.2C11.0104 163.638 11.5034 163.205 12.0107 162.785C12.1789 162.628 12.3723 162.699 12.5401 162.798C12.6666 162.887 12.5484 162.961 12.5113 163.03C12.1562 163.51 11.9974 164.115 11.6978 164.619C10.8362 166.06 10.1281 167.588 9.57217 169.176C8.90912 171.055 8.74705 172.921 9.60115 174.774C9.73738 175.052 9.70997 175.311 9.48911 175.499C9.25542 175.701 9.05643 175.521 8.85882 175.369C8.8304 175.343 8.77493 175.319 8.72499 175.403C8.70035 175.716 8.85079 176.007 9.01268 176.256C9.69004 177.305 10.1552 178.447 10.5406 179.62C10.6384 179.94 10.6976 180.303 10.5946 180.675C10.3955 181.553 10.7477 182.077 11.6183 182.397C12.0464 182.551 12.5245 182.621 12.8885 182.846C13.3791 183.16 13.8256 183.407 14.4361 183.416C15.8208 183.452 16.7787 184.419 17.8437 185.096C18.9926 185.822 20.1886 186.411 21.5203 186.735C22.3853 186.947 23.2461 187.078 24.2581 186.985C23.6719 186.921 23.2208 186.849 22.8526 186.543C22.655 186.391 22.6041 186.19 22.687 185.955C22.7813 185.679 22.9661 185.846 23.1155 185.851C23.8626 185.88 24.6153 186.017 25.3669 185.87C25.9834 185.729 26.6168 185.655 27.2204 185.529C27.4083 185.492 27.6462 185.371 27.554 185.159C27.4746 184.933 27.2822 185.146 27.1483 185.18C26.0278 185.537 24.9145 185.771 23.801 185.206C23.5365 185.07 23.1908 184.939 23.2952 184.595C23.3968 184.196 23.7466 184.409 23.9671 184.478C24.4906 184.641 25.0058 184.641 25.5439 184.559C27.0756 184.289 28.433 183.527 29.867 182.937C30.5576 182.657 31.2001 182.23 31.9361 182.043C32.2437 181.959 32.493 181.797 32.6982 181.569ZM30.1002 184.05C30.2139 184.153 30.3079 184.134 30.3876 184.103C32.2016 183.52 33.9844 182.858 35.6125 181.824C35.7179 181.764 35.7949 181.679 35.9031 181.673C36.5608 181.544 37.0667 181.097 37.5639 180.746C38.5711 180.029 39.6535 179.457 40.5883 178.649C41.8209 177.568 42.9838 176.45 44.0316 175.202C44.4536 174.706 44.7362 174.135 45.0032 173.525C45.0632 173.372 45.0961 173.221 44.9141 173.109C44.7179 172.984 44.6167 173.124 44.5425 173.264C44.4211 173.541 44.1434 173.678 43.9922 173.903C43.108 175.169 41.9382 176.152 40.8678 177.225C40.0298 178.068 39.0597 178.715 38.1634 179.481C37.1246 180.376 35.9524 181.047 34.7787 181.691C33.4997 182.395 32.1753 183.006 30.8664 183.658C30.5873 183.767 30.3509 183.915 30.1002 184.05ZM49.4929 165.888C49.0972 166.898 48.7144 167.894 48.222 168.869C47.4598 170.4 46.8526 172.045 45.3326 173.074C45.2799 173.103 45.2428 173.173 45.2185 173.229C44.9616 173.771 44.9251 174.383 44.5843 174.875C45.3884 173.898 46.164 172.895 46.9254 171.879C47.0395 171.724 47.0825 171.504 47.3529 171.49C47.6092 171.463 47.7014 171.676 47.8834 171.788C48.4909 170.943 49.5136 167.351 49.4929 165.888ZM31.5775 184.041C31.0151 184.179 30.4327 184.453 29.8748 184.414C29.2629 184.378 28.7574 184.567 28.2405 184.798C28.108 184.859 27.9458 184.867 27.9697 185.07C28.022 185.297 28.2227 185.246 28.3566 185.212C29.484 184.991 30.5477 184.583 31.5775 184.041ZM34.8281 183.98C33.8015 184.318 32.7722 184.602 31.8662 185.178C32.9098 184.907 33.9534 184.635 34.8281 183.98ZM46.5609 174.026C46.3084 174.392 46.056 174.758 45.8036 175.123C46.1826 174.846 46.5047 174.517 46.5609 174.026Z" fill="#CECECE" fill-opacity="0.49"/>
<path d="M32.6981 181.569C31.858 181.843 31.0506 182.224 30.1907 182.378C28.7543 182.656 27.3561 183.149 25.8944 183.198C25.5827 183.201 25.2683 183.15 25.1806 182.761C25.1452 182.6 25.0627 182.577 24.9147 182.599C23.8628 182.708 22.8081 182.763 21.7635 182.749C20.6378 182.74 19.4809 182.652 18.5168 182.092C17.9992 181.78 17.5096 181.751 16.9917 181.697C16.256 181.627 15.7856 181.177 15.3807 180.683C15.0767 180.305 14.8111 179.885 14.7179 179.388C14.6458 179.04 14.9239 178.646 15.2484 178.629C15.6 178.61 15.7334 178.834 15.7785 179.184C15.9264 180.22 16.748 180.909 18.0017 181.034C18.2877 181.06 18.4399 181.12 18.4024 181.447C18.3837 181.611 18.4703 181.714 18.651 181.8C19.318 182.118 20.0408 182.202 20.7495 182.274C21.8665 182.378 23.0124 182.25 24.1294 182.355C25.8726 182.508 27.4661 181.855 29.116 181.512C30.981 181.13 32.5863 180.178 34.1461 179.134C34.2117 179.09 34.3185 179.058 34.3101 178.895C33.1851 179.429 32.0728 179.948 30.8119 179.946C32.3908 179.538 33.8449 178.811 35.2096 177.927C36.5344 177.057 37.7711 176.057 38.8162 174.756C38.3592 174.834 37.9674 175.125 37.4953 174.906C37.8545 174.508 38.3444 174.279 38.7334 173.933C39.2393 173.486 39.6598 172.963 40.1075 172.438C40.2229 172.31 40.3668 172.207 40.4823 172.079C40.6747 171.866 40.8214 171.817 40.9718 172.108C41.003 172.188 41.0613 172.266 41.1836 172.273C41.3729 172.263 41.323 172.347 41.2332 172.447C40.2253 173.679 39.2031 174.898 38.0814 176.028C37.4885 176.628 36.7663 177.086 36.145 177.661C36.0281 177.762 35.8558 177.839 36.0548 178.018C36.1969 178.146 36.0104 178.21 35.9591 178.267C35.7923 178.452 35.6113 178.624 35.4445 178.809C35.2136 179.065 34.9387 179.256 34.8769 179.639C34.8468 179.844 34.6231 179.977 34.3967 180.057C34.3298 180.074 34.1818 180.095 34.257 180.24C34.3166 180.346 34.4106 180.327 34.4889 180.269C34.8166 180.049 35.1314 179.842 35.4448 179.609C36.2298 179.053 37.0162 178.524 37.7855 177.928C38.334 177.52 38.9508 177.121 39.3572 176.585C40.5021 175.115 41.9171 173.889 42.8929 172.292C42.9185 172.264 42.9171 172.237 42.9428 172.208C43.1567 171.885 43.1377 171.249 43.7891 171.527C43.2919 172.936 42.5869 174.261 41.4198 175.298C41.1348 175.557 40.8086 175.804 40.4511 175.972C40.0538 176.155 39.7303 176.457 39.421 176.771C38.3777 177.843 37.1597 178.679 35.9288 179.53C35.51 179.823 35.1237 180.222 34.6623 180.477C34.3332 180.67 33.9161 180.733 33.6765 181.084C33.3475 181.278 33.0157 181.417 32.6981 181.569Z" fill="#CECECE" fill-opacity="0.49"/>
<path d="M25.1674 153.368C25.6672 154.128 26.0965 153.509 26.4782 153.286C27.7944 152.512 29.1417 151.818 30.5784 151.282C31.0968 151.079 31.6633 151.022 32.088 150.58C32.2933 150.352 32.6843 150.576 32.8504 150.906C33.0476 151.316 32.9051 151.446 32.505 151.575C30.8505 152.095 29.3066 152.921 27.7457 153.681C26.8072 154.15 25.8856 154.686 24.9498 155.21C24.6208 155.403 24.4745 155.194 24.314 154.972C24.3355 154.862 24.4849 154.868 24.5619 154.782C24.626 154.711 24.7727 154.663 24.7245 154.516C24.6919 154.409 24.5709 154.429 24.4884 154.407C24.1584 154.315 23.8966 154.234 24.1435 153.76C24.2292 153.579 24.0631 153.249 24.1675 152.905C23.367 153.421 22.6447 153.879 21.9225 154.337C20.7146 155.105 19.8079 156.196 18.8727 157.262C18.6162 157.546 18.6341 157.898 18.4871 158.204C18.3886 158.399 18.3328 158.632 18.017 158.554C17.8932 158.52 17.8318 158.645 17.7549 158.73C17.6266 158.872 17.5496 158.958 17.2764 158.918C16.9349 158.868 16.6554 159.235 16.4103 159.478C15.8673 159.995 15.3684 160.577 14.8538 161.119C14.7769 161.204 14.7027 161.343 14.6811 161.453C14.6194 161.836 14.4453 162.143 14.1291 162.322C13.4326 162.752 13.117 163.473 12.7574 164.129C11.9128 165.638 11.041 167.147 10.5434 168.814C10.2202 169.915 10.2086 171.014 10.2796 172.136C10.2879 172.298 10.3233 172.459 10.3302 172.594C10.3385 172.756 10.3638 172.986 10.1346 173.011C9.91965 173.049 9.73764 172.937 9.6711 172.696C9.53939 172.242 9.58415 171.792 9.56062 171.333C9.51327 169.613 10.0293 168.041 10.8611 166.547C11.3948 165.583 11.9014 164.621 12.4364 163.685C12.6105 163.378 12.8543 163.107 13.0696 162.811C13.349 162.444 13.6299 162.104 13.6719 161.601C13.6851 161.329 13.8377 161.131 14.2048 161.152C14.7214 161.18 14.8573 160.657 15.1267 160.359C15.6143 159.818 16.1302 159.303 16.7342 158.919C17.1672 158.639 17.2262 158.202 17.4103 157.826C18.1912 156.131 19.4554 154.872 20.9172 153.766C21.517 153.301 22.1751 152.914 22.8359 152.581C23.4312 152.292 24.0522 151.975 24.7719 152.263C24.8273 152.287 24.957 152.172 25.0482 152.1C25.95 151.442 26.9738 151.05 28.0445 150.777C28.2723 150.725 28.5156 150.712 28.7448 150.687C28.9767 150.715 29.1588 150.828 29.2097 151.028C29.2606 151.229 29.0911 151.36 28.9202 151.464C28.3561 151.832 27.6984 151.961 27.0875 152.21C26.3968 152.49 25.7076 152.797 25.1674 153.368Z" fill="#CECECE" fill-opacity="0.49"/>
<path d="M33.9344 156.192C33.1956 156.325 32.5944 156.763 31.9492 157.136C30.3567 158.073 29.0128 159.363 27.5795 160.495C26.2245 161.569 24.9988 162.786 23.7149 163.924C22.4965 165.018 21.3519 166.23 20.405 167.594C20.2666 167.805 20.2053 167.93 20.5339 167.994C20.7118 168.026 20.8283 168.182 20.7981 168.387C20.7807 168.578 20.7363 168.77 20.5384 168.875C20.3404 168.981 20.2239 168.824 20.1216 168.68C19.9043 168.407 19.8058 168.602 19.6789 168.771C19.552 168.94 19.5929 169.21 19.3394 169.291C19.2056 169.325 19.1512 169.585 18.9407 169.447C18.7715 169.32 18.7362 169.159 18.7522 168.942C18.8816 168.026 19.2599 167.207 19.8344 166.512C20.9693 165.111 22.1908 163.814 23.5403 162.631C24.2015 162.041 24.8613 161.424 25.5367 160.846C26.9017 159.704 28.2384 158.536 29.6603 157.445C30.6519 156.688 31.7458 156.075 32.8566 155.529C33.3594 155.286 33.9231 155.175 34.508 155.213C34.794 155.238 34.882 155.369 34.9486 155.61C35.0321 155.917 34.7561 155.823 34.6379 155.897C34.4285 156.044 34.1127 155.965 33.9344 156.192Z" fill="#CECECE" fill-opacity="0.49"/>
<path d="M33.3178 153.417C33.4856 153.517 33.6891 153.52 33.713 153.722C33.7383 153.951 33.5944 154.054 33.4093 154.145C32.4652 154.506 31.5097 154.908 30.6124 155.389C30.1637 155.629 29.5573 155.701 29.4696 156.37C29.4723 156.424 29.3839 156.551 29.3129 156.487C28.7668 156.149 28.4558 156.694 28.0997 156.889C27.4403 157.249 26.9569 157.871 26.3699 158.322C25.458 159.047 24.6328 159.876 23.8076 160.706C21.9634 162.551 20.402 164.625 18.8705 166.753C18.6808 167.02 18.5778 167.392 18.1905 167.507C18.0567 167.541 17.9298 167.71 17.7707 167.515C17.6414 167.373 17.6743 167.222 17.7485 167.082C18.1081 166.426 18.4805 165.756 18.9098 165.137C19.8196 163.842 20.7024 162.549 21.7673 161.368C21.934 161.183 21.994 161.031 21.8051 160.783C21.602 160.523 21.8346 160.036 22.1248 160.143C22.9101 160.387 23.2041 159.775 23.6316 159.386C24.0591 158.998 24.4312 158.585 24.8303 158.171C24.9201 158.072 24.997 157.986 24.9901 157.851C25.0047 157.606 25.1971 157.393 25.3864 157.383C25.9415 157.368 26.2737 156.971 26.6384 156.681C28.4095 155.26 30.392 154.261 32.5391 153.566C32.7926 153.485 33.063 153.471 33.3178 153.417Z" fill="#CECECE" fill-opacity="0.49"/>
<path d="M23.4127 181.063C25.3872 180.703 27.2979 180.156 29.176 179.502C30.5216 179.039 31.6342 178.262 32.5835 177.209C33.0197 176.725 33.4687 176.228 34.0044 175.834C34.1594 175.947 33.9243 176.122 34.0623 176.169C34.2273 176.215 34.4267 176.137 34.5293 176.023C35.2248 175.309 36.1932 174.892 36.8163 174.087C36.8676 174.03 36.956 173.903 37.1366 173.989C36.6262 174.612 36.042 175.117 35.4165 175.611C34.4135 176.409 33.2811 177.064 32.511 178.176C32.0945 178.78 31.4493 179.153 30.8183 179.538C29.4637 180.355 27.9333 180.651 26.464 181.081C25.7023 181.297 24.8726 181.245 24.0714 181.219C23.8807 181.202 23.6433 181.065 23.4127 181.063Z" fill="#CECECE" fill-opacity="0.49"/>
<path d="M11.2952 178.469C11.6226 177.448 11.13 176.565 10.8652 175.63C10.5169 174.387 10.3166 173.123 10.7255 171.841C10.7827 171.635 10.8798 171.413 11.0067 171.244C11.108 171.103 11.2009 170.8 11.464 170.908C11.713 171.003 11.8377 171.322 11.7677 171.543C11.3533 172.717 11.5068 173.861 11.8367 175.01C11.9854 175.531 12.1598 176.024 12.3483 176.529C12.5979 177.167 12.5486 177.793 12.4054 178.438C12.2836 178.973 11.7795 179.189 11.4526 178.894C11.3105 178.766 11.2765 178.632 11.2952 178.469Z" fill="#CECECE" fill-opacity="0.49"/>
<path d="M19.7853 171.911C19.9733 170.817 20.5025 170.03 21.087 169.267C22.1436 167.924 23.4316 166.867 24.9357 166.057C25.1336 165.951 25.4072 165.734 25.5989 166.036C25.7892 166.31 25.5541 166.485 25.3461 166.659C24.6308 167.252 23.8715 167.78 23.2273 168.437C22.1569 169.51 21.0738 170.597 20.5536 172.088C20.4835 172.309 20.2856 172.414 20.2297 172.647C20.1839 172.812 20.0432 172.711 19.9978 172.619C19.9028 172.352 19.8477 172.071 19.7853 171.911Z" fill="#CECECE" fill-opacity="0.49"/>
<path d="M39.2214 149.3C40.2344 149.491 41.0051 149.979 41.395 150.976C41.4432 151.122 41.5597 151.279 41.3759 151.397C41.2064 151.528 40.9887 151.512 40.8181 151.358C40.5907 151.153 40.349 150.935 40.1216 150.73C39.7933 150.409 39.3964 150.334 38.9609 150.303C37.9947 150.231 37.061 150.266 36.0917 150.398C35.8354 150.425 35.5453 150.318 35.2634 150.374C35.1694 150.392 35.0086 150.428 34.9746 150.294C34.942 150.187 35.0162 150.048 35.1216 149.988C35.4493 149.767 35.8196 149.585 36.1968 149.539C37.1006 149.451 37.9819 149.188 38.8941 149.262C39.0037 149.284 39.126 149.291 39.2214 149.3Z" fill="#CECECE" fill-opacity="0.49"/>
<path d="M31.8823 175.958C34.6994 174.577 36.5003 172.151 38.3952 169.707C38.262 170.283 37.917 170.694 37.6417 171.143C37.8067 171.188 37.8695 171.09 37.9194 171.006C38.0835 170.767 38.3327 170.605 38.5331 170.811C38.7463 171.004 38.5837 171.27 38.377 171.47C37.8597 171.958 37.3154 172.448 36.7981 172.936C36.5914 173.136 36.4118 173.335 36.2052 173.536C36.0498 173.68 35.8986 173.904 35.5915 173.731C35.4095 173.618 35.2853 173.841 35.1557 173.957C34.4931 174.52 33.8589 175.109 33.1083 175.541C32.7394 175.75 32.3393 175.88 31.8823 175.958Z" fill="#CECECE" fill-opacity="0.49"/>
<path d="M46.0612 164.263C45.961 164.689 45.9433 165.137 45.8018 165.551C45.7303 165.745 45.6433 165.899 45.5008 166.028C45.3569 166.13 45.2314 166.327 45.0081 166.203C44.7578 166.08 44.9659 165.907 44.9718 165.757C44.9969 164.129 45.3194 162.485 44.9247 160.865C44.9063 160.771 44.888 160.677 44.9934 160.618C45.0717 160.559 45.1799 160.554 45.2638 160.604C45.487 160.728 45.6462 160.923 45.7397 161.162C46.1366 162.293 46.2309 163.075 46.0612 164.263Z" fill="#CECECE" fill-opacity="0.49"/>
<path d="M47.0857 161.241C47.5153 161.422 47.6373 161.687 47.6879 162.145C47.7887 163.319 47.6305 164.466 47.4581 165.601C47.3144 166.503 46.949 167.308 46.4313 168.054C46.3172 168.209 46.1591 168.299 45.9799 168.24C45.8831 168.205 45.9289 168.04 45.9917 167.941C46.9553 165.844 47.1108 163.585 47.0857 161.241Z" fill="#CECECE" fill-opacity="0.49"/>
<path d="M16.1937 161.605C15.2617 162.467 14.5402 163.467 13.8484 164.52C13.0311 165.769 12.6521 167.104 12.8093 168.587C12.8374 168.871 12.7701 169.145 12.8523 169.426C12.8991 169.545 12.8661 169.696 12.7195 169.744C12.56 169.807 12.499 169.675 12.4123 169.571C12.0729 169.032 12.1236 168.433 12.1486 167.862C12.2087 166.653 12.5589 165.55 13.2933 164.535C13.9008 163.69 14.4671 162.834 15.2735 162.168C15.5613 161.963 15.7895 161.653 16.1937 161.605Z" fill="#CECECE" fill-opacity="0.49"/>
<path d="M45.4741 155.712C45.4852 155.928 45.4821 156.132 45.2442 156.253C44.9395 156.391 44.7373 156.415 44.6084 156.015C44.4001 155.388 44.4338 154.722 44.1045 154.116C43.8646 153.667 43.5505 153.358 43.0454 153.29C42.8661 153.231 42.6328 153.176 42.6332 152.918C42.6308 152.606 42.9026 152.619 43.1033 152.568C43.6386 152.432 44.0838 152.653 44.4277 153.014C45.1168 153.765 45.608 154.62 45.4741 155.712Z" fill="#CECECE" fill-opacity="0.49"/>
<path d="M13.2471 180.848C13.2964 180.222 13.6347 180.475 13.9093 180.542C14.5795 180.657 15.2132 181.383 15.2051 182.02C15.2103 182.386 14.8868 182.688 14.5311 182.625C14.3533 182.594 14.174 182.535 14.2014 182.276C14.2663 181.69 13.7772 181.403 13.4346 181.069C13.2911 180.914 13.2197 181.107 13.1982 181.217C13.1437 181.477 12.943 181.528 12.7409 181.552C12.4975 181.565 12.354 181.41 12.2631 181.225C12.1214 180.839 11.9411 180.496 11.6298 180.241C11.4735 180.1 11.5023 179.868 11.5893 179.714C11.6749 179.534 11.884 179.645 12.0091 179.706C12.4116 179.888 12.8141 180.071 12.9729 180.523C13.0055 180.63 13.1178 180.706 13.2471 180.848Z" fill="#CECECE" fill-opacity="0.49"/>
<path d="M40.9858 156.488C39.9284 155.432 38.7813 154.475 37.5471 153.671C36.411 152.931 35.1321 152.577 33.7457 152.771C33.3414 152.82 32.9486 152.827 32.5645 152.738C32.4677 152.703 32.3696 152.64 32.3783 152.545C32.3714 152.409 32.4938 152.416 32.5749 152.412C34.0283 152.201 35.4771 152.166 36.851 152.786C37.5295 153.062 38.0824 153.535 38.6482 153.994C39.5395 154.72 40.418 155.46 40.9858 156.488Z" fill="#CECECE" fill-opacity="0.49"/>
<path d="M30.0189 177.167C29.8874 177.513 29.6395 177.702 29.3504 177.88C28.2607 178.574 27.1085 179.108 25.8004 179.244C25.5713 179.27 25.3535 179.254 25.1587 179.156C25.0335 179.095 24.9056 178.979 24.9386 178.828C24.9587 178.692 25.121 178.683 25.2562 178.676C25.9593 178.64 26.5802 178.322 27.265 178.192C28.1505 178.01 28.8855 177.538 29.7086 177.197C29.7741 177.153 29.8653 177.08 30.0189 177.167Z" fill="#CECECE" fill-opacity="0.49"/>
<path d="M42.4028 160.861C41.7522 160.068 41.3379 159.127 40.7129 158.306C40.524 158.058 40.3992 157.739 40.0279 157.636C39.8629 157.591 39.8591 157.252 39.6858 157.044C39.0819 156.37 38.4024 155.809 37.5447 155.474C37.31 155.392 37.0909 155.349 36.8631 155.401C36.7421 155.421 36.6055 155.401 36.5857 155.28C36.5376 155.134 36.67 155.073 36.7626 155.027C36.9221 154.965 37.0573 154.958 37.2351 154.989C38.1501 155.117 38.8011 155.653 39.4421 156.257C40.383 157.157 41.0887 158.232 41.7162 159.365C41.9845 159.839 42.1602 160.359 42.4028 160.861Z" fill="#CECECE" fill-opacity="0.49"/>
<path d="M41.157 165.129C40.8775 166.554 40.1344 167.664 39.0145 168.563C38.9489 168.607 38.8706 168.665 38.8165 168.668C38.6414 168.691 38.4077 168.893 38.3041 168.722C38.1706 168.498 38.4809 168.469 38.5849 168.382C39.494 167.602 40.234 166.696 40.5943 165.525C40.793 164.904 40.8152 164.279 40.5272 163.684C40.4662 163.552 40.4194 163.432 40.5504 163.344C40.7072 163.228 40.7709 163.414 40.8292 163.492C41.18 163.989 41.2219 164.543 41.157 165.129Z" fill="#CECECE" fill-opacity="0.49"/>
<path d="M13.0994 173.724C13.1823 173.489 12.9937 172.984 13.5956 173.088C13.9243 173.152 14.1388 173.372 14.1014 173.699C14.0639 174.026 14.1603 174.32 14.1897 174.63C14.215 174.859 14.2659 175.06 14.5904 175.043C14.6986 175.037 14.8252 175.126 14.9233 175.188C15.1195 175.314 15.0068 175.496 14.9881 175.659C14.9551 175.81 14.8199 175.817 14.6833 175.797C13.5222 175.627 12.9568 174.911 13.0994 173.724Z" fill="#CECECE" fill-opacity="0.49"/>
<path d="M31.4104 172.566C31.469 172.387 31.5189 172.303 31.6513 172.242C32.2837 171.883 32.73 171.331 33.1208 170.755C33.6013 170.079 34.2085 169.491 34.6464 168.777C34.9345 168.315 35.2782 167.876 35.5521 167.401C35.876 166.842 36.049 166.25 35.7939 165.504C36.1437 165.716 36.1832 165.958 36.1957 166.202C36.2317 166.905 35.9376 167.517 35.5326 168.08C34.5829 169.391 33.6332 170.701 32.5698 171.909C32.2875 172.222 31.9058 172.445 31.4104 172.566Z" fill="#CECECE" fill-opacity="0.49"/>
<path d="M19.3786 162.645C19.0985 162.47 18.9744 162.693 18.809 162.905C17.9734 164.061 17.2074 165.253 16.4272 166.433C16.3388 166.559 16.2532 166.74 16.0583 166.642C15.8905 166.542 16.0316 166.385 16.0802 166.274C16.5071 165.344 17.1714 164.55 17.7518 163.706C18.1697 163.129 18.7438 162.692 19.1062 162.09C19.2574 161.865 19.448 161.882 19.6841 161.992C19.9202 162.102 19.9941 162.22 19.9524 162.466C19.8907 162.849 19.6106 162.674 19.3786 162.645Z" fill="#CECECE" fill-opacity="0.49"/>
<path d="M23.0983 184.985C23.0026 185.234 22.7835 185.191 22.6497 185.225C21.0593 185.674 19.5425 185.441 18.1049 184.635C17.8674 184.498 17.6185 184.403 17.381 184.266C17.2132 184.166 17.0711 184.038 16.9816 183.88C16.8922 183.722 16.844 183.575 16.9865 183.446C17.1418 183.302 17.2455 183.473 17.3436 183.536C18.4724 184.399 19.7353 184.97 21.1797 185.112C21.82 185.173 22.4378 185.06 23.0983 184.985Z" fill="#CECECE" fill-opacity="0.49"/>
<path d="M41.569 162.586C41.0875 161.92 40.8365 161.255 40.3491 160.738C39.4866 159.78 38.664 158.806 37.5193 158.161C37.1979 157.974 36.8623 157.775 36.4663 157.985C36.3738 158.031 36.3041 157.993 36.2601 157.928C36.2004 157.823 36.2504 157.739 36.3145 157.668C36.4827 157.51 36.6862 157.513 36.8911 157.543C37.5484 157.671 38.0816 158.023 38.5777 158.444C39.7262 159.428 40.7322 160.542 41.4262 161.916C41.5753 162.179 41.5881 162.165 41.569 162.586Z" fill="#CECECE" fill-opacity="0.49"/>
<path d="M43.16 166.652C42.9869 167.244 42.653 167.871 42.1641 168.385C42.0872 168.47 41.9946 168.516 41.8878 168.549C41.781 168.581 41.6628 168.655 41.6018 168.523C41.5422 168.417 41.676 168.383 41.7401 168.312C42.7009 167.218 43.0585 165.993 42.6464 164.564C42.6124 164.43 42.5358 164.258 42.7095 164.208C42.869 164.145 42.9057 164.333 42.9255 164.454C43.0967 165.15 43.2266 165.835 43.16 166.652Z" fill="#CECECE" fill-opacity="0.49"/>
<path d="M23.0986 183.67C22.3511 183.898 21.7035 183.959 21.0673 183.979C20.4311 183.999 19.8237 183.786 19.209 183.696C18.758 183.625 18.317 183.485 17.9502 183.206C17.8507 183.116 17.7512 183.027 17.8396 182.9C17.9152 182.788 18.0404 182.849 18.1385 182.911C19.5835 183.595 21.1218 183.719 22.6774 183.651C22.7842 183.618 22.8937 183.64 23.0986 183.67Z" fill="#CECECE" fill-opacity="0.49"/>
<path d="M40.5014 151.795C40.9937 151.878 41.6184 152.957 41.4526 153.427C41.4055 153.565 41.3015 153.652 41.125 153.648C40.9201 153.618 40.7807 153.543 40.7312 153.37C40.6137 152.928 40.3922 152.574 40.0254 152.295C39.8988 152.207 39.9346 152.11 39.9831 151.999C40.093 151.763 40.325 151.791 40.5014 151.795Z" fill="#CECECE" fill-opacity="0.49"/>
<path d="M36.3248 160.514C36.7224 161.131 37.2569 161.51 37.7145 161.974C37.9291 162.193 38.1708 162.411 38.2543 162.718C38.2855 162.798 38.2896 162.879 38.2241 162.923C38.1714 162.953 38.0903 162.957 38.0462 162.892C37.6275 162.127 36.8083 161.75 36.3639 161.014C36.2914 160.923 36.2446 160.803 36.3248 160.514Z" fill="#CECECE" fill-opacity="0.49"/>
<path d="M37.3718 151.837C37.1086 151.728 36.7529 151.665 36.8275 151.268C36.8892 150.886 37.1968 150.802 37.5511 150.837C37.9324 150.872 37.922 151.198 37.9074 151.443C37.8658 151.689 37.7004 151.901 37.3718 151.837Z" fill="#CECECE" fill-opacity="0.49"/>
<path d="M38.1491 166.493C37.6952 167.425 37.1418 168.267 36.3922 168.984C36.3409 169.041 36.2469 169.06 36.1759 168.996C36.1048 168.932 36.1277 168.849 36.179 168.792C36.9727 168.141 37.4408 167.221 38.1491 166.493Z" fill="#CECECE" fill-opacity="0.49"/>
<path d="M25.2357 170.068C25.4393 170.071 25.553 170.173 25.5897 170.361C25.6406 170.562 25.6645 170.764 25.5106 170.935C25.4222 171.062 25.2443 171.03 25.1733 170.966C24.9885 170.799 24.828 170.577 24.6817 170.368C24.5097 170.187 24.7989 170.009 25.2357 170.068Z" fill="#CECECE" fill-opacity="0.49"/>
<path d="M14.5969 169.606C14.9384 169.656 15.0164 169.855 14.9775 170.155C14.9373 170.429 14.7136 170.562 14.5074 170.505C14.3153 170.461 14.0224 170.3 14.0896 170.025C14.1326 169.806 14.2668 169.514 14.5969 169.606Z" fill="#CECECE" fill-opacity="0.49"/>
<path d="M19.128 172.84C19.0992 173.072 18.8558 173.085 18.7449 173.036C18.496 172.941 18.2172 172.793 18.2277 172.467C18.2294 172.236 18.4402 172.117 18.6735 172.172C19.0164 172.249 19.1513 172.5 19.128 172.84Z" fill="#CECECE" fill-opacity="0.49"/>
<path d="M25.9652 175.575C25.8095 175.976 24.9809 176.209 24.6425 175.956C24.5857 175.905 24.5132 175.813 24.5375 175.758C24.5732 175.661 24.6644 175.589 24.7996 175.582C25.0031 175.584 25.2052 175.56 25.4088 175.563C25.5981 175.553 25.7745 175.558 25.9652 175.575Z" fill="#CECECE" fill-opacity="0.49"/>
<path d="M27.5092 162.831C27.2048 162.711 26.8377 162.69 26.8609 162.35C26.8713 162.024 27.227 162.087 27.4333 162.144C27.6937 162.198 27.7859 162.41 27.7727 162.682C27.7425 162.887 27.6059 162.867 27.5092 162.831Z" fill="#CECECE" fill-opacity="0.49"/>
<path d="M33.9214 156.206C34.0025 156.202 34.0708 156.212 34.1661 156.22C34.5204 156.256 34.5343 156.527 34.5069 156.786C34.4781 157.018 34.276 157.042 34.1095 156.969C33.8877 156.872 33.6502 156.735 33.8229 156.401C33.86 156.331 33.8971 156.262 33.9214 156.206C33.9214 156.206 33.9342 156.192 33.9214 156.206Z" fill="#CECECE" fill-opacity="0.49"/>
<path d="M38.9511 172.091C38.569 172.572 38.2167 173.106 37.7067 173.471C37.6783 173.446 37.6357 173.407 37.6072 173.381C38.0178 172.926 38.4425 172.484 38.853 172.029C38.8943 172.04 38.9227 172.066 38.9511 172.091Z" fill="#CECECE" fill-opacity="0.49"/>
<path d="M26.8251 166.419C26.8178 166.542 26.7238 166.56 26.6541 166.523C26.4593 166.425 26.2631 166.299 26.2777 166.055C26.285 165.932 26.4188 165.898 26.5426 165.932C26.7773 166.015 26.7755 166.246 26.8251 166.419Z" fill="#CECECE" fill-opacity="0.49"/>
</g>
<path d="M1831.21 51.373C1830.89 52.9027 1830.49 54.4117 1829.99 55.8915C1829.53 57.9783 1828.92 60.0293 1828.17 62.0284C1827.28 63.9123 1826.28 65.7432 1825.17 67.5121C1825.07 67.7089 1824.91 67.8672 1824.71 67.9634C1824.51 68.0595 1824.28 68.0883 1824.07 68.0454C1823.83 68.0167 1823.61 67.912 1823.44 67.7472C1823.27 67.5823 1823.16 67.3662 1823.12 67.1315L1822.41 64.14C1822.06 64.739 1821.92 65.4406 1822.03 66.1271C1822.57 71.2414 1822.22 76.3957 1822.85 81.5083C1823.31 84.6676 1823.42 87.88 1823.99 91.0138C1824.32 94.2684 1825.11 97.4601 1826.33 100.496C1826.45 100.818 1826.46 101.172 1826.35 101.498C1826.1 102.954 1826.17 104.449 1826.57 105.873C1826.65 106.15 1826.68 106.443 1826.63 106.729C1826.59 107.016 1826.48 107.29 1826.32 107.531C1825.85 108.354 1825.42 109.201 1825.04 110.071C1824.95 110.328 1824.77 110.55 1824.55 110.708C1824.32 110.866 1824.06 110.952 1823.78 110.956C1823.15 110.968 1822.82 110.579 1822.57 110.024C1822.25 109.036 1822.03 108.018 1821.91 106.985C1821.25 103.399 1820.35 99.8594 1819.22 96.3909C1818.66 94.3947 1818.22 92.3645 1817.92 90.3127C1817.36 87.8309 1816.34 85.4975 1815.82 82.9915C1815.11 79.5809 1815.3 76.0135 1814.91 72.6434C1814.96 72.267 1814.89 71.8845 1814.7 71.5525C1814.21 72.5807 1813.91 73.6925 1813.83 74.8299C1813.75 76.9032 1813.91 78.9786 1814.3 81.0171C1814.73 82.8724 1814.67 84.7835 1814.92 86.6424C1814.88 86.9135 1814.89 87.1875 1814.93 87.4573C1815.28 88.1803 1815.37 88.9974 1815.21 89.7814C1815.04 91.4284 1814.72 93.0564 1814.25 94.6444C1814.14 94.9284 1814.1 95.2339 1814.13 95.5366C1814.16 95.8393 1814.26 96.1309 1814.42 96.3881C1815.59 98.9116 1816.2 101.657 1816.21 104.437C1816.53 108.181 1817.02 111.922 1817.19 115.693C1817.57 120.339 1817.66 125.006 1817.45 129.663C1817.12 133.28 1817.28 136.887 1816.91 140.482C1816.75 141.866 1816.51 143.239 1816.19 144.595C1815.86 146.969 1815.68 149.36 1815.63 151.756C1815.57 154.601 1815.06 157.418 1814.11 160.1C1813.35 161.722 1813.22 163.704 1811.59 164.806C1809.59 166.265 1808.68 166.003 1807.84 163.642C1807.45 162.587 1807.36 161.445 1807.57 160.34C1807.59 160.177 1807.59 160.013 1807.56 159.851C1807.31 156.951 1807.48 154.031 1808.05 151.177C1808.4 147.513 1808.56 143.853 1808.87 140.19C1809.06 137.857 1809.45 135.521 1809.85 133.184C1810.13 131.641 1810.1 130.081 1810.25 128.518C1810.45 126.325 1810.99 124.195 1811.25 122C1811.79 117.215 1812.16 112.41 1812.26 107.586C1812.37 106.262 1812.28 104.929 1812 103.631L1811.34 105.973C1810.38 109.368 1809.14 112.653 1807.88 115.984C1807.72 116.263 1807.64 116.578 1807.65 116.897C1807.66 117.216 1807.75 117.527 1807.91 117.8C1808 118.016 1808 118.257 1807.92 118.476C1807.35 120.303 1807.43 122.235 1807 124.083L1804.85 133.185C1804.66 134.352 1804.54 135.528 1804.49 136.709C1804.04 141.376 1803.62 145.81 1803.42 150.355C1803.29 152.513 1803.33 154.678 1803.54 156.829C1804.04 159.64 1803.98 162.52 1803.38 165.31C1803.2 166.176 1803.14 167.064 1803.22 167.945C1803.2 168.563 1802.99 169.161 1802.62 169.657C1802.48 169.906 1802.26 170.095 1801.99 170.187C1801.72 170.278 1801.42 170.265 1801.16 170.15C1800.37 169.972 1799.64 169.589 1799.04 169.041C1798.44 168.492 1798 167.797 1797.75 167.023C1796.59 163.262 1796.28 159.288 1796.86 155.394L1797.57 150.209C1797 150.889 1796.59 151.695 1796.38 152.561C1794.99 156.407 1793.17 160.098 1792.15 164.101C1791.54 166.441 1791.01 168.897 1790.43 171.284C1790.13 172.579 1789.61 173.811 1788.89 174.924C1788.73 175.188 1788.51 175.407 1788.25 175.557C1787.98 175.708 1787.68 175.784 1787.38 175.778C1787.07 175.771 1786.78 175.683 1786.52 175.522C1786.26 175.361 1786.05 175.134 1785.9 174.863C1785.14 173.438 1784.96 171.771 1785.4 170.214C1786.63 162.997 1788.77 155.967 1791.78 149.293C1791.95 148.856 1792.1 148.41 1792.22 147.957C1791.13 149.399 1790.09 150.886 1789.02 152.304C1785.49 156.983 1781.24 161.08 1776.44 164.443C1774.9 165.425 1773.26 166.237 1771.55 166.864C1771.02 167.058 1770.45 167.114 1769.89 167.027C1769.34 166.94 1768.81 166.712 1768.37 166.365C1768 166.085 1767.73 165.69 1767.61 165.241C1767.49 164.792 1767.52 164.315 1767.7 163.885C1768.13 163.047 1768.81 162.36 1769.64 161.916C1771.43 160.707 1773.29 159.599 1775.21 158.596C1776.41 157.75 1777.56 156.834 1778.65 155.853C1781.81 153.626 1784.77 151.139 1787.5 148.419C1788.71 147.208 1789.78 145.79 1790.85 144.489C1793.44 141.016 1795.8 137.377 1797.91 133.595C1798.83 132.164 1799.58 130.634 1800.16 129.034C1800.19 128.903 1800.25 128.78 1800.33 128.672C1800.42 128.565 1800.52 128.475 1800.64 128.407C1800.76 128.34 1800.89 128.297 1801.02 128.281C1801.16 128.264 1801.29 128.274 1801.42 128.311C1801.77 128.305 1801.94 128.302 1802.07 127.926C1802.93 125.441 1804.07 123.067 1805.12 120.671C1805.41 120.037 1805.44 120.06 1804.77 119.28L1803.28 122.965C1803.03 123.576 1803.15 124.692 1801.9 123.807C1801.5 123.535 1801.41 124.095 1801.26 124.355C1800.21 125.912 1799.5 127.649 1798.34 129.068C1795.63 132.496 1793 135.993 1790.03 139.217C1787.06 142.441 1783.57 145.977 1780.44 149.414C1779.36 150.44 1778.19 151.359 1776.93 152.158C1775.57 153.502 1774.02 154.645 1772.34 155.552C1770.26 156.618 1768.09 157.5 1765.87 158.19C1765.19 158.417 1764.45 158.396 1763.79 158.131C1763.13 157.866 1762.58 157.375 1762.25 156.744C1761.98 156.201 1761.86 155.595 1761.89 154.989C1761.93 154.383 1762.13 153.798 1762.47 153.292C1763.88 150.96 1765.84 149.005 1768.18 147.595C1771.37 145.205 1774.69 143 1777.76 140.426C1782.88 136.34 1787.75 131.947 1792.34 127.271C1795.31 124.164 1798.33 121.102 1801.25 117.926C1802.96 116.053 1804.32 113.838 1806.15 112.104C1807.57 110.429 1808.52 108.41 1808.9 106.252C1810.03 102.9 1810.92 99.4589 1811.9 96.0396C1812.09 95.6406 1812.2 95.2065 1812.21 94.765C1812.22 94.3236 1812.14 93.8845 1811.97 93.476C1811.89 93.306 1811.84 93.1201 1811.84 92.9311C1811.84 92.7422 1811.87 92.5547 1811.95 92.3816C1812.62 90.667 1812.87 88.8183 1812.69 86.9871L1812.62 83.3081C1812.61 83.0287 1812.6 82.563 1812.28 82.5226C1811.95 82.4821 1811.84 82.9733 1811.78 83.2773C1810.69 87.406 1809.31 91.4493 1807.63 95.3746C1806.5 97.8782 1805.24 100.32 1803.85 102.69C1803.41 103.445 1803.03 104.23 1802.71 105.041C1801.32 107.859 1799.7 110.561 1797.88 113.121C1795.95 116.412 1793.72 119.511 1791.2 122.377C1789.13 124.746 1787.18 127.298 1785.08 129.667C1784.72 129.511 1784.74 129.277 1784.86 129.112C1785.99 127.67 1787.27 126.318 1788.29 124.762C1789.42 123.532 1790.48 122.236 1791.46 120.882C1791.7 120.388 1792.51 120.047 1792.97 119.526C1794.45 117.6 1795.77 115.549 1796.9 113.396C1798.13 111.509 1799.42 109.668 1800.52 107.714C1801.25 106.357 1801.86 104.943 1802.35 103.487C1802.67 102.825 1803.08 102.213 1803.58 101.67C1804.49 100.171 1805.28 98.5982 1805.93 96.9671C1806.58 95.5574 1807.14 94.1027 1807.81 92.6692C1808.87 90.5404 1809.61 88.2658 1810.01 85.9194C1810.18 84.7516 1810.92 83.573 1811.11 82.4514C1811.3 81.3297 1811.85 79.5026 1811.91 77.964C1811.9 77.1258 1812.77 76.5503 1812.57 75.6224C1812.36 75.6264 1812.29 75.7674 1812.24 75.908C1811.2 79.0584 1809.79 82.0782 1808.06 84.908C1805.8 88.7472 1804.37 92.8505 1802.37 96.6616C1800.34 100.923 1798.09 105.071 1795.61 109.087C1793.85 111.753 1792.06 114.395 1790.34 117.083C1791.39 114.85 1792.75 112.798 1793.99 110.655C1795.51 108.372 1796.84 105.962 1797.95 103.453C1798.99 100.794 1800.19 98.2039 1801.56 95.6985C1803.64 91.5597 1805.43 87.2635 1807.79 83.2358C1809.36 80.3794 1810.67 77.3932 1811.73 74.3105C1812.05 73.2996 1812.3 72.2675 1812.48 71.2216C1812.2 71.0871 1812.18 71.2273 1812.16 71.3674C1811.36 74.0357 1810.14 76.5593 1808.55 78.8425C1806.29 82.5653 1804.03 86.2649 1802.34 90.1867C1801.09 92.7523 1799.68 95.2304 1798.1 97.6037C1796.75 99.8106 1795.57 102.123 1794.59 104.518C1793.39 107.219 1791.85 109.717 1790.41 112.307C1788.06 116.116 1786.01 120.103 1784.28 124.232C1783.37 126.727 1782.34 129.172 1781.18 131.557C1781.04 131.839 1780.77 132.24 1781.19 132.489C1781.62 132.737 1781.89 132.476 1782.21 132.237C1782.54 131.998 1782.67 131.739 1783.16 131.683C1782.78 132.493 1782.22 133.205 1781.52 133.764C1781.41 133.855 1781.28 133.906 1781.14 133.908C1781 133.911 1780.86 133.865 1780.75 133.778C1780.51 133.588 1780.32 133.341 1780.19 133.059C1780.06 132.778 1780.01 132.47 1780.02 132.161C1780.04 131.203 1780.42 130.287 1781.09 129.602C1781.63 129.093 1781.97 128.41 1782.06 127.674C1782.4 125.478 1783.25 123.394 1784.55 121.594C1786.07 119.236 1787.24 116.885 1788.54 114.392C1789.67 112.344 1790.79 110.343 1791.99 108.294C1793.43 105.611 1794.75 102.861 1796.21 100.201C1797.68 97.5418 1798.85 95.6795 1800.16 93.4188C1801.47 91.158 1802.52 88.8788 1803.69 86.5974C1804.61 84.8564 1805.7 83.2287 1806.6 81.4881C1807.5 79.7475 1808.26 78.3122 1809.19 76.7807C1810.45 74.2756 1811.56 71.6955 1812.51 69.0548C1812.73 68.5381 1812.65 67.9108 1813.06 67.4372C1813.47 66.9636 1813.38 67.0352 1813.64 67.0537C1813.9 67.0721 1813.95 67.374 1814 67.6059C1814.27 68.3509 1814.32 69.1571 1814.16 69.9322C1814.16 70.1418 1813.96 70.4484 1814.31 70.5117C1814.66 70.575 1814.72 70.2011 1814.72 69.9683C1814.74 68.2299 1814.91 66.4964 1815.23 64.7877C1815.77 61.4466 1815.75 58.0461 1816.48 54.7248C1816.93 52.5967 1817.52 50.5125 1818.02 48.4068C1818.01 48.0575 1818.33 47.7254 1818.18 47.3322C1817.51 48.2296 1816.89 49.1669 1816.32 50.139C1814.62 53.5486 1812.37 56.6423 1810.59 60.0066L1807.4 66.1461C1807.22 66.4989 1807.11 66.8503 1806.56 66.8609C1806 66.8714 1805.51 67.1367 1806.34 67.657C1806.64 67.8608 1806.34 68.0528 1806.35 68.2391C1804.7 71.2515 1803.25 74.3303 1801.49 77.275C1800.27 79.3478 1799.12 81.4657 1797.95 83.5609C1796.78 85.656 1795.58 87.7515 1794.22 89.7337C1793.18 91.4179 1791.97 93.0003 1790.63 94.4599C1789.59 95.7838 1788.24 96.8198 1786.68 97.4692C1785.78 97.7424 1785.1 97.499 1785.24 96.4714C1785.37 94.4806 1785.84 92.5264 1786.63 90.692C1787 89.7504 1787.33 88.7877 1787.6 87.8087C1788.15 86.4239 1788.94 85.1279 1789.59 83.788C1790.6 81.7425 1791.66 79.6962 1792.64 77.6278C1793.05 76.8282 1793.97 76.2752 1794.32 75.2669C1796.12 71.6971 1798.28 68.3232 1800.77 65.1995C1802.88 61.9454 1805.07 58.7362 1807.25 55.5274C1807.74 54.8446 1808.27 54.1964 1808.84 53.5874C1806.88 57.0949 1804.57 60.3762 1802.28 63.657C1800.34 66.3602 1798.58 69.1866 1797.01 72.1183C1796.16 73.7452 1795.21 75.3189 1794.17 76.8305C1792.56 79.1901 1791.94 82.1832 1790.33 84.6825C1788.74 87.7401 1787.56 90.9978 1786.83 94.3683C1786.71 95.0384 1786.65 95.7176 1786.64 96.3985C1788.11 95.5644 1789.4 94.4567 1790.44 93.1357C1792.03 91.1436 1793.49 89.0546 1794.82 86.8807C1796.92 83.324 1799.04 79.8134 1801.05 76.1187C1803.05 72.424 1804.83 69.2925 1806.49 65.7907C1807.85 62.8999 1809.29 60.0544 1810.85 57.2766C1811.77 55.652 1812.98 54.2084 1813.85 52.5614C1815.27 49.9259 1816.78 47.3585 1818.18 44.7234C1817.02 45.6867 1816.08 46.8781 1815.4 48.223C1814.12 50.5765 1812.35 52.7761 1811.09 55.2921C1808.42 60.56 1804.57 65.128 1801.87 70.4197C1800.27 73.0945 1798.46 75.6367 1796.45 78.0221C1795.43 79.4156 1794.5 80.8772 1793.64 82.1513C1793.83 81.0769 1794.3 80.0718 1795 79.2372C1795.46 78.2154 1796.12 77.2932 1796.93 76.5222C1797.14 76.3786 1797.39 76.1409 1797.2 75.8184C1797.01 75.4959 1797.19 75.3527 1797.44 75.2548C1799.2 73.9795 1800.54 72.2112 1801.28 70.1745C1801.74 69.3741 1802.23 68.596 1802.82 67.8162C1802.24 67.8272 1802.2 68.2006 1801.92 68.3223C1805.73 62.4741 1809.1 56.3078 1813.24 50.5931L1812.1 52.2449C1812.54 51.3047 1813.12 50.4375 1813.82 49.6736C1814.29 49.2658 1814.57 48.6908 1814.61 48.0749C1814.6 47.3531 1815.36 47.0126 1815.79 46.5852C1817.57 44.5313 1819.1 42.2652 1820.32 39.8381C1820.86 38.8729 1821.55 37.975 1822.13 37.0322C1822.31 36.726 1822.61 36.4409 1822.44 35.8851C1819.92 39.5894 1816.67 42.6088 1814.41 46.3782L1821.13 36.8647C1821.92 35.6619 1822.71 34.5056 1823.39 33.2584C1823.5 33.0932 1824.19 32.6609 1823.37 32.3968C1822.98 32.4043 1823.36 31.7216 1823.57 31.4848C1825 29.7574 1826.25 27.8938 1827.75 26.235C1829.13 24.7522 1830.4 23.1713 1831.55 21.5048C1831.8 21.1565 1831.97 20.7548 1832.04 20.331C1831.85 20.3486 1831.66 20.4048 1831.49 20.496C1831.32 20.5872 1831.17 20.7117 1831.05 20.8621C1826.32 24.6387 1821.95 28.846 1817.99 33.4299C1815.71 36.1281 1813.13 38.6226 1810.83 41.3213C1805.74 47.1936 1799.37 51.5062 1793.31 56.209C1791.49 57.6808 1789.25 58.5383 1786.91 58.6588C1785.07 58.6934 1784.43 57.9834 1784.79 56.1598C1785.38 53.7408 1786.63 51.5324 1788.39 49.7795C1795.45 42.0533 1803.97 36.1394 1812.41 30.1341C1815.69 27.743 1819.03 25.514 1822.36 23.2151C1822.45 23.1645 1822.54 23.1368 1822.64 23.135C1822.74 23.1332 1822.83 23.1572 1822.92 23.2046C1822.26 23.7529 1821.64 24.3701 1820.93 24.8727C1816.17 28.1534 1811.26 31.2039 1806.74 34.8062C1802.75 38.0026 1798.45 40.8321 1794.77 44.3488C1791.91 47.1051 1789.29 50.0999 1786.95 53.3007C1786.3 54.0909 1785.85 55.0265 1785.65 56.0271C1785.59 56.2572 1785.58 56.4979 1785.63 56.7308C1785.68 56.9637 1785.78 57.1827 1785.92 57.3709C1786.07 57.5592 1786.25 57.7118 1786.47 57.8172C1786.68 57.9225 1786.91 57.9778 1787.15 57.9787C1788.82 58.0536 1790.45 57.5449 1791.78 56.5406C1795.92 53.7374 1799.51 50.1992 1803.72 47.4413C1806.32 45.5995 1808.63 43.3815 1810.58 40.86C1811.83 39.2136 1813.16 37.6336 1814.57 36.1263C1816.86 33.9869 1818.75 31.5755 1820.96 29.4141C1821.61 28.7964 1821.98 27.9274 1822.65 27.2627C1821.26 27.8071 1819.97 28.5536 1818.8 29.4781C1815.97 31.5345 1813.48 33.9806 1810.87 36.2659C1807.64 39.2694 1804.11 41.9349 1800.33 44.2208C1798.9 45.0396 1797.5 45.9046 1796 46.6316C1797.29 45.5357 1798.7 44.5945 1800.21 43.8271C1802.87 42.4056 1805.32 40.6189 1807.49 38.519C1808.82 37.2595 1810.22 36.1384 1811.54 34.8323C1812.68 33.5031 1813.91 32.2505 1815.22 31.0828C1816.69 29.9837 1817.95 28.7022 1819.42 27.5565C1820.37 26.9011 1821.39 26.3508 1822.46 25.9153C1824.29 24.9698 1826 23.8034 1827.54 22.4422C1829.19 21.13 1830.77 19.7725 1832.45 18.5064C1833.2 17.9987 1833.79 17.2835 1834.13 16.4482C1833.08 16.8528 1832.06 17.3474 1831.09 17.9264L1830.97 17.6492C1832.05 16.9999 1833.11 16.3045 1834.21 15.6548C1836.69 14.0543 1839.05 12.2739 1841.26 10.3278L1850.09 3.17369C1851.03 2.41062 1851.74 1.44234 1852.61 0.634012C1852.97 0.277731 1853.36 -0.265249 1853.88 0.190807C1854.12 0.426213 1854.29 0.730421 1854.35 1.06241C1854.42 1.3944 1854.38 1.73821 1854.24 2.04746C1854.02 2.70381 1853.55 2.54958 1853.08 2.39535C1853.03 2.35832 1852.96 2.33912 1852.9 2.34037C1852.83 2.34163 1852.77 2.36327 1852.71 2.40236L1852.71 2.58861C1853.07 2.7916 1853.67 2.78023 1853.66 3.31621C1853.65 3.8522 1853.23 4.11622 1852.79 4.3574C1848.44 6.90549 1844.45 10.0455 1840.95 13.6878C1839.88 14.8754 1838.88 16.123 1837.95 17.4246C1837.65 17.8056 1837.47 18.2603 1837.42 18.7391C1836.66 23.4118 1835.96 28.2699 1835.68 33.0969C1835.42 35.3135 1834.97 37.5038 1834.34 39.6442C1833.52 43.2933 1832.66 46.92 1831.56 50.4812L1831.16 51.5369C1830.85 50.9371 1831.38 50.4846 1831.48 49.9935C1832.02 47.5143 1832.34 44.9693 1833 42.5345C1833.89 39.3186 1834.61 36.0544 1835.14 32.7577C1835.23 31.929 1835.26 31.0962 1835.26 30.2632C1833.99 34.6428 1832.88 38.9961 1831.85 43.3947C1830.84 47.7276 1829.36 51.9352 1827.43 55.9397C1831.36 44.9644 1833.03 33.4728 1835.71 22.2185C1834.86 23.935 1834.22 25.694 1833.48 27.4316C1832.39 29.9445 1831.46 32.5242 1830.5 35.1044C1828.71 40.0297 1827.78 45.2414 1826.13 50.1874C1825.15 53.7095 1824.38 57.2863 1823.82 60.8991C1823.32 62.4968 1823.35 64.211 1823.91 65.7889C1824.03 66.0894 1823.92 66.5573 1824.39 66.5951C1824.86 66.6329 1824.87 66.2599 1825.08 66.0464C1827.03 63.4192 1828.41 60.4089 1829.13 57.2121C1829.69 55.1516 1830.47 53.2502 1831.21 51.373ZM1813.83 102.176C1813.16 103.376 1813.88 104.504 1813.6 105.791C1813.05 108.829 1813.16 111.925 1812.72 114.985C1812.46 116.923 1812.52 118.902 1812.28 120.863C1811.91 123.805 1811.15 126.707 1811.04 129.691C1810.93 132.605 1810.6 135.507 1810.07 138.374C1809.46 141.786 1809.57 145.371 1809.24 148.709C1808.98 151.206 1808.63 153.681 1808.54 156.199C1808.71 157.814 1808.81 159.437 1808.82 161.062C1808.63 162.015 1808.82 163.002 1809.33 163.824C1809.91 164.745 1810.15 164.834 1810.92 164.143C1811.15 163.934 1811.34 163.695 1811.49 163.434C1813.31 160.307 1814.48 156.847 1814.93 153.26C1815.55 149.871 1815.23 146.406 1816.07 143.036C1816.5 141.43 1816.69 139.772 1816.65 138.11C1816.52 137.241 1816.46 136.361 1816.49 135.481C1817.01 131.791 1817.2 128.061 1817.05 124.337C1816.96 119.68 1816.71 115.026 1816.08 110.379L1815.79 108.475C1815.82 107.79 1815.73 107.107 1815.52 106.453C1815.23 108.698 1815.27 110.974 1815.65 113.206C1815.89 116.827 1815.91 120.459 1815.71 124.082C1815.71 128.45 1815.26 132.805 1814.37 137.082C1813.51 140.848 1813.31 144.765 1812.26 148.512C1812.16 149.262 1811.98 150 1811.72 150.712C1812.27 146.415 1812.75 142.423 1813.28 138.453C1813.81 134.484 1814.08 130.356 1814.47 126.319C1814.93 122.326 1814.95 118.295 1814.53 114.298C1813.99 110.232 1814.54 106.169 1813.83 102.176ZM1822.4 40.0553C1821.57 41.7946 1820.69 43.4648 1820.01 45.2481C1818.88 48.5341 1818.02 51.9081 1817.45 55.3355C1816.66 59.1238 1816.43 63.0414 1815.94 67.0103C1815.43 72.1461 1815.75 77.3314 1816.88 82.366C1816.98 83.1526 1817.14 83.9292 1817.37 84.6861C1818.2 86.8716 1818.88 89.107 1819.43 91.379C1819.66 92.3763 1819.58 93.4026 1819.88 94.3753C1820.28 95.7887 1820.84 97.1291 1821.26 98.4955C1821.94 100.812 1822.42 103.132 1822.95 105.452L1823.64 108.653C1823.65 108.886 1823.65 109.142 1824 109.182C1824.35 109.222 1824.32 108.966 1824.41 108.802C1824.8 108.026 1825.46 107.245 1825.35 106.455C1825.15 104.804 1825.29 103.148 1825.05 101.499C1824.72 99.1758 1823.52 97.2883 1823.39 95.0314C1823.36 94.2504 1823.27 93.473 1823.11 92.7074C1822.2 87.9111 1821.63 83.0575 1821.39 78.1816C1821.15 75.1813 1821.58 72.1684 1821.22 69.1703C1821.19 68.5234 1821.22 67.8746 1821.33 67.2351C1821.52 65.2515 1821.88 63.2648 1821.94 61.2839C1821.92 58.8349 1822.07 56.3877 1822.4 53.9611C1822.58 53.0936 1822.67 52.2097 1822.66 51.3242C1822.64 49.4568 1822.78 47.5913 1823.09 45.7491L1823.27 44.2316C1823.4 43.7742 1823.39 43.2866 1823.24 42.8345C1822.04 46.9787 1821.14 51.2079 1820.57 55.4864C1819.86 59.767 1819.49 64.0963 1819.46 68.4348C1819.54 72.7192 1819.62 76.9803 1819.82 81.2625C1816.81 67.0639 1819.46 53.5739 1822.4 40.0553ZM1802.12 119.633C1800.8 121.032 1799.24 122.203 1798.05 123.716C1795.98 126.364 1793.13 128.164 1790.97 130.837C1789.05 132.841 1786.97 134.687 1784.76 136.358C1782.23 138.82 1779.54 141.119 1776.72 143.241C1772.81 145.632 1769.19 148.451 1765.91 151.644C1764.79 152.652 1764 153.974 1763.65 155.436C1763.42 156.768 1764.06 157.409 1765.38 157.128C1765.85 157.119 1766.31 157.11 1766.77 156.915C1769.91 156.14 1772.84 154.694 1775.36 152.677C1776.46 151.725 1777.65 150.84 1778.75 149.958C1779.82 149.172 1780.81 148.287 1781.71 147.317C1783.37 145.468 1785.16 143.711 1786.96 142C1787.63 141.382 1788.29 140.764 1788.95 140.192C1789.62 139.621 1789.65 138.921 1790.13 138.33C1792.66 135.208 1795.14 132.017 1797.64 128.872C1797.91 128.517 1798.14 128.163 1798.39 127.786C1798.64 127.409 1799 127.146 1798.9 126.635C1797.16 129.006 1795.21 131.21 1793.06 133.22C1790.62 135.596 1788.38 138.316 1786.22 140.943C1784.06 143.221 1781.6 145.209 1778.93 146.857C1776.63 148.507 1773.76 149.283 1771.27 150.821C1771.02 150.965 1770.74 151.227 1770.39 150.977C1772.83 149.333 1775.36 147.824 1777.96 146.455C1781.1 144.63 1783.9 142.286 1786.24 139.521L1790.02 135.118C1793.49 131.186 1797.52 127.709 1800.14 123.048C1800.89 121.963 1801.55 120.821 1802.12 119.633ZM1806.41 121.253C1805.36 122.985 1804.53 124.839 1803.93 126.773C1803.52 127.436 1803.33 128.216 1803.39 128.996C1803.5 129.463 1803.5 129.946 1803.42 130.417C1803.23 132.162 1802.91 133.89 1802.45 135.583C1802.28 136.896 1802.01 138.194 1801.63 139.465C1799.88 143.507 1798.8 147.807 1798.43 152.196C1797.82 156.404 1797.9 160.682 1798.66 164.863C1798.78 165.841 1799.05 166.795 1799.46 167.69C1799.66 168.074 1799.96 168.389 1800.34 168.594C1800.72 168.799 1801.15 168.884 1801.58 168.838C1802.37 168.823 1802.14 167.826 1802.23 167.242C1802.35 166.308 1802.52 165.373 1802.73 164.437C1803.17 162.92 1803.37 161.346 1803.34 159.767C1802.96 156.858 1802.86 153.92 1803.04 150.991C1803.48 147.117 1803.38 143.205 1803.91 139.329C1804.13 138.266 1804.11 137.169 1803.85 136.115C1803.24 140.669 1801.69 145.007 1800.82 149.496C1801.95 139.971 1804.54 130.605 1806.41 121.253ZM1790.16 165.815C1789.98 165.456 1789.92 165.051 1789.97 164.654C1790.64 160.304 1791.72 156.026 1793.18 151.876C1793.96 149.606 1794.9 147.394 1795.99 145.254C1797.27 142.552 1798.21 139.715 1799.28 136.947C1799.28 136.807 1799.39 136.619 1799.11 136.414C1798.16 138.295 1797.1 140.086 1796.35 142.033C1795.22 144.966 1794.13 147.921 1792.65 150.721C1790.75 154.761 1789.23 158.969 1788.11 163.292C1787.46 166.194 1787 169.137 1786.74 172.099C1786.63 172.769 1786.77 173.457 1787.15 174.025C1787.65 174.854 1788.16 174.867 1788.66 173.996C1789.16 173.125 1789.17 172.892 1789.44 172.351C1789.86 171.134 1790.11 169.869 1790.19 168.587C1791.03 164.752 1792.22 161.003 1793.75 157.386C1795.56 153.322 1796.92 149.08 1798.45 144.928C1798.99 143.424 1799.31 141.848 1799.39 140.252C1795.3 148.374 1792.2 156.956 1790.16 165.815ZM1834.81 21.3038C1832.16 24.4585 1829.74 27.7966 1827.57 31.293C1826.53 32.6317 1826 34.2888 1826.05 35.9802C1826.04 36.3232 1825.95 36.6589 1825.79 36.9634C1825.07 39.0419 1824.54 41.1799 1824.21 43.3521C1823.49 47.3487 1823.66 51.4451 1822.88 55.4663C1822.63 56.51 1822.65 57.5993 1822.94 58.633C1823.15 57.809 1823.31 56.9738 1823.42 56.1314C1823.91 53.3505 1824.88 50.7 1825.6 47.9845C1826.82 43.2269 1828.29 38.5347 1829.99 33.9261C1830.66 32.2131 1831.4 30.4989 1832.22 28.8062C1833.34 26.401 1834.21 23.8869 1834.81 21.3038ZM1785.85 152.107C1785.7 152.103 1785.55 152.134 1785.41 152.198C1785.28 152.261 1785.16 152.354 1785.06 152.471C1783.58 154.084 1781.9 155.501 1780.07 156.688C1778.32 157.699 1777.09 159.469 1775.17 160.297C1773.4 161.268 1771.72 162.408 1770.16 163.699C1769.96 163.857 1769.8 164.066 1769.71 164.306C1769.61 164.546 1769.58 164.806 1769.63 165.06C1769.64 165.619 1770.24 165.538 1770.59 165.648C1771.04 165.79 1771.52 165.781 1771.97 165.622C1774.89 164.768 1777.6 163.313 1779.92 161.349C1782.59 159.084 1785.02 156.549 1787.16 153.783C1788.25 152.388 1789.23 150.902 1790.34 149.53C1790.51 149.385 1790.65 149.205 1790.75 149.003C1790.84 148.8 1790.9 148.579 1790.9 148.355C1787.83 151.905 1784.28 155.02 1780.36 157.614C1781.98 155.581 1784.09 154.073 1785.87 152.106L1785.85 152.107ZM1837.2 16.2274C1837.93 15.8932 1838.56 15.3852 1839.04 14.7487C1841.03 11.3571 1844.46 9.49893 1847.25 7.00058C1848.36 6.12095 1849.43 5.1835 1850.44 4.19209C1849.52 4.61838 1848.65 5.13413 1847.84 5.73182C1844.27 8.41621 1840.85 11.3035 1837.61 14.3796C1837.36 14.6055 1837.18 14.9071 1837.12 15.2397C1837.05 15.5724 1837.09 15.9185 1837.23 16.227L1837.2 16.2274ZM1825.55 30.6321C1826.1 29.7834 1827.04 29.4162 1827.68 28.8218C1828.78 27.6408 1829.8 26.4007 1830.76 25.1069C1832.17 23.4964 1832.9 21.3863 1834.46 19.8663C1834.68 19.6523 1834.75 19.325 1834.44 18.8417C1831.25 22.5699 1828.32 26.5083 1825.67 30.63L1825.55 30.6321ZM1805.57 118.287C1808.12 114.256 1811.29 105.741 1810.94 104.094C1809.53 108.959 1807.75 113.705 1805.59 118.287L1805.57 118.287ZM1793.7 143.411L1793.98 143.569C1795.2 142.614 1795.19 141.03 1795.96 139.851L1795.75 139.855L1793.7 143.411Z" fill="#CECECE" fill-opacity="0.49"/>
<defs>
<clipPath id="clip0_425_86042">
<rect width="36" height="50" fill="white" transform="translate(33.4838 136) rotate(42.042)"/>
</clipPath>
</defs>
</svg>
