<svg width="11" height="11" viewBox="0 0 11 11" fill="none" xmlns="http://www.w3.org/2000/svg">
<path d="M2.10547 5.03906C2.96224 6.73438 4.2474 8.01953 5.96094 8.89453L7.24609 7.60938C7.41016 7.42708 7.61068 7.38151 7.84766 7.47266C8.50391 7.69141 9.19661 7.80078 9.92578 7.80078C10.0716 7.80078 10.1992 7.85547 10.3086 7.96484C10.4362 8.07422 10.5 8.21094 10.5 8.375V10.4258C10.5 10.5716 10.4362 10.7083 10.3086 10.8359C10.1992 10.9453 10.0716 11 9.92578 11C8.12109 11 6.45312 10.5625 4.92188 9.6875C3.40885 8.79427 2.20573 7.59115 1.3125 6.07812C0.4375 4.54688 0 2.87891 0 1.07422C0 0.928385 0.0546875 0.800781 0.164062 0.691406C0.291667 0.563802 0.428385 0.5 0.574219 0.5H2.625C2.78906 0.5 2.92578 0.563802 3.03516 0.691406C3.14453 0.800781 3.19922 0.928385 3.19922 1.07422C3.19922 1.80339 3.30859 2.49609 3.52734 3.15234C3.60026 3.38932 3.55469 3.58984 3.39062 3.75391L2.10547 5.03906Z" fill="#C8A464"/>
</svg>
