<svg width="261" height="50" viewBox="0 0 261 50" fill="none" xmlns="http://www.w3.org/2000/svg">
<g clip-path="url(#clip0_46_58)">
<path d="M137.173 7.98843C137.173 4.41302 140.016 1.73145 143.904 1.73145C147.733 1.73145 150.635 4.41302 150.635 7.98843C150.635 11.5639 147.792 14.2454 143.904 14.2454C140.016 14.3012 137.173 11.6197 137.173 7.98843ZM149.243 7.98843C149.243 5.02754 146.979 2.90463 143.904 2.90463C140.828 2.90463 138.507 5.0834 138.507 7.98843C138.507 10.8935 140.828 13.0723 143.904 13.0723C146.979 13.1281 149.243 10.9493 149.243 7.98843Z" fill="white"/>
<path d="M162.763 14.1901L159.861 10.2236C159.513 10.2795 159.223 10.2795 158.816 10.2795H155.393V14.1901H154.058V1.84375H158.875C162.124 1.84375 164.097 3.40799 164.097 6.08956C164.097 8.04487 163.052 9.38565 161.196 9.94431L164.329 14.1901H162.763ZM162.704 6.08956C162.704 4.13425 161.37 3.01694 158.816 3.01694H155.393V9.21805H158.816C161.312 9.16219 162.704 7.98901 162.704 6.08956Z" fill="white"/>
<path d="M176.63 7.98843H177.907V12.6811C176.689 13.7426 175.005 14.2454 173.206 14.2454C169.32 14.2454 166.476 11.5639 166.476 7.98843C166.476 4.41301 169.32 1.73145 173.265 1.73145C175.18 1.73145 176.863 2.34597 178.023 3.51915L177.211 4.35714C176.108 3.35156 174.831 2.90463 173.382 2.90463C170.19 2.90463 167.869 5.0834 167.869 7.98843C167.869 10.8935 170.19 13.0723 173.323 13.0723C174.542 13.0723 175.702 12.7929 176.689 12.1225V7.98843H176.63Z" fill="white"/>
<path d="M190.093 10.894H182.955L181.447 14.1901H180.054L185.914 1.84375H187.249L193.109 14.1901H191.659L190.093 10.894ZM189.628 9.83258L186.553 3.2404L183.477 9.83258H189.628Z" fill="white"/>
<path d="M206.282 1.84375V14.1901H205.179L196.94 4.19012V14.1901H195.547V1.84375H196.649L204.889 11.8438V1.84375H206.282Z" fill="white"/>
<path d="M210.808 1.84375H212.142V14.1901H210.808V1.84375Z" fill="white"/>
<path d="M215.566 7.98843C215.566 4.35714 218.409 1.73145 222.297 1.73145C224.153 1.73145 225.837 2.34597 226.997 3.51915L226.126 4.35714C225.082 3.35156 223.805 2.90463 222.354 2.90463C219.28 2.90463 216.958 5.0834 216.958 7.98843C216.958 10.8935 219.28 13.0723 222.354 13.0723C223.805 13.0723 225.082 12.6253 226.126 11.6197L226.997 12.4577C225.837 13.6309 224.153 14.2454 222.297 14.2454C218.409 14.3012 215.566 11.6197 215.566 7.98843Z" fill="white"/>
<path d="M139.668 20.6703V25.5307H146.283V26.648H139.668V31.8435H138.334V19.4971H147.096V20.6144H139.668V20.6703Z" fill="white"/>
<path d="M148.952 25.6984C148.952 22.123 151.795 19.4414 155.683 19.4414C159.513 19.4414 162.414 22.123 162.414 25.6984C162.414 29.3298 159.571 31.9555 155.683 31.9555C151.795 31.9555 148.952 29.2738 148.952 25.6984ZM161.022 25.6984C161.022 22.7376 158.759 20.6147 155.683 20.6147C152.607 20.6147 150.287 22.7934 150.287 25.6984C150.287 28.6593 152.607 30.7822 155.683 30.7822C158.759 30.7822 161.022 28.6035 161.022 25.6984Z" fill="white"/>
<path d="M164.677 25.6984C164.677 22.123 167.521 19.4414 171.408 19.4414C175.238 19.4414 178.14 22.123 178.14 25.6984C178.14 29.3298 175.296 31.9555 171.408 31.9555C167.521 31.9555 164.677 29.2738 164.677 25.6984ZM176.746 25.6984C176.746 22.7376 174.483 20.6147 171.408 20.6147C168.333 20.6147 166.011 22.7934 166.011 25.6984C166.011 28.6593 168.333 30.7822 171.408 30.7822C174.426 30.7822 176.746 28.6035 176.746 25.6984Z" fill="white"/>
<path d="M181.504 19.4971H186.727C190.846 19.4971 193.574 22.011 193.574 25.6424C193.574 29.2737 190.789 31.7877 186.727 31.7877H181.504V19.4971ZM186.611 30.7261C190.034 30.7261 192.182 28.6592 192.182 25.6982C192.182 22.7373 189.976 20.6703 186.611 20.6703H182.839V30.7261H186.611Z" fill="white"/>
<path d="M195.721 30.3354L196.243 29.3298C197.171 30.1677 198.796 30.8382 200.479 30.8382C202.858 30.8382 203.902 29.8884 203.902 28.6593C203.902 25.3073 196.011 27.3744 196.011 22.7934C196.011 21.0057 197.462 19.4414 200.711 19.4414C202.162 19.4414 203.671 19.8326 204.657 20.5587L204.193 21.6202C203.09 20.9499 201.814 20.6147 200.711 20.6147C198.391 20.6147 197.345 21.6202 197.345 22.8493C197.345 26.2013 205.238 24.19 205.238 28.6593C205.238 30.447 203.728 32.0113 200.479 32.0113C198.565 31.9555 196.707 31.285 195.721 30.3354Z" fill="white"/>
<path d="M138.334 37.207H139.668V49.5534H138.334V37.207Z" fill="white"/>
<path d="M154.871 37.207V49.5534H153.768L145.529 39.5534V49.5534H144.194V37.207H145.297L153.536 47.207V37.207H154.871Z" fill="white"/>
<path d="M169.899 37.207L164.212 49.5534H162.878L157.25 37.207H158.701L163.574 47.9333L168.507 37.207H169.899Z" fill="white"/>
<path d="M181.156 48.3802V49.4975H172.105V37.207H180.866V38.3244H173.497V42.6819H180.112V43.7992H173.497V48.3802H181.156Z" fill="white"/>
<path d="M183.477 47.9887L184 46.983C184.928 47.821 186.553 48.4915 188.235 48.4915C190.615 48.4915 191.659 47.5417 191.659 46.3126C191.659 42.9607 183.768 45.0278 183.768 40.4467C183.768 38.659 185.218 37.0947 188.468 37.0947C189.919 37.0947 191.427 37.4858 192.413 38.2121L191.949 39.2736C190.846 38.6031 189.571 38.268 188.468 38.268C186.147 38.268 185.102 39.2736 185.102 40.5026C185.102 43.8545 192.994 41.8433 192.994 46.3126C192.994 48.1003 191.485 49.6646 188.235 49.6646C186.321 49.6087 184.464 48.9383 183.477 47.9887Z" fill="white"/>
<path d="M198.622 38.3244H194.096V37.207H204.425V38.3244H199.899V49.4975H198.565V38.3244H198.622Z" fill="white"/>
<path d="M220.324 37.207V49.5534H219.047V39.6652L213.999 47.9333H213.36L208.312 39.721V49.5534H207.036V37.207H208.138L213.708 46.369L219.221 37.207H220.324Z" fill="white"/>
<path d="M233.902 48.3802V49.4975H224.85V37.207H233.611V38.3244H226.185V42.6819H232.799V43.7992H226.185V48.3802H233.902Z" fill="white"/>
<path d="M248.118 37.207V49.5534H247.015L238.776 39.5534V49.5534H237.442V37.207H238.543L246.784 47.207V37.207H248.118Z" fill="white"/>
<path d="M255.139 38.3244H250.672V37.207H261V38.3244H256.474V49.4975H255.139V38.3244Z" fill="white"/>
<path d="M76.1298 13.6872V21.8994H96.845V34.0783H76.1298V49.3855H59.3603V1.50838H99.8044V13.6872H76.1298ZM106.187 1.50838H122.957V49.3855H106.187V1.50838ZM53.8479 25.0838C53.7899 8.3799 47.0589 0 26.9239 0C6.78902 0 0.0580258 8.3799 0 25.0838C0.0580258 40.838 6.09271 49.1062 23.7325 49.9442C23.9067 33.9665 29.8833 17.5419 43.3453 17.2626C43.9255 24.4134 37.4847 32.4581 28.7808 31.6201C26.7499 36.8715 26.866 43.296 28.2585 49.9442C47.349 49.5531 53.7899 41.2291 53.8479 25.0838ZM24.777 31.2849C16.3052 31.3966 10.3286 24.0223 11.199 15.9777C20.135 16.4805 25.4734 22.0671 24.777 31.2849Z" fill="white"/>
</g>
<defs>
<clipPath id="clip0_46_58">
<rect width="261" height="50" fill="white"/>
</clipPath>
</defs>
</svg>
