<svg width="1920" height="488" viewBox="0 0 1920 488" fill="none" xmlns="http://www.w3.org/2000/svg">
<path d="M1907.91 75.8018C1906.97 77.0483 1905.95 78.2358 1904.87 79.3575C1903.56 81.0454 1902.13 82.6361 1900.59 84.1174C1898.97 85.4348 1897.28 86.6582 1895.53 87.7814C1895.35 87.9152 1895.13 87.9881 1894.91 87.989C1894.69 87.99 1894.47 87.919 1894.3 87.7868C1894.1 87.6595 1893.94 87.4703 1893.86 87.2479C1893.78 87.0254 1893.77 86.7818 1893.83 86.5538L1894.48 83.5483C1893.9 83.9381 1893.48 84.5136 1893.28 85.1783C1891.57 90.0276 1889.04 94.5329 1887.41 99.4206C1886.47 102.469 1885.18 105.415 1884.35 108.49C1883.26 111.574 1882.6 114.795 1882.39 118.06C1882.36 118.403 1882.22 118.725 1881.98 118.972C1881.12 120.179 1880.55 121.561 1880.3 123.018C1880.25 123.304 1880.15 123.577 1879.98 123.817C1879.82 124.058 1879.61 124.259 1879.36 124.408C1878.58 124.948 1877.83 125.53 1877.11 126.152C1876.92 126.342 1876.66 126.468 1876.39 126.514C1876.12 126.559 1875.84 126.522 1875.59 126.408C1875.02 126.148 1874.89 125.653 1874.9 125.048C1875.04 124.017 1875.28 123.002 1875.61 122.019C1876.56 118.496 1877.26 114.914 1877.74 111.297C1878.09 109.252 1878.57 107.232 1879.17 105.249C1879.74 102.768 1879.82 100.222 1880.43 97.7386C1881.25 94.3513 1882.95 91.2116 1884.05 88.0012C1884.26 87.6828 1884.36 87.3063 1884.33 86.9274C1883.45 87.6437 1882.7 88.5208 1882.14 89.5126C1881.18 91.3515 1880.43 93.2925 1879.9 95.2992C1879.49 97.1595 1878.62 98.8605 1878.04 100.644C1877.9 100.876 1877.78 101.125 1877.7 101.386C1877.7 102.188 1877.44 102.967 1876.95 103.604C1876.09 105.019 1875.11 106.351 1874 107.583C1873.78 107.793 1873.61 108.051 1873.51 108.337C1873.41 108.624 1873.37 108.93 1873.41 109.232C1873.37 112.012 1872.74 114.752 1871.56 117.265C1870.24 120.786 1869.07 124.374 1867.6 127.849C1865.95 132.21 1864.03 136.461 1861.83 140.577C1859.98 143.701 1858.58 147.027 1856.69 150.111C1855.96 151.295 1855.15 152.432 1854.28 153.518C1852.97 155.521 1851.77 157.599 1850.69 159.742C1849.42 162.286 1847.75 164.609 1845.74 166.622C1844.35 167.759 1843.39 169.495 1841.44 169.788C1839.01 170.246 1838.29 169.617 1838.55 167.126C1838.65 166.005 1839.06 164.934 1839.73 164.028C1839.82 163.889 1839.88 163.739 1839.93 163.582C1840.95 160.858 1842.36 158.292 1844.1 155.96C1845.99 152.803 1847.71 149.569 1849.56 146.392C1850.73 144.367 1852.1 142.429 1853.46 140.49C1854.37 139.215 1855.02 137.794 1855.83 136.449C1856.95 134.552 1858.35 132.862 1859.53 130.993C1862.07 126.904 1864.48 122.726 1866.64 118.412C1867.31 117.264 1867.8 116.023 1868.1 114.729L1866.51 116.562C1864.18 119.215 1861.64 121.646 1859.07 124.111C1858.81 124.296 1858.61 124.547 1858.47 124.837C1858.34 125.128 1858.29 125.448 1858.32 125.765C1858.31 125.997 1858.21 126.216 1858.04 126.38C1856.74 127.785 1855.99 129.565 1854.8 131.048L1848.94 138.339C1848.27 139.312 1847.66 140.324 1847.11 141.369C1844.7 145.39 1842.4 149.209 1840.28 153.23C1839.23 155.12 1838.33 157.092 1837.6 159.127C1836.84 161.877 1835.55 164.453 1833.81 166.714C1833.27 167.417 1832.84 168.195 1832.53 169.024C1832.25 169.574 1831.8 170.024 1831.25 170.313C1831.02 170.479 1830.74 170.552 1830.46 170.519C1830.17 170.485 1829.91 170.347 1829.73 170.132C1829.09 169.63 1828.59 168.97 1828.29 168.218C1827.98 167.465 1827.88 166.646 1827.99 165.842C1828.56 161.946 1829.99 158.226 1832.18 154.957L1835.06 150.584C1834.25 150.95 1833.53 151.503 1832.97 152.196C1830.06 155.069 1826.83 157.621 1824.19 160.796C1822.64 162.648 1821.1 164.636 1819.54 166.54C1818.72 167.583 1817.72 168.471 1816.59 169.164C1816.34 169.338 1816.05 169.441 1815.74 169.463C1815.44 169.484 1815.13 169.423 1814.86 169.287C1814.59 169.15 1814.36 168.943 1814.19 168.686C1814.03 168.429 1813.93 168.133 1813.92 167.828C1813.85 166.212 1814.4 164.629 1815.46 163.413C1819.68 157.424 1824.63 151.998 1830.22 147.267C1830.56 146.946 1830.89 146.607 1831.19 146.25C1829.59 147.083 1828.01 147.977 1826.43 148.798C1821.23 151.505 1815.64 153.379 1809.86 154.351C1808.05 154.576 1806.22 154.604 1804.4 154.435C1803.84 154.383 1803.3 154.189 1802.84 153.871C1802.37 153.553 1802 153.122 1801.75 152.618C1801.53 152.206 1801.46 151.734 1801.54 151.276C1801.62 150.818 1801.86 150.4 1802.2 150.089C1802.95 149.518 1803.86 149.189 1804.8 149.145C1806.94 148.826 1809.1 148.625 1811.26 148.544C1812.71 148.296 1814.14 147.962 1815.55 147.547C1819.35 146.89 1823.09 145.918 1826.73 144.638C1828.35 144.066 1829.92 143.245 1831.45 142.53C1835.28 140.508 1838.97 138.236 1842.51 135.729C1843.95 134.831 1845.29 133.773 1846.49 132.575C1846.58 132.472 1846.69 132.387 1846.81 132.325C1846.93 132.264 1847.06 132.227 1847.2 132.217C1847.33 132.207 1847.47 132.224 1847.6 132.267C1847.73 132.31 1847.84 132.378 1847.95 132.467C1848.26 132.611 1848.41 132.679 1848.69 132.397C1850.54 130.523 1852.59 128.871 1854.57 127.159C1855.11 126.711 1855.12 126.742 1854.85 125.752L1851.92 128.438C1851.44 128.884 1851.06 129.941 1850.31 128.604C1850.07 128.186 1849.75 128.657 1849.5 128.823C1847.89 129.781 1846.5 131.043 1844.84 131.825C1840.92 133.757 1837.04 135.782 1832.97 137.417C1828.91 139.052 1824.23 140.742 1819.93 142.501C1818.52 142.964 1817.06 143.289 1815.58 143.47C1813.77 144.098 1811.89 144.465 1809.97 144.56C1807.64 144.63 1805.31 144.496 1803 144.16C1802.29 144.074 1801.64 143.74 1801.15 143.216C1800.67 142.692 1800.39 142.013 1800.36 141.301C1800.34 140.694 1800.49 140.094 1800.79 139.563C1801.08 139.032 1801.51 138.588 1802.03 138.277C1804.32 136.78 1806.93 135.858 1809.64 135.589C1813.55 134.803 1817.49 134.236 1821.37 133.233C1827.75 131.746 1834.04 129.873 1840.2 127.625C1844.21 126.096 1848.25 124.628 1852.26 123.016C1854.61 122.061 1856.78 120.644 1859.18 119.865C1861.18 118.961 1862.9 117.547 1864.18 115.765C1866.64 113.222 1868.92 110.498 1871.28 107.833C1871.62 107.555 1871.9 107.207 1872.1 106.814C1872.3 106.42 1872.42 105.989 1872.44 105.548C1872.44 105.359 1872.48 105.172 1872.56 105C1872.64 104.828 1872.75 104.675 1872.89 104.551C1874.24 103.29 1875.26 101.729 1875.88 99.997L1877.4 96.6455C1877.51 96.391 1877.71 95.9667 1877.43 95.7897C1877.15 95.6127 1876.84 96.0102 1876.65 96.2571C1873.9 99.5183 1870.91 102.573 1867.71 105.396C1865.61 107.171 1863.42 108.834 1861.15 110.378C1860.43 110.871 1859.75 111.416 1859.11 112.009C1856.64 113.955 1854.02 115.7 1851.27 117.228C1848.12 119.372 1844.77 121.21 1841.27 122.717C1838.38 123.964 1835.52 125.428 1832.6 126.665C1832.35 126.372 1832.47 126.17 1832.64 126.069C1834.29 125.256 1836.03 124.585 1837.62 123.618C1839.16 122.993 1840.68 122.277 1842.14 121.475C1842.58 121.135 1843.45 121.174 1844.09 120.9C1846.26 119.8 1848.33 118.514 1850.28 117.057C1852.19 115.879 1854.15 114.773 1855.99 113.483C1857.22 112.568 1858.38 111.555 1859.46 110.453C1860.03 109.992 1860.66 109.616 1861.34 109.339C1862.81 108.379 1864.2 107.298 1865.49 106.106C1866.68 105.112 1867.81 104.037 1869.03 103.031C1870.91 101.566 1872.56 99.8313 1873.92 97.8831C1874.57 96.8994 1875.75 96.156 1876.41 95.2243C1877.06 94.2926 1878.34 92.8784 1879.06 91.5168C1879.4 90.7532 1880.44 90.6094 1880.65 89.684C1880.46 89.5975 1880.34 89.6959 1880.24 89.8039C1877.94 92.1988 1875.38 94.3217 1872.59 96.1308C1868.91 98.6273 1865.85 101.715 1862.4 104.296C1858.74 107.273 1854.92 110.049 1850.96 112.612C1848.22 114.259 1845.47 115.876 1842.76 117.563C1844.67 116 1846.78 114.731 1848.82 113.33C1851.18 111.923 1853.41 110.317 1855.5 108.53C1857.57 106.574 1859.77 104.753 1862.08 103.078C1865.75 100.238 1869.2 97.1255 1873.07 94.5074C1875.72 92.6009 1878.19 90.47 1880.46 88.1385C1881.19 87.3647 1881.86 86.5416 1882.47 85.6749C1882.28 85.4323 1882.2 85.5499 1882.12 85.6676C1880.25 87.7343 1878.07 89.4892 1875.65 90.8656C1872.01 93.2559 1868.38 95.6251 1865.16 98.437C1862.93 100.219 1860.59 101.848 1858.14 103.312C1855.97 104.723 1853.92 106.308 1852.01 108.049C1849.76 109.969 1847.3 111.564 1844.88 113.282C1841.12 115.711 1837.56 118.43 1834.22 121.413C1832.33 123.278 1830.34 125.041 1828.27 126.695C1828.03 126.892 1827.61 127.137 1827.89 127.543C1828.16 127.95 1828.52 127.832 1828.92 127.754C1829.31 127.677 1829.54 127.501 1830.01 127.66C1829.32 128.228 1828.5 128.63 1827.63 128.835C1827.5 128.871 1827.35 128.86 1827.23 128.802C1827.1 128.744 1827 128.644 1826.93 128.518C1826.8 128.241 1826.73 127.936 1826.73 127.627C1826.74 127.318 1826.82 127.015 1826.97 126.745C1827.4 125.886 1828.14 125.224 1829.04 124.894C1829.74 124.666 1830.34 124.196 1830.74 123.568C1831.98 121.73 1833.65 120.215 1835.6 119.15C1837.98 117.673 1840.05 116.052 1842.3 114.361C1844.19 112.996 1846.07 111.673 1848.03 110.337C1850.48 108.534 1852.86 106.62 1855.33 104.847C1857.79 103.075 1859.65 101.899 1861.81 100.42C1863.96 98.9415 1865.89 97.3356 1867.92 95.7779C1869.5 94.6022 1871.19 93.5999 1872.75 92.4147C1874.3 91.2295 1875.61 90.2623 1877.11 89.2776C1879.33 87.5594 1881.44 85.7071 1883.43 83.731C1883.85 83.3604 1884.05 82.7589 1884.62 82.5076C1885.2 82.2564 1885.08 82.2816 1885.31 82.4085C1885.53 82.5355 1885.45 82.8305 1885.39 83.0618C1885.32 83.8509 1885.02 84.6028 1884.54 85.2311C1884.45 85.422 1884.14 85.6112 1884.43 85.819C1884.72 86.0268 1884.93 85.7163 1885.03 85.5042C1885.79 83.9424 1886.69 82.4503 1887.71 81.045C1889.64 78.2615 1891.09 75.1838 1893.17 72.4985C1894.49 70.77 1895.92 69.1417 1897.27 67.4537C1897.42 67.1355 1897.85 66.973 1897.89 66.5548C1896.89 67.075 1895.93 67.6548 1895 68.2908C1892 70.6361 1888.64 72.4634 1885.59 74.7374L1880.07 78.9089C1879.75 79.1502 1879.5 79.4203 1878.99 79.1896C1878.49 78.9589 1877.93 78.9905 1878.46 79.8147C1878.64 80.1306 1878.29 80.1753 1878.22 80.345C1875.44 82.3585 1872.8 84.5126 1869.94 86.4144C1867.95 87.762 1866 89.1809 1864.05 90.569C1862.09 91.9571 1860.11 93.3355 1858.03 94.5406C1856.36 95.6114 1854.59 96.5234 1852.75 97.2644C1851.25 98.0137 1849.58 98.3647 1847.9 98.284C1846.96 98.1425 1846.45 97.6304 1847.02 96.7643C1848 95.0229 1849.26 93.4593 1850.76 92.1401C1851.5 91.4528 1852.21 90.7229 1852.87 89.9539C1853.97 88.9427 1855.24 88.1124 1856.4 87.1821C1858.19 85.7691 1860.03 84.3754 1861.81 82.9317C1862.52 82.3835 1863.58 82.2801 1864.34 81.5217C1867.49 79.0703 1870.89 76.9529 1874.49 75.2034C1877.79 73.1701 1881.15 71.2175 1884.49 69.2554C1885.23 68.8477 1885.99 68.4913 1886.77 68.1888C1883.49 70.5132 1879.99 72.4813 1876.51 74.459C1873.6 76.0669 1870.8 77.8626 1868.12 79.8347C1866.65 80.9372 1865.12 81.9495 1863.52 82.866C1861.06 84.3048 1859.21 86.7413 1856.69 88.3073C1853.93 90.383 1851.47 92.8186 1849.36 95.5492C1848.97 96.102 1848.62 96.6872 1848.32 97.2986C1850 97.1753 1851.64 96.7303 1853.15 95.988C1855.44 94.8717 1857.66 93.6138 1859.79 92.2219C1863.22 89.9127 1866.64 87.6556 1870.04 85.1808C1873.44 82.7059 1876.39 80.644 1879.39 78.1947C1881.87 76.1719 1884.39 74.2204 1886.99 72.3805C1888.52 71.311 1890.23 70.5264 1891.73 69.4165C1894.14 67.6462 1896.61 65.9781 1899.01 64.1983C1897.55 64.5712 1896.18 65.2407 1895 66.165C1892.82 67.7384 1890.28 68.9614 1888.06 70.6928C1883.38 74.3006 1877.94 76.7701 1873.24 80.3895C1870.64 82.1159 1867.91 83.6318 1865.07 84.9226C1863.55 85.7416 1862.08 86.6627 1860.76 87.4429C1861.39 86.5552 1862.25 85.8503 1863.24 85.3989C1864.1 84.6741 1865.09 84.123 1866.15 83.7765C1866.4 83.7357 1866.73 83.6293 1866.7 83.2555C1866.66 82.8816 1866.89 82.8312 1867.16 82.8521C1869.29 82.4551 1871.26 81.4331 1872.81 79.9158C1873.56 79.3869 1874.35 78.8983 1875.21 78.4482C1874.68 78.208 1874.49 78.5281 1874.19 78.5188C1880.13 74.873 1885.83 70.7571 1892.02 67.3731L1890.29 68.3774C1891.09 67.7171 1891.98 67.1836 1892.95 66.7958C1893.54 66.6266 1894.04 66.2288 1894.34 65.6897C1894.64 65.0321 1895.47 65.0524 1896.05 64.8532C1898.54 63.7649 1900.89 62.3729 1903.04 60.7088C1903.94 60.0698 1904.95 59.5521 1905.88 58.9535C1906.18 58.7546 1906.57 58.625 1906.65 58.0487C1902.79 60.3121 1898.55 61.6412 1894.89 64.074L1905.05 58.3705C1906.28 57.6251 1907.49 56.9221 1908.64 56.0862C1908.81 55.9858 1909.62 55.8923 1908.99 55.3014C1908.63 55.138 1909.27 54.6862 1909.56 54.5606C1911.6 53.6177 1913.52 52.4705 1915.6 51.6201C1917.48 50.8741 1919.31 49.9927 1921.06 48.9828C1921.44 48.7763 1921.76 48.4857 1922.01 48.1336C1921.83 48.0669 1921.63 48.0372 1921.44 48.0464C1921.25 48.0556 1921.06 48.1034 1920.88 48.187C1914.99 49.5626 1909.23 51.4818 1903.69 53.92C1900.47 55.377 1897.07 56.5182 1893.83 57.9656C1886.71 61.0828 1879.11 62.2385 1871.62 63.8799C1869.34 64.4251 1866.95 64.2357 1864.78 63.3387C1863.11 62.5794 1862.83 61.6623 1863.94 60.1711C1865.51 58.2406 1867.59 56.7833 1869.94 55.9605C1879.63 52.0153 1889.87 50.3418 1900.07 48.545C1904.06 47.7983 1908.03 47.2192 1912.03 46.5766C1912.13 46.567 1912.22 46.5832 1912.31 46.6237C1912.4 46.6642 1912.48 46.7275 1912.54 46.8072C1911.7 47.0164 1910.88 47.3084 1910.02 47.4559C1904.31 48.3724 1898.57 49.019 1892.94 50.3285C1887.97 51.4986 1882.86 52.2042 1878.03 53.7961C1874.26 55.0572 1870.61 56.6367 1867.12 58.5175C1866.2 58.9528 1865.39 59.6058 1864.77 60.4207C1864.62 60.6028 1864.51 60.8175 1864.46 61.0482C1864.4 61.2789 1864.39 61.5197 1864.44 61.752C1864.49 61.9844 1864.6 62.2022 1864.74 62.3889C1864.89 62.5756 1865.08 62.7262 1865.29 62.8292C1866.76 63.612 1868.46 63.8568 1870.09 63.5213C1875.03 62.7695 1879.8 61.1179 1884.78 60.4375C1887.92 59.8925 1890.96 58.8841 1893.81 57.4452C1895.64 56.494 1897.52 55.6394 1899.44 54.8848C1902.43 53.9369 1905.17 52.571 1908.1 51.573C1908.95 51.2906 1909.66 50.6692 1910.55 50.354C1909.06 50.2502 1907.57 50.3669 1906.12 50.7003C1902.68 51.3424 1899.38 52.4796 1896.04 53.4202C1891.83 54.7422 1887.5 55.6308 1883.11 56.0721C1881.46 56.1974 1879.82 56.3747 1878.16 56.3863C1879.79 55.9509 1881.47 55.7082 1883.16 55.6634C1886.18 55.5245 1889.16 54.9651 1892.02 54.0012C1893.76 53.4345 1895.51 53.0238 1897.26 52.4146C1898.87 51.7056 1900.52 51.103 1902.2 50.6106C1904 50.25 1905.68 49.6331 1907.5 49.2301C1908.64 49.0476 1909.8 48.9893 1910.95 49.0564C1913.01 48.9892 1915.06 48.6696 1917.04 48.1048C1919.09 47.6302 1921.1 47.0843 1923.16 46.6617C1924.06 46.5255 1924.89 46.1314 1925.57 45.5275C1924.44 45.4389 1923.31 45.4473 1922.18 45.5527L1922.19 45.2501C1923.45 45.1291 1924.7 44.9561 1925.98 44.8447C1928.9 44.4645 1931.8 43.8697 1934.63 43.0652L1945.68 40.402C1946.86 40.1173 1947.91 39.5456 1949.04 39.1896C1949.53 39.0252 1950.11 38.7007 1950.38 39.3364C1950.5 39.6533 1950.52 39.9988 1950.43 40.3263C1950.35 40.6538 1950.17 40.9476 1949.91 41.168C1949.43 41.6658 1949.07 41.3251 1948.72 40.9843C1948.68 40.9271 1948.63 40.8817 1948.57 40.8542C1948.51 40.8267 1948.44 40.8184 1948.38 40.8306L1948.3 41.0002C1948.53 41.3353 1949.08 41.5852 1948.84 42.0635C1948.6 42.5418 1948.11 42.6021 1947.61 42.6316C1942.58 43.0585 1937.63 44.1806 1932.91 45.966C1931.43 46.5778 1929.99 47.2731 1928.59 48.0487C1928.16 48.2659 1927.8 48.597 1927.54 49.006C1924.86 52.9024 1922.14 56.9877 1919.81 61.2248C1918.62 63.1137 1917.27 64.898 1915.78 66.5586C1913.47 69.5025 1911.14 72.4059 1908.61 75.1496L1907.8 75.9311C1907.77 75.2547 1908.44 75.0727 1908.75 74.6753C1910.3 72.6671 1911.69 70.5087 1913.32 68.591C1915.52 66.0735 1917.57 63.4341 1919.46 60.6855C1919.9 59.9739 1920.29 59.2386 1920.64 58.4831C1917.61 61.8923 1914.74 65.3476 1911.92 68.8741C1909.15 72.3548 1906 75.5164 1902.53 78.3003C1910.81 70.0839 1917.25 60.426 1924.51 51.4148C1923 52.5981 1921.66 53.9103 1920.25 55.1628C1918.19 56.9615 1916.24 58.8912 1914.27 60.8112C1910.53 64.4872 1907.45 68.7946 1903.84 72.5495C1901.44 75.3082 1899.2 78.2056 1897.14 81.2265C1896.01 82.4567 1895.3 84.0183 1895.12 85.6811C1895.1 86.0049 1894.81 86.3811 1895.21 86.6158C1895.62 86.8504 1895.79 86.5206 1896.07 86.4162C1898.96 84.8848 1901.5 82.7599 1903.52 80.1802C1904.92 78.5634 1906.44 77.1816 1907.91 75.8018ZM1870.39 114.204C1869.26 114.998 1869.42 116.325 1868.62 117.367C1866.82 119.875 1865.58 122.715 1863.88 125.292C1862.8 126.928 1862.01 128.74 1860.95 130.407C1859.35 132.907 1857.42 135.201 1856.04 137.848C1854.68 140.43 1853.14 142.909 1851.42 145.268C1849.41 148.087 1847.97 151.372 1846.23 154.242C1844.93 156.387 1843.55 158.472 1842.38 160.705C1841.85 162.239 1841.23 163.744 1840.54 165.216C1839.97 165.998 1839.71 166.968 1839.82 167.932C1839.95 169.011 1840.12 169.192 1841.12 168.904C1841.41 168.81 1841.69 168.677 1841.94 168.508C1844.92 166.465 1847.47 163.845 1849.42 160.801C1851.43 158.004 1852.63 154.738 1854.84 152.058C1855.92 150.792 1856.81 149.379 1857.48 147.861C1857.74 147.018 1858.06 146.2 1858.46 145.416C1860.52 142.309 1862.3 139.022 1863.76 135.594C1865.68 131.352 1867.46 127.042 1868.89 122.578L1869.45 120.733C1869.76 120.127 1869.98 119.47 1870.07 118.792C1868.84 120.692 1867.9 122.765 1867.28 124.943C1865.95 128.317 1864.4 131.606 1862.67 134.792C1860.79 138.733 1858.51 142.473 1855.87 145.953C1853.47 148.984 1851.6 152.432 1849.05 155.365C1848.63 155.998 1848.15 156.586 1847.61 157.118C1849.96 153.475 1852.11 150.078 1854.29 146.722C1856.48 143.366 1858.5 139.755 1860.59 136.278C1862.72 132.871 1864.47 129.239 1865.8 125.448C1867.06 121.544 1869.31 118.112 1870.39 114.204ZM1904.82 61.7976C1903.33 63.0117 1901.82 64.1429 1900.43 65.457C1898 67.9382 1895.77 70.6168 1893.78 73.4653C1891.44 76.546 1889.55 79.9847 1887.41 83.3601C1884.73 87.7762 1882.79 92.5945 1881.66 97.6292C1881.4 98.3785 1881.21 99.1497 1881.1 99.933C1880.9 102.261 1880.56 104.575 1880.08 106.861C1879.86 107.86 1879.35 108.755 1879.2 109.761C1878.95 111.209 1878.88 112.66 1878.68 114.075C1878.29 116.456 1877.73 118.759 1877.21 121.083L1876.46 124.269C1876.36 124.481 1876.26 124.715 1876.56 124.901C1876.86 125.088 1876.94 124.845 1877.09 124.735C1877.77 124.198 1878.7 123.777 1878.94 123.017C1879.48 121.444 1880.31 120.005 1880.8 118.413C1881.51 116.176 1881.24 113.956 1882.08 111.86C1882.39 111.143 1882.64 110.402 1882.83 109.643C1884.07 104.922 1885.64 100.293 1887.53 95.7894C1888.6 92.9761 1890.28 90.4416 1891.25 87.5803C1891.49 86.9813 1891.8 86.4104 1892.17 85.8773C1893.2 84.1704 1894.38 82.5308 1895.28 80.7662C1896.32 78.5467 1897.51 76.4044 1898.85 74.3555C1899.38 73.6486 1899.84 72.887 1900.21 72.0835C1901 70.389 1901.93 68.7666 1903 67.2348L1903.81 65.9426C1904.13 65.5874 1904.33 65.1431 1904.39 64.6698C1901.52 67.8926 1898.89 71.3271 1896.54 74.9441C1894.06 78.5053 1891.86 82.2552 1889.97 86.1594C1888.2 90.0624 1886.44 93.9442 1884.78 97.8953C1888.16 83.7793 1896.36 72.7414 1904.82 61.7976ZM1852.31 124.932C1850.51 125.626 1848.6 126.012 1846.88 126.87C1843.87 128.371 1840.52 128.77 1837.42 130.254C1834.83 131.238 1832.16 132.013 1829.44 132.57C1826.1 133.704 1822.68 134.625 1819.22 135.327C1814.67 135.808 1810.18 136.794 1805.85 138.266C1804.41 138.696 1803.13 139.552 1802.18 140.72C1801.4 141.824 1801.7 142.677 1803.02 142.992C1803.44 143.184 1803.86 143.376 1804.36 143.399C1807.53 144.046 1810.79 144 1813.94 143.262C1815.34 142.875 1816.8 142.59 1818.17 142.266C1819.47 142.014 1820.74 141.641 1821.97 141.152C1824.27 140.199 1826.64 139.379 1829.01 138.611C1829.87 138.338 1830.74 138.065 1831.58 137.835C1832.43 137.605 1832.76 136.987 1833.44 136.659C1837.07 134.926 1840.68 133.11 1844.29 131.346C1844.69 131.143 1845.04 130.921 1845.43 130.687C1845.82 130.454 1846.26 130.374 1846.39 129.869C1843.8 131.262 1841.09 132.413 1838.29 133.306C1835.06 134.398 1831.87 135.896 1828.79 137.337C1825.86 138.463 1822.79 139.204 1819.66 139.541C1816.88 140.044 1813.95 139.51 1811.04 139.829C1810.75 139.851 1810.39 139.969 1810.18 139.591C1813.09 139.156 1816.02 138.881 1818.97 138.765C1822.58 138.464 1826.11 137.55 1829.42 136.062L1834.73 133.713C1839.55 131.652 1844.68 130.247 1849.05 127.162C1850.19 126.505 1851.28 125.759 1852.31 124.932ZM1855.49 128.239C1853.79 129.352 1852.25 130.668 1850.87 132.157C1850.21 132.577 1849.71 133.2 1849.43 133.932C1849.32 134.398 1849.12 134.838 1848.84 135.226C1847.93 136.723 1846.89 138.142 1845.74 139.472C1845.03 140.586 1844.22 141.641 1843.34 142.628C1840.02 145.524 1837.2 148.941 1834.97 152.745C1832.62 156.282 1830.85 160.18 1829.74 164.284C1829.43 165.218 1829.26 166.195 1829.25 167.18C1829.26 167.61 1829.4 168.026 1829.66 168.374C1829.91 168.722 1830.26 168.984 1830.67 169.126C1831.39 169.453 1831.61 168.455 1831.94 167.963C1832.45 167.172 1833 166.4 1833.6 165.648C1834.64 164.465 1835.51 163.132 1836.16 161.694C1837.06 158.904 1838.24 156.207 1839.66 153.639C1841.72 150.329 1843.31 146.756 1845.46 143.485C1846.11 142.617 1846.56 141.618 1846.79 140.558C1844.27 144.406 1841.01 147.657 1838.3 151.336C1843.41 143.219 1849.78 135.878 1855.49 128.239ZM1821.65 161.487C1821.65 161.087 1821.76 160.693 1821.99 160.36C1824.46 156.72 1827.27 153.319 1830.37 150.2C1832.06 148.487 1833.85 146.893 1835.76 145.43C1838.07 143.538 1840.15 141.385 1842.3 139.343C1842.36 139.216 1842.54 139.094 1842.37 138.788C1840.71 140.081 1838.99 141.241 1837.47 142.675C1835.18 144.837 1832.93 147.038 1830.39 148.928C1826.94 151.759 1823.76 154.906 1820.89 158.328C1819.06 160.67 1817.38 163.13 1815.86 165.69C1815.48 166.248 1815.31 166.931 1815.41 167.605C1815.5 168.57 1815.96 168.803 1816.78 168.229C1817.61 167.656 1817.72 167.453 1818.2 167.081C1819.1 166.16 1819.87 165.125 1820.49 164.002C1822.9 160.903 1825.59 158.031 1828.52 155.42C1831.9 152.529 1834.96 149.285 1838.12 146.194C1839.26 145.068 1840.22 143.781 1840.98 142.374C1833.8 147.951 1827.31 154.368 1821.65 161.487ZM1924.09 50.2011C1920.34 51.9119 1916.72 53.8857 1913.26 56.1077C1911.75 56.8716 1910.55 58.137 1909.87 59.687C1909.71 59.9908 1909.49 60.2557 1909.21 60.4625C1907.67 62.0319 1906.28 63.735 1905.04 65.5518C1902.67 68.8523 1901.07 72.6241 1898.63 75.9169C1897.96 76.7529 1897.51 77.7453 1897.32 78.8018C1897.86 78.148 1898.37 77.464 1898.84 76.7531C1900.47 74.4499 1902.49 72.4759 1904.3 70.3324C1907.45 66.5635 1910.8 62.9572 1914.31 59.5275C1915.65 58.2674 1917.05 57.0361 1918.53 55.8644C1920.57 54.173 1922.43 52.2752 1924.09 50.2011ZM1823.66 147.257C1823.52 147.19 1823.37 147.154 1823.22 147.152C1823.07 147.151 1822.93 147.184 1822.79 147.249C1820.76 148.069 1818.64 148.626 1816.47 148.908C1814.45 149.069 1812.58 150.14 1810.5 150.064C1808.48 150.177 1806.47 150.484 1804.51 150.981C1804.26 151.035 1804.02 151.157 1803.84 151.333C1803.65 151.509 1803.51 151.733 1803.44 151.98C1803.21 152.489 1803.79 152.676 1804.06 152.926C1804.4 153.247 1804.84 153.446 1805.31 153.493C1808.32 153.977 1811.39 153.828 1814.33 153.054C1817.71 152.156 1820.99 150.91 1824.12 149.335C1825.71 148.544 1827.22 147.621 1828.82 146.862C1829.04 146.805 1829.24 146.702 1829.41 146.561C1829.59 146.419 1829.73 146.242 1829.83 146.042C1825.53 147.925 1820.99 149.213 1816.34 149.872C1818.67 148.73 1821.22 148.278 1823.68 147.267L1823.66 147.257ZM1928.43 46.6477C1929.23 46.6572 1930.02 46.4696 1930.73 46.1015C1933.98 43.8928 1937.88 43.6916 1941.47 42.6369C1942.85 42.3198 1944.22 41.9303 1945.56 41.4699C1944.55 41.461 1943.54 41.5519 1942.54 41.7414C1938.17 42.6302 1933.84 43.7698 1929.6 45.1546C1929.27 45.2495 1928.98 45.4468 1928.78 45.7174C1928.57 45.9881 1928.46 46.3176 1928.45 46.6573L1928.43 46.6477ZM1911.72 54.6448C1912.58 54.1118 1913.59 54.1877 1914.42 53.9265C1915.92 53.3297 1917.38 52.6511 1918.8 51.8938C1920.76 51.0473 1922.33 49.4554 1924.39 48.7514C1924.69 48.6566 1924.88 48.3884 1924.81 47.818C1920.33 49.8157 1915.99 52.1125 1911.83 54.6928L1911.72 54.6448ZM1856 125.197C1860.04 122.656 1866.56 116.331 1866.94 114.69C1863.59 118.48 1859.93 121.997 1856.02 125.207L1856 125.197ZM1834.48 142.779L1834.67 143.043C1836.17 142.704 1836.85 141.271 1838.05 140.537L1837.86 140.451L1834.48 142.779Z" fill="#FDFEFF" fill-opacity="0.16"/>
<path d="M0.404039 112.897C3.5624 112.85 6.57719 112.142 9.59199 111.481C13.7074 110.631 17.9186 109.64 21.3641 106.902C23.4218 105.251 25.7188 103.787 27.6329 101.947C28.0158 101.569 28.3507 101.191 28.6379 100.672C27.7286 100.814 26.963 101.05 26.3409 101.616C24.5224 103.268 22.4168 104.448 20.2156 105.439C18.3971 106.242 16.8179 107.658 14.8559 108.271C12.4632 109.026 10.2619 110.395 7.62998 110.159C7.53427 110.159 7.39071 110.159 7.295 110.206C5.76368 110.867 4.13664 110.914 2.46176 110.773C0.930429 110.678 -0.600893 111.386 -2.22793 110.962C-2.5629 110.867 -2.85003 111.198 -3.185 111.339C-4.52492 112 -5.86483 112.236 -7.20474 111.198C-7.77898 110.726 -8.5925 110.726 -9.31031 110.631C-10.076 110.584 -10.7938 110.348 -11.4159 109.829C-11.6073 109.64 -11.8466 109.451 -12.0858 109.357C-14.3828 108.696 -16.3448 107.28 -18.4983 106.289C-19.2639 105.958 -19.9339 105.439 -20.4124 104.731C-20.6995 104.307 -21.0824 103.929 -21.5131 103.646C-24.0493 101.947 -26.2027 99.8698 -27.7341 97.2738C-28.1648 96.5658 -28.4519 95.8106 -28.9304 95.1027C-29.8875 93.6867 -31.1317 92.4595 -31.9452 90.9019C-32.9023 89.0612 -33.333 87.0316 -33.7158 85.002C-34.2901 82.1229 -34.7686 79.1965 -34.8165 76.2702C-34.8165 73.627 -35.1514 70.9838 -34.4336 68.2935C-33.9072 66.3583 -33.1894 64.4703 -32.8066 62.488C-33.8594 64.4231 -34.5772 66.5471 -35.0079 68.7183C-35.5821 71.267 -35.7735 73.863 -35.6778 76.5062C-35.63 78.4885 -35.1036 80.4709 -35.295 82.5005C-35.7735 87.2676 -33.6201 91.4683 -32.1845 95.8106C-32.1366 95.9994 -31.9931 96.1882 -31.8495 96.3298C-29.5047 98.9258 -27.3991 101.758 -24.8628 104.259C-22.9008 106.242 -20.556 107.705 -18.3547 109.31C-17.6847 109.782 -16.9669 110.065 -16.1534 110.254C-15.1485 110.49 -14.2393 110.773 -13.3779 111.434C-12.5165 112.142 -11.2723 112.189 -10.076 112.283C-8.35323 112.425 -6.58264 112.283 -4.90775 112.755C-4.85989 112.755 -4.81204 112.802 -4.52492 112.944C-7.444 112.708 -10.1717 113.416 -12.8036 112.472C-14.8135 111.764 -16.9669 111.198 -18.8332 110.254C-21.2259 109.026 -23.5708 107.469 -25.3892 105.345C-25.9635 104.684 -26.6334 103.929 -27.3991 103.363C-28.8826 102.23 -29.9832 100.861 -30.8924 99.2562C-31.036 99.0202 -31.1796 98.737 -31.4188 98.5954C-33.5723 97.1322 -33.9072 94.7723 -34.625 92.5067C-35.2471 90.6187 -35.965 88.778 -36.3478 86.7956C-36.4435 86.0876 -36.5871 85.3324 -36.5392 84.5772C-36.3478 81.7453 -36.8742 78.9605 -36.9699 76.1286C-37.1613 71.8334 -36.4435 67.6799 -34.7208 63.7152C-33.8594 61.6856 -33.1894 59.5616 -31.8017 57.8153C-29.6482 55.1249 -27.3034 52.6233 -24.48 50.5466C-24.0015 50.169 -23.6665 49.697 -23.4751 49.1306C-23.1401 48.0922 -22.3744 47.4786 -21.3695 47.2426C-19.5032 46.8178 -17.924 45.685 -16.2013 44.9299C-13.8086 43.8443 -11.4159 43.0891 -8.78392 42.9475C-8.40109 42.9475 -8.01825 42.9003 -7.63542 42.7587C-5.29058 41.7675 -2.80218 42.1923 -0.409477 41.9091C0.978287 41.7675 2.27034 41.2483 3.70596 41.4371C4.1845 41.5315 4.66304 41.5315 5.14158 41.6259C6.0508 41.7675 6.91217 41.9563 7.91711 41.3427C9.11345 40.6347 10.6448 41.0595 11.3147 42.2867C11.9847 43.5139 13.181 43.4667 14.2338 43.7499C16.1958 44.3163 18.1578 44.6939 19.8806 45.8738C20.9334 46.629 22.2254 46.9122 23.3739 47.4786C25.2402 48.4226 26.6758 49.8858 28.2072 51.2546C30.1213 52.9537 32.3226 54.3697 33.8539 56.4937C35.9117 59.3256 37.3473 62.3936 38.1608 65.7919C38.7829 68.2935 39.07 70.8894 39.2136 73.4382C39.5964 79.7629 38.0651 85.7572 36.0552 91.7043C35.4331 93.5451 34.2368 95.1027 32.9447 96.5658C31.7484 97.9346 30.552 99.3506 29.6907 100.955C29.2121 101.805 28.3986 102.419 27.7286 103.079C25.0488 105.581 21.9862 107.563 18.8757 109.498C16.9615 110.678 14.9516 111.481 12.7025 111.764C12.224 111.811 11.6976 112.047 11.2669 112.33C10.8362 112.661 10.2619 112.85 9.6877 112.85C6.5772 112.897 3.46669 113.133 0.404039 112.897ZM11.6019 73.0606C12.5111 72.5886 13.5639 72.683 14.521 72.3526C17.4879 71.2198 20.6941 71.031 23.6132 69.8039C23.8046 69.7095 24.0439 69.7095 24.2353 69.7095C26.3409 69.6151 28.3986 69.5679 30.4563 70.0399C32.1791 70.4175 32.7533 69.8511 33.2797 68.6711C34.811 65.3199 33.6625 62.3464 32.179 59.3256C32.0355 58.9952 30.8391 58.5232 32.179 58.1928C32.3226 58.1456 32.2269 57.9568 32.1312 57.8153C31.4612 56.6825 30.6477 55.6441 29.4514 54.7001C29.5949 55.9273 29.3557 56.9657 29.4035 58.004C29.4514 58.6648 29.2121 59.3728 28.6379 59.892C28.255 60.2696 27.8722 60.6944 27.5851 61.1664C25.958 63.9984 23.1347 65.6975 20.7898 67.8687C20.1199 68.4823 19.4499 69.0487 18.6364 69.4735C16.6744 70.5591 14.5688 71.3142 12.5589 72.3054C12.2718 72.5414 11.7933 72.6358 11.6019 73.0606C10.5012 72.9662 9.63985 73.5798 8.73062 74.0518C9.83127 74.1462 10.6448 73.4854 11.6019 73.0606ZM-6.43907 86.2292C-6.1998 86.2292 -6.05624 86.0876 -5.96053 85.8988C-5.33843 84.6244 -4.71633 83.35 -4.18994 82.0757C-3.99852 81.6037 -3.7114 81.2261 -3.32857 80.9429C-3.185 80.8013 -2.89788 80.6125 -2.65861 80.8485C-2.27578 81.1789 -2.51505 81.6037 -2.61076 81.9813C-2.65861 82.2645 -2.89788 82.4061 -3.13715 82.2173C-3.7114 81.7453 -3.7114 82.2645 -3.90282 82.5477C-4.90775 83.9636 -5.29058 85.6628 -6.1041 87.126C-7.53972 89.7691 -9.07104 92.3651 -10.2674 95.1027C-11.0331 96.9434 -11.8466 98.7842 -12.6122 100.625C-13.33 102.324 -13.665 104.165 -13.1865 105.958C-12.8515 107.186 -12.1337 108.224 -10.7459 108.554C-8.54465 109.121 -6.24766 109.074 -4.04637 109.498C-1.70153 109.923 -1.60583 109.782 -1.60583 107.469C-1.60583 105.911 -1.3187 104.401 -1.27085 102.843C-1.22299 101.475 -1.17514 100.059 -0.888018 98.737C-0.0266445 95.0555 0.164769 91.3267 0.547601 87.598C0.78687 85.8516 0.691163 84.058 0.834725 82.3117C0.930432 81.6037 1.02614 81.0845 0.404038 80.5653C-0.265918 79.9989 0.0212067 78.8189 0.834725 78.4885C1.21756 78.3469 1.36112 78.1109 1.31326 77.7805C1.1697 77.0253 1.07399 76.223 0.78687 75.515C0.451894 74.6182 -0.409477 74.2406 -0.93587 74.6654C-1.55797 75.2318 -2.03651 75.8926 -2.51505 76.5534C-2.80218 76.9309 -2.41934 77.1669 -2.18007 77.3085C-1.74939 77.5445 -1.22299 77.7333 -0.792308 78.0165C-0.553039 78.1581 -0.170207 78.3469 -0.409476 78.7717C-0.600894 79.1021 -0.888019 79.0077 -1.12729 78.8661C-2.08437 78.2997 -2.65861 78.5829 -2.99359 79.6213C-3.04145 79.8101 -3.28071 79.9989 -3.42427 80.1877C-4.71633 82.0757 -5.76912 84.058 -6.43907 86.2292C-7.15688 86.89 -7.63542 87.7868 -8.06611 88.6364C-9.31031 90.8547 -10.6024 93.0259 -12.038 95.1499C-14.1436 98.2178 -16.7277 100.719 -19.886 102.749C-20.5081 103.127 -20.3646 103.268 -20.0774 103.693C-18.7375 105.581 -16.5841 106.1 -14.67 107.091C-14.0479 107.422 -14 106.95 -14.1436 106.43C-14.7657 104.023 -14.3828 101.663 -13.2822 99.4922C-11.3202 95.6219 -9.2146 91.8459 -7.15688 87.9756C-6.8219 87.4564 -6.48693 86.9372 -6.43907 86.2292ZM-11.8944 53.4729C-12.0858 52.5761 -12.4687 51.7265 -12.9472 50.9714C-13.4257 50.169 -13.5693 49.3666 -13.2343 48.4226C-12.7079 47.0066 -11.8466 45.7794 -10.8416 44.5523C-11.5594 44.4579 -12.2294 44.4579 -12.7558 44.7883C-14.3828 45.7322 -15.9142 46.9122 -17.9719 47.1954C-17.4933 48.1394 -16.8234 48.6114 -16.1534 49.0362C-14.9571 49.7914 -14 50.6882 -13.2822 51.8681C-12.8994 52.4345 -12.5165 53.0953 -11.8944 53.4729C-11.9423 54.1809 -10.9373 54.0865 -10.8895 54.7945C-10.7938 55.5497 -10.2195 56.1633 -9.741 56.7297C-8.92748 57.5321 -8.44894 58.5232 -7.92255 59.5144C-7.20474 60.8832 -6.82191 62.5352 -5.19487 63.3376C-5.00346 63.432 -4.90775 63.7624 -4.71633 63.9984C-4.14209 64.7535 -4.57277 65.7447 -3.99852 66.5471C-3.28072 67.5855 -2.80217 68.8127 -2.22793 69.9455C-2.13222 70.2287 -1.9408 70.5119 -2.37149 70.7478C-2.61076 70.8894 -2.70647 71.3614 -3.0893 71.267C-3.47213 71.1726 -3.37642 70.795 -3.47213 70.5119C-3.80711 69.4735 -4.14209 68.3879 -4.57277 67.3967C-5.62556 65.0367 -7.10903 62.9128 -8.30538 60.6C-9.26246 58.6648 -10.3631 56.8713 -11.703 55.1721C-13.1386 53.3785 -14.2871 51.349 -16.2013 49.9802C-16.8712 49.461 -17.4455 48.8474 -18.1633 48.4698C-18.8332 48.0922 -19.6946 47.9506 -20.3167 48.6114C-21.5131 49.9802 -23.3794 50.8298 -23.4751 53.0009C-23.4751 53.5673 -23.188 54.0865 -23.4272 54.6057C-23.9536 55.7857 -23.3794 56.5881 -22.5659 57.3433C-22.2787 57.6265 -22.0395 57.8625 -21.7523 58.1456C-20.2689 59.7976 -19.0725 61.7328 -17.3498 63.1488C-13.665 66.1223 -9.88456 69.0487 -6.29551 72.1638C-5.52985 72.8246 -4.76419 73.627 -3.61569 73.627C-3.23286 73.627 -2.89788 73.7686 -2.99359 74.2406C-3.0893 74.7598 -3.56784 74.7126 -3.90282 74.571C-4.09423 74.5238 -4.28565 74.335 -4.47706 74.1934C-6.39122 72.7302 -8.20967 71.2198 -10.076 69.6623C-12.6601 67.4911 -15.4835 65.5559 -17.9719 63.3376C-20.1732 61.4024 -21.8959 59.0424 -24.0493 57.0601C-24.7671 56.3993 -24.9107 55.5025 -24.5279 54.5585C-24.2886 54.0393 -24.2886 53.5201 -24.4322 52.9537C-25.0064 53.3313 -29.4568 59.3728 -29.5525 59.9392C-28.6912 59.5144 -28.3562 58.476 -27.447 58.1456C-26.1549 57.6265 -25.3414 57.7209 -24.9585 58.3344C-27.3512 58.5232 -28.739 60.364 -29.7439 62.016C-30.7967 63.7152 -31.9452 65.8863 -29.6482 67.9631C-31.4667 67.4439 -31.9452 66.3583 -31.7538 63.9512C-32.7587 66.4055 -33.5244 68.9543 -33.6201 71.6446C-33.668 73.6742 -33.5723 75.751 -33.4287 77.8277C-33.1416 81.2261 -32.7109 84.5772 -31.706 87.834C-31.0839 89.7691 -30.4139 91.6571 -28.6912 92.8843C-28.3083 93.1675 -27.9733 93.4507 -27.447 93.3563C-27.1598 93.3091 -26.777 93.2619 -26.7291 92.8371C-26.6813 92.4595 -26.9684 92.3179 -27.3034 92.2235C-27.4948 92.1763 -27.7341 92.1291 -27.8776 92.0347C-28.0691 91.9403 -28.2126 91.8459 -28.5476 91.6571C-27.3512 91.7987 -26.107 91.3267 -25.3892 92.6011C-25.2935 92.7427 -25.15 92.7427 -25.0064 92.6483C-24.5757 92.2235 -23.8579 91.7987 -23.9058 91.2323C-23.9536 90.5243 -23.5229 90.2411 -23.0922 89.9107C-19.5511 87.362 -16.1056 84.766 -12.7558 81.9813C-11.0331 80.5181 -9.26246 79.1021 -7.10903 78.0637C-5.19487 77.1197 -3.28072 76.1286 -2.08437 74.1934C-1.79724 73.7214 -1.3187 73.4382 -0.792308 73.391C-0.361625 73.3438 -0.0745004 73.1078 0.116917 72.7774C0.451894 72.1638 1.07399 71.8334 1.69609 71.6446C3.32313 71.1254 3.5624 69.7567 4.1845 68.4351C3.6581 68.4823 3.5624 68.9071 3.32313 69.0487C1.88751 69.6623 1.7918 71.8806 -0.218063 71.5502C-0.265918 71.5502 -0.31377 71.6918 -0.361625 71.7862C-0.744457 72.3998 -1.03158 72.0694 -1.3187 71.6918C-1.79724 71.1254 -1.70153 70.5119 -1.41441 69.9455C-0.64875 68.1991 -0.170207 66.3583 0.212624 64.5175C0.786869 61.5912 1.1697 58.6176 1.7918 55.6441C2.03107 54.5113 2.46175 53.4257 2.4139 52.0097C1.69609 52.9537 2.22249 54.2753 0.930432 54.7945C1.07399 53.7089 1.31326 52.7649 1.36111 51.7737C1.45683 49.6498 0.834725 47.7146 -1.07943 46.5346C-2.99359 45.3074 -5.14702 44.5523 -7.49186 44.6939C-8.54465 44.7411 -9.54958 44.9299 -10.2195 45.7794C-11.703 47.6202 -13.0429 49.5082 -11.8944 52.0569C-11.703 52.4345 -11.5116 52.7649 -11.368 53.1897C-11.1766 53.8033 -11.5116 53.7089 -11.8944 53.4729ZM1.98322 75.0902C2.22249 74.5238 2.70103 74.4766 3.13171 74.335C4.1845 73.9574 5.33299 73.9574 6.43363 73.7686C10.4055 73.0606 13.9467 71.2198 17.4879 69.4735C20.9812 67.7271 23.8046 65.0839 26.2452 62.0632C28.59 59.1368 28.4943 59.0896 28.5422 55.9745C28.5422 55.3137 28.3507 54.7945 27.9679 54.2281C27.1065 52.9537 26.0537 51.9153 24.9053 50.877C23.1825 49.3194 20.9334 49.4138 19.2106 50.9714C19.0671 51.113 18.8757 51.2546 18.7321 51.349C16.1958 52.8593 14.2338 55.0305 12.1283 57.0129C10.1662 58.8536 8.82633 61.2608 7.24715 63.3848C6.57719 64.2343 5.90724 65.1311 6.52934 66.4055C6.91217 67.2079 6.38578 67.6799 5.52441 67.5855C5.28514 67.5383 5.18943 67.6799 5.18943 67.7743C4.75875 69.4263 4.04094 71.031 4.08879 72.7774C4.08879 73.155 4.04094 73.4382 3.70596 73.6742C3.41884 73.8158 3.08386 73.863 2.84459 73.5798C2.12678 72.7774 1.40897 73.155 0.643311 73.4854C1.02614 74.099 1.6961 74.335 1.98322 75.0902ZM3.94523 76.7422C4.71089 77.8749 4.71089 79.2437 6.19437 79.5269C6.38578 79.5741 6.5772 79.9517 6.52934 80.1877C6.43363 80.8485 6.86432 81.2261 7.15144 81.6981C7.72569 82.5477 8.34779 83.3972 8.87418 84.294C9.63985 85.6156 10.3098 86.9844 11.1233 88.2588C13.0853 91.3267 14.8081 94.5363 16.483 97.793C16.8179 98.501 17.2008 99.2562 17.8229 99.7282C18.9235 100.483 20.2156 100.861 21.4598 101.191C22.8954 101.569 24.2832 101.522 25.4316 100.342C25.5752 100.2 25.7666 100.106 26.0059 100.059C28.0158 99.7282 28.4943 98.029 29.0685 96.5186C29.2121 96.1882 29.2121 95.8106 29.4514 95.4803C30.887 93.4507 30.7913 90.6659 29.3078 88.6364C28.255 87.1732 26.3887 86.7012 25.0967 85.5684C24.0917 84.6716 22.6561 84.3884 21.4598 83.7748C15.9566 80.9429 10.2141 78.5357 3.94523 76.7422ZM22.0819 82.3117C23.2304 82.3117 24.0439 82.3589 24.9053 82.3117C28.0636 82.1229 30.9827 81.4621 33.6147 79.5269C35.2896 78.2997 35.5288 74.9486 33.9018 73.391C30.552 70.1815 26.628 69.9927 22.5126 71.267C19.737 72.1638 16.8658 72.7302 13.9946 73.2966C11.5061 73.7686 9.49628 75.3734 7.00788 75.6094C6.96002 75.6094 6.86432 75.6566 6.81646 75.7038C6.14651 76.1758 6.14651 76.6006 6.91217 76.9781C7.9171 77.4501 8.96989 77.8277 10.0227 78.2525C12.0804 79.1021 14.2338 79.6685 16.1958 80.7541C18.1578 81.7453 20.0242 82.7837 22.0819 82.3117ZM-9.69314 90.5243C-9.93241 90.0523 -10.8895 90.5243 -10.6981 89.8635C-10.5545 89.25 -9.88456 88.2588 -9.50173 88.4476C-8.64036 88.8724 -8.54465 88.2588 -8.25752 87.8812C-6.1998 85.238 -5.24272 82.0285 -3.42427 79.2437C-3.28071 79.0077 -3.18501 78.6773 -3.0893 78.3941C-2.94574 77.7805 -3.61569 76.9309 -4.04637 77.1669C-6.05624 78.2053 -8.11396 79.2437 -9.98027 80.5653C-13.4257 82.9725 -16.7755 85.5684 -20.0774 88.1644C-20.9388 88.8252 -21.8959 89.4387 -22.0395 90.7131C-22.0395 90.9019 -22.2787 91.0435 -22.4223 91.1851C-23.6665 92.6011 -24.9585 93.9699 -25.3414 95.9522C-25.7242 97.9346 -25.4371 99.0202 -23.7622 100.153C-23.2837 100.483 -22.9487 100.908 -22.6137 101.333C-22.1352 101.947 -21.4652 102.183 -20.6517 102.088C-19.0725 101.852 -17.8283 101.003 -16.6798 100.011C-14.9092 98.501 -13.665 96.5658 -12.3251 94.7723C-11.3202 93.3563 -10.3152 92.0347 -9.69314 90.5243ZM2.60532 77.6389C2.89245 79.0549 1.83965 80.0933 2.03107 81.6509C2.36605 84.1996 3.08386 86.6068 3.80167 89.0612C4.85446 92.6483 5.76368 96.2354 6.86432 99.7754C7.67783 102.371 8.20423 105.062 10.5012 106.997C11.6976 108.035 12.9896 107.705 14.1381 107.327C15.0952 106.997 15.813 106.1 15.7652 104.92C15.7173 104.259 15.7652 103.646 15.7652 102.891C16.7701 103.599 16.483 104.495 16.5308 105.298C16.5787 105.628 16.4351 106.053 16.8179 106.194C17.1051 106.336 17.3922 106.006 17.6315 105.864C18.0143 105.628 18.1578 105.345 18.2536 104.873C18.445 104.023 18.2057 103.174 17.9186 102.466C16.6744 99.209 14.9995 96.141 13.3246 93.0731C11.889 90.5243 10.3577 88.0228 8.82633 85.474C7.10359 82.5949 5.33299 79.8101 2.60532 77.6389ZM11.219 44.8355C11.3147 44.3635 11.1233 44.0803 10.6926 43.9859C9.6877 43.6555 8.63491 43.3723 7.58213 43.0891C7.00788 42.9475 6.57719 43.2307 6.24221 43.6555C5.71582 44.5051 5.14158 45.2602 4.75875 46.157C3.27527 49.4138 3.036 53.0009 2.07892 56.3993C1.50468 58.4288 1.26541 60.5056 0.978287 62.5824C0.691163 64.8007 0.116917 66.9247 -0.553039 69.0959C-0.744453 69.7095 -1.223 70.6062 -0.457332 70.9838C0.164769 71.267 0.882577 70.6534 1.40897 70.1815C4.56733 67.3023 6.57719 63.7152 7.91711 59.7504C8.58706 57.7681 8.82633 55.6441 9.35272 53.6145C10.0705 50.6882 10.884 47.809 11.219 44.8355ZM0.26048 105.345C0.978288 106.006 1.36112 106.666 2.07892 106.902C2.94029 107.186 3.75381 107.563 4.61518 107.846C5.28514 108.082 6.19436 108.413 6.5772 107.846C7.10359 107.091 7.58213 106.194 7.43857 105.156C7.1993 103.079 6.24222 101.191 5.76368 99.209C5.33299 97.4626 5.09372 95.669 4.32806 94.0171C3.5624 92.2235 3.32312 90.3355 2.84459 88.4476C2.4139 86.7012 1.98322 85.002 1.55253 83.2556C1.31326 86.0876 1.07399 88.9196 0.691163 91.7043C0.164769 96.0466 -0.218062 100.436 -0.600894 104.826C-0.648749 105.534 -0.840163 106.43 -0.505187 106.95C0.116914 107.894 -0.265917 108.507 -0.6966 109.262C-0.840163 109.451 -1.03158 109.64 -0.93587 109.923C-0.792307 110.254 -0.457331 110.159 -0.170207 110.112C0.834726 110.018 1.88751 109.687 2.84459 109.782C5.38085 110.065 7.67784 109.026 10.1662 108.932C10.3577 108.932 10.5491 108.885 10.5969 108.696C10.6448 108.46 10.4534 108.413 10.3098 108.318C9.6877 107.846 9.0656 107.374 8.39564 106.902C7.96496 108.649 6.86432 109.451 5.38085 109.168C3.94523 108.885 2.60532 108.271 1.31326 107.563C0.595453 107.186 0.404043 106.383 0.26048 105.345ZM8.29993 60.7888C8.39565 60.836 8.49135 60.8832 8.53921 60.9304C8.63491 60.7888 8.73062 60.6472 8.82633 60.5056C11.1712 56.6353 14.6167 53.6617 17.8229 50.5466C18.9714 49.4138 20.1677 48.517 21.9383 48.6586C22.034 48.6586 22.1297 48.5642 22.2733 48.517C21.5555 47.8562 20.6941 47.7618 19.9284 47.3842C17.6793 46.2042 15.4302 44.9771 12.8461 44.5523C12.0804 44.4107 11.7454 44.6939 11.6019 45.4018C11.3147 46.7234 11.3626 48.0922 10.9319 49.3666C9.6877 53.0953 9.54414 57.0601 8.29993 60.7888ZM31.9876 96.141C36.3423 91.3267 37.1559 85.2852 38.0172 79.3381C38.9265 73.2494 38.1129 67.3495 35.5767 61.7328C35.481 61.9688 35.5288 62.1576 35.5767 62.3464C35.8638 63.9984 36.438 65.6031 36.4859 67.3023C36.5816 70.1815 36.4859 73.1078 36.5816 75.987C36.6295 77.4029 35.8638 78.5829 35.6724 79.9517C35.0981 83.9636 33.9975 87.834 32.7054 91.6571C32.2269 93.0731 32.514 94.6307 31.9876 96.141ZM20.742 82.6893C20.742 82.7365 20.742 82.7837 20.6941 82.8781C21.0291 83.0196 21.3641 83.2084 21.7469 83.35C24.9531 84.6244 27.8243 86.3708 30.4085 88.6364C31.0784 89.25 31.222 90.0995 31.8441 90.9491C32.6576 87.4564 33.8061 84.1996 34.2368 80.7069C32.9447 81.4149 31.7962 82.0285 30.552 82.6893C30.9348 82.8781 31.1263 82.9724 31.3655 83.0668C31.6527 83.2084 31.9876 83.35 31.8441 83.7276C31.6527 84.1524 31.222 84.1524 30.9827 83.9636C29.5949 83.0669 28.0636 83.0669 26.4844 82.9725C24.5703 82.8781 22.6561 82.7837 20.742 82.6893ZM-5.62556 43.5611C-0.935871 44.5051 2.27034 46.629 2.46175 51.6793C2.60532 51.4434 2.65317 51.349 2.70103 51.2074C3.17957 48.517 3.80166 45.8266 5.23728 43.4195C5.47655 42.9947 5.38084 42.7587 4.90231 42.6643C3.94523 42.5227 3.08386 42.3811 2.12678 42.5699C0.308331 42.9003 -1.46226 43.2307 -3.28072 43.0419C-3.99852 42.9947 -4.76419 42.9475 -5.62556 43.5611ZM18.1578 100.625C18.78 102.041 19.3063 103.221 19.4978 104.448C19.5456 104.779 19.8806 104.637 20.0242 104.543C21.0769 103.976 22.1297 103.363 23.3739 102.655C21.5076 102.088 19.9763 101.569 18.1578 100.625ZM35.2896 67.0191C35.1938 67.0191 35.0981 66.9719 34.9546 66.9719C34.3325 68.3407 34.4282 70.1343 32.5619 70.7478C33.3275 71.4086 33.9496 71.9278 34.5717 72.447C34.9546 72.7774 35.2896 72.7774 35.2896 72.1638C35.2896 70.4175 35.2896 68.7183 35.2896 67.0191ZM-26.4899 96.8018C-26.3942 96.2354 -26.2506 95.7163 -26.2028 95.2443C-26.1549 95.0083 -26.0592 94.4891 -26.5856 94.6307C-26.9684 94.7251 -27.6384 94.6307 -27.4948 95.3387C-27.3512 95.905 -27.112 96.4242 -26.4899 96.8018ZM-7.01332 110.159C-6.05624 110.914 -5.24272 111.056 -4.14208 110.631C-5.14702 110.442 -5.91268 110.065 -7.01332 110.159ZM4.85445 74.6654C4.28021 74.8542 3.84952 74.9958 3.37098 75.0902C2.9403 75.1846 3.036 75.4678 3.17957 75.7038C3.32313 75.8926 3.51455 76.1758 3.80167 75.7982C4.04094 75.4206 4.66304 75.3734 4.85445 74.6654ZM-30.5096 58.3816C-31.2274 59.2312 -31.9931 60.0808 -32.3281 61.4496C-31.371 60.4584 -30.8924 59.42 -30.5096 58.3816Z" fill="#FDFEFF" fill-opacity="0.16"/>
<path d="M13.8498 68.6698C13.802 68.953 13.6106 69.0002 13.4191 69.1418C12.1271 69.9441 10.9786 70.9353 9.83009 71.9737C9.68653 72.1153 9.44726 72.4929 9.16014 72.1625C9.01658 71.9265 8.92087 71.5961 9.25584 71.3129C10.5 70.2273 11.9357 69.4721 13.2756 68.5282C13.467 68.4338 13.7063 68.3866 13.8498 68.6698Z" fill="#FDFEFF" fill-opacity="0.16"/>
<path d="M17.8216 63.6677C17.8695 64.2341 16.2424 66.1693 15.716 66.2637C15.4289 66.3109 15.2375 66.1693 15.1418 65.9333C15.0461 65.6973 15.0461 65.5085 15.2853 65.4141C16.051 64.9893 16.4338 64.2341 16.9124 63.5733C17.1038 63.3373 17.3431 63.2429 17.6302 63.2901C17.8216 63.2901 17.7737 63.4789 17.8216 63.6677Z" fill="#FDFEFF" fill-opacity="0.16"/>
<path d="M9.35145 69.1896C10.0693 68.1041 11.0742 67.4905 11.3135 66.3577C11.4092 66.0273 11.6963 66.0273 11.9834 66.1217C12.3184 66.2633 12.2227 66.4993 12.127 66.7353C11.6006 67.8209 10.7871 68.7177 9.35145 69.1896Z" fill="#FDFEFF" fill-opacity="0.16"/>
<path d="M11.3614 60.7884C11.4092 61.3076 10.2129 62.2988 9.68649 62.1572C9.63863 62.1572 9.54292 62.11 9.49507 62.0628C9.35151 61.9684 9.49507 61.7796 9.54293 61.6852C9.83005 61.1188 10.0215 60.4108 10.6914 60.1748C10.9785 60.0804 11.0742 60.4108 11.2178 60.5996C11.3135 60.6468 11.3614 60.7412 11.3614 60.7884Z" fill="#FDFEFF" fill-opacity="0.16"/>
<path d="M17.1039 92.8844C17.1039 93.1676 17.2474 93.5924 16.8168 93.6396C16.4339 93.6868 16.4339 93.3564 16.3382 93.0732C15.9554 92.2236 15.3333 91.5156 14.8069 90.7604C14.7112 90.6188 14.4719 90.43 14.6633 90.2412C14.759 90.1468 14.9983 90.0996 15.1419 90.0996C15.8597 90.2884 17.1039 92.082 17.1039 92.8844Z" fill="#FDFEFF" fill-opacity="0.16"/>
<path d="M19.4965 90.4299C19.4965 90.6659 19.4487 90.8547 19.2094 90.9491C18.9701 91.0435 18.7787 90.9963 18.6351 90.8075C18.1087 90.0996 17.5345 89.3916 17.0081 88.6364C16.9124 88.4948 16.8167 88.2116 17.0081 88.07C17.1038 87.9756 17.2474 87.9756 17.3909 87.9756C17.7738 88.0228 19.4965 90.0524 19.4965 90.4299Z" fill="#FDFEFF" fill-opacity="0.16"/>
<path d="M12.462 82.7832C12.8448 82.972 13.2276 83.1608 13.5626 83.3968C13.8497 83.5856 14.1368 83.8216 14.089 84.1992C14.089 84.388 13.9933 84.5768 13.8019 84.5768C13.4669 84.5768 13.2755 84.2936 13.0841 84.0576C12.8448 83.7272 12.5577 83.4912 12.3184 83.208C12.0791 82.972 12.3184 82.8776 12.462 82.7832Z" fill="#FDFEFF" fill-opacity="0.16"/>
<path d="M25.1912 93.1666C24.2819 92.789 23.8034 92.4114 23.612 91.6562C24.5691 91.6562 24.7126 92.3642 25.1912 93.1666Z" fill="#FDFEFF" fill-opacity="0.16"/>
<path d="M15.4768 77.2611C14.6154 77.0723 13.8019 77.0723 13.1319 76.5531C12.9884 76.4115 12.7491 76.3171 12.8927 76.0339C12.9884 75.8451 13.1798 75.8923 13.3712 75.8923C14.2804 76.0811 15.1897 76.2227 16.1467 75.8923C16.4817 75.7507 16.7688 76.0339 16.5296 76.4587C16.2903 76.9307 15.9075 77.2139 15.4768 77.2611Z" fill="#FDFEFF" fill-opacity="0.16"/>
<path d="M21.4108 76.1276C21.0758 76.0804 20.7408 76.0804 20.4537 75.8444C20.2623 75.6556 20.0708 75.4668 20.1666 75.2308C20.2623 74.9948 20.5015 75.042 20.6929 75.042C20.9801 75.042 21.2193 75.1364 21.5065 74.9948C22.1286 74.6644 22.5114 74.9948 22.5593 75.514C22.655 76.0804 22.1286 76.0804 21.6979 76.1276C21.65 76.1276 21.5543 76.1276 21.4108 76.1276Z" fill="#FDFEFF" fill-opacity="0.16"/>
<path d="M11.6484 97.7927C11.6006 98.1703 11.5527 98.6894 11.0742 98.6894C10.4521 98.7366 10.6435 98.2175 10.5956 97.7927C10.5478 97.1791 10.4042 96.5655 9.92568 96.1407C9.78211 96.0463 9.63855 95.8575 9.78212 95.7159C9.82997 95.6215 10.0692 95.6215 10.1649 95.6687C10.5956 95.8103 11.6484 97.2263 11.6484 97.7927Z" fill="#FDFEFF" fill-opacity="0.16"/>
<path d="M4.61401 53.001C3.94405 53.0954 3.8005 52.6706 3.8005 52.293C3.8005 51.6322 4.47045 51.821 4.80543 51.6794C5.09255 51.585 5.57109 51.6794 5.52324 52.1514C5.47538 52.765 4.94899 52.9066 4.61401 53.001Z" fill="#FDFEFF" fill-opacity="0.16"/>
<path d="M4.03971 99.1621C4.75751 99.3037 4.90108 99.8701 5.14034 100.436C5.28391 100.767 5.42746 101.239 4.80537 101.286C4.42254 101.286 3.84829 101.333 3.84829 100.672C3.84829 100.2 3.75258 99.6813 4.03971 99.1621Z" fill="#FDFEFF" fill-opacity="0.16"/>
<g clip-path="url(#clip0_425_85508)">
<path fill-rule="evenodd" clip-rule="evenodd" d="M1792.28 402.025C1793.99 403.738 1796.28 403.82 1798.14 405.125C1800.64 409.387 1799.17 412.29 1798.21 415.369C1801.45 417.131 1805.4 421.186 1805.95 425.677C1806.49 430.122 1800.82 432.318 1798.8 435.643C1797.32 435.731 1796.25 436.248 1795.27 437.357C1791.99 436.268 1788.82 434.879 1785.69 433.355C1782.15 424.435 1786.08 413.579 1796.91 414.922C1797.31 412.383 1797.55 409.788 1797.46 407.081C1795.61 405.05 1793.28 404.376 1790.71 404.41C1790.45 405.506 1791.26 405.785 1791.76 407.687C1790.12 408.709 1790.17 410.308 1788.64 411.367C1787.71 408.798 1785.99 408.484 1784.99 406.106C1786.5 405.619 1787.77 406.873 1786.33 404.373C1787.53 403.702 1788.12 404.833 1788.72 405.919C1789.94 405.484 1788.24 404.053 1789.84 403.749C1784.17 400.623 1777.71 409.351 1780.91 415.662C1781.65 413.724 1781.38 411.443 1781.66 409.347C1784.21 411.693 1780.37 416.511 1782.4 418.725C1784.21 416.788 1782.8 413.752 1784.47 411.768C1786.58 413.856 1786.71 418.525 1783.49 418.734C1784.39 420.213 1785.23 419.221 1785.21 421.146C1783.46 421.277 1782.43 419.343 1780.64 419.582C1777.13 423.631 1770.65 424.703 1766.78 423.608C1765.7 420.439 1763.46 420.557 1762.04 418.338C1760.74 411.444 1764.8 402.887 1773.67 401.871C1771.42 389.302 1796.39 389.137 1792.28 402.025ZM1771.59 408.828C1770.75 407.05 1769.83 405.517 1768.36 405.532C1768.13 407.019 1770.21 408.78 1771.59 408.828C1771.38 409.362 1771.92 410.156 1771.35 410.569C1770.39 410.879 1770.14 409.152 1769.18 409.462C1768.66 409.757 1768.59 408.957 1769.18 409.462C1768.43 411.017 1772.97 411.791 1771.09 413.401C1769.02 412.693 1767.63 410.057 1765.68 408.997C1763.59 410.305 1763.51 415.935 1765.36 416.186C1765.29 415.432 1763.74 414.175 1764.73 413.784C1766.5 414.616 1768.69 418.829 1769.02 420.358C1771.41 419.106 1765.63 415.062 1768.02 413.811C1769.01 415.154 1769.42 418.154 1770.8 418.411C1771.81 417.13 1772.17 412.719 1774.15 414.08C1774.27 416.678 1770.7 418.01 1771.42 420.813C1770.08 420.675 1769.9 420.201 1769.66 421.671C1768.7 421.254 1768.19 419.588 1767.06 419.688C1767.58 420.718 1766.93 421.348 1767.89 422.528C1771.38 422.638 1776.71 421.983 1780.21 418.707C1778.65 416.896 1778.96 413.384 1777.92 410.624C1778.46 408.24 1782.45 405.131 1781.53 403.462C1781.68 404.062 1780.86 404.328 1780.64 403.89C1779.97 401.714 1780.06 399.799 1781.16 398.228C1782.31 399.836 1780.86 400.541 1781.98 402.158C1781.47 402.744 1782.28 402.669 1781.98 402.158C1782.13 402.086 1782.28 402.015 1782.42 401.943C1782.19 400.77 1782.02 399.615 1783.12 398.898C1784.51 400.499 1782.63 402.835 1784.16 403.265C1784.98 399.958 1788.69 401.605 1790.76 401.141C1792.13 390.128 1773.07 392.649 1774.97 402.318C1776.11 402.191 1776.54 404.101 1777.8 403.649C1778.01 401.407 1776.58 398.608 1778.34 396.897C1779.68 400.795 1777.54 403.665 1779.29 406.712C1776.7 405.492 1772.11 400.913 1769.89 405.327C1770.86 405.017 1771.33 406.092 1772.29 405.782C1771.72 404.979 1771.72 404.37 1772.54 404.041C1773.18 406.389 1775.68 407.227 1774.44 409.069C1773.21 409.214 1772.9 410.065 1771.59 408.828ZM1767.23 407.702C1768.67 410.293 1767.29 405.623 1767.23 407.702V407.702ZM1763.58 418.133C1763.3 418.04 1764.01 418.282 1763.58 418.133V418.133ZM1764.44 418.794C1764.17 418.701 1764.88 418.943 1764.44 418.794V418.794ZM1766.19 419.027C1765.87 417.062 1767.55 420.509 1766.19 419.027V419.027ZM1790.01 407.455C1789.69 405.491 1791.36 408.937 1790.01 407.455V407.455ZM1788.46 408.75C1788.18 408.657 1788.89 408.899 1788.46 408.75V408.75ZM1789.28 427.282C1790.01 428.505 1788.95 429.114 1789.68 430.337C1789.17 430.923 1789.97 430.848 1789.68 430.337C1790.18 429.914 1790 429.231 1790.57 428.818C1791.76 430.563 1790.01 431.302 1790.95 432.963C1792.88 432.161 1790.4 429.852 1792.32 429.051C1794.05 431.254 1790.53 434.612 1793.55 434.946C1799.27 435.865 1800.73 429.157 1802.44 426.301C1802.61 427.12 1801.32 429.28 1802.83 429.356C1805.5 425.083 1798.8 412.695 1794.24 417.298C1795.3 417.415 1795.7 419.408 1796.62 419.933C1795.22 421.038 1795.43 422.693 1793.5 423.612C1792.27 422.249 1790.71 421.809 1789.61 420.093C1790.65 419.202 1790.91 420.539 1791.8 420.111C1791.35 418.636 1789.88 418.833 1791.17 417.708C1792.06 417.616 1792.55 418.664 1793.35 418.816C1793.81 420.845 1794.71 418.264 1793.35 418.816C1792.99 418.086 1792.64 417.357 1792.28 416.628C1786.62 417.779 1784.66 427.344 1787.46 432.498C1788.91 431.048 1787.75 428.704 1789.28 427.282ZM1792.66 420.772C1793.12 422.801 1794.03 420.22 1792.66 420.772C1792.16 421.085 1792.1 420.277 1792.66 420.772ZM1789.43 432.078C1789.13 432.339 1788.58 432.516 1788.76 432.944C1789.07 432.684 1789.65 432.516 1789.43 432.078ZM1801.72 430.437C1801.45 430.343 1802.15 430.585 1801.72 430.437V430.437Z" fill="#FDFEFF" fill-opacity="0.16"/>
<path fill-rule="evenodd" clip-rule="evenodd" d="M1783.86 408.276C1786.05 407.958 1787.44 409.895 1788.62 412.457C1786.02 412.299 1784.88 409.629 1783.86 408.276Z" fill="#FDFEFF" fill-opacity="0.16"/>
<path fill-rule="evenodd" clip-rule="evenodd" d="M1774.77 416.483C1775.01 418.147 1774.79 419.653 1772.96 420.609C1771.98 418.694 1773.92 417.775 1774.77 416.483Z" fill="#FDFEFF" fill-opacity="0.16"/>
<path fill-rule="evenodd" clip-rule="evenodd" d="M1793.28 408.572C1793 410.059 1793.92 411.955 1792.12 412.921C1791.71 411.201 1791.8 409.649 1793.28 408.572Z" fill="#FDFEFF" fill-opacity="0.16"/>
<path fill-rule="evenodd" clip-rule="evenodd" d="M1759.88 462.127C1756.36 461.017 1752.31 461.429 1750.33 455.946C1747.75 455.307 1744.55 456.433 1742.01 455.659C1732.25 445.479 1746.45 426.136 1756.92 439.218C1770.79 437.145 1774.35 457.098 1759.88 462.127ZM1744.39 442.602C1744.54 442.53 1744.69 442.459 1744.83 442.387C1745 441.835 1744.83 441.17 1744.42 440.422C1745 439.646 1744.49 438.498 1744.68 437.591C1742.69 437.883 1743.88 439.265 1744.42 440.422C1744.28 440.494 1744.13 440.565 1743.98 440.637C1743.85 441.199 1744.01 441.863 1744.39 442.602C1744.24 442.673 1744.1 442.744 1743.95 442.816C1742.52 441.732 1743.25 440.767 1743.34 439.324C1739.99 442.193 1740.31 446.318 1741.21 450.639C1741.79 448.801 1742.01 446.959 1744.31 448.05C1744.12 447.131 1742.42 445.7 1744.13 445.433C1744.65 447.435 1746 447.074 1746.72 448.505C1745.82 449.524 1744.26 447.377 1744.3 449.139C1745.49 448.877 1746.08 450.325 1746.9 451.122C1745.1 451.725 1746.22 453.323 1743.79 453.712C1742.82 453.014 1742.33 450.93 1740.98 451.291C1741.42 455.181 1746.04 454.512 1749.04 454.409C1746.82 449.378 1750.06 443.43 1754.95 439.638C1752.5 436.185 1749.13 435.34 1744.91 436.939C1746.59 438.987 1744.61 441.686 1746.58 442.62C1746.23 440.919 1746.32 439.367 1746.43 437.824C1747.91 438.481 1749.79 440.521 1748.98 443.076C1747.09 442.397 1748.74 444.545 1747.2 445.022C1746.46 442.001 1745.94 444.894 1744.59 444.129C1744.66 443.666 1744.7 443.194 1744.39 442.602ZM1750.39 451.587C1749.33 452.759 1752.01 453.689 1750.39 451.587C1751.69 449.31 1750.94 453.326 1752.13 452.909C1752.49 451.695 1751.33 449.96 1753.06 449.212C1753.49 449.969 1752.97 450.401 1753.46 451.177C1752.19 451.911 1754.77 452.795 1753.46 451.177C1753.94 450.854 1754.3 450.884 1754.56 451.186C1755.45 454.045 1754.49 456.271 1755.1 459.036C1756.66 457.015 1754.85 453.84 1755.87 451.633C1757.94 455.019 1755.83 456.972 1757.28 460.144C1761.01 461.238 1763.71 457.155 1766.77 454.992C1774.78 440.956 1748.97 434.812 1750.18 451.15C1750.25 451.295 1750.32 451.441 1750.39 451.587ZM1752.09 455.088C1751.9 454.551 1752.41 453.72 1751.46 453.775C1751.66 454.331 1751.17 455.153 1752.09 455.088ZM1753.61 455.973C1753.49 455.4 1754.59 453.447 1752.99 453.57C1753.33 454.218 1752.23 456.17 1753.61 455.973ZM1753.16 457.277C1752.84 455.313 1754.51 458.759 1753.16 457.277V457.277Z" fill="#FDFEFF" fill-opacity="0.16"/>
<path fill-rule="evenodd" clip-rule="evenodd" d="M1825.94 420.83C1808.5 413.257 1830.85 389.141 1838.83 408.078C1838.85 414.017 1831.78 420.088 1825.94 420.83ZM1828.19 401.887C1822.48 404.728 1817.47 412.232 1823.39 415.578C1824.33 413.588 1823.99 411.161 1825.89 409.496C1826.41 412.352 1825.08 414.575 1824.03 416.891C1829.49 422.24 1831.35 415.699 1833.08 411.953C1834.28 413.126 1831.09 415.76 1833.47 415.008C1835.19 412.797 1837.65 410.838 1837.08 407.846C1834.7 404.248 1831.48 402.968 1828.19 401.887Z" fill="#FDFEFF" fill-opacity="0.16"/>
<path fill-rule="evenodd" clip-rule="evenodd" d="M1749.7 438.941C1751.16 438.681 1750.13 440.47 1750.76 441.129C1749.68 441.52 1749.59 439.331 1749.7 438.941Z" fill="#FDFEFF" fill-opacity="0.16"/>
<path fill-rule="evenodd" clip-rule="evenodd" d="M1743.95 442.817C1744.16 443.254 1743.45 443.739 1743.07 443.245C1743.36 443.102 1743.66 442.959 1743.95 442.817Z" fill="#FDFEFF" fill-opacity="0.16"/>
<path fill-rule="evenodd" clip-rule="evenodd" d="M1788.27 421.825C1790.69 421.164 1791.88 424.034 1793.69 425.139C1791.44 428.172 1789.18 424.738 1787.37 423.343C1788.35 423.07 1788.71 422.6 1788.27 421.825Z" fill="#FDFEFF" fill-opacity="0.16"/>
<path fill-rule="evenodd" clip-rule="evenodd" d="M1831.2 405.836C1831.34 406.128 1831.48 406.42 1831.62 406.711C1832.14 406.325 1831.66 405.631 1831.2 405.836C1830.91 405.253 1830.63 404.669 1830.35 404.085C1832.09 403.283 1832.64 405.903 1833.81 406.73C1833.15 407.369 1831.35 406.346 1831.61 407.801C1830.16 407.916 1828.28 405.494 1828.6 403.853C1829.85 403.446 1830.09 405.9 1831.2 405.836Z" fill="#FDFEFF" fill-opacity="0.16"/>
<path fill-rule="evenodd" clip-rule="evenodd" d="M1822.85 407.727C1823.33 407.404 1823.68 407.435 1823.94 407.736C1824.64 409.922 1824.03 411.66 1822.12 412.952C1821.73 410.996 1822.79 409.534 1822.85 407.727Z" fill="#FDFEFF" fill-opacity="0.16"/>
<path fill-rule="evenodd" clip-rule="evenodd" d="M1825.71 406.88C1827.04 406.21 1827.87 406.98 1828.99 406.908C1829.38 408.591 1830.47 408.264 1830.92 409.757C1827.72 409.939 1827.62 413.525 1827.33 415.83C1829.12 416.062 1827.21 411.896 1830.02 411.275C1830.44 413.485 1828.86 415.016 1829.06 417.152C1828.07 416.844 1826.89 417.079 1825.78 417.124C1825.87 414.601 1826.04 412.105 1827.85 410.167C1826.87 409.878 1826.38 408.13 1825.71 406.88Z" fill="#FDFEFF" fill-opacity="0.16"/>
<path fill-rule="evenodd" clip-rule="evenodd" d="M1787.31 427.702C1786.01 426.102 1788.59 426.986 1787.31 427.702V427.702Z" fill="#FDFEFF" fill-opacity="0.16"/>
<path fill-rule="evenodd" clip-rule="evenodd" d="M1756.58 447.498C1755.07 448.394 1754.55 446.346 1753.09 447.033C1753.72 445.304 1754.25 443.538 1756.22 442.264C1756.98 443.742 1755.7 444.521 1755.08 445.524C1756.07 446.622 1755.91 444.423 1757.28 444.453C1757.46 445.607 1756.08 446.232 1756.58 447.498Z" fill="#FDFEFF" fill-opacity="0.16"/>
<path fill-rule="evenodd" clip-rule="evenodd" d="M1787.31 427.702C1786.81 428.279 1787.62 428.204 1787.31 427.702V427.702Z" fill="#FDFEFF" fill-opacity="0.16"/>
<path fill-rule="evenodd" clip-rule="evenodd" d="M1789.28 427.282C1788.99 426.771 1789.8 426.714 1789.28 427.282V427.282Z" fill="#FDFEFF" fill-opacity="0.16"/>
<path fill-rule="evenodd" clip-rule="evenodd" d="M1797.65 424.301C1797.15 424.878 1797.96 424.803 1797.65 424.301C1798.53 423.872 1797.64 422.839 1798.99 422.568C1800.19 425.275 1800.29 426.984 1800.41 429.99C1799.23 430.562 1798.78 429.069 1797.57 429.749C1797.26 429.156 1797.3 428.684 1797.37 428.222C1796.36 427.114 1797.21 429.564 1795.82 429.516C1796.46 427.424 1795.17 424.671 1797.01 422.988C1797.22 423.426 1797.43 423.863 1797.65 424.301ZM1797.4 426.042C1797.13 425.949 1797.84 426.191 1797.4 426.042V426.042ZM1796.95 427.346C1796.67 427.253 1797.38 427.495 1796.95 427.346V427.346ZM1798.25 427.793C1797.93 425.829 1799.61 429.275 1798.25 427.793V427.793Z" fill="#FDFEFF" fill-opacity="0.16"/>
<path fill-rule="evenodd" clip-rule="evenodd" d="M1790.57 428.818C1790.28 428.307 1791.09 428.251 1790.57 428.818V428.818Z" fill="#FDFEFF" fill-opacity="0.16"/>
<path fill-rule="evenodd" clip-rule="evenodd" d="M1759.85 448.615C1759.36 449.193 1760.16 449.117 1759.85 448.615C1761.01 448.28 1760.42 447.349 1761.84 447.106C1761.5 448.084 1761.95 449.332 1761.14 450.152C1759.17 450.571 1757.4 450.393 1756.58 447.499C1757.91 446.81 1758.1 444.778 1759.9 445.347C1760.56 446.669 1759.81 447.507 1759.85 448.615Z" fill="#FDFEFF" fill-opacity="0.16"/>
<path fill-rule="evenodd" clip-rule="evenodd" d="M1793.55 434.946C1793.04 433.889 1793.3 431.257 1794.25 431.901C1794.97 433.287 1795.1 435.431 1793.55 434.946Z" fill="#FDFEFF" fill-opacity="0.16"/>
<path fill-rule="evenodd" clip-rule="evenodd" d="M1759.1 454.929C1758.61 455.506 1759.42 455.431 1759.1 454.929C1759.94 454.364 1759.42 453.333 1759.58 452.536C1760.33 452.442 1761 452.656 1761.77 452.554C1762.26 453.33 1761.74 453.761 1762.17 454.519C1763.39 454.084 1761.7 452.653 1763.3 452.349C1764.58 453.758 1762.8 454.124 1763.69 455.403C1761.45 457.037 1760.95 457.051 1760.58 459.082C1759.61 459.056 1758.78 458.65 1757.73 458.841C1757.6 456.606 1757.41 454.352 1757.83 452.303C1759.43 452.198 1758.09 454.049 1759.1 454.929ZM1759.07 457.108C1758.8 457.015 1759.51 457.257 1759.07 457.108V457.108ZM1760.4 456.465C1760.12 456.372 1760.83 456.614 1760.4 456.465V456.465ZM1762.16 455.608C1761.89 455.515 1762.6 455.757 1762.16 455.608V455.608Z" fill="#FDFEFF" fill-opacity="0.16"/>
<path fill-rule="evenodd" clip-rule="evenodd" d="M1858.32 438.099C1855.02 436.728 1850.81 437.937 1847.85 435.615C1841 427.893 1847.17 418.428 1857.75 416.735C1859.88 417.616 1862.01 418.523 1863.83 420.273C1867.72 428.17 1863.59 433.33 1858.32 438.099ZM1856.86 418.254C1850.12 420.377 1846.22 424.232 1846.62 429.72C1847.89 428.132 1849.11 431.212 1850.75 431.498C1850.34 429.805 1847.81 428.849 1848.63 427.121C1850.2 427.507 1851.16 429.63 1852.29 431.293C1854.59 432.02 1857.9 429.895 1859.49 432.66C1855.77 434.945 1853.77 432.286 1850.96 431.935C1852.07 436.04 1857.95 433.074 1857.03 436.563C1864.63 432.757 1866.05 420.255 1856.86 418.254ZM1852.24 434.561C1850.75 434.295 1849.84 432.389 1848.33 432.132C1848.86 434.533 1851.55 436.181 1852.24 434.561Z" fill="#FDFEFF" fill-opacity="0.16"/>
<path fill-rule="evenodd" clip-rule="evenodd" d="M1851.09 423.218C1853.04 422.517 1853.69 425.537 1854.98 426.738C1853.26 426.805 1852.06 425.36 1851.09 423.218Z" fill="#FDFEFF" fill-opacity="0.16"/>
<path fill-rule="evenodd" clip-rule="evenodd" d="M1857.63 425.452C1857.14 426.502 1857.52 427.849 1857.14 428.936C1855.93 427.427 1855.2 422.935 1856.6 421.085C1857.73 422.811 1857.01 423.904 1857.63 425.452Z" fill="#FDFEFF" fill-opacity="0.16"/>
<path fill-rule="evenodd" clip-rule="evenodd" d="M1849.52 425.604C1851.85 424.878 1852.36 429.341 1854.51 429.132C1853.05 431.554 1850.63 427.747 1849.52 425.604Z" fill="#FDFEFF" fill-opacity="0.16"/>
<path fill-rule="evenodd" clip-rule="evenodd" d="M1859.62 423.943C1859.22 424.048 1859.28 424.312 1859.39 424.595C1859.24 424.666 1859.1 424.737 1858.95 424.809C1859.28 425.257 1859.51 424.832 1859.39 424.595C1859.82 424.498 1859.73 424.225 1859.62 423.943C1860.18 423.648 1859.95 423.083 1860.73 422.862C1860.94 424.653 1861.52 426.537 1859.79 427.649C1859.47 427.147 1859.15 426.672 1858.48 427.202C1858.19 426.619 1857.91 426.035 1857.63 425.452C1859.14 424.266 1856.68 421.721 1859.23 420.888C1859.98 422.12 1858.89 422.72 1859.62 423.943Z" fill="#FDFEFF" fill-opacity="0.16"/>
</g>
<path d="M245.555 251.211C243.317 250.316 241.156 250.221 238.703 249.882C235.277 249.217 234.501 249.548 232.768 252.508C232.07 253.639 231.638 254.748 231.353 255.98C230.549 260.208 230.907 263.94 234.659 266.593C235.975 267.696 237.292 268.799 239.186 268.915C241.76 269.111 244.257 268.507 246.609 267.781C247.263 267.594 247.625 267.162 247.987 266.73C250.305 264.26 250.678 261.141 250.25 258.086C249.969 255.154 248.912 252.552 245.555 251.211ZM233.251 261.737C233.88 261.283 234.224 262.061 234.516 262.306C236.074 263.121 237.175 264.779 239.336 264.874C240.283 264.932 240.893 265.689 239.902 266.574C239.05 266.105 238.198 265.637 237.372 265.435C235.065 265.217 233.723 263.848 233.251 261.737ZM236.41 262.423C236.41 262.423 236.505 262.012 236.772 261.991C237.961 261.761 238.184 262.683 239.208 263.541C237.58 263.403 236.875 263.057 236.41 262.423ZM243.57 266.951C243.526 267.894 242.286 267.591 241.365 267.8C240.444 268.008 239.566 267.273 238.524 267.625C238.688 266.537 239.687 267.129 239.782 266.718C240.341 266.942 240.824 266.366 241.358 266.323C242.305 266.381 243.468 265.884 243.57 266.951ZM234.578 260.152C234.242 260.851 232.977 260.281 232.831 260.159C232.366 259.525 231.755 258.768 232.479 257.904C232.962 257.328 233.16 257.983 233.719 258.207C233.917 258.863 235.156 259.166 234.578 260.152ZM248.049 254.771C248.272 255.693 248.375 256.759 247.504 257.501C247.702 258.157 247.175 259.676 248.821 258.604L249.088 258.582C250.016 259.851 249.077 261.269 249.058 262.48C249.161 263.546 248.188 263.221 247.285 262.219C247.921 263.243 249.04 263.69 248.462 264.677C247.885 265.663 247.014 266.405 245.921 266.224C245.095 266.022 244.096 265.431 243.632 264.797C243.168 264.162 243.797 263.709 244.451 263.522C245.106 263.335 245.175 262.658 245.416 262.37C246.502 261.074 245.943 260.85 244.678 260.28C243.851 260.078 242.948 259.076 244.034 257.78C242.992 258.132 241.347 259.205 242.451 256.699C242.546 256.288 242.495 255.755 241.961 255.798C241.281 255.718 241.599 256.23 241.625 256.496C241.244 258.139 240.056 258.369 238.981 256.978C238.224 256.098 237.613 255.342 236.494 254.894C237.328 256.573 238.886 257.388 239.599 259.211C239.943 259.99 241.233 260.826 242.111 261.561C243.866 263.032 243.987 262.888 241.833 264.27C241.127 263.924 241.756 263.47 241.851 263.06C241.672 261.194 238.761 261.696 239.091 259.521C236.663 259.448 237.112 257.128 236.037 255.737C235.865 255.348 236.176 254.383 235.522 254.57C234.988 254.613 234.918 255.29 234.995 256.09C235.072 256.889 235.416 257.667 235.639 258.59C233.986 258.185 233.953 256.442 232.809 255.728C232.662 255.606 232.49 255.217 232.757 255.195C233.748 254.309 233.302 252.465 234.293 251.579C234.655 251.147 235.163 250.838 235.602 251.205C236.187 251.696 235.412 252.027 235.171 252.315C235.489 252.826 235.756 252.805 236.264 252.495C237.909 251.423 239.924 251.395 241.939 251.367C242.74 251.303 243.032 251.548 242.696 252.247C242.601 252.657 242.626 252.924 242.919 253.169C243.332 253.27 243.599 253.248 243.84 252.96C244.031 252.139 244.513 251.563 245.365 252.032C246.389 252.89 247.896 253.171 248.049 254.771ZM244.074 261C244.221 261.123 244.367 261.245 244.393 261.512C243.738 261.699 243.299 261.331 243.394 260.921C243.343 260.388 243.808 261.022 244.074 261Z" fill="white" fill-opacity="0.16"/>
<path d="M246.233 255.454C245.527 255.108 245.191 255.807 244.829 256.239C245.388 256.462 246.043 256.275 246.482 256.643C246.844 256.211 246.646 255.555 246.233 255.454Z" fill="white" fill-opacity="0.16"/>
<path d="M244.708 256.383C244.829 256.239 244.829 256.239 244.708 256.383V256.383Z" fill="white" fill-opacity="0.16"/>
<path d="M238.934 252.28C238.814 252.424 238.839 252.691 238.865 252.958C239.329 253.592 239.958 253.138 240.466 252.829C240.028 252.461 239.709 251.949 238.934 252.28Z" fill="white" fill-opacity="0.16"/>
<path d="M246.628 256.765C245.732 257.24 246.196 257.875 246.635 258.242C247.074 258.61 247.29 258.055 247.385 257.645C247.333 257.112 247.041 256.866 246.628 256.765Z" fill="white" fill-opacity="0.16"/>
<path d="M237.366 254.153C237.486 254.009 237.486 254.009 237.366 254.153L237.34 253.886L237.073 253.908C237.219 254.03 237.219 254.03 237.366 254.153C236.832 254.196 236.59 254.484 236.495 254.894C237.029 254.851 237.124 254.441 237.366 254.153Z" fill="white" fill-opacity="0.16"/>
<path d="M234.663 252.624C234.784 252.48 234.784 252.48 234.905 252.336C234.905 252.336 234.784 252.48 234.663 252.624C234.784 252.48 234.784 252.48 234.663 252.624Z" fill="white" fill-opacity="0.16"/>
<path d="M235.051 252.459C235.172 252.315 235.172 252.315 235.051 252.459V252.459Z" fill="white" fill-opacity="0.16"/>
<path d="M260.699 312.712C258.461 311.818 256.3 311.723 253.846 311.383C250.42 310.718 249.645 311.049 247.912 314.009C247.213 315.14 246.782 316.249 246.497 317.481C245.692 321.709 246.051 325.441 249.802 328.094C251.119 329.197 252.435 330.3 254.329 330.416C256.904 330.612 259.401 330.008 261.752 329.282C262.407 329.095 262.769 328.663 263.131 328.231C265.449 325.761 265.822 322.642 265.394 319.587C265.112 316.655 264.056 314.054 260.699 312.712ZM248.395 323.238C249.024 322.784 249.367 323.563 249.66 323.808C251.218 324.623 252.318 326.28 254.479 326.375C255.426 326.433 256.037 327.19 255.046 328.075C254.194 327.607 253.342 327.138 252.516 326.936C250.208 326.719 248.866 325.349 248.395 323.238ZM251.554 323.924C251.554 323.924 251.649 323.513 251.916 323.492C253.104 323.262 253.327 324.184 254.351 325.042C252.724 324.904 252.018 324.558 251.554 323.924ZM258.714 328.452C258.67 329.396 257.43 329.092 256.509 329.301C255.587 329.509 254.71 328.774 253.667 329.127C253.832 328.039 254.83 328.63 254.925 328.219C255.485 328.443 255.967 327.867 256.501 327.824C257.448 327.882 258.611 327.386 258.714 328.452ZM249.722 321.654C249.386 322.352 248.12 321.783 247.974 321.66C247.51 321.026 246.899 320.269 247.623 319.405C248.106 318.829 248.303 319.485 248.863 319.708C249.06 320.364 250.3 320.667 249.722 321.654ZM263.193 316.272C263.416 317.194 263.518 318.261 262.648 319.002C262.845 319.658 262.319 321.178 263.964 320.105L264.231 320.084C265.16 321.352 264.22 322.771 264.202 323.981C264.304 325.047 263.332 324.723 262.429 323.721C263.065 324.744 264.184 325.191 263.606 326.178C263.028 327.165 262.158 327.906 261.065 327.726C260.238 327.523 259.24 326.932 258.776 326.298C258.311 325.664 258.94 325.21 259.595 325.023C260.249 324.836 260.319 324.159 260.56 323.871C261.646 322.575 261.087 322.351 259.821 321.782C258.995 321.579 258.092 320.578 259.178 319.281C258.136 319.634 256.49 320.706 257.595 318.2C257.69 317.789 257.638 317.256 257.105 317.299C256.424 317.22 256.743 317.731 256.768 317.998C256.388 319.64 255.199 319.87 254.124 318.479C253.368 317.6 252.757 316.843 251.638 316.396C252.472 318.075 254.029 318.89 254.742 320.713C255.086 321.491 256.377 322.327 257.255 323.063C259.01 324.533 259.13 324.389 256.977 325.771C256.271 325.425 256.9 324.971 256.995 324.561C256.816 322.695 253.905 323.198 254.234 321.022C251.806 320.949 252.256 318.629 251.181 317.238C251.009 316.849 251.32 315.884 250.665 316.071C250.131 316.114 250.062 316.791 250.139 317.591C250.216 318.391 250.559 319.169 250.782 320.091C249.13 319.687 249.097 317.943 247.952 317.23C247.806 317.107 247.634 316.718 247.901 316.696C248.892 315.811 248.446 313.966 249.437 313.081C249.799 312.649 250.307 312.339 250.746 312.707C251.331 313.197 250.556 313.528 250.314 313.816C250.632 314.328 250.899 314.306 251.408 313.997C253.053 312.924 255.068 312.896 257.083 312.869C257.883 312.804 258.176 313.049 257.839 313.748C257.744 314.158 257.77 314.425 258.063 314.67C258.476 314.771 258.743 314.75 258.984 314.462C259.174 313.641 259.657 313.064 260.509 313.533C261.533 314.391 263.039 314.673 263.193 316.272ZM259.218 322.502C259.364 322.624 259.511 322.747 259.536 323.013C258.882 323.2 258.443 322.833 258.538 322.422C258.487 321.889 258.951 322.523 259.218 322.502Z" fill="white" fill-opacity="0.16"/>
<path d="M261.376 316.955C260.671 316.609 260.334 317.308 259.972 317.74C260.532 317.964 261.186 317.777 261.625 318.144C261.987 317.712 261.79 317.057 261.376 316.955Z" fill="white" fill-opacity="0.16"/>
<path d="M259.852 317.884C259.972 317.74 259.972 317.74 259.852 317.884V317.884Z" fill="white" fill-opacity="0.16"/>
<path d="M254.078 313.782C253.957 313.926 253.983 314.192 254.008 314.459C254.473 315.093 255.102 314.64 255.61 314.33C255.171 313.962 254.853 313.451 254.078 313.782Z" fill="white" fill-opacity="0.16"/>
<path d="M261.771 318.267C260.875 318.742 261.34 319.376 261.779 319.744C262.217 320.111 262.433 319.557 262.528 319.146C262.477 318.613 262.185 318.368 261.771 318.267Z" fill="white" fill-opacity="0.16"/>
<path d="M252.509 315.654C252.63 315.51 252.63 315.51 252.509 315.654L252.484 315.388L252.217 315.409C252.363 315.532 252.363 315.532 252.509 315.654C251.975 315.697 251.734 315.985 251.639 316.396C252.173 316.353 252.268 315.942 252.509 315.654Z" fill="white" fill-opacity="0.16"/>
<path d="M249.807 314.125C249.928 313.981 249.928 313.981 250.048 313.837C250.048 313.837 249.928 313.981 249.807 314.125C249.928 313.981 249.928 313.981 249.807 314.125Z" fill="white" fill-opacity="0.16"/>
<path d="M250.195 313.96C250.315 313.816 250.315 313.816 250.195 313.96V313.96Z" fill="white" fill-opacity="0.16"/>
<path d="M291.677 228.948C290.31 228.409 288.986 228.362 287.484 228.166C285.387 227.775 284.91 227.982 283.832 229.811C283.399 230.509 283.128 231.193 282.947 231.952C282.433 234.556 282.633 236.848 284.92 238.46C285.721 239.132 286.522 239.803 287.682 239.865C289.259 239.972 290.793 239.588 292.238 239.13C292.64 239.011 292.864 238.744 293.089 238.476C294.522 236.946 294.767 235.027 294.52 233.151C294.362 231.35 293.728 229.756 291.677 228.948ZM284.081 235.482C284.469 235.2 284.676 235.677 284.854 235.826C285.805 236.319 286.471 237.332 287.795 237.379C288.375 237.41 288.746 237.872 288.134 238.422C287.614 238.138 287.094 237.854 286.588 237.734C285.175 237.612 284.36 236.777 284.081 235.482ZM286.014 235.888C286.014 235.888 286.075 235.635 286.238 235.62C286.968 235.473 287.1 236.038 287.723 236.561C286.727 236.484 286.296 236.275 286.014 235.888ZM290.38 238.635C290.348 239.215 289.59 239.035 289.024 239.168C288.458 239.301 287.924 238.853 287.283 239.075C287.39 238.406 287.999 238.764 288.059 238.511C288.401 238.646 288.7 238.289 289.027 238.26C289.607 238.291 290.323 237.98 290.38 238.635ZM284.903 234.501C284.693 234.932 283.921 234.589 283.832 234.514C283.55 234.126 283.18 233.664 283.628 233.129C283.927 232.773 284.044 233.175 284.386 233.309C284.504 233.712 285.262 233.892 284.903 234.501ZM293.188 231.124C293.32 231.69 293.377 232.345 292.84 232.805C292.957 233.207 292.627 234.144 293.641 233.476L293.805 233.462C294.367 234.237 293.784 235.114 293.767 235.858C293.824 236.513 293.23 236.318 292.681 235.707C293.066 236.333 293.75 236.602 293.39 237.212C293.031 237.821 292.494 238.282 291.825 238.176C291.319 238.056 290.71 237.698 290.429 237.31C290.147 236.923 290.535 236.641 290.937 236.522C291.34 236.404 291.386 235.987 291.535 235.809C292.207 235.007 291.866 234.872 291.093 234.528C290.587 234.408 290.039 233.797 290.711 232.994C290.071 233.216 289.057 233.884 289.746 232.338C289.807 232.085 289.778 231.757 289.45 231.786C289.034 231.741 289.226 232.054 289.241 232.218C288.999 233.229 288.27 233.377 287.618 232.527C287.158 231.99 286.788 231.528 286.104 231.259C286.607 232.287 287.557 232.78 287.985 233.897C288.192 234.374 288.979 234.881 289.513 235.329C290.581 236.224 290.656 236.135 289.329 236.995C288.898 236.786 289.286 236.504 289.346 236.251C289.246 235.105 287.459 235.429 287.672 234.09C286.184 234.057 286.472 232.629 285.82 231.779C285.716 231.541 285.912 230.946 285.51 231.064C285.182 231.093 285.136 231.51 285.179 232.001C285.222 232.492 285.429 232.969 285.561 233.535C284.55 233.295 284.539 232.223 283.841 231.79C283.752 231.716 283.648 231.477 283.812 231.463C284.424 230.913 284.16 229.782 284.772 229.232C284.996 228.965 285.309 228.772 285.576 228.996C285.932 229.294 285.455 229.501 285.306 229.68C285.498 229.993 285.662 229.978 285.975 229.785C286.989 229.117 288.224 229.09 289.46 229.063C289.951 229.019 290.129 229.168 289.919 229.599C289.859 229.852 289.873 230.016 290.051 230.165C290.304 230.225 290.468 230.211 290.617 230.032C290.738 229.527 291.036 229.17 291.556 229.454C292.18 229.976 293.102 230.141 293.188 231.124ZM290.719 234.974C290.808 235.049 290.898 235.123 290.912 235.287C290.51 235.405 290.243 235.181 290.303 234.929C290.274 234.601 290.556 234.989 290.719 234.974Z" fill="white" fill-opacity="0.16"/>
<path d="M292.072 231.553C291.641 231.344 291.431 231.775 291.207 232.043C291.549 232.177 291.951 232.059 292.218 232.283C292.442 232.015 292.325 231.613 292.072 231.553Z" fill="white" fill-opacity="0.16"/>
<path d="M291.132 232.132C291.207 232.043 291.207 232.043 291.132 232.132V232.132Z" fill="white" fill-opacity="0.16"/>
<path d="M287.614 229.639C287.54 229.728 287.554 229.892 287.568 230.056C287.85 230.443 288.237 230.161 288.551 229.969C288.283 229.745 288.091 229.432 287.614 229.639Z" fill="white" fill-opacity="0.16"/>
<path d="M292.307 232.357C291.756 232.654 292.037 233.041 292.304 233.265C292.571 233.489 292.706 233.147 292.767 232.894C292.738 232.567 292.56 232.417 292.307 232.357Z" fill="white" fill-opacity="0.16"/>
<path d="M286.643 230.798C286.718 230.709 286.718 230.709 286.643 230.798L286.629 230.635L286.465 230.649C286.554 230.724 286.554 230.724 286.643 230.798C286.316 230.827 286.166 231.006 286.106 231.259C286.433 231.23 286.494 230.977 286.643 230.798Z" fill="white" fill-opacity="0.16"/>
<path d="M284.995 229.872C285.069 229.783 285.069 229.783 285.144 229.694C285.144 229.694 285.069 229.783 284.995 229.872C285.069 229.783 285.069 229.783 284.995 229.872Z" fill="white" fill-opacity="0.16"/>
<path d="M285.233 229.769C285.308 229.679 285.308 229.679 285.233 229.769V229.769Z" fill="white" fill-opacity="0.16"/>
<defs>
<clipPath id="clip0_425_85508">
<rect width="125.607" height="75.0756" fill="white" transform="translate(1724 419.894) rotate(-25.9141)"/>
</clipPath>
</defs>
</svg>
