<svg width="14" height="14" viewBox="0 0 14 14" fill="none" xmlns="http://www.w3.org/2000/svg">
<path d="M2.70703 6.33594C3.80859 8.51562 5.46094 10.168 7.66406 11.293L9.31641 9.64062C9.52734 9.40625 9.78516 9.34766 10.0898 9.46484C10.9336 9.74609 11.8242 9.88672 12.7617 9.88672C12.9492 9.88672 13.1133 9.95703 13.2539 10.0977C13.418 10.2383 13.5 10.4141 13.5 10.625V13.2617C13.5 13.4492 13.418 13.625 13.2539 13.7891C13.1133 13.9297 12.9492 14 12.7617 14C10.4414 14 8.29688 13.4375 6.32812 12.3125C4.38281 11.1641 2.83594 9.61719 1.6875 7.67188C0.5625 5.70312 0 3.55859 0 1.23828C0 1.05078 0.0703125 0.886719 0.210938 0.746094C0.375 0.582031 0.550781 0.5 0.738281 0.5H3.375C3.58594 0.5 3.76172 0.582031 3.90234 0.746094C4.04297 0.886719 4.11328 1.05078 4.11328 1.23828C4.11328 2.17578 4.25391 3.06641 4.53516 3.91016C4.62891 4.21484 4.57031 4.47266 4.35938 4.68359L2.70703 6.33594Z" fill="url(#paint0_linear_46_401)"/>
<defs>
<linearGradient id="paint0_linear_46_401" x1="6.46154" y1="-6" x2="6.46154" y2="28" gradientUnits="userSpaceOnUse">
<stop offset="0.161458" stop-color="#FFD692"/>
<stop offset="0.859375" stop-color="#F0B45B"/>
</linearGradient>
</defs>
</svg>
