<svg width="16" height="13" viewBox="0 0 16 13" fill="none" xmlns="http://www.w3.org/2000/svg">
<path d="M13.5 0.238281C13.9219 0.238281 14.2734 0.390625 14.5547 0.695312C14.8594 0.976562 15.0117 1.32812 15.0117 1.75V10.75C15.0117 11.1719 14.8594 11.5352 14.5547 11.8398C14.2734 12.1211 13.9219 12.2617 13.5 12.2617H1.51172C1.08984 12.2617 0.726562 12.1211 0.421875 11.8398C0.140625 11.5352 0 11.1719 0 10.75V1.75C0 1.32812 0.140625 0.976562 0.421875 0.695312C0.726562 0.390625 1.08984 0.238281 1.51172 0.238281H13.5ZM13.5 3.26172V1.75L7.48828 5.51172L1.51172 1.75V3.26172L7.48828 6.98828L13.5 3.26172Z" fill="url(#paint0_linear_46_404)"/>
<defs>
<linearGradient id="paint0_linear_46_404" x1="6.46154" y1="-7" x2="6.46154" y2="27" gradientUnits="userSpaceOnUse">
<stop offset="0.161458" stop-color="#FFD692"/>
<stop offset="0.859375" stop-color="#F0B45B"/>
</linearGradient>
</defs>
</svg>
