<svg width="11" height="16" viewBox="0 0 11 16" fill="none" xmlns="http://www.w3.org/2000/svg">
<path d="M1.51172 2.30859C2.54297 1.27734 3.78516 0.761719 5.23828 0.761719C6.69141 0.761719 7.93359 1.27734 8.96484 2.30859C9.99609 3.31641 10.5117 4.54688 10.5117 6C10.5117 6.72656 10.3242 7.57031 9.94922 8.53125C9.59766 9.46875 9.16406 10.3477 8.64844 11.168C8.13281 11.9648 7.61719 12.7266 7.10156 13.4531C6.58594 14.1562 6.15234 14.7188 5.80078 15.1406L5.23828 15.7383C5.09766 15.5977 4.91016 15.3867 4.67578 15.1055C4.44141 14.8242 4.01953 14.2852 3.41016 13.4883C2.82422 12.668 2.29688 11.8828 1.82812 11.1328C1.35938 10.3594 0.9375 9.49219 0.5625 8.53125C0.1875 7.57031 0 6.72656 0 6C0 4.54688 0.503906 3.31641 1.51172 2.30859ZM3.90234 7.33594C4.27734 7.6875 4.72266 7.86328 5.23828 7.86328C5.75391 7.86328 6.19922 7.6875 6.57422 7.33594C6.94922 6.96094 7.13672 6.51562 7.13672 6C7.13672 5.48438 6.94922 5.05078 6.57422 4.69922C6.19922 4.32422 5.75391 4.13672 5.23828 4.13672C4.72266 4.13672 4.27734 4.32422 3.90234 4.69922C3.55078 5.05078 3.375 5.48438 3.375 6C3.375 6.51562 3.55078 6.96094 3.90234 7.33594Z" fill="url(#paint0_linear_46_395)"/>
<defs>
<linearGradient id="paint0_linear_46_395" x1="6.46154" y1="-5" x2="6.46154" y2="29" gradientUnits="userSpaceOnUse">
<stop offset="0.161458" stop-color="#FFD692"/>
<stop offset="0.859375" stop-color="#F0B45B"/>
</linearGradient>
</defs>
</svg>
